<svg width="142" height="136" viewBox="0 0 142 136" fill="none" xmlns="http://www.w3.org/2000/svg">
<path d="M39 21.9997C39 26.9703 43.0294 30.9997 48 30.9997C52.9706 30.9997 57 26.9703 57 21.9997H64C64 26.9703 68.0294 30.9997 73 30.9997C77.9706 30.9997 82 26.9703 82 21.9997H89C89 26.9703 93.0294 30.9997 98 30.9997C102.971 30.9997 107 26.9703 107 21.9997H114C114 26.9703 118.029 30.9997 123 30.9997V37.9997C118.029 37.9997 114 42.0292 114 46.9997C114 51.9703 118.029 55.9997 123 55.9997V62.9997C118.029 62.9997 114 67.0292 114 71.9997C114 76.9703 118.029 80.9997 123 80.9997V87.9997C118.029 87.9997 114 92.0292 114 96.9997C114 101.97 118.029 106 123 106V113C118.029 113 114 117.029 114 122H107C107 117.029 102.971 113 98 113C93.0294 113 89 117.029 89 122H82C82 117.029 77.9706 113 73 113C68.0294 113 64 117.029 64 122H57C57 117.029 52.9706 113 48 113C43.0294 113 39 117.029 39 122H32C32 117.029 27.9706 113 23 113V106C27.9706 106 32 101.97 32 96.9997C32 92.0292 27.9706 87.9997 23 87.9997V80.9997C27.9706 80.9997 32 76.9703 32 71.9997C32 67.0292 27.9706 62.9997 23 62.9997V55.9997C27.9706 55.9997 32 51.9703 32 46.9997C32 42.0292 27.9706 37.9997 23 37.9997V30.9997C27.9706 30.9997 32 26.9703 32 21.9997H39Z" fill="#F9F8F6" stroke="#190A03" stroke-width="2" stroke-linejoin="round"/>
<path d="M111.505 67.6216C113.982 65.0486 118.076 64.9708 120.649 67.4479C123.222 69.9252 123.3 74.0192 120.823 76.5923C120.823 76.5923 97.6891 95.9168 97.8865 100.414C98.084 104.911 125.356 93.6744 125.356 93.6744C128.825 92.823 132.328 94.9449 133.179 98.4137C134.031 101.883 131.909 105.385 128.44 106.237C128.44 106.237 98.7121 107.541 83.4724 117.273C82.3119 118.014 81.7964 118.662 80.5483 119.243C77.3102 120.752 73.9753 121.893 71.4027 119.415C68.8309 116.937 68.7535 112.843 71.2308 110.271C71.2308 110.271 71.9376 109.473 72.4421 109.015C72.9377 108.565 73.3315 108.329 73.7834 107.948C86.8182 96.9465 75.6385 64.3105 75.6385 64.3105C75.7902 60.742 78.8053 57.9727 82.3737 58.1242C85.9423 58.2758 88.7133 61.2914 88.5617 64.86C88.5617 64.86 85.1821 91.3256 87.3767 92.6786C89.5714 94.0316 111.505 67.6216 111.505 67.6216Z" fill="#190A03"/>
<path d="M57.7024 18.5256C57.9216 14.9606 55.2094 11.8927 51.6445 11.6734C48.0795 11.4542 45.0116 14.1662 44.7924 17.7313C44.7924 17.7313 46.2092 47.8411 42.7635 50.7379C39.3178 53.6346 29.1449 25.9477 29.1449 25.9477C27.4255 22.817 23.4933 21.6727 20.3626 23.3921C17.232 25.1116 16.0876 29.0438 17.8071 32.1745C17.8071 32.1745 36.956 54.9511 40.0973 72.7583C40.3365 74.1142 40.2086 74.9319 40.6246 76.2444C41.7039 79.6496 43.1198 82.8774 46.6849 83.0959C50.2494 83.3139 53.3167 80.6017 53.5355 77.0372C53.5355 77.0372 53.6448 75.977 53.6409 75.2956C53.637 74.6262 53.5443 74.1767 53.5195 73.5858C52.8045 56.5439 84.4029 42.7008 84.4029 42.7008C86.9284 40.1752 86.9283 36.0813 84.4029 33.5556C81.8773 31.03 77.7818 31.0291 75.2562 33.5548C75.2562 33.5548 58.051 53.9466 55.5699 53.2455C53.0888 52.5444 57.7024 18.5256 57.7024 18.5256Z" fill="#190A03"/>
</svg>
