<svg width="142" height="136" viewBox="0 0 142 136" fill="none" xmlns="http://www.w3.org/2000/svg">
<path d="M124 37.9997C124 38.552 123.552 38.9997 123 38.9997C118.582 38.9997 115 42.5815 115 46.9997C115 51.418 118.582 54.9997 123 54.9997C123.552 54.9997 124 55.4475 124 55.9997V62.9997C124 63.552 123.552 63.9997 123 63.9997C118.582 63.9997 115 67.5815 115 71.9997C115 76.418 118.582 79.9997 123 79.9997C123.552 79.9997 124 80.4475 124 80.9997V87.9997C124 88.552 123.552 88.9997 123 88.9997C118.582 88.9997 115 92.5815 115 96.9997C115 101.418 118.582 105 123 105C123.552 105 124 105.447 124 106V113C124 113.552 123.552 114 123 114C118.582 114 115 117.581 115 122C115 122.552 114.552 123 114 123H107C106.448 123 106 122.552 106 122C106 117.581 102.418 114 98 114C93.5817 114 90 117.581 90 122C90 122.552 89.5523 123 89 123H82C81.4477 123 81 122.552 81 122C81 117.581 77.4183 114 73 114C68.5817 114 65 117.581 65 122C65 122.552 64.5523 123 64 123H57C56.4477 123 56 122.552 56 122C56 117.581 52.4183 114 48 114C43.5817 114 40 117.581 40 122C40 122.552 39.5523 123 39 123H32C31.4477 123 31 122.552 31 122C31 117.581 27.4183 114 23 114C22.4477 114 22 113.552 22 113V106C22 105.447 22.4477 105 23 105C27.4183 105 31 101.418 31 96.9997C31 92.5815 27.4183 88.9997 23 88.9997C22.4477 88.9997 22 88.552 22 87.9997V80.9997C22 80.4475 22.4477 79.9997 23 79.9997C27.4183 79.9997 31 76.418 31 71.9997C31 67.5815 27.4183 63.9997 23 63.9997C22.4477 63.9997 22 63.552 22 62.9997V55.9997C22 55.4475 22.4477 54.9997 23 54.9997C27.4183 54.9997 31 51.418 31 46.9997C31 42.5815 27.4183 38.9997 23 38.9997C22.4477 38.9997 22 38.552 22 37.9997V30.9997C22 30.4475 22.4477 29.9997 23 29.9997C27.4183 29.9997 31 26.418 31 21.9997C31 21.4475 31.4477 20.9997 32 20.9997H39C39.5523 20.9997 40 21.4475 40 21.9997C40 26.418 43.5817 29.9997 48 29.9997C52.4183 29.9997 56 26.418 56 21.9997C56 21.4475 56.4477 20.9997 57 20.9997H64C64.5523 20.9997 65 21.4475 65 21.9997C65 26.418 68.5817 29.9997 73 29.9997C77.4183 29.9997 81 26.418 81 21.9997C81 21.4475 81.4477 20.9997 82 20.9997H89C89.5523 20.9997 90 21.4475 90 21.9997C90 26.418 93.5817 29.9997 98 29.9997C102.418 29.9997 106 26.418 106 21.9997C106 21.4475 106.448 20.9997 107 20.9997H114C114.552 20.9997 115 21.4475 115 21.9997C115 26.418 118.582 29.9997 123 29.9997C123.552 29.9997 124 30.4475 124 30.9997V37.9997Z" fill="#190A03" stroke="#F9F8F6" stroke-width="2" stroke-linejoin="round"/>
<path d="M111.505 67.6216C113.982 65.0486 118.076 64.9708 120.649 67.4479C123.222 69.9252 123.3 74.0193 120.823 76.5923C120.823 76.5923 97.6891 95.9168 97.8865 100.414C98.084 104.911 125.356 93.6744 125.356 93.6744C128.825 92.823 132.328 94.9449 133.179 98.4138C134.031 101.883 131.909 105.385 128.44 106.237C128.44 106.237 98.7121 107.541 83.4724 117.273C82.3119 118.015 81.7964 118.662 80.5483 119.243C77.3102 120.752 73.9753 121.893 71.4027 119.415C68.8309 116.937 68.7535 112.843 71.2308 110.271C71.2308 110.271 71.9376 109.473 72.4421 109.015C72.9377 108.565 73.3315 108.329 73.7834 107.948C86.8182 96.9465 75.6385 64.3105 75.6385 64.3105C75.7902 60.742 78.8053 57.9727 82.3737 58.1242C85.9423 58.2758 88.7133 61.2914 88.5617 64.86C88.5617 64.86 85.1821 91.3256 87.3767 92.6786C89.5714 94.0316 111.505 67.6216 111.505 67.6216Z" fill="#F9F8F6"/>
<path d="M57.7029 18.5256C57.9221 14.9606 55.2099 11.8927 51.645 11.6734C48.08 11.4542 45.012 14.1662 44.7928 17.7313C44.7928 17.7313 46.2097 47.8411 42.764 50.7379C39.3183 53.6346 29.1454 25.9477 29.1454 25.9477C27.426 22.817 23.4938 21.6727 20.3631 23.3921C17.2325 25.1116 16.0881 29.0438 17.8076 32.1745C17.8076 32.1745 36.9565 54.9511 40.0978 72.7583C40.337 74.1142 40.209 74.9319 40.6251 76.2444C41.7044 79.6496 43.1203 82.8774 46.6854 83.0959C50.2499 83.3139 53.3172 80.6017 53.536 77.0371C53.536 77.0371 53.6453 75.977 53.6413 75.2956C53.6375 74.6262 53.5448 74.1767 53.52 73.5858C52.805 56.5439 84.4034 42.7008 84.4034 42.7008C86.9289 40.1752 86.9288 36.0813 84.4034 33.5556C81.8777 31.03 77.7823 31.0291 75.2567 33.5548C75.2567 33.5548 58.0514 53.9466 55.5704 53.2455C53.0893 52.5444 57.7029 18.5256 57.7029 18.5256Z" fill="#F9F8F6"/>
<path d="M111.505 67.6216C113.982 65.0486 118.076 64.9708 120.649 67.4479C123.222 69.9252 123.3 74.0193 120.823 76.5923C120.823 76.5923 97.6891 95.9168 97.8865 100.414C98.084 104.911 125.356 93.6744 125.356 93.6744C128.825 92.823 132.328 94.9449 133.179 98.4138C134.031 101.883 131.909 105.385 128.44 106.237C128.44 106.237 98.7121 107.541 83.4724 117.273C82.3119 118.015 81.7964 118.662 80.5483 119.243C77.3102 120.752 73.9753 121.893 71.4027 119.415C68.8309 116.937 68.7535 112.843 71.2308 110.271C71.2308 110.271 71.9376 109.473 72.4421 109.015C72.9377 108.565 73.3315 108.329 73.7834 107.948C86.8182 96.9465 75.6385 64.3105 75.6385 64.3105C75.7902 60.742 78.8053 57.9727 82.3737 58.1242C85.9423 58.2758 88.7133 61.2914 88.5617 64.86C88.5617 64.86 85.1821 91.3256 87.3767 92.6786C89.5714 94.0316 111.505 67.6216 111.505 67.6216Z" fill="#F9F8F6"/>
<path d="M57.7024 18.5256C57.9216 14.9606 55.2094 11.8927 51.6445 11.6734C48.0795 11.4542 45.0116 14.1662 44.7924 17.7313C44.7924 17.7313 46.2092 47.8411 42.7635 50.7379C39.3178 53.6346 29.1449 25.9477 29.1449 25.9477C27.4255 22.817 23.4933 21.6727 20.3626 23.3921C17.232 25.1116 16.0876 29.0438 17.8071 32.1745C17.8071 32.1745 36.956 54.9511 40.0973 72.7583C40.3365 74.1142 40.2086 74.9319 40.6246 76.2444C41.7039 79.6496 43.1198 82.8774 46.6849 83.0959C50.2494 83.3139 53.3167 80.6017 53.5355 77.0371C53.5355 77.0371 53.6448 75.977 53.6409 75.2956C53.637 74.6262 53.5443 74.1767 53.5195 73.5858C52.8045 56.5439 84.4029 42.7008 84.4029 42.7008C86.9284 40.1752 86.9283 36.0813 84.4029 33.5556C81.8773 31.03 77.7818 31.0291 75.2562 33.5548C75.2562 33.5548 58.051 53.9466 55.5699 53.2455C53.0888 52.5444 57.7024 18.5256 57.7024 18.5256Z" fill="#F9F8F6"/>
</svg>
