<svg width="142" height="138" viewBox="0 0 142 138" fill="none" xmlns="http://www.w3.org/2000/svg">
<path d="M115.8 83.755C119.025 81.2862 129.53 79.1029 132.049 82.2633C134.569 85.4239 128.15 92.7313 124.924 95.2002C124.924 95.2002 95.5614 113.027 95.06 118.057C94.5587 123.088 127.313 114.906 127.313 114.906C131.386 114.508 141.282 116.69 141.689 120.68C142.095 124.671 132.858 128.961 128.785 129.359C128.785 129.359 94.8471 126.111 75.9873 134.521C74.5512 135.162 73.8619 135.8 72.3521 136.249C68.4351 137.415 64.4675 138.155 61.9484 134.994C59.4303 131.833 60.0028 127.27 63.2282 124.802C63.2282 124.802 64.1589 124.027 64.8051 123.598C65.44 123.176 65.9247 122.976 66.499 122.623C83.0619 112.453 75.6421 74.4057 75.6421 74.4057C76.3898 70.4627 78.9322 62.4312 82.9563 63.1636C86.9805 63.8962 90.9629 73.1159 90.2153 77.059C90.2153 77.059 82.1123 105.946 84.384 107.797C86.6557 109.648 115.8 83.755 115.8 83.755Z" fill="#F9F8F6"/>
<path d="M48.8601 16.3142C49.1113 12.3113 45.8372 0.250128 41.752 0.00383758C37.6667 -0.242296 34.3171 11.4193 34.0659 15.4223C34.0659 15.4223 35.6896 49.2312 31.741 52.4839C27.7924 55.7365 16.1348 24.6481 16.1348 24.6481C14.1644 21.1328 5.23143 15.4774 1.64386 17.4081C-1.94368 19.3389 1.1719 28.1247 3.1423 31.6399C3.1423 31.6399 25.0859 57.2147 28.6857 77.2096C28.9598 78.7321 28.8132 79.6502 29.2899 81.124C30.5268 84.9476 32.1493 88.5718 36.2347 88.8172C40.3195 89.062 43.8344 86.0166 44.0851 82.0141C44.0851 82.0141 44.2104 80.8237 44.2058 80.0586C44.2014 79.307 44.0952 78.8022 44.0668 78.1387C43.2474 59.0032 79.4575 43.4594 79.4575 43.4594C82.3516 40.6235 87.6195 34.4758 84.7254 31.6399C81.8312 28.804 71.8701 30.3539 68.9759 33.1898C68.9759 33.1898 49.2596 56.0868 46.4164 55.2996C43.5732 54.5124 48.8601 16.3142 48.8601 16.3142Z" fill="#F9F8F6"/>
</svg>
