<svg width="1603" height="742" viewBox="0 0 1603 742" fill="none" xmlns="http://www.w3.org/2000/svg">
<g style="mix-blend-mode:multiply">
<path d="M758.91 599.351C749.629 601.682 750.614 601.778 747.02 598.184C744.518 595.683 744.1 594.404 744.659 590.959C745.185 587.717 744.684 585.811 742.438 582.504C740.842 580.156 739.537 577.657 739.537 576.951C739.537 576.245 737.448 572.868 734.896 569.446C730.95 564.158 730.14 562.045 729.489 555.355C728.341 543.55 724.572 530.773 719.505 521.512C717.015 516.959 714.622 511.047 714.188 508.375C713.266 502.689 715.575 494.226 720.846 483.973L724.353 477.152L722.383 471.219C721.28 467.901 720.742 463.974 721.16 462.306C721.65 460.354 721.124 458.029 719.635 455.572C718.385 453.507 716.529 448.895 715.51 445.322C714.149 440.55 712.252 437.447 708.36 433.629C700.875 426.285 699.902 423.394 702.225 415.403C706.954 399.135 701.845 389.647 689.364 391.518C684.504 392.247 684.318 392.156 683.632 388.723C683.105 386.089 681.677 384.54 678.092 382.711C673.434 380.334 671.44 380.325 665.72 382.655C664.421 383.184 659.106 385.018 653.909 386.73C646.095 389.304 643.749 389.637 640.347 388.65C637.125 387.716 634.411 387.957 627.817 389.766C621.004 391.636 618.534 391.836 614.852 390.82C607.17 388.699 593.972 376.803 592.095 370.308C590.642 365.282 581.607 353.568 578.532 352.724C576.578 352.188 576.338 351.773 577.535 351C578.738 350.224 578.528 349.831 576.649 349.339C573.664 348.559 573.367 346.119 576.254 346.094C578.02 346.079 578.063 345.91 576.549 344.931C575.433 344.21 575.309 343.78 576.214 343.768C577.152 343.756 576.795 342.3 575.185 339.572C572.92 335.732 572.873 335.225 574.603 333.313C579.887 327.474 581.045 314.903 577.028 306.982C575.111 303.201 576.344 297.978 580.436 292.548C581.977 290.503 584.985 285.528 587.121 281.493C590.857 274.433 599.185 264.618 601.439 264.618C603.933 264.618 611.981 255.966 611.981 253.285C611.981 247.23 615.601 241.194 621.502 237.407C624.673 235.372 628.389 231.893 629.76 229.675C632.563 225.139 632.96 224.991 636.226 227.267C637.507 228.159 640.691 229.248 643.301 229.686C647.282 230.354 649.185 229.873 655.111 226.704C665.309 221.25 671.612 219.888 683.28 220.616C690.976 221.096 694.441 220.789 698.171 219.296C703.665 217.098 708.414 218.399 707.129 221.75C706.742 222.756 706.978 224.245 707.653 225.058C708.502 226.082 708.495 227.548 707.631 229.82C706.546 232.675 706.787 233.525 709.476 236.332C711.177 238.107 714.223 239.891 716.245 240.295C725.737 242.193 728.436 243.423 730.396 246.741C731.832 249.172 733.714 250.42 736.826 251.004C739.247 251.458 742.761 252.622 744.636 253.592C747.82 255.239 748.233 255.179 750.888 252.684C752.674 251.007 753.483 249.231 753.065 247.912C752.698 246.756 752.977 244.727 753.686 243.404C755.513 239.989 760.701 240.324 768.802 244.38C777.628 248.798 794.364 251.951 800.298 250.312C803.152 249.524 805.895 249.514 808.394 250.282C813.308 251.792 816.779 251.681 819.005 249.855L822.505 261.051C821.878 261.074 821.371 262.063 821.028 264.044L820.435 267.469L816.439 262.424C810.283 254.651 809.507 258.184 815.287 267.674C818.022 272.164 822.381 280.09 824.975 285.287C827.569 290.484 830.931 296.38 832.447 298.39C834.008 300.46 835.204 303.695 835.204 305.85C835.204 310.3 836.531 313.078 841.747 319.538C843.845 322.137 845.917 325.93 846.353 327.968C846.911 330.583 849.191 333.316 854.092 337.247C861.54 343.221 866.366 349.457 867.564 354.654C868.014 356.606 869.719 358.61 871.88 359.728C875.174 361.431 876.333 361.384 886.742 359.129C892.952 357.784 899.529 355.909 901.359 354.962L904.686 353.242L905.476 357.917C906.194 362.165 905.422 364.211 897.014 380.337C887.973 397.676 887.55 398.249 878.562 405.346C873.502 409.34 868.207 414.231 866.795 416.213C865.383 418.196 860.867 423.551 856.758 428.113C844.767 441.426 843.137 453.135 851.09 468.829C853.11 472.815 853.899 475.833 853.42 477.74C853.022 479.327 853.277 483.334 853.987 486.645C855.105 491.859 854.979 493.253 853.044 497.045C850.251 502.516 848.029 504.483 840.223 508.395C836.813 510.104 834.023 512.007 834.023 512.624C834.023 513.241 831.631 516.439 828.708 519.73C825.785 523.021 823.393 526.249 823.393 526.903C823.393 527.557 824.489 530.239 825.828 532.864C829.843 540.735 827.145 546.438 817.521 550.424C813.464 552.105 812.131 555.536 813.135 561.72C813.661 564.961 813.327 566.039 811.49 567.022C810.223 567.7 807.931 570.226 806.398 572.634C801.556 580.237 787.639 593.691 781.317 596.88C776.041 599.541 774.691 599.776 770.815 598.705C767.398 597.762 764.64 597.911 758.91 599.351Z" fill="#5E409D"/>
<path d="M681.113 411.662C680.463 412.063 679.932 412.626 679.932 412.912C679.932 413.199 680.463 413.433 681.113 413.433C681.762 413.433 682.294 412.87 682.294 412.182C682.294 411.495 681.762 411.26 681.113 411.662Z" fill="#5E409D"/>
<path d="M688.199 397.489C687.55 397.89 687.018 398.453 687.018 398.739C687.018 399.026 687.55 399.26 688.199 399.26C688.849 399.26 689.38 398.697 689.38 398.01C689.38 397.322 688.849 397.087 688.199 397.489Z" fill="#5E409D"/>
<path d="M855.365 541.528C856.236 548.499 856.71 549.497 860.045 551.388C862.987 553.056 862.474 553.051 867.77 551.465C872.745 549.974 874.47 546.967 877.508 534.493C878.457 530.596 881.728 520.504 884.777 512.068C890.475 496.301 890.808 493.143 887.533 485.954L886.231 483.097L884.358 487.147C881.907 492.448 871.679 501.478 866.951 502.515C861.933 503.616 860.097 508.153 861.176 516.786C861.923 522.765 861.679 523.825 858.292 529.33C854.96 534.746 854.669 535.957 855.365 541.528Z" fill="#5E409D"/>
<path d="M538.203 333.12C537.553 333.12 537.022 333.652 537.022 334.301C537.022 334.951 537.553 335.483 538.203 335.483C538.853 335.483 539.384 334.951 539.384 334.301C539.384 333.652 538.853 333.12 538.203 333.12Z" fill="#5E409D"/>
<path d="M526.323 323.672C525.635 323.672 525.4 324.203 525.802 324.853C526.203 325.502 526.766 326.034 527.053 326.034C527.339 326.034 527.573 325.502 527.573 324.853C527.573 324.203 527.01 323.672 526.323 323.672Z" fill="#5E409D"/>
<path d="M790.968 249.495C794.096 249.853 797.337 250.11 800.058 249.444C802.85 248.662 805.874 248.542 808.668 249.391C812.037 250.389 815.971 251.056 818.348 249.053L819.532 248.077L819.995 249.546C821.196 253.234 822.407 256.931 823.64 260.696L824.107 262.177L822.55 262.239C822.696 262.238 822.825 262.166 822.849 262.146C822.878 262.123 822.851 262.146 822.82 262.199C822.751 262.308 822.662 262.511 822.59 262.732C822.442 263.181 822.332 263.712 822.246 264.255C822.065 265.391 821.882 266.535 821.697 267.687L821.214 270.508L819.43 268.264C818.097 266.624 816.746 264.961 815.374 263.267C814.539 262.241 813.675 261.235 812.751 260.377C812.532 260.175 812.294 259.971 812.077 259.813C811.876 259.656 811.601 259.534 811.683 259.571C811.721 259.578 811.788 259.602 811.972 259.577C812.13 259.563 812.424 259.426 812.564 259.261C812.858 258.897 812.768 258.831 812.787 258.859C812.782 258.931 812.819 259.211 812.893 259.486C813.571 261.827 815.048 264.411 816.557 266.9C818.816 270.605 820.995 274.517 823.217 278.683C824.323 280.765 825.346 282.742 826.279 284.636C828.825 289.724 831.171 294.136 833.516 297.584C835.327 300.207 836.34 302.803 836.452 305.85C836.156 310.724 839.269 314.58 842.585 318.862C844.474 321.378 846.268 323.984 847.343 327.757C848.034 330.844 851.26 333.663 854.708 336.478C857.405 338.651 860.236 341.175 862.946 344.369C865.373 347.282 867.609 350.531 868.558 354.425C868.998 356.231 870.579 357.901 872.35 358.819C876.381 361.34 881.729 358.889 886.529 358.143C891.535 357.021 896.678 355.84 900.911 354.095C902.032 353.519 903.143 352.948 904.242 352.383L905.416 351.773L905.64 353.081C905.903 354.662 906.162 356.221 906.418 357.758C907.43 362.817 904.632 366.948 903.04 370.577C901.223 374.261 899.457 377.621 897.826 380.761C895.147 385.894 892.912 390.251 890.937 393.64C887.176 400.397 882.826 403.144 879.129 406.064C875.737 408.748 871.876 411.499 867.372 416.624C865.453 419.191 863.099 421.934 860.271 425.23C859.269 426.391 858.282 427.516 857.308 428.608C845.08 441.168 844.834 456.053 851.699 468.52C852.956 471.283 854.619 474.197 854.012 477.889C853.808 478.746 853.808 479.821 853.835 480.849C853.892 482.497 854.085 484.429 854.515 486.532C855.227 489.491 855.747 493.786 853.472 497.263C851.377 502.342 846.061 506.169 840.409 508.766C838.317 509.828 835.645 511.259 834.416 512.624C833.007 515.73 830.953 517.63 828.987 519.978C827.091 522.163 824.877 524.625 823.753 526.903C824.167 528.756 825.219 530.831 826.143 532.704C827.999 536.185 828.85 540.761 826.596 544.187C824.435 547.564 820.901 549.37 817.659 550.757C812.884 552.422 812.831 557.966 813.528 561.657C813.697 562.744 813.875 563.814 813.693 564.932C813.544 566.104 812.539 566.98 811.694 567.401C810.518 568.127 809.552 569.271 808.736 570.24C808.046 571.082 807.396 571.971 806.813 572.898C800.077 582.48 791.307 591.282 781.517 597.277C778.258 599.022 774.154 600.506 770.721 599.047C766.642 597.76 762.552 598.759 758.97 599.591C756.584 600.154 754.384 600.787 752.263 601.121C751.142 601.321 749.832 601.151 749.033 600.394C748.216 599.702 747.58 598.96 746.911 598.293C745.204 596.688 744.126 594.66 744.361 592.877C744.451 591.547 744.64 590.959 744.666 590.96C744.666 590.96 744.666 590.96 744.666 590.96C744.736 590.971 744.509 591.91 744.555 593.587C744.574 595.245 745.722 596.754 747.109 598.094C748.469 599.359 749.849 601.404 752.132 600.775C754.266 600.422 756.494 599.741 758.858 599.145C762.473 598.241 766.648 597.145 770.902 598.393C772.33 598.768 773.797 599.096 775.246 598.859C777.434 598.477 779.336 597.369 781.118 596.486C792.847 588.459 798.035 582.973 806.008 572.385C807.348 570.413 808.767 568.32 811.274 566.618C813.096 565.914 813.055 563.902 812.676 561.795C812.203 558.573 811.595 553.646 815.636 550.859C816.172 550.493 816.744 550.196 817.326 549.952C820.997 548.397 824.486 546.318 826.139 543.127C827.822 539.927 826.854 536.185 825.26 533.154C824.276 531.123 823.263 529.462 822.715 526.903C824.208 523.366 826.209 521.651 828.16 519.244C830.001 517.142 832.257 514.384 833.243 512.624C833.261 512.251 833.367 512.13 833.437 511.997C833.51 511.878 833.582 511.788 833.65 511.709C833.787 511.549 833.919 511.424 834.05 511.304C834.314 511.065 834.576 510.861 834.842 510.663C835.373 510.27 835.915 509.913 836.463 509.57C837.563 508.886 838.695 508.26 839.86 507.67C844.834 505.189 849.856 502.358 852.292 496.661C854.131 493.648 854.079 490.519 853.172 486.82C852.623 483.88 852.098 480.987 852.635 477.543C853.087 475.427 852.051 472.754 850.959 470.331C850.779 469.942 850.594 469.557 850.403 469.177C840.846 452.152 847.052 436.924 856.068 427.492C859.3 423.8 862.69 419.935 865.943 415.606C869.257 411.558 873.239 408.248 877.882 404.484C885.496 399.614 890.39 391.05 896.142 379.883C896.923 378.41 897.711 376.923 898.514 375.394C901.519 369.117 905.74 363.415 904.662 358.054C904.397 356.452 904.139 354.894 903.887 353.377L905.059 353.962C903.924 354.545 902.814 355.116 901.728 355.676C896.333 357.865 891.518 358.846 886.916 359.931C881.704 360.762 876.451 363.404 871.456 360.548C869.222 359.374 867.308 357.522 866.595 354.877C864.785 348.469 859.508 343.19 853.314 338.217C850.405 335.703 846.596 333.44 845.031 328.251C844.35 325.81 842.609 322.896 840.647 320.426C837.842 316.771 833.539 312.325 833.729 305.85C833.725 305.096 833.538 304.189 833.262 303.309C832.81 301.882 832.126 300.446 831.258 299.287C828.272 294.975 825.989 290.577 823.633 285.957C820.678 280.112 817.451 274.186 814.018 268.446C812.536 265.944 811.077 263.502 810.135 260.437C810.033 260.054 809.924 259.615 809.893 259.077C809.887 258.793 809.862 258.5 810.031 257.984C810.11 257.756 810.291 257.397 810.619 257.128C810.963 256.837 811.403 256.714 811.73 256.702C812.363 256.691 812.665 256.857 812.948 256.98C813.072 257.039 813.192 257.106 813.309 257.177C813.408 257.237 813.506 257.301 813.604 257.37C813.978 257.632 814.283 257.894 814.584 258.17C815.741 259.252 816.658 260.363 817.579 261.521C818.908 263.207 820.236 264.892 821.562 266.576L819.017 267.223C819.218 266.081 819.419 264.94 819.62 263.8C819.732 263.173 819.863 262.546 820.099 261.865C820.222 261.522 820.362 261.168 820.628 260.758C820.881 260.395 821.376 259.7 822.452 259.632L821.15 261.474C819.988 257.719 818.831 253.979 817.683 250.268L819.884 250.926C815.963 253.87 811.496 252.556 807.997 251.572C805.643 250.832 803.071 250.922 800.65 251.587C788.393 252.998 777.789 249.655 768.259 245.464C765.715 244.187 763.148 243.087 760.622 242.534C758.121 241.965 755.555 242.177 754.714 243.954C754.15 245.007 753.904 246.657 754.166 247.562C754.794 250.51 752.968 252.176 751.673 253.52C750.702 254.323 749.987 255.459 748.031 255.834C746.086 255.904 745.175 255.072 744.112 254.605C742.424 253.761 740.555 253.145 738.836 252.657C738.101 252.453 737.352 252.267 736.615 252.129C733.917 251.744 730.816 250.017 729.401 247.329C727.236 243.231 721.245 242.654 716.014 241.449C713.054 240.698 710.769 239.237 708.619 237.153C707.772 236.228 706.827 235.39 706.149 233.875C705.438 232.187 706.096 230.545 706.513 229.395C707.069 227.972 707.342 226.441 706.728 225.826C705.691 224.411 705.477 222.976 706.003 221.318C706.232 220.647 706.174 220.383 705.814 220.055C705.422 219.716 704.62 219.488 703.804 219.439C702.136 219.336 700.318 219.748 698.623 220.425C693.684 222.498 688.277 222.101 683.204 221.837C673.745 220.951 664.307 222.788 655.686 227.777C652.188 229.656 647.601 232.039 643.101 230.874C640.48 230.362 638.1 229.784 635.544 228.245C634.96 227.839 634.377 227.435 633.87 227.187C633.621 227.064 633.411 227.009 633.332 227.012C633.259 227.015 633.224 227.012 633.054 227.132C632.342 227.701 631.51 229.106 630.76 230.293C630.238 231.124 629.654 231.818 629.052 232.49C627.001 234.719 624.731 236.677 622.126 238.378C617.114 241.544 613.125 247.128 613.122 253.285C612.349 256.945 610.363 258.463 608.584 260.625C607.654 261.631 606.677 262.597 605.611 263.504C604.445 264.363 603.717 265.41 601.439 265.765C596.84 268.777 591.589 275.879 588.153 282.039C586.093 285.87 583.991 289.592 581.381 293.26C578.459 297.13 576.063 302.344 578.099 306.439C582.124 315.317 581.778 326.169 575.506 334.13C575.132 334.541 574.782 334.966 574.672 335.227C574.615 335.358 574.603 335.427 574.604 335.548C574.607 335.667 574.644 335.848 574.715 336.054C575.022 336.918 575.653 337.958 576.233 338.954C576.658 339.678 577.066 340.41 577.427 341.234C577.605 341.654 577.777 342.07 577.888 342.646C577.93 342.944 578.015 343.265 577.835 343.858C577.744 344.148 577.485 344.536 577.129 344.739C576.779 344.945 576.462 344.978 576.229 344.983C576.18 344.984 576.14 344.987 576.133 344.988C576.132 344.983 576.143 345.009 576.339 344.903C576.431 344.847 576.614 344.718 576.737 344.447C576.861 344.176 576.833 343.895 576.797 343.77C576.715 343.51 576.675 343.52 576.677 343.51C576.702 343.549 576.97 343.763 577.208 343.912C577.421 344.05 577.635 344.191 577.865 344.357C577.981 344.443 578.102 344.532 578.247 344.662C578.321 344.729 578.402 344.803 578.508 344.934C578.589 345.083 578.844 345.206 578.843 345.959C578.821 346.334 578.578 346.693 578.4 346.839C578.222 346.994 578.093 347.05 577.99 347.096C577.786 347.18 577.68 347.197 577.567 347.221C577.361 347.259 577.208 347.27 577.063 347.281C576.774 347.3 576.519 347.303 576.264 347.306C575.886 347.304 575.535 347.386 575.422 347.459C575.363 347.494 575.396 347.493 575.429 347.416C575.464 347.339 575.444 347.256 575.449 347.281C575.459 347.457 576.196 348.009 576.954 348.173C577.506 348.343 577.953 348.373 578.79 348.91C578.987 349.068 579.413 349.377 579.484 350.104C579.503 350.816 579.187 351.123 579.037 351.318C578.691 351.693 578.443 351.836 578.186 352.01C578.012 352.115 577.834 352.274 577.871 352.24C577.882 352.224 577.916 352.186 577.958 352.073C578 351.965 578.029 351.746 577.976 351.562C577.851 351.181 577.727 351.179 577.746 351.176C577.843 351.254 578.399 351.452 578.849 351.571C585.955 356.195 589.339 362.122 592.736 368.726C592.902 369.129 593.06 369.556 593.185 369.993C596.849 378.143 605.665 386.114 615.124 389.837C619.08 391.158 623.284 389.943 627.56 388.829C631.611 387.817 636.095 386.343 640.606 387.76C644.736 389.174 649.253 387.196 653.635 385.897C657.59 384.599 661.598 383.298 665.406 381.885C667.448 381.086 669.551 380.218 671.937 380.116C674.364 380.016 676.534 381.037 678.449 382.012C680.966 383.245 683.943 385.374 684.37 388.575C684.498 389.217 684.619 389.862 684.804 390.376C685.024 390.917 685.115 391.022 685.605 391.116C686.633 391.234 688 390.971 689.256 390.802C695.356 389.435 702.775 392.928 703.931 399.118C705.416 404.93 704.211 410.568 702.794 415.568C701.708 419.162 701.059 422.85 702.648 425.824C704.165 428.799 706.572 431.098 708.714 433.269C710.34 434.877 711.782 436.533 712.906 438.266C714.376 440.51 715.293 442.908 715.931 445.202C717.043 448.997 718.347 452.467 719.966 455.371C721.258 457.527 722.102 460.029 721.507 462.393C721.079 465.358 721.868 468.423 722.692 471.117C723.355 473.132 724.003 475.098 724.648 477.054L724.689 477.179L724.63 477.294C723.46 479.558 722.301 481.808 721.115 484.111C718.002 490.706 713.691 498.189 714.524 508.321C715.005 510.777 716.057 513.335 717.203 515.975C717.983 517.736 718.852 519.535 719.837 521.33C724.982 530.821 728.602 542.861 729.827 555.322C730.054 560.477 731.853 565.321 735.106 569.289C736.83 571.755 738.687 574.007 739.736 576.951C740.211 578.845 741.466 580.712 742.558 582.423C742.782 582.76 743 583.099 743.208 583.443C744.79 585.906 745.013 588.104 744.881 589.355C744.768 590.627 744.603 591.108 744.615 590.909C744.502 590.606 745.668 587.002 742.26 582.625C741.963 582.194 741.663 581.741 741.363 581.264C740.546 579.878 739.651 578.651 739.284 576.951C738.253 574.362 736.295 571.868 734.666 569.617C730.977 565.284 729.413 559.952 729.159 555.387C728.655 550.481 727.796 546.284 726.924 542.916C724.573 534.129 722.09 528.077 718.738 521.931C716.687 518.072 714.6 514.108 713.306 508.518C712.729 504.678 713.484 500.491 714.92 495.988C716.478 491.214 718.377 487.202 720.191 483.636C721.438 481.199 722.586 478.933 723.661 476.796L723.614 477.397C722.903 475.318 722.227 473.36 721.577 471.487C720.578 468.305 719.757 465.482 720.214 462.069C720.666 460.125 719.891 457.982 718.747 456.11C717.979 454.823 717.41 453.533 716.848 452.19C715.845 449.74 715.163 447.733 714.569 445.591C713.634 442.277 712.404 438.771 707.764 434.237C706.018 432.453 703.863 430.469 701.956 427.408C699.823 424.336 700.017 419.552 701.447 415.177C702.587 411.088 703.728 406.188 702.809 400.841C702.242 395.339 696.485 390.872 689.494 392.389C688.461 392.539 687.446 392.725 686.265 392.773C685.683 392.772 684.937 392.813 684.158 392.251C683.411 391.652 683.245 390.918 683.073 390.359C682.935 389.853 682.839 389.373 682.742 388.901C682.341 386.269 680.089 384.762 677.666 383.545C673.769 381.148 669.956 381.81 666.09 383.563C661.977 385.121 658.066 386.41 654.229 387.7C649.694 389.07 644.908 391.238 640.051 389.673C636.133 388.448 632.006 389.827 628.109 390.829C623.742 392.018 618.926 393.353 614.55 391.917C602.915 387.121 595.112 379.678 590.929 370.645C587.975 363.63 582.526 356.787 578.198 353.941C577.63 353.767 577.15 353.702 576.34 353.2C576.144 353.046 575.8 352.852 575.594 352.198C575.502 351.88 575.538 351.511 575.626 351.268C575.714 351.017 575.819 350.863 575.914 350.736C576.292 350.276 576.556 350.136 576.818 349.952C576.827 349.946 576.837 349.94 576.846 349.934C577.011 349.83 577.176 349.696 577.177 349.687C577.19 349.695 577.053 349.735 577.013 350.18C577.003 350.396 577.093 350.626 577.167 350.732C577.243 350.844 577.293 350.88 577.312 350.896C577.377 350.935 577.175 350.825 576.988 350.767C576.794 350.7 576.564 350.634 576.326 350.572C575.261 350.241 573.998 349.904 573.157 348.244C572.975 347.818 572.878 347.212 573.071 346.629C573.257 346.042 573.683 345.613 574.074 345.368C574.879 344.882 575.582 344.835 576.242 344.817C576.468 344.815 576.694 344.81 576.883 344.798C576.976 344.792 577.067 344.782 577.098 344.776C577.11 344.775 577.114 344.768 577.036 344.797C576.998 344.813 576.935 344.833 576.808 344.927C576.701 345.004 576.465 345.236 576.388 345.584C576.31 345.931 576.403 346.185 576.447 346.289C576.501 346.411 576.538 346.454 576.558 346.482C576.602 346.537 576.599 346.528 576.587 346.518C576.559 346.492 576.485 346.433 576.408 346.377C576.249 346.261 576.055 346.132 575.856 346.003C575.527 345.779 575.221 345.607 574.787 345.131C574.678 344.992 574.531 344.854 574.397 344.434C574.334 344.223 574.29 343.854 574.443 343.479C574.594 343.105 574.862 342.888 575.038 342.78C575.409 342.566 575.593 342.559 575.768 342.525C575.936 342.501 576.071 342.495 576.198 342.493C576.161 342.496 576.045 342.494 575.862 342.595C575.676 342.694 575.521 342.917 575.486 343.032C575.418 343.27 575.467 343.192 575.441 343.105C575.408 342.904 575.293 342.571 575.154 342.25C574.873 341.596 574.496 340.906 574.091 340.217C573.514 339.207 572.896 338.264 572.387 336.919C572.14 336.281 571.963 335.164 572.383 334.272C572.77 333.419 573.252 332.948 573.67 332.468C578.651 326.539 579.822 315.856 575.96 307.524C573.316 301.883 576.363 296.072 579.505 291.846C581.905 288.502 584.089 284.703 586.109 280.957C590.234 274.306 593.465 267.877 601.439 263.489C604.788 262.022 609.711 256.652 610.834 253.285C610.833 252.509 610.887 251.739 610.991 250.98C611.71 245.508 615.336 239.944 620.865 236.414C623.718 234.513 626.752 231.953 628.747 229.049C629.556 227.824 630.091 226.595 631.567 225.275C631.959 224.957 632.603 224.632 633.276 224.631C633.94 224.623 634.449 224.828 634.859 225.017C635.679 225.415 636.279 225.853 636.91 226.285C638.626 227.337 641.192 228.089 643.499 228.502C647.358 229.462 650.794 227.628 654.543 225.641C662.938 220.696 673.54 218.4 683.356 219.404C688.381 219.675 693.407 219.996 697.718 218.163C699.677 217.39 701.755 216.88 703.977 217.011C705.078 217.103 706.272 217.299 707.388 218.199C708.609 219.088 708.797 221.111 708.274 222.189C708.043 222.725 708.232 223.872 708.599 224.273C710.261 226.441 709.307 228.705 708.785 230.258C708.345 231.415 708.093 232.331 708.403 232.97C708.715 233.719 709.569 234.63 710.372 235.473C712.048 237.149 714.447 238.587 716.49 239.067C721.96 240.372 728.486 240.794 731.503 246.087C732.775 248.347 734.806 249.325 737.068 249.712C737.857 249.858 738.596 250.038 739.307 250.229C741.458 250.823 743.389 251.47 745.255 252.395C746.357 252.978 747.567 253.495 747.823 253.336C748.243 253.269 749.203 252.402 749.955 251.69C751.236 250.544 752.038 248.933 751.766 248.324C751.231 246.008 751.704 244.44 752.496 242.767C753.472 240.821 755.67 239.885 757.311 239.791C759.013 239.651 760.486 239.936 761.861 240.285C764.593 241.016 766.936 242.093 769.332 243.321C774.445 245.838 780.747 248.064 790.968 249.495ZM683.152 412.745C682.905 412.902 683.637 413.463 683.293 413.76C682.949 414.013 682.591 413.713 682.369 414.022C682.098 414.352 681.613 414.165 681.497 414.376C681.36 414.579 681.273 414.103 681.113 414.134C681.102 414.136 681.09 414.142 681.078 414.152C680.909 414.278 680.796 414.193 680.681 413.987C680.55 413.783 680.238 413.541 679.97 413.646C679.675 413.759 679.676 413.207 679.755 413.049C679.768 412.993 679.805 412.951 679.846 412.926C679.864 412.916 679.901 412.912 679.938 412.912C679.938 412.912 679.938 412.912 679.938 412.912C679.985 412.913 680.03 412.916 680.036 412.92C680.064 412.943 680.157 412.955 680.292 412.851C680.515 412.634 680.303 412.913 680.493 412.826C680.677 412.724 680.787 412.421 680.907 412.646C680.984 412.77 681.056 412.557 681.113 412.426C681.126 412.319 681.085 412.274 681.159 412.482C681.262 412.709 681.284 412.582 681.191 412.425C681.108 412.264 680.933 412.069 680.863 412.056C680.794 412.042 680.854 412.136 680.954 412.172C681.052 412.214 681.173 412.199 681.151 412.183C681.151 412.183 681.151 412.182 681.151 412.182C681.131 412.168 681.087 412.176 681.094 412.252C681.096 412.321 681.197 412.494 681.394 412.542C681.77 412.621 681.907 412.739 681.722 412.624C681.715 412.619 681.707 412.615 681.699 412.61C681.399 412.545 680.969 412.558 680.73 412.549C680.483 412.538 680.409 412.556 680.399 412.747C680.394 412.864 680.307 412.875 680.067 412.892C679.948 412.911 679.775 412.947 679.716 412.812C679.641 412.627 679.766 412.574 679.622 412.413C679.344 412.083 679.279 411.906 679.567 411.931C679.849 411.967 679.503 411.55 679.617 411.523C679.732 411.502 679.934 411.729 680.112 411.265C680.238 410.956 680.373 410.77 680.481 410.639C680.558 410.56 680.63 410.498 680.699 410.442C680.91 410.281 681.529 410.283 682.216 410.388C682.563 410.413 683.113 410.815 683.303 411.246C683.514 411.672 683.531 411.999 683.617 412.182C683.617 412.182 683.617 412.182 683.617 412.182C683.769 412.561 683.401 412.549 683.152 412.745ZM690.239 398.572C689.991 398.729 690.724 399.29 690.379 399.587C690.035 399.84 689.678 399.54 689.455 399.85C689.184 400.179 688.699 399.992 688.584 400.203C688.447 400.406 688.359 399.93 688.199 399.961C688.188 399.963 688.177 399.969 688.164 399.979C687.996 400.105 687.882 400.02 687.767 399.814C687.637 399.61 687.325 399.368 687.057 399.473C686.762 399.587 686.763 399.035 686.841 398.876C686.855 398.82 686.891 398.778 686.933 398.754C686.95 398.743 686.988 398.739 687.025 398.739C687.025 398.739 687.025 398.739 687.025 398.739C687.071 398.74 687.116 398.743 687.123 398.747C687.15 398.771 687.244 398.782 687.378 398.678C687.601 398.461 687.389 398.74 687.579 398.653C687.763 398.551 687.874 398.248 687.994 398.473C688.071 398.597 688.142 398.384 688.199 398.253C688.213 398.146 688.171 398.101 688.245 398.309C688.348 398.536 688.37 398.409 688.278 398.252C688.194 398.091 688.019 397.896 687.95 397.883C687.881 397.869 687.94 397.963 688.041 397.999C688.139 398.041 688.259 398.026 688.238 398.01C688.238 398.01 688.237 398.01 688.237 398.01C688.218 397.995 688.173 398.003 688.18 398.079C688.182 398.148 688.284 398.321 688.48 398.369C688.857 398.448 688.994 398.566 688.809 398.451C688.801 398.446 688.793 398.442 688.785 398.437C688.485 398.372 688.056 398.385 687.816 398.376C687.569 398.365 687.495 398.383 687.486 398.574C687.481 398.691 687.393 398.702 687.153 398.719C687.035 398.738 686.862 398.774 686.802 398.639C686.727 398.454 686.852 398.401 686.708 398.24C686.431 397.911 686.365 397.733 686.654 397.758C686.935 397.794 686.589 397.377 686.704 397.35C686.818 397.329 687.021 397.556 687.198 397.092C687.325 396.783 687.459 396.597 687.567 396.466C687.644 396.387 687.717 396.325 687.785 396.269C687.997 396.108 688.616 396.11 689.302 396.215C689.649 396.24 690.2 396.642 690.39 397.073C690.601 397.498 690.618 397.826 690.703 398.009C690.704 398.009 690.704 398.009 690.704 398.01C690.855 398.388 690.487 398.376 690.239 398.572ZM890.449 492.165C890.636 496.023 890.684 499.173 889.28 503.492C887.865 507.572 887.173 508.156 885.707 512.404C885.633 512.617 885.557 512.839 885.478 513.073C883.855 517.898 881.943 522.634 881.426 524.852C880.913 527.066 880.275 527.119 879.456 530.232C879 531.994 878.61 533.363 878.243 534.672C877.954 535.723 877.64 536.734 877.25 537.9C876.374 540.508 873.934 549.313 870.398 550.869C869.654 551.374 868.792 551.727 867.923 551.975C865.693 552.519 863.146 553.539 861.588 552.471C860.982 552.137 860.555 551.822 860.223 551.588C860.085 551.489 860.03 551.415 860.048 551.382C860.048 551.382 860.048 551.382 860.048 551.382C860.071 551.342 860.205 551.366 860.397 551.469C861.34 551.967 862.782 552.894 864.551 552.02C865.883 551.527 866.747 551.224 867.625 550.978C868.801 550.58 870.227 550.407 871.929 548.313C874.447 544.507 874.628 541.453 876.297 536.153C876.492 535.483 876.647 534.896 876.785 534.317C877.835 530.264 877.814 528.319 880.398 521.823C882.398 516.881 882.834 514.778 883.664 511.666C884.078 510.124 884.58 508.372 885.379 505.897C886.441 502.527 887.775 498.775 888.189 495.313C888.667 491.868 887.527 488.746 886.491 486.429C886.269 485.928 886.06 485.467 885.866 485.052C885.645 484.577 885.415 484.085 885.177 483.577L887.282 483.583C886.714 484.847 886.101 486.212 885.449 487.652C883.685 491.24 880.784 494.207 877.585 497.038C874.717 499.382 871.777 502.241 867.207 503.684C863.985 504.262 862.422 507.258 862.101 510.527C861.872 512.355 861.918 514.487 862.129 516.667C862.328 518.995 862.677 521.566 861.881 523.979C861.077 526.326 859.781 528.069 858.788 529.635C858.116 530.652 857.541 531.549 857.094 532.303C854.836 536.129 855.24 537.672 855.704 541.485C855.75 541.801 855.796 542.108 855.85 542.454C856.353 545.025 856.338 549.094 859.24 550.755C860.522 551.652 860.142 551.653 858.734 550.854C856.535 549.663 856.081 547.365 855.632 546.298C854.927 544.483 854.652 543.455 854.475 541.639C854.429 541.135 854.394 540.575 854.381 539.911C854.299 536.871 854.103 535.103 854.904 533.348C855.501 532.134 855.792 531.864 857.602 528.905C858.269 527.774 859.316 526.238 860.097 524.065C860.958 521.527 860.351 519.06 860.092 516.921C859.446 512.507 859.611 509.32 860.398 506.894C860.846 505.044 863.206 501.867 866.696 501.354C868.95 500.826 871.533 499.024 873.505 497.435C876.277 495.165 881.176 490.81 883.242 486.631C883.931 485.119 884.559 483.723 885.069 482.56L886.2 480.029L887.396 482.566C887.654 483.104 887.89 483.588 888.099 484.006C888.36 484.526 888.581 484.983 888.772 485.39C890.034 488.258 890.086 488.796 890.449 492.165ZM540.164 335.082C540.018 335.178 540.117 335.357 540.183 335.588C540.251 335.813 540.278 336.09 540.072 336.205C539.645 336.421 539.356 336.053 539.031 336.32C538.759 336.518 538.402 336.408 538.203 336.398C538.131 336.396 538.071 336.408 538.019 336.453C537.802 336.622 537.878 336.05 537.635 336.114C537.371 336.164 537.244 336.01 537.197 335.749C537.121 335.484 536.966 335.047 536.694 334.956C536.391 334.847 536.733 334.496 536.827 334.399C536.854 334.361 536.894 334.334 536.936 334.314C536.954 334.305 536.992 334.301 537.029 334.301C537.029 334.301 537.029 334.301 537.029 334.301C537.075 334.302 537.12 334.307 537.126 334.316C537.155 334.358 537.235 334.424 537.411 334.451C537.735 334.472 537.406 334.581 537.613 334.635C537.828 334.671 538.051 334.435 537.993 334.647C537.981 334.759 538.089 334.63 538.139 334.511C538.201 334.393 538.182 334.293 538.203 334.519C538.204 334.525 538.205 334.531 538.206 334.538C538.256 334.784 538.315 334.664 538.264 334.489C538.224 334.312 538.096 334.082 538.02 334.062C537.945 334.041 537.973 334.161 538.06 334.227C538.143 334.3 538.263 334.312 538.241 334.304C538.236 334.303 538.23 334.302 538.224 334.301C538.173 334.289 538.123 334.357 538.213 334.298C538.259 334.259 538.211 334.276 538.195 334.308C538.174 334.337 538.198 334.367 538.207 334.26C538.209 334.234 538.208 334.208 538.203 334.182C538.184 333.971 537.916 333.81 537.716 333.792C537.495 333.758 537.409 333.807 537.45 333.984C537.476 334.087 537.395 334.145 537.156 334.261C537.037 334.32 536.873 334.318 536.798 334.228C536.69 334.091 536.787 334 536.608 333.879C536.254 333.628 536.153 333.438 536.471 333.348C536.778 333.288 536.408 332.892 536.562 332.811C536.731 332.753 536.856 332.944 537.335 332.409C537.628 332.129 537.952 332.007 538.203 331.953C538.423 331.907 538.603 331.907 538.751 331.913C539.101 331.921 539.557 332.443 539.925 332.73C540.315 332.975 540.602 333.818 540.661 334.301C540.674 334.364 540.687 334.419 540.702 334.47C540.819 334.923 540.446 334.882 540.164 335.082ZM528.495 325.103C528.281 325.272 529.137 325.568 528.927 325.876C528.699 326.177 528.289 326.01 528.142 326.436C528.047 326.689 527.594 327.023 527.053 326.972C526.705 326.927 526.615 326.844 526.489 326.885C526.206 326.961 526.487 326.449 526.266 326.452C526.04 326.445 526.005 326.309 526.038 326.08C526.062 325.847 525.946 325.468 525.68 325.495C525.406 325.519 525.641 325.149 525.675 325.024C525.685 324.984 525.707 324.944 525.734 324.907C525.746 324.891 525.776 324.869 525.808 324.849C525.808 324.849 525.808 324.849 525.808 324.849C525.847 324.825 525.888 324.805 525.898 324.81C525.944 324.831 526.042 324.845 526.22 324.81C526.55 324.737 526.277 324.951 526.513 324.991C526.749 325.026 527.039 324.871 527.015 325.134C526.984 325.403 527.662 324.761 527.196 325.105C527.154 325.132 527.107 325.153 527.053 325.174C526.71 325.349 526.703 325.323 526.506 325.246C526.337 325.171 526.117 325.11 526.062 325.096C525.973 325.079 526.292 324.983 526.396 324.853C526.424 324.856 526.439 324.854 526.431 324.856C526.384 324.858 526.317 324.956 526.405 324.872C526.442 324.824 526.394 324.844 526.371 324.872C526.344 324.897 526.347 324.92 526.339 324.811C526.336 324.785 526.331 324.757 526.323 324.729C526.251 324.552 526.273 324.255 526.087 324.211C525.904 324.181 525.848 324.291 525.984 324.375C526.062 324.427 526.037 324.529 525.895 324.75C525.825 324.861 525.682 324.942 525.577 324.917C525.422 324.878 525.453 324.761 525.24 324.776C524.812 324.799 524.617 324.72 524.82 324.449C525.033 324.214 524.509 324.054 524.62 323.847C524.677 323.756 524.781 323.736 524.892 323.631C525.011 323.533 525.117 323.316 525.444 322.983C525.802 322.647 526.109 322.567 526.323 322.507C526.516 322.459 526.674 322.451 526.804 322.448C527.105 322.436 527.519 322.886 527.888 323.085C528.326 323.264 528.71 324.145 528.875 324.531C528.956 324.675 528.946 324.777 528.896 324.853C528.813 324.939 528.627 324.986 528.495 325.103Z" fill="#5E409D"/>
</g>
</svg>
