<svg width="1603" height="742" viewBox="0 0 1603 742" fill="none" xmlns="http://www.w3.org/2000/svg">
<g style="mix-blend-mode:multiply">
<path d="M1380.6 470.709C1388.24 476.495 1388.11 477.031 1379.72 474.383C1372.24 472.026 1368.85 469.837 1365.91 465.465C1362.55 460.47 1356.4 456.689 1353.26 457.686C1351.99 458.089 1349.85 460.28 1348.51 462.555C1346.23 466.428 1345.79 466.641 1341.64 465.903C1340.09 465.628 1338.15 464.857 1336.51 463.92V430.578C1339.73 431.945 1343.06 433.284 1345.11 434.022C1348.16 435.122 1354.26 438.39 1358.67 441.285C1367.09 446.813 1370.74 451.474 1368.65 454.002C1366.94 456.061 1373.65 465.444 1380.6 470.709Z" fill="#66800B"/>
<path d="M1307.6 621.834C1309.99 620.268 1310.45 620.37 1312.93 623.017L1315.65 625.914L1319.8 622.75C1322.72 620.523 1325.45 619.559 1329 619.492C1333.64 619.405 1334.45 618.89 1338.9 613.263C1341.57 609.89 1344.27 607.13 1344.91 607.13C1345.54 607.13 1347.95 604.498 1350.26 601.282C1352.57 598.065 1355.5 595.106 1356.76 594.706C1360.27 593.592 1366.92 586.069 1371.37 578.185C1374.28 573.038 1375.73 568.533 1376.67 561.775L1377.97 552.459L1373.41 546.429C1370.9 543.112 1367.15 536.679 1365.07 532.132C1362.98 527.584 1359.45 521.986 1357.22 519.69C1353.46 515.823 1353.25 515.215 1354.35 511.422C1356 505.699 1353.86 496.013 1350.17 492.549C1348.59 491.066 1346.48 487.009 1345.47 483.533C1344.46 480.056 1343.17 477.212 1342.61 477.212C1340.91 477.212 1337.61 486.831 1336.92 493.747C1336.44 498.615 1335.28 501.626 1332.27 505.767C1330.07 508.805 1327.64 511.501 1326.87 511.757C1326.1 512.014 1321.38 509.343 1316.37 505.822C1305.54 498.197 1304.37 495.587 1308.79 488.912C1312.22 483.723 1311.91 483.317 1302.68 480.838C1298.4 479.688 1297.05 479.815 1293.23 481.73C1290.78 482.958 1287.45 484.291 1285.82 484.691C1282.8 485.437 1276.61 493.198 1277.96 494.55C1278.38 494.963 1278.13 496.003 1277.42 496.861C1275.96 498.626 1272.89 497.478 1268.56 493.544C1266.22 491.413 1265.79 491.387 1261.48 493.118C1258.89 494.155 1255.67 496.742 1254.1 499.038C1252.57 501.28 1250.33 503.431 1249.11 503.817C1247.7 504.263 1247 505.46 1247.17 507.105C1247.43 509.662 1246.75 509.924 1243.3 508.591C1242.07 508.113 1240.64 509.597 1238.58 513.498C1235.25 519.81 1229.2 524.455 1224.32 524.455C1222.52 524.455 1215.16 526.945 1207.97 529.989C1195.3 535.356 1194.85 535.676 1192.97 540.583C1191.91 543.366 1191.34 546.786 1191.71 548.183C1192.07 549.58 1191.81 555.473 1191.12 561.278C1190.21 568.967 1190.24 573.696 1191.22 578.69C1192.41 584.726 1192.3 586.181 1190.3 590.852C1189.05 593.771 1187.18 596.481 1186.16 596.875C1183.32 597.963 1185.14 600.945 1189.53 602.392C1192.79 603.471 1194.63 603.216 1201.08 600.788C1205.3 599.201 1212.4 597.518 1216.87 597.049C1221.44 596.57 1227.36 595.008 1230.4 593.483C1237.07 590.127 1247.27 587.52 1257.84 586.467C1265.05 585.75 1266.33 585.953 1270.08 588.426C1272.58 590.071 1275.36 593.482 1276.97 596.875C1278.45 600.005 1279.86 602.029 1280.09 601.373C1280.32 600.718 1282.9 598.58 1285.82 596.624C1292.6 592.084 1294.6 593.671 1289.47 599.516C1287.38 601.891 1286.01 604.173 1286.43 604.586C1286.84 605 1287.7 604.413 1288.33 603.281C1289.87 600.533 1291.73 600.669 1291.73 603.531C1291.73 604.799 1292.31 607.124 1293.03 608.696C1294 610.829 1293.97 612.239 1292.89 614.251C1291.63 616.609 1291.8 617.219 1294.24 619.113C1298.83 622.663 1304.55 623.829 1307.6 621.834Z" fill="#66800B"/>
<path d="M1376.21 449.077L1379.15 450.701C1382.99 452.831 1382.78 452.864 1387.39 449.462C1391.8 446.205 1393.25 444.354 1393.28 441.952C1393.29 440.993 1391.7 441.756 1389.3 443.862C1387.11 445.791 1383.26 447.754 1380.76 448.223L1376.21 449.077Z" fill="#66800B"/>
<path d="M1388.45 434.04C1390.46 435.076 1393.01 437.313 1394.12 439.013C1395.28 440.775 1396.35 441.496 1396.62 440.691C1397.49 438.071 1387.24 429.73 1385.4 431.566C1385.08 431.891 1386.45 433.004 1388.45 434.04Z" fill="#66800B"/>
<path d="M1405.11 649.765C1387.66 657.074 1380.63 661.801 1384.01 663.942C1388.86 667.014 1399.43 663.476 1407.77 655.988C1410.21 653.8 1413.27 652.01 1414.57 652.01C1415.87 652.01 1418.04 650.743 1419.38 649.194C1420.73 647.646 1423.89 645.453 1426.39 644.322C1431.64 641.955 1432.91 639.734 1430.76 636.665C1429.34 634.644 1428.75 634.878 1421.61 640.279C1417.41 643.455 1409.98 647.723 1405.11 649.765Z" fill="#66800B"/>
<path d="M1439.99 635.235C1438.39 636.494 1437.42 637.86 1437.83 638.271C1438.24 638.682 1438.79 639.018 1439.05 639.018C1440.35 639.018 1445.24 635.847 1449.99 631.923C1452.91 629.509 1457.03 626.65 1459.14 625.569C1461.26 624.488 1462.98 623.395 1462.98 623.14C1462.98 622.885 1463.33 621.774 1463.75 620.671C1464.41 618.958 1464.16 618.856 1462.08 619.974C1459.98 621.095 1459.18 620.747 1456.49 617.547C1454 614.585 1453.49 613.032 1454.05 610.044C1454.57 607.317 1454.21 605.822 1452.78 604.635C1450.95 603.124 1450.86 603.478 1451.61 609.149C1452.7 617.392 1451.67 620.807 1447.61 622.49C1442.37 624.663 1440.1 627.72 1441.63 630.569C1442.68 632.538 1442.4 633.339 1439.99 635.235Z" fill="#66800B"/>
<path d="M1430.88 472.487C1430.1 472.487 1430.19 473.165 1431.12 474.287C1431.94 475.277 1432.85 475.844 1433.15 475.547C1433.97 474.728 1432.31 472.487 1430.88 472.487Z" fill="#66800B"/>
<path d="M1425.68 468.48C1422.79 467.371 1422.41 467.611 1424.01 469.534C1425.64 471.498 1427.55 471.885 1427.55 470.251C1427.55 469.671 1426.71 468.874 1425.68 468.48Z" fill="#66800B"/>
<path d="M1428.81 464.418C1428.77 465.502 1429.09 467.335 1429.54 468.492C1429.98 469.649 1430.53 470.046 1430.75 469.374C1430.98 468.701 1430.65 466.868 1430.02 465.3C1429.27 463.411 1428.86 463.113 1428.81 464.418Z" fill="#66800B"/>
<path d="M1413.33 460.676C1412.69 460.676 1412.83 461.73 1413.65 463.039C1414.46 464.338 1415.55 465.401 1416.07 465.401C1416.58 465.401 1416.43 464.338 1415.74 463.039C1415.04 461.739 1413.96 460.676 1413.33 460.676Z" fill="#66800B"/>
<path d="M1422.83 461.272C1419.58 457.812 1417.89 458.361 1421.05 461.85C1422.23 463.153 1423.73 464.22 1424.4 464.22C1425.06 464.22 1424.35 462.893 1422.83 461.272Z" fill="#66800B"/>
<path d="M1410.65 453.59C1410 453.59 1410.43 454.653 1411.61 455.952C1412.78 457.251 1414.28 458.314 1414.92 458.314C1415.57 458.314 1415.14 457.251 1413.97 455.952C1412.79 454.653 1411.3 453.59 1410.65 453.59Z" fill="#66800B"/>
<path d="M1402.18 449.45C1402.6 451.395 1403.49 453.648 1404.16 454.456C1404.83 455.265 1405.88 455.613 1406.5 455.231C1407.16 454.826 1406.92 453.723 1405.94 452.587C1405.02 451.515 1403.62 449.574 1402.84 448.275C1401.58 446.183 1401.5 446.316 1402.18 449.45Z" fill="#66800B"/>
<path d="M1367.58 429.425C1366.84 429.224 1365.85 429.422 1365.37 429.865C1364.9 430.308 1365.11 430.835 1365.85 431.036C1366.59 431.238 1367.58 431.04 1368.05 430.597C1368.53 430.154 1368.31 429.627 1367.58 429.425Z" fill="#66800B"/>
<path d="M1301.05 645.151C1300.05 647.021 1300.12 647.821 1301.35 648.599C1303.51 649.968 1303.28 650.025 1308.88 646.743C1313.58 643.989 1318.81 638.033 1316.85 637.666C1316.35 637.571 1314.08 637.425 1311.81 637.34C1309.53 637.255 1306.48 636.765 1305.01 636.25C1302.62 635.41 1302.36 635.689 1302.36 639.016C1302.36 641.051 1301.77 643.812 1301.05 645.151Z" fill="#66800B"/>
<path d="M1369.2 449.437C1369.95 450.831 1370.81 452.887 1369.49 454.705C1369.58 454.636 1369.54 454.873 1369.66 455.217C1369.77 455.557 1369.95 455.954 1370.17 456.37C1370.61 457.209 1371.17 458.112 1371.81 459.151C1374.12 462.677 1374.22 463.547 1377.8 466.986C1378.92 468.019 1380.08 469.026 1381.21 469.908C1382.53 470.942 1383.74 471.923 1384.78 472.808C1385.3 473.252 1385.78 473.666 1386.21 474.09C1386.41 474.297 1386.63 474.515 1386.83 474.796C1386.88 474.879 1386.94 474.964 1386.98 475.057C1387.04 475.184 1387.09 475.293 1387.13 475.505C1387.16 475.722 1387.13 476.037 1386.94 476.317C1386.75 476.59 1386.56 476.691 1386.4 476.765C1386 476.924 1385.8 476.903 1385.62 476.915C1385.44 476.917 1385.29 476.906 1385.15 476.891C1384.88 476.86 1384.65 476.811 1384.46 476.759C1384.04 476.648 1383.73 476.518 1383.36 476.368C1382.65 476.073 1381.86 475.733 1380.29 475.314C1380.02 475.243 1379.76 475.171 1379.49 475.096C1376.84 474.333 1375.08 473.635 1372.81 472.319C1371.19 471.463 1367.55 468.83 1365.62 465.66C1364.54 464.051 1363.27 462.805 1362.42 462.135C1360.05 460.221 1357.18 458.108 1355.07 457.771C1354.43 457.657 1353.91 457.656 1353.52 457.704C1353.35 457.725 1353.27 457.716 1353.26 457.68C1353.26 457.68 1353.26 457.68 1353.26 457.68C1353.24 457.637 1353.35 457.551 1353.57 457.499C1354.65 457.232 1356.33 457.467 1358.14 458.155C1361.43 459.627 1361.69 460.078 1365.07 463.514C1365.56 464.062 1366 464.601 1366.4 465.139C1368.55 467.974 1370.57 469.66 1374.7 471.712C1376.82 472.735 1378.38 473.115 1379.99 473.513C1381.07 473.771 1382.19 474.042 1383.53 474.384C1384.19 474.545 1385 474.764 1385.62 474.829C1385.68 474.836 1385.75 474.832 1385.72 474.839C1385.69 474.849 1385.67 474.841 1385.53 474.922C1385.41 474.98 1385.18 475.235 1385.14 475.49C1385.1 475.976 1385.21 475.911 1385.18 475.904C1385.17 475.873 1385.13 475.805 1385.07 475.733C1384.85 475.434 1384.48 475.06 1384.1 474.682C1382.56 473.188 1381.25 472.186 1380.11 471.356C1377.16 469.114 1375.22 468.145 1371.43 463.686C1370.4 462.425 1369.39 461.022 1368.51 459.462C1368.07 458.678 1367.65 457.853 1367.33 456.92C1367.17 456.446 1367.03 455.958 1366.97 455.354C1366.93 454.775 1366.89 453.949 1367.57 453.107C1368.47 452.462 1367.19 450.032 1365.88 448.626C1364.55 447.101 1363.13 445.913 1362.04 445.074C1360.86 444.18 1359.51 443.245 1358.01 442.282C1354.84 440.255 1351.02 438.072 1347.01 436.092C1346.27 435.732 1345.5 435.383 1344.72 435.098C1341.93 434.065 1339 432.904 1336.04 431.68L1337.7 430.578C1337.73 434.113 1337.74 437.702 1337.64 441.105C1337.43 448.509 1337.16 458.978 1336.98 463.814C1336.98 463.849 1336.98 463.885 1336.98 463.92L1336.74 463.511C1338.81 464.76 1340.24 465.299 1341.69 465.601C1342.38 465.729 1343.07 465.856 1343.86 465.91C1344.63 465.955 1345.51 465.929 1346.21 465.215C1346.9 464.533 1347.51 463.458 1348.19 462.364C1349.23 460.675 1350.66 459.052 1352.29 458.046C1352.99 457.638 1353.34 457.669 1353.27 457.749C1353.2 457.836 1352.79 458.047 1352.21 458.55C1350.53 460.048 1349.41 461.599 1348.98 462.681C1348.97 462.723 1348.95 462.764 1348.94 462.806C1348.52 463.889 1348.21 464.683 1347.62 465.517C1347.32 465.924 1346.93 466.384 1346.26 466.725C1345.59 467.073 1344.74 467.134 1343.95 467.025C1342.94 466.884 1342.2 466.732 1341.5 466.65C1339.88 466.412 1338.77 466.214 1337.63 465.658C1337.02 465.352 1336.67 465.11 1336.06 464.706L1335.61 464.462L1335.6 463.92C1335.69 462.726 1335.76 460.668 1335.6 455.063C1335.36 446.178 1335.3 441.307 1335.24 437.942C1335.21 436.216 1335.26 433.528 1335.31 430.578L1335.28 428.8L1336.97 429.481C1339.52 430.612 1342.31 431.802 1344.8 432.683C1345.03 432.762 1345.26 432.844 1345.5 432.928C1349.52 434.39 1355.13 437.547 1359.35 440.251C1361.05 441.347 1362.5 442.367 1363.53 443.11C1367.2 445.932 1367.1 446.144 1369.2 449.437ZM1291.62 481.474C1292.03 481.292 1292.43 481.104 1292.82 480.912C1294.36 480.173 1295.97 479.372 1297.85 479.22C1299.71 479.084 1301.36 479.532 1302.93 479.909C1305.2 480.51 1307.42 480.916 1309.81 481.972C1310.4 482.28 1311.11 482.621 1311.65 483.531C1312.19 484.506 1311.95 485.562 1311.71 486.22C1311.2 487.575 1310.52 488.562 1309.87 489.628C1308.45 491.912 1307.12 494.411 1308.2 496.437C1309.28 498.613 1311.93 500.66 1314.61 502.716C1315.52 503.403 1316.37 504.02 1317.21 504.629C1319.21 506.061 1320.99 507.259 1322.63 508.291C1323.46 508.805 1324.25 509.279 1325.01 509.697C1325.39 509.904 1325.77 510.099 1326.12 510.261C1326.3 510.343 1326.47 510.415 1326.61 510.465C1326.69 510.492 1326.75 510.51 1326.78 510.517C1326.79 510.538 1326.86 510.474 1326.47 510.571C1326.32 510.639 1326.47 510.576 1326.55 510.513C1326.65 510.446 1326.76 510.355 1326.87 510.264C1327.09 510.074 1327.31 509.864 1327.54 509.644C1327.98 509.205 1328.42 508.733 1328.85 508.251C1329.72 507.282 1330.56 506.254 1331.4 505.134C1333.5 502.36 1335.53 499.012 1335.94 493.65C1336.07 492.305 1336.29 490.891 1336.59 489.401C1337.04 487.104 1337.64 484.843 1338.39 482.636C1338.77 481.529 1339.18 480.444 1339.68 479.364C1339.94 478.824 1340.21 478.292 1340.55 477.756C1340.71 477.498 1340.91 477.212 1341.16 476.945C1341.44 476.69 1341.68 476.27 1342.61 476.194C1343.16 476.226 1343.3 476.416 1343.45 476.514C1343.59 476.629 1343.67 476.719 1343.74 476.805C1343.89 476.979 1343.99 477.134 1344.09 477.286C1344.27 477.586 1344.42 477.873 1344.56 478.16C1344.84 478.732 1345.08 479.297 1345.29 479.864C1345.73 480.996 1346.1 482.125 1346.42 483.255C1347.4 486.491 1348.91 489.798 1350.82 491.858C1356.41 498.706 1356.1 506.107 1355.58 510.447C1355.51 510.885 1355.42 511.304 1355.31 511.7C1354.74 513.735 1354.55 514.851 1355.23 515.888C1355.89 516.978 1356.83 517.983 1357.83 519.099C1359.78 521.373 1361.67 524.211 1364.57 529.487C1364.99 530.273 1365.38 531.053 1365.74 531.822C1368.47 537.444 1371.11 541.9 1374.01 545.975C1375.49 547.964 1376.96 549.956 1378.5 552.058L1378.67 552.274L1378.63 552.55C1378.37 554.201 1378.11 555.904 1377.83 557.696C1377.65 558.848 1377.44 560.248 1377.19 561.847C1376.55 566.371 1375.15 572.611 1371.72 578.379C1367.88 584.697 1363.36 591.671 1356.86 595.044C1354.16 596.604 1352.16 599.391 1350.59 601.515C1349.44 603.136 1348.35 604.522 1347.38 605.634C1347.07 605.991 1346.74 606.345 1346.39 606.688C1346.22 606.859 1346.04 607.027 1345.83 607.192C1345.73 607.273 1345.62 607.355 1345.49 607.433C1345.35 607.508 1345.25 607.611 1344.91 607.636C1343.23 608.841 1341.04 611.456 1339.32 613.591C1337.96 615.252 1336.7 616.945 1335 618.332C1333.27 619.821 1330.91 619.877 1329.01 619.878C1325.38 619.804 1322.2 621.184 1319.94 622.926C1319.44 623.29 1318.97 623.642 1318.52 623.979C1317.49 624.742 1316.57 625.425 1315.75 626.033L1315.64 626.115L1315.55 626.016C1314.78 625.176 1314.12 624.443 1313.56 623.807C1313.1 623.295 1312.91 623.038 1312.94 623.012C1312.94 623.012 1312.94 623.012 1312.94 623.012C1312.97 622.981 1313.34 623.308 1313.95 623.947C1314.5 624.524 1315.1 625.152 1315.75 625.828L1315.58 625.814C1316.81 624.856 1318.19 623.779 1319.69 622.602C1321.99 620.721 1325.27 619.193 1328.99 619.128C1329.16 619.121 1329.31 619.114 1329.48 619.106C1334.82 619.319 1336.36 615.207 1338.5 612.947C1340.37 610.823 1341.45 608.7 1344.91 606.663C1346.18 605.832 1348.11 603.481 1349.89 601.011C1350.97 599.499 1352.25 597.881 1353.91 596.226C1354.72 595.467 1355.4 594.704 1356.6 594.2C1363.31 590.316 1367.11 583.82 1370.69 577.802C1373.31 573.198 1375 567.994 1375.84 561.659C1376.26 558.758 1376.7 555.676 1377.2 552.351L1377.35 552.93C1377.22 552.766 1377.1 552.6 1376.98 552.434C1375.48 550.418 1374.11 548.583 1372.82 546.877C1369.05 541.62 1366.59 537.275 1364.23 532.516C1362.31 528.684 1360.01 524.523 1356.44 520.452C1355.44 519.397 1354.34 518.416 1353.36 516.819C1352.87 516.026 1352.58 514.831 1352.7 513.84C1352.8 512.842 1353.06 511.99 1353.31 511.124C1354.16 508.157 1354.05 504.368 1353.12 500.403C1352.39 497.482 1351.27 494.812 1349.6 493.159C1346.8 489.967 1345.68 486.773 1344.7 483.757C1344.35 482.57 1343.96 481.444 1343.53 480.39C1343.32 479.864 1343.1 479.355 1342.85 478.884C1342.73 478.651 1342.61 478.424 1342.48 478.232C1342.42 478.138 1342.35 478.051 1342.3 477.998C1342.28 477.973 1342.26 477.957 1342.27 477.968C1342.29 477.971 1342.31 478.05 1342.61 478.069C1340.33 481.496 1338.69 487.959 1338.13 493.866C1337.93 497.73 1336.56 502.437 1333.42 506.597C1332.68 507.637 1331.88 508.692 1330.99 509.764C1330.54 510.3 1330.08 510.839 1329.56 511.383C1329.31 511.656 1329.04 511.931 1328.74 512.208C1328.58 512.349 1328.42 512.489 1328.23 512.638C1328.02 512.787 1327.89 512.943 1327.33 513.156C1326.95 513.274 1326.75 513.25 1326.58 513.244C1326.43 513.233 1326.29 513.209 1326.2 513.189C1325.98 513.143 1325.82 513.092 1325.67 513.043C1325.37 512.94 1325.1 512.827 1324.84 512.716C1321.47 511.126 1318.54 509.152 1315.51 507.049C1312.58 504.927 1309.54 502.924 1306.91 499.838C1305.63 498.337 1304.52 495.893 1305.02 493.597C1305.45 491.37 1306.55 489.7 1307.58 488.117C1308.23 487.146 1308.9 486.141 1309.24 485.321C1309.32 485.12 1309.37 484.948 1309.38 484.85C1309.39 484.747 1309.38 484.759 1309.38 484.746C1309.39 484.721 1309.11 484.439 1308.69 484.229C1306.91 483.356 1304.51 482.776 1302.33 482.154C1299.04 481.103 1296.71 481.296 1293.81 482.891C1291.26 484.115 1288.84 485.154 1286.12 485.9C1284.64 486.381 1282.8 488.23 1281.49 489.775C1280.81 490.585 1280.19 491.42 1279.69 492.261C1279.44 492.678 1279.22 493.102 1279.08 493.482C1279.01 493.665 1278.96 493.851 1278.95 493.949C1278.93 494.064 1279.01 493.974 1278.79 493.724C1279.28 494.226 1279.33 494.783 1279.33 495.159C1279.32 495.552 1279.24 495.864 1279.15 496.151C1278.95 496.72 1278.66 497.185 1278.31 497.6C1277.42 498.766 1275.7 498.982 1274.67 498.711C1273.58 498.472 1272.72 498.019 1271.92 497.557C1270.36 496.617 1269.11 495.562 1267.99 494.568C1267.93 494.51 1267.86 494.45 1267.79 494.39C1267.34 493.981 1266.88 493.574 1266.48 493.317C1266.06 493.059 1265.83 493.001 1265.37 493.041C1264.43 493.155 1263.14 493.707 1261.91 494.196C1259.41 495.274 1256.8 497.315 1255.08 499.707C1253.6 501.692 1252.39 503.557 1249.47 504.963C1248.61 505.245 1248.27 505.876 1248.37 506.98C1248.42 507.514 1248.49 508.031 1248.36 508.789C1248.29 509.15 1248.12 509.713 1247.59 510.14C1247.06 510.556 1246.51 510.596 1246.13 510.597C1244.68 510.505 1243.86 510.078 1242.86 509.728C1242.83 509.722 1242.88 509.717 1242.8 509.735C1242.74 509.755 1242.59 509.837 1242.43 509.967C1242.11 510.23 1241.77 510.644 1241.45 511.086C1240.81 511.981 1240.22 513.013 1239.66 514.07C1236.61 519.515 1231.78 525.113 1224.32 525.661C1221.44 526.063 1217.75 527.464 1214.46 528.653C1212.47 529.394 1210.45 530.193 1208.42 531.047C1203.16 533.761 1195.43 534.711 1194.05 540.994C1193.24 543.186 1192.56 546.023 1192.83 547.888C1193.36 552.837 1192.75 556.915 1192.31 561.419C1191.65 567.151 1191.27 572.909 1192.42 578.455C1192.81 580.528 1193.27 582.623 1193.19 584.945C1193.11 587.308 1192.22 589.419 1191.4 591.326C1190.19 593.727 1189.6 595.908 1186.58 597.972C1186.24 598.094 1186.02 598.277 1185.99 598.347C1185.96 598.401 1185.92 598.455 1186.03 598.717C1186.24 599.227 1186.92 599.845 1187.64 600.292C1188.31 600.712 1189.07 601.056 1189.88 601.329C1193.18 602.765 1196.84 601.178 1200.71 599.819C1205.84 598.03 1211.18 596.781 1216.78 596.131C1221.3 595.625 1225.99 594.58 1230.03 592.745C1239.39 588.325 1249.27 586.7 1257.78 585.85C1260.13 585.65 1262.39 585.4 1264.62 585.598C1266.9 585.763 1268.82 586.95 1270.36 587.993C1271.9 589.042 1273.06 590.289 1274.04 591.476C1275.46 593.216 1276.54 594.971 1277.35 596.696C1277.78 597.636 1278.23 598.518 1278.7 599.336C1278.93 599.741 1279.17 600.138 1279.43 600.496C1279.56 600.674 1279.69 600.848 1279.82 600.985C1279.89 601.053 1279.96 601.116 1279.99 601.131C1280 601.143 1280 601.113 1279.89 601.135C1279.76 601.17 1279.74 601.26 1279.74 601.251C1281.65 598.826 1283.7 597.748 1285.64 596.359C1287.48 595.226 1289.15 593.923 1291.56 593.696C1291.86 593.708 1292.28 593.805 1292.51 594.174C1292.72 594.535 1292.67 594.895 1292.61 595.197C1292.47 595.8 1292.19 596.324 1291.89 596.827C1291.28 597.827 1290.54 598.765 1289.7 599.723C1289.1 600.418 1288.5 601.162 1287.93 601.975C1287.65 602.382 1287.37 602.806 1287.13 603.251C1287 603.472 1286.89 603.703 1286.8 603.929C1286.76 604.043 1286.72 604.157 1286.7 604.257C1286.67 604.354 1286.73 604.444 1286.67 604.346C1286.68 604.434 1287.04 604.331 1287.31 604.062C1287.58 603.806 1287.82 603.471 1288.02 603.108C1288.29 602.629 1288.6 602.157 1289.01 601.726C1289.27 601.462 1289.57 601.206 1289.97 601.044C1290.36 600.872 1290.96 600.88 1291.34 601.217C1292.07 601.9 1292.08 602.76 1292.11 603.531C1292.18 605.136 1292.68 606.912 1293.38 608.536C1294.31 610.239 1294.33 612.697 1293.22 614.427C1292.79 615.254 1292.28 616.164 1292.56 616.876C1292.86 617.615 1293.71 618.238 1294.45 618.843C1298.11 621.651 1303.38 623.892 1307.5 621.688C1308.18 621.279 1308.83 620.807 1309.66 620.69C1310.55 620.6 1311.12 621.155 1311.53 621.5C1311.94 621.877 1312.23 622.204 1312.44 622.448C1312.88 622.943 1312.99 623.125 1312.85 623.013C1312.7 622.908 1312.29 622.493 1311.6 621.89C1311.26 621.599 1310.84 621.223 1310.29 621.061C1309.75 620.889 1309.11 621.162 1308.45 621.566C1308.2 621.714 1307.97 621.871 1307.73 622.031C1302.38 624.746 1297.18 621.612 1294.04 619.376C1293.17 618.669 1292.19 618.094 1291.8 616.901C1291.55 615.65 1292.17 614.802 1292.49 614.039C1292.57 613.89 1292.63 613.745 1292.69 613.601C1293.5 611.862 1293.12 610.352 1292.4 608.982C1291.56 607.166 1291.01 605.54 1290.87 603.531C1290.87 603.127 1290.81 602.733 1290.7 602.454C1290.65 602.316 1290.58 602.219 1290.54 602.196C1290.51 602.173 1290.56 602.2 1290.53 602.196C1290.34 602.157 1289.54 602.907 1289.12 603.725C1288.89 604.14 1288.61 604.548 1288.2 604.935C1288 605.127 1287.77 605.321 1287.4 605.479C1287.22 605.555 1286.99 605.627 1286.69 605.614C1286.39 605.608 1286.01 605.449 1285.8 605.219C1285.36 604.719 1285.47 604.359 1285.48 604.16C1285.5 603.946 1285.55 603.794 1285.6 603.647C1285.7 603.361 1285.82 603.12 1285.95 602.886C1286.2 602.42 1286.48 601.991 1286.78 601.558C1287.38 600.699 1288.08 599.849 1288.86 598.985C1288.96 598.876 1289.06 598.769 1289.15 598.662C1290 597.709 1290.77 596.736 1291.27 595.797C1291.38 595.573 1291.49 595.326 1291.55 595.126C1291.62 594.917 1291.63 594.718 1291.61 594.704C1291.61 594.696 1291.64 594.743 1291.66 594.754C1291.67 594.767 1291.66 594.751 1291.6 594.742C1291.48 594.722 1291.27 594.737 1291.07 594.78C1289.29 595.232 1287.66 596.352 1286.27 597.303C1284.18 598.778 1281.87 600.664 1281.04 601.709C1280.97 601.872 1280.88 602.14 1280.49 602.368C1280.1 602.584 1279.71 602.5 1279.55 602.443C1279.2 602.31 1279.09 602.193 1278.97 602.096C1278.75 601.899 1278.61 601.735 1278.48 601.566C1278.21 601.233 1277.99 600.912 1277.78 600.583C1277.36 599.93 1277 599.261 1276.65 598.57C1276.42 598.127 1276.23 597.712 1276.04 597.313C1274.74 594.829 1274 592.61 1269.62 589.125C1268.37 588.309 1266.97 587.327 1265.09 587.046C1263.18 586.754 1260.75 587.002 1257.93 587.279C1253.38 587.756 1247.75 588.568 1240.97 590.497C1237.3 591.559 1233.87 592.808 1230.83 594.354C1226.03 596.58 1221.42 597.534 1216.98 598.105C1211.18 598.86 1205.9 600.252 1201.48 601.863C1197.52 603.354 1193 605.158 1189.15 603.536C1187.52 602.992 1186.01 602.269 1184.75 600.988C1184.16 600.341 1183.46 599.48 1183.58 598.109C1183.78 596.674 1184.96 596.004 1185.71 595.717C1185.66 595.745 1185.87 595.612 1186.02 595.46C1186.18 595.304 1186.35 595.115 1186.51 594.916C1186.83 594.517 1187.13 594.08 1187.42 593.637C1187.98 592.749 1188.46 591.833 1188.87 590.933C1188.96 590.743 1189.04 590.549 1189.13 590.351C1190.69 587.197 1191.14 583.759 1189.99 578.933C1188.87 573.558 1189.16 567.338 1189.94 561.139C1190.41 557.001 1190.95 552.242 1190.6 548.472C1190.17 545.158 1191.03 542.791 1191.92 540.18C1192.59 538.287 1193.72 535.86 1195.67 534.608C1197.5 533.32 1199.34 532.52 1201.13 531.687C1203.08 530.8 1205.2 529.894 1207.52 528.907C1212.43 526.938 1217.48 524.494 1224.32 523.253C1229.65 523.02 1234.75 518.108 1237.51 512.932C1238.09 511.828 1238.7 510.737 1239.47 509.667C1239.86 509.132 1240.27 508.598 1240.87 508.092C1241.41 507.617 1242.58 506.98 1243.74 507.455C1244.61 507.791 1245.63 508.151 1246.16 508.161C1246.27 508.166 1246.23 508.124 1246.08 508.233C1245.93 508.355 1245.95 508.429 1245.97 508.323C1246.01 508.119 1246 507.663 1245.95 507.231C1245.61 505.548 1246.83 503.079 1248.74 502.646C1250.15 501.993 1251.95 499.981 1253.08 498.338C1255.34 495.258 1258.02 493.259 1261 491.937C1262.41 491.402 1263.6 490.759 1265.39 490.587C1266.31 490.505 1267.36 490.92 1267.95 491.348C1268.58 491.776 1269.02 492.183 1269.45 492.566C1269.49 492.6 1269.53 492.634 1269.57 492.668C1272.46 495.395 1276.06 497.046 1276.37 495.992C1276.56 495.766 1276.71 495.506 1276.77 495.309C1276.81 495.213 1276.82 495.131 1276.82 495.134C1276.82 495.126 1276.81 495.286 1277.01 495.5C1276.24 494.626 1276.44 493.886 1276.49 493.462C1276.58 492.999 1276.7 492.673 1276.84 492.345C1277.11 491.717 1277.42 491.198 1277.73 490.709C1278.36 489.74 1279.02 488.908 1279.73 488.105C1281.24 486.562 1282.41 484.847 1285.57 483.672C1287.23 483.273 1289.28 482.504 1291.62 481.474ZM1394.13 442.946C1393.76 443.928 1394.16 445.162 1393.24 446.191C1392.32 447.137 1391.86 446.908 1390.94 447.904C1390 448.887 1388.75 449.42 1388.4 449.926C1388.26 450.13 1388.11 450.18 1387.94 450.208C1387.69 450.251 1387.42 450.237 1387.07 450.587C1386.49 451.172 1386.04 451.417 1385.33 451.671C1384.97 451.791 1384.31 452.165 1383.52 452.401C1382.71 452.669 1381.82 452.434 1381.4 452.383C1380.49 452.271 1379.9 451.448 1379.46 451.104C1379.33 450.994 1379.23 450.897 1379.16 450.808C1379.13 450.771 1379.13 450.728 1379.15 450.695C1379.15 450.695 1379.15 450.695 1379.15 450.695C1379.17 450.655 1379.22 450.631 1379.27 450.653C1379.52 450.759 1379.92 450.894 1380.42 450.974C1381.33 451.085 1381.29 451.551 1382.34 451.652C1383.3 451.598 1383.59 450.933 1384.86 450.343C1385.83 449.856 1385.9 449.212 1386.74 448.578C1386.99 448.383 1387.31 448.195 1387.76 448.002C1389.6 447.174 1389.25 446.326 1390.39 444.968C1391.23 443.95 1391.97 443.008 1392.08 441.939C1392.09 441.964 1392.08 442.2 1392.37 442.481C1392.68 442.743 1392.9 442.695 1392.94 442.695C1393.02 442.671 1392.88 442.694 1392.79 442.741C1392.14 443.061 1391.14 443.92 1390.1 444.772C1389.88 444.951 1389.65 445.124 1389.42 445.283C1387.91 446.312 1386.16 447.678 1384.24 448.277C1383.27 448.577 1382.08 448.895 1380.91 448.998C1379.87 449.077 1378.91 449.144 1378.3 449.168C1377.33 449.206 1376.93 449.224 1376.27 449.383L1376.36 448.804C1376.54 448.891 1376.74 448.983 1376.98 449.09C1377.61 449.364 1378.4 449.871 1378.98 450.46C1379.28 450.756 1379.12 450.855 1378.73 450.729C1378.16 450.545 1377.77 450.244 1377.41 450.277C1376.68 450.342 1376.38 450.354 1375.83 449.776C1375.83 449.775 1375.83 449.774 1375.83 449.772L1373.88 448.793L1376.06 448.295C1376.85 448.385 1377.11 447.79 1377.56 447.769C1378 447.748 1378.06 448.063 1380.24 447.404C1380.36 447.368 1380.47 447.333 1380.59 447.299C1382.32 446.704 1383.31 446.111 1383.97 445.753C1384.68 445.363 1386.33 444.785 1387.35 443.93C1387.67 443.668 1388.09 443.334 1388.51 442.958C1389.58 442.001 1390.86 441.007 1391.82 440.477C1392.23 440.279 1392.62 440.033 1393.49 440.282C1393.93 440.416 1394.35 440.889 1394.44 441.226C1394.56 441.571 1394.53 441.783 1394.5 441.966C1394.41 442.229 1394.29 442.496 1394.13 442.946ZM1390.95 432.48C1391.4 433.042 1392.38 432.67 1392.99 433.322C1393.58 433.977 1393.37 434.408 1394.16 434.998C1394.96 435.599 1395.4 436.551 1395.83 436.769C1396.27 436.997 1395.85 437.387 1396.33 437.824C1396.8 438.277 1396.96 438.682 1397.02 439.311C1397.03 439.598 1397.21 440.15 1396.97 440.81C1396.9 440.997 1396.73 441.27 1396.43 441.345C1396.14 441.413 1395.93 441.326 1395.77 441.265C1395.46 441.127 1395.25 440.979 1395.07 440.908C1394.41 440.624 1394.3 439.794 1394.15 439.413C1394.1 439.292 1394.08 439.186 1394.08 439.099C1394.07 439.062 1394.1 439.029 1394.13 439.009C1394.13 439.009 1394.13 439.009 1394.13 439.009C1394.17 438.984 1394.22 438.978 1394.24 439.009C1394.38 439.157 1394.61 439.364 1394.95 439.527C1395.57 439.794 1395.38 440.158 1396.06 440.446C1396.18 440.488 1396.3 440.441 1396.19 440.404C1396.05 440.377 1395.92 440.51 1395.91 440.458C1395.85 440.357 1395.79 440.125 1395.67 439.618C1395.41 438.691 1394.59 439.031 1394.07 437.674C1393.47 436.306 1392.69 436.834 1391.58 436.017C1390.46 435.202 1389.31 433.786 1388.56 433.41C1387.88 433.05 1386.64 432.559 1386.12 432.476C1386.05 432.459 1386.11 432.466 1386.21 432.373C1386.35 432.244 1386.47 432.004 1386.49 431.819C1386.51 431.628 1386.48 431.513 1386.47 431.442C1386.42 431.305 1386.4 431.297 1386.41 431.293C1386.41 431.297 1386.48 431.364 1386.55 431.425C1386.71 431.555 1386.92 431.702 1387.14 431.844C1387.58 432.133 1388.05 432.422 1388.47 432.758C1388.62 432.872 1388.77 432.99 1388.94 433.11C1390.13 433.945 1391.24 435.118 1391.75 435.758C1392.32 436.504 1392.45 436.679 1393.15 437.241C1393.55 437.567 1393.98 438.156 1394.12 438.78C1394.2 439.094 1394.02 439.12 1393.79 438.931C1393.46 438.656 1393.29 438.345 1393 438.313C1392.41 438.259 1392.18 438.247 1391.98 437.699C1391.76 437.148 1391.2 437.373 1391.01 437.122C1390.82 436.882 1391.05 436.592 1389.62 435.834C1388.9 435.468 1388.35 435.228 1387.92 435.068C1387.42 434.869 1387.06 434.693 1386.76 434.548C1386.46 434.402 1386.05 434.095 1385.61 433.707C1385.39 433.512 1385.16 433.301 1384.91 433.04C1384.78 432.905 1384.66 432.771 1384.5 432.541C1384.43 432.425 1384.34 432.287 1384.26 432.011C1384.23 431.878 1384.2 431.684 1384.24 431.436C1384.28 431.193 1384.42 430.924 1384.59 430.757C1384.64 430.71 1384.68 430.665 1384.73 430.623C1385.9 429.725 1387.05 430.197 1387.85 430.445C1388.68 430.749 1389.37 431.122 1389.8 431.281C1390.67 431.609 1390.47 431.919 1390.95 432.48ZM1429.33 643.849C1428.41 644.319 1427.63 644.786 1426.83 645.281C1425.63 646.05 1424.52 647.052 1422.96 648.066C1421.66 648.928 1420.91 649.385 1420.25 649.943C1419.45 650.648 1418.64 651.36 1416.99 652.307C1416.3 652.67 1415.58 653.008 1414.57 653.031C1412.63 653.375 1410.11 655.128 1409.33 655.945C1408.98 656.312 1408.7 656.529 1408.42 656.71C1407.81 657.11 1407.23 657.327 1406.06 658.36C1404.31 659.882 1403.08 660.609 1401.25 661.48C1399.46 662.459 1393.73 664.753 1391.48 665.218C1389.27 665.907 1386.51 665.401 1385.11 664.706C1384.67 664.508 1384.34 664.292 1384.11 664.108C1384.02 664.03 1383.99 663.967 1384.01 663.936C1384.01 663.936 1384.01 663.936 1384.01 663.936C1384.04 663.897 1384.13 663.906 1384.27 663.977C1384.92 664.331 1386.01 664.66 1387.32 664.618C1389.71 664.416 1390.04 664.763 1393.21 663.821C1396.33 662.708 1398 661.604 1401.43 659.785C1404.09 658.272 1404.77 657.131 1407.04 655.171C1407.7 654.581 1408.53 653.957 1409.62 653.327C1411.69 652.204 1412.79 651.422 1414.57 651.125C1415.66 650.874 1416.93 649.887 1418.29 648.247C1418.56 647.917 1418.85 647.607 1419.17 647.304C1421.07 645.547 1423.35 644.117 1425.82 643.056C1428.92 641.893 1431.19 640.007 1430.55 638.788C1430.44 638.353 1430.18 637.854 1429.8 637.337C1429.6 637.054 1429.38 636.793 1429.27 636.719C1429.15 636.662 1429.29 636.688 1429.08 636.712C1428.67 636.801 1427.9 637.249 1427.21 637.709C1425.79 638.66 1424.29 639.784 1422.73 640.898C1422.59 640.996 1422.45 641.098 1422.31 641.203C1418.42 643.993 1413.65 647.116 1408.95 649.244C1407.89 649.718 1406.73 650.218 1405.49 650.681C1401.16 652.287 1396.41 654.232 1393.96 655.302C1390.83 656.677 1390.04 657.015 1387.32 658.852C1386.55 659.393 1385.63 660.027 1384.78 660.767C1383.98 661.482 1382.98 662.472 1383.57 663.39C1383.86 663.819 1384.06 663.959 1383.96 663.987C1383.88 663.991 1383.49 663.913 1383.12 663.361C1382.6 662.425 1383.22 661.553 1383.6 661.042C1384.01 660.498 1384.41 660.11 1384.68 659.744C1385.77 658.337 1386.35 657.773 1388.32 656.869C1390.31 655.988 1390.96 655.059 1392.1 654.542C1393.25 654.052 1393.34 654.259 1399.01 651.418C1401.25 650.313 1403.11 649.448 1404.68 648.734C1407 647.66 1408.6 646.769 1409.85 646.075C1411.91 644.934 1416.36 642.713 1419.44 640.428C1419.87 640.108 1420.37 639.742 1420.89 639.335C1422.23 638.309 1423.78 637.108 1425.46 635.952C1426.32 635.386 1427.1 634.796 1428.33 634.396C1428.9 634.182 1430.04 634.222 1430.67 634.733C1431.28 635.19 1431.53 635.601 1431.79 635.943C1432.33 636.678 1432.73 637.447 1432.94 638.181C1433.53 640.428 1432.43 641.645 1431.86 642.211C1431.2 642.824 1430.54 643.21 1429.33 643.849ZM1456.65 616.274C1456.81 616.525 1456.99 616.749 1457.18 616.965C1458.3 618.217 1460.23 619.442 1460.61 619.006C1460.85 618.949 1461.14 618.838 1461.41 618.731C1462.1 618.457 1462.51 618.274 1463.42 618.109C1463.55 618.094 1463.71 618.07 1463.97 618.102C1464.21 618.115 1464.75 618.32 1464.98 618.741C1465.2 619.136 1465.17 619.383 1465.17 619.556C1465.15 619.729 1465.13 619.849 1465.1 619.958C1464.97 620.38 1464.83 620.67 1464.68 621.029C1464.52 621.419 1464.34 621.886 1464.19 622.449C1464.14 622.606 1464.1 622.761 1464.06 622.908C1464.05 622.981 1464.03 623.053 1464.02 623.115C1464 623.159 1464 623.284 1464 623.14C1463.98 623.604 1463.85 623.686 1463.8 623.779C1463.74 623.87 1463.7 623.912 1463.66 623.961C1463.59 624.042 1463.52 624.099 1463.47 624.149C1463.36 624.247 1463.26 624.324 1463.16 624.395C1462.96 624.539 1462.78 624.658 1462.6 624.775C1462.23 625.005 1461.87 625.21 1461.52 625.4C1460.82 625.78 1460.15 626.104 1459.57 626.391C1458.88 626.724 1458.31 627.087 1457.95 627.385C1456.91 628.267 1456.47 627.857 1454.95 629.07C1453.44 630.295 1452.45 630.938 1451.01 631.846C1450.82 631.965 1450.58 632.126 1450.32 632.316C1448.53 633.626 1445.11 636.052 1443.8 637.119C1442.41 638.251 1440.58 639.148 1439.05 639.244C1438.86 639.226 1438.76 639.163 1438.65 639.111C1438.26 638.889 1438.04 638.639 1437.88 638.44C1437.81 638.354 1437.81 638.292 1437.83 638.266C1437.83 638.266 1437.83 638.266 1437.83 638.266C1437.86 638.233 1437.95 638.254 1438.05 638.336C1438.29 638.526 1438.71 638.818 1439.05 638.827C1439.41 638.771 1439.88 638.498 1440.32 638.197C1442.02 636.95 1442.4 637.104 1444.68 635.348C1446.52 633.884 1447.63 632.731 1449.46 631.274C1449.88 630.935 1450.34 630.589 1450.86 630.23C1453.74 628.332 1453.79 627.069 1458.32 624.939C1458.46 624.878 1458.6 624.819 1458.73 624.764C1459.69 624.377 1460.42 623.994 1461.02 623.613C1461.32 623.422 1461.58 623.232 1461.81 623.04C1461.92 622.945 1462.02 622.848 1462.11 622.76C1462.15 622.715 1462.18 622.672 1462.2 622.645C1462.2 622.633 1462.21 622.623 1462.18 622.641C1462.17 622.65 1462.15 622.669 1462.12 622.716C1462.1 622.775 1462.02 622.85 1462.01 623.14C1462.01 622.802 1462.03 622.751 1462.04 622.611C1462.06 622.491 1462.07 622.379 1462.09 622.268C1462.12 622.047 1462.16 621.832 1462.2 621.611C1462.28 621.17 1462.38 620.71 1462.52 620.197C1462.56 620.036 1462.6 619.874 1462.63 619.725C1462.66 619.591 1462.68 619.396 1462.66 619.487C1462.65 619.519 1462.64 619.58 1462.67 619.75C1462.7 619.907 1462.86 620.273 1463.19 620.481C1463.51 620.685 1463.72 620.68 1463.82 620.688C1463.93 620.689 1463.95 620.682 1463.97 620.683C1463.98 620.685 1463.78 620.764 1463.61 620.857C1463.36 620.983 1463.07 621.135 1462.78 621.294C1462.23 621.58 1461.6 621.938 1460.61 622.033C1459.58 622.139 1458.57 621.632 1458.01 621.178C1456.85 620.238 1456.19 619.3 1455.47 618.402C1453.97 616.545 1452.75 614.224 1452.72 612.515C1452.65 611.636 1452.74 610.728 1452.89 609.826C1453.17 608.139 1453.26 606.533 1452 605.575C1451.85 605.443 1451.69 605.318 1451.56 605.212C1451.43 605.11 1451.26 605.014 1451.31 605.035C1451.33 605.041 1451.37 605.057 1451.48 605.066C1451.58 605.074 1451.79 605.059 1451.98 604.955C1452.37 604.71 1452.36 604.51 1452.37 604.503C1452.37 604.467 1452.34 604.654 1452.34 604.818C1452.31 605.989 1452.55 607.504 1452.75 608.997C1453.15 612.054 1453.7 615.448 1452.59 618.744C1452 620.689 1450.04 622.646 1447.94 623.295C1445.07 624.283 1442.56 626.03 1441.9 627.53C1441.31 628.743 1441.53 629.669 1441.9 630.423C1442.1 630.834 1442.32 631.244 1442.45 631.792C1442.61 632.328 1442.53 633.112 1442.08 633.748C1441.62 634.424 1440.94 634.983 1440.22 635.526C1439.37 636.169 1438.45 636.891 1437.93 637.735C1437.7 638.124 1437.87 638.299 1437.78 638.306C1437.73 638.309 1437.61 638.222 1437.58 638.034C1437.54 637.852 1437.59 637.619 1437.7 637.379C1438.31 636.126 1439.24 635.494 1439.73 634.904C1439.78 634.849 1439.82 634.795 1439.86 634.743C1440.63 633.521 1441.25 633.051 1441.4 632.135C1441.41 631.711 1441.18 631.267 1440.95 630.931C1440.4 630.077 1440.02 629.259 1440.15 628.332C1440.27 627.657 1440.43 627.332 1440.92 626.514C1441.42 625.723 1442.34 624.434 1444.76 622.883C1445.62 622.334 1446.45 621.91 1447.22 621.551C1450.36 620.086 1450.43 617.834 1450.64 616.359C1450.8 614.928 1450.85 612.058 1450.49 609.297C1450.39 608.504 1450.28 607.721 1450.18 606.984C1450.09 606.356 1449.99 605.671 1449.98 604.726C1449.99 604.477 1449.98 604.24 1450.1 603.796C1450.18 603.594 1450.27 603.202 1450.82 602.86C1451.41 602.543 1451.89 602.703 1452.11 602.772C1452.94 603.124 1453.15 603.409 1453.55 603.706C1454.51 604.439 1455.32 605.825 1455.44 607.066C1455.59 608.305 1455.43 609.36 1455.28 610.274C1455.13 611.145 1455.11 611.85 1455.18 612.331C1455.67 614.338 1455.6 614.45 1456.65 616.274ZM1433.92 473.64C1433.86 473.954 1434.77 473.806 1434.78 474.322C1434.74 474.841 1434.32 474.9 1434.3 475.505C1434.27 475.796 1434.06 476.078 1433.84 476.234C1433.57 476.473 1433.25 476.526 1433.07 476.536C1432.88 476.548 1432.77 476.542 1432.67 476.582C1432.33 476.705 1432.5 476.142 1432.22 476.158C1431.94 476.161 1431.85 476.01 1431.81 475.75C1431.76 475.49 1431.49 475.039 1431.2 475.065C1430.89 475.089 1431.04 474.651 1431.03 474.497C1431.03 474.448 1431.04 474.398 1431.06 474.353C1431.07 474.334 1431.09 474.307 1431.12 474.283C1431.12 474.283 1431.12 474.283 1431.12 474.283C1431.16 474.254 1431.2 474.23 1431.21 474.236C1431.27 474.263 1431.39 474.284 1431.58 474.247C1431.93 474.173 1431.69 474.426 1431.99 474.487C1432.28 474.542 1432.58 474.377 1432.65 474.684C1432.7 474.839 1432.85 474.736 1432.96 474.642C1433.05 474.556 1433.16 474.441 1432.88 474.685C1432.78 474.772 1432.65 474.878 1432.58 474.977C1432.6 475.011 1432.47 474.938 1432.3 474.928C1432.13 474.91 1431.93 474.969 1431.89 475.002C1431.81 475.106 1432.1 474.515 1431.94 474.385C1431.79 474.261 1431.56 474.157 1431.44 473.917C1431.29 473.655 1430.93 473.83 1430.9 473.627C1430.89 473.608 1430.89 473.589 1430.88 473.57C1430.86 473.517 1430.86 473.477 1430.93 473.39C1431.01 473.318 1431.15 473.062 1431.11 472.949C1431.01 472.751 1430.92 473 1430.89 473.101C1430.82 473.373 1430.83 473.47 1431.05 473.608C1431.19 473.688 1431.25 473.875 1431.18 474.158C1431.15 474.301 1431.01 474.392 1430.89 474.369C1430.72 474.337 1430.71 474.2 1430.5 474.267C1430.09 474.393 1429.91 474.419 1430 474.12C1430.1 473.827 1429.58 474.011 1429.57 473.848C1429.57 473.769 1429.64 473.7 1429.65 473.574C1429.65 473.513 1429.64 473.438 1429.6 473.322C1429.57 473.198 1429.48 473.065 1429.46 472.681C1429.45 472.454 1429.54 472.155 1429.71 471.941C1429.88 471.724 1430.07 471.6 1430.22 471.521C1430.53 471.367 1430.72 471.337 1430.88 471.306C1431.1 471.268 1431.27 471.268 1431.41 471.271C1431.78 471.273 1432.24 471.764 1432.63 471.918C1433.06 472.067 1433.59 472.719 1433.91 472.907C1434.25 473.098 1433.96 473.311 1433.92 473.64ZM1428.18 469.276C1428.2 469.593 1428.69 469.636 1428.92 470.251C1429.02 470.396 1429.07 470.571 1429 470.769C1428.88 471.093 1428.65 471.265 1428.44 471.41C1428.22 471.558 1428.03 471.714 1427.69 472.002C1427.32 472.292 1426.88 472.282 1426.62 472.229C1426.34 472.176 1426.17 472.098 1426.02 472.16C1425.73 472.275 1425.89 471.719 1425.58 471.726C1425.27 471.721 1425.14 471.559 1425.05 471.274C1424.95 470.992 1424.55 470.457 1424.22 470.447C1423.87 470.438 1423.97 469.949 1423.94 469.768C1423.93 469.711 1423.94 469.654 1423.95 469.604C1423.96 469.582 1423.98 469.554 1424.01 469.53C1424.01 469.53 1424.01 469.53 1424.01 469.53C1424.05 469.501 1424.09 469.479 1424.1 469.487C1424.18 469.529 1424.31 469.568 1424.52 469.554C1424.91 469.517 1424.68 469.779 1425.03 469.885C1425.38 469.984 1425.7 469.833 1425.87 470.186C1426.07 470.542 1426.49 469.797 1426.61 470.322C1426.7 470.588 1426.79 470.45 1426.67 470.298C1426.58 470.128 1426.21 470.079 1426.09 470.228C1426.02 470.298 1426.05 470.309 1426.09 470.251C1426.17 470.566 1426.29 470.471 1426.3 470.385C1426.32 470.29 1426.29 470.17 1426.22 470.129C1426.03 470.004 1425.71 469.899 1425.44 469.645C1425.39 469.601 1425.33 469.569 1425.27 469.545C1424.87 469.388 1424.37 469.394 1424.04 469.106C1423.84 468.934 1423.58 468.739 1423.44 468.613C1423.41 468.581 1423.38 468.557 1423.41 468.524C1423.42 468.495 1423.58 468.42 1423.64 468.242C1423.7 468.071 1423.64 468.016 1423.62 468.02C1423.59 468.02 1423.58 468.054 1423.56 468.084C1423.5 468.383 1423.55 468.525 1423.82 468.713C1423.98 468.827 1424.1 469.068 1424.06 469.391C1424.05 469.556 1423.9 469.641 1423.77 469.599C1423.57 469.541 1423.54 469.381 1423.32 469.434C1422.89 469.542 1422.71 469.564 1422.76 469.222C1422.82 468.886 1422.29 469.061 1422.25 468.851C1422.24 468.744 1422.3 468.664 1422.29 468.473C1422.3 468.356 1422.24 468.27 1422.28 467.876C1422.29 467.675 1422.46 467.328 1422.72 467.161C1422.97 466.996 1423.17 466.959 1423.34 466.918C1424.44 466.737 1424.68 466.871 1424.99 466.882C1425.27 466.909 1425.68 467.344 1426.09 467.408C1426.1 467.409 1426.11 467.41 1426.11 467.411C1426.65 467.489 1427.48 468.114 1427.92 468.342C1428.38 468.572 1428.13 468.832 1428.18 469.276ZM1431.04 465.364C1430.96 465.72 1431.87 465.684 1431.87 466.108C1431.85 466.528 1431.41 466.693 1431.61 467.1C1431.81 467.518 1431.56 468.014 1431.77 468.198C1431.98 468.394 1431.41 468.455 1431.54 468.747C1431.67 469.047 1431.59 469.269 1431.32 469.562C1431.31 469.569 1431.31 469.575 1431.3 469.581C1431.22 469.645 1431.14 469.755 1430.98 469.896C1430.9 469.964 1430.78 470.046 1430.62 470.077C1430.46 470.11 1430.3 470.071 1430.2 470.02C1429.82 469.797 1429.72 469.581 1429.53 469.52C1429.16 469.381 1429.39 468.9 1429.41 468.707C1429.42 468.643 1429.44 468.589 1429.47 468.542C1429.48 468.523 1429.51 468.503 1429.54 468.49C1429.54 468.49 1429.55 468.49 1429.55 468.49C1429.59 468.473 1429.63 468.466 1429.65 468.481C1429.7 468.548 1429.82 468.641 1430.03 468.696C1430.42 468.777 1430.13 468.99 1430.44 469.127C1430.55 469.18 1430.76 469.073 1430.46 468.943C1430.3 468.886 1430.05 468.994 1430 469.056C1429.93 469.118 1429.94 469.134 1429.98 469.116C1429.99 469.118 1430 469.114 1430.02 469.105C1430.15 469.026 1429.99 468.877 1429.86 468.767C1429.72 468.644 1429.63 468.522 1429.84 468.216C1430.24 467.573 1429.33 467.661 1429.08 467.162C1428.87 466.749 1428.99 466.123 1428.94 465.733C1428.92 465.639 1428.9 465.566 1428.87 465.507C1428.71 465.215 1428.37 464.725 1428.36 464.515C1428.36 464.506 1428.37 464.508 1428.41 464.538C1428.46 464.565 1428.5 464.657 1428.85 464.743C1429.03 464.784 1429.32 464.756 1429.52 464.65C1429.72 464.545 1429.81 464.426 1429.87 464.359C1429.97 464.211 1429.97 464.174 1429.99 464.155C1430.01 464.117 1430.01 464.31 1430.02 464.465C1430.02 464.618 1430.02 464.793 1429.95 464.973C1429.77 465.503 1429.63 466.35 1429.54 466.756C1429.44 467.162 1429.42 467.27 1429.63 467.591C1429.74 467.777 1429.77 468.059 1429.64 468.37C1429.57 468.527 1429.41 468.564 1429.29 468.466C1429.11 468.324 1429.14 468.15 1428.91 468.116C1428.46 468.044 1428.29 467.992 1428.45 467.683C1428.62 467.378 1428.07 467.387 1428.09 467.224C1428.12 467.06 1428.42 467.007 1428.05 466.303C1427.69 465.587 1427.61 465.141 1427.54 464.824C1427.51 464.713 1427.53 464.558 1427.57 464.371C1427.6 464.202 1427.65 464.019 1427.72 463.773C1427.75 463.648 1427.78 463.517 1427.88 463.288C1427.94 463.167 1427.99 463.018 1428.23 462.796C1428.44 462.564 1429.03 462.403 1429.35 462.506C1429.84 462.638 1429.96 462.817 1430.09 462.926C1430.21 463.043 1430.29 463.146 1430.35 463.24C1430.49 463.433 1430.58 463.606 1430.68 463.776C1430.86 464.114 1431 464.413 1431.15 464.562C1431.24 464.654 1431.27 464.726 1431.27 464.8C1431.27 464.969 1431.1 465.111 1431.04 465.364ZM1416.89 463.283C1416.82 463.635 1417.74 463.56 1417.75 464.065C1417.74 464.311 1417.62 464.486 1417.52 464.659C1417.4 464.848 1417.37 464.96 1417.3 465.459C1417.27 465.641 1417.16 465.902 1416.9 466.121C1416.64 466.345 1416.28 466.415 1416.07 466.396C1415.66 466.357 1415.51 466.22 1415.37 466.146C1415.23 466.066 1415.14 466.016 1415.04 466.026C1414.73 466.049 1415.06 465.569 1414.76 465.494C1414.47 465.409 1414.4 465.232 1414.38 464.938C1414.35 464.644 1414.06 464.039 1413.73 463.978C1413.39 463.915 1413.56 463.449 1413.56 463.263C1413.56 463.204 1413.57 463.148 1413.59 463.1C1413.6 463.08 1413.63 463.055 1413.66 463.035C1413.66 463.035 1413.66 463.035 1413.66 463.035C1413.7 463.011 1413.74 462.994 1413.75 463.005C1413.82 463.057 1413.95 463.117 1414.16 463.136C1414.56 463.165 1414.29 463.388 1414.63 463.562C1414.96 463.73 1415.33 463.663 1415.43 464.071C1415.55 464.48 1416.21 463.915 1416.17 464.461C1416.16 464.592 1416.17 464.616 1416.07 464.599C1415.98 464.583 1415.79 464.59 1415.63 464.664C1415.47 464.735 1415.36 464.81 1415.27 464.853C1415.09 464.94 1414.95 464.969 1414.89 464.898C1414.75 464.702 1414.95 463.883 1414.76 463.632C1414.75 463.616 1414.74 463.599 1414.72 463.582C1414.55 463.346 1414.28 463.077 1414.13 462.702C1413.96 462.29 1413.37 462.125 1413.27 461.832C1413.25 461.738 1413.2 461.673 1413.33 461.613C1413.38 461.583 1413.61 461.472 1413.67 461.31C1413.72 461.158 1413.66 461.126 1413.62 461.15C1413.54 461.204 1413.49 461.376 1413.45 461.488C1413.36 461.831 1413.36 461.948 1413.6 462.195C1413.74 462.337 1413.8 462.587 1413.73 462.904C1413.69 463.064 1413.53 463.131 1413.4 463.068C1413.21 462.974 1413.21 462.808 1412.98 462.821C1412.53 462.844 1412.35 462.821 1412.46 462.487C1412.58 462.162 1412.03 462.231 1412.04 462.04C1412.04 461.947 1412.12 461.881 1412.14 461.739C1412.16 461.667 1412.16 461.578 1412.14 461.439C1412.12 461.291 1412.05 461.13 1412.09 460.713C1412.11 460.472 1412.26 460.134 1412.54 459.912C1412.82 459.688 1413.12 459.626 1413.33 459.604C1414.31 459.585 1414.5 459.838 1414.77 459.932C1415.12 460.1 1415.4 460.746 1415.77 461.045C1416.15 461.329 1416.58 462.097 1416.88 462.427C1416.9 462.448 1416.92 462.467 1416.94 462.484C1417.27 462.757 1416.95 462.923 1416.89 463.283ZM1424.25 461.469C1424.32 461.872 1425.2 461.56 1425.38 462.052C1425.56 462.567 1425.19 462.784 1425.55 463.407C1425.62 463.591 1425.73 463.786 1425.63 464.282C1425.58 464.525 1425.34 464.899 1425.04 465.045C1424.75 465.195 1424.55 465.188 1424.4 465.181C1423.88 465.113 1423.73 464.962 1423.53 465.003C1423.19 465.062 1423.42 464.53 1423.07 464.477C1422.71 464.414 1422.58 464.232 1422.46 463.914C1422.34 463.599 1421.81 462.951 1421.44 462.907C1421.05 462.865 1421.09 462.327 1421.02 462.114C1421 462.047 1420.99 461.982 1421 461.925C1421 461.901 1421.03 461.871 1421.05 461.846C1421.05 461.846 1421.05 461.846 1421.05 461.846C1421.09 461.815 1421.13 461.793 1421.15 461.804C1421.23 461.858 1421.39 461.917 1421.63 461.923C1422.08 461.929 1421.86 462.201 1422.29 462.374C1422.72 462.54 1423.1 462.445 1423.36 462.89C1423.64 463.328 1424.22 462.688 1424.39 463.268C1424.41 463.343 1424.42 463.383 1424.4 463.403C1424.36 463.421 1424.25 463.423 1424.09 463.525C1423.93 463.628 1423.84 463.803 1423.81 463.88C1423.73 464.042 1423.68 464.046 1423.59 464.066C1423.42 464.089 1423.21 464.083 1423.05 463.916C1422.68 463.525 1422.5 462.534 1422.18 462.254C1422.12 462.196 1422.05 462.138 1421.98 462.075C1421.68 461.826 1421.33 461.543 1421.06 461.163C1420.71 460.686 1419.95 460.462 1419.67 460.109C1419.63 460.014 1419.48 459.966 1419.72 459.904C1419.79 459.882 1419.91 459.837 1420.03 459.725C1420.16 459.611 1420.22 459.453 1420.23 459.359C1420.24 459.178 1420.18 459.197 1420.16 459.228C1420.09 459.419 1420.18 459.818 1420.21 460.031C1420.3 460.485 1420.34 460.608 1420.69 460.87C1420.89 461.027 1421.06 461.314 1421.08 461.689C1421.1 461.879 1420.95 461.964 1420.79 461.902C1420.56 461.814 1420.5 461.627 1420.27 461.67C1419.81 461.763 1419.61 461.768 1419.62 461.389C1419.63 461.008 1419.1 461.203 1419.05 461.017C1419.02 460.919 1419.08 460.826 1419.05 460.68C1419.02 460.51 1418.92 460.373 1418.58 459.857C1418.51 459.722 1418.43 459.575 1418.39 459.337C1418.35 459.131 1418.32 458.734 1418.64 458.329C1418.79 458.133 1418.99 458.005 1419.18 457.933C1419.34 457.866 1419.5 457.84 1419.61 457.828C1419.84 457.807 1419.99 457.825 1420.13 457.843C1420.62 457.923 1420.83 458.027 1421.03 458.101C1421.44 458.257 1421.88 458.925 1422.36 459.217C1422.77 459.455 1423.34 460.071 1423.75 460.411C1423.84 460.489 1423.93 460.55 1424 460.592C1424.43 460.822 1424.17 461.063 1424.25 461.469ZM1415.25 456.043C1415.3 456.434 1416.19 456.154 1416.35 456.708C1416.42 456.983 1416.35 457.21 1416.3 457.444C1416.27 457.568 1416.25 457.683 1416.23 457.863C1416.2 458.039 1416.29 458.299 1415.96 458.83C1415.63 459.289 1415.14 459.342 1414.92 459.334C1414.11 459.243 1413.99 458.875 1413.73 458.935C1413.42 458.989 1413.69 458.475 1413.37 458.424C1413.04 458.366 1412.93 458.192 1412.84 457.888C1412.75 457.584 1412.29 456.976 1411.93 456.947C1411.56 456.921 1411.62 456.405 1411.57 456.205C1411.55 456.142 1411.55 456.08 1411.56 456.026C1411.56 456.003 1411.58 455.972 1411.61 455.948C1411.61 455.948 1411.61 455.948 1411.61 455.948C1411.65 455.917 1411.69 455.894 1411.7 455.904C1411.78 455.952 1411.93 456.002 1412.16 455.998C1412.59 455.986 1412.37 456.255 1412.77 456.406C1413.17 456.552 1413.54 456.449 1413.76 456.878C1414.01 457.307 1414.56 456.656 1414.76 457.302C1414.84 457.545 1414.98 457.547 1414.92 457.446C1414.9 457.409 1414.82 457.346 1414.63 457.372C1414.44 457.39 1414.18 457.589 1414.06 457.767C1413.84 458.129 1413.83 458.215 1413.76 458.188C1413.6 458.036 1413.49 457.055 1413.21 456.822C1413.18 456.793 1413.15 456.762 1413.11 456.73C1412.84 456.503 1412.49 456.243 1412.21 455.862C1411.9 455.421 1411.2 455.266 1410.89 454.859C1410.79 454.696 1410.56 454.534 1410.65 454.458C1410.67 454.439 1410.73 454.423 1410.83 454.361C1410.92 454.304 1411.04 454.162 1411.06 454.056C1411.11 453.841 1411.02 453.862 1411.01 453.897C1410.96 453.985 1410.96 454.155 1410.96 454.271C1410.97 454.677 1411.01 454.8 1411.32 455.04C1411.5 455.177 1411.64 455.446 1411.65 455.798C1411.65 455.976 1411.51 456.065 1411.36 456.014C1411.14 455.937 1411.09 455.76 1410.86 455.805C1410.41 455.894 1410.22 455.903 1410.24 455.531C1410.28 455.165 1409.75 455.336 1409.71 455.136C1409.69 455.036 1409.75 454.952 1409.74 454.795C1409.73 454.716 1409.71 454.621 1409.65 454.473C1409.62 454.395 1409.58 454.309 1409.54 454.177C1409.51 454.04 1409.43 453.881 1409.5 453.508C1409.54 453.25 1409.78 452.909 1410.04 452.769C1410.3 452.622 1410.5 452.595 1410.65 452.576C1411.32 452.539 1411.54 452.655 1411.8 452.715C1412.03 452.785 1412.19 452.852 1412.33 452.906C1412.67 453.04 1413.06 453.66 1413.51 453.916C1413.93 454.141 1414.52 454.792 1414.91 455.095C1414.97 455.134 1415.02 455.166 1415.06 455.19C1415.47 455.413 1415.2 455.649 1415.25 456.043ZM1404.61 449.296C1404.71 449.782 1405.63 449.559 1405.85 450.065C1406.07 450.571 1405.75 450.923 1406.22 451.346C1406.42 451.526 1406.56 451.751 1406.68 451.95C1406.89 452.27 1407.03 452.566 1407.23 452.674C1407.58 452.882 1407.1 453.181 1407.4 453.584C1407.7 454.015 1407.73 454.48 1407.38 455.007C1407.26 455.171 1407.04 455.454 1406.72 455.588C1406.08 455.879 1405.41 455.65 1405.07 455.683C1404.51 455.716 1404.28 455.031 1404.17 454.769C1404.13 454.683 1404.11 454.604 1404.11 454.536C1404.11 454.507 1404.13 454.476 1404.16 454.452C1404.16 454.452 1404.16 454.452 1404.16 454.452C1404.2 454.422 1404.24 454.405 1404.26 454.422C1404.37 454.501 1404.56 454.595 1404.83 454.589C1405.08 454.58 1405.15 454.629 1405.24 454.707C1405.32 454.781 1405.44 454.89 1405.68 454.86C1405.97 454.819 1406.08 454.608 1406.07 454.537C1406.05 454.484 1405.99 454.609 1406.09 454.549C1406.21 454.438 1406.01 454.276 1405.83 454.186C1405.64 454.075 1405.5 453.967 1405.46 453.496C1405.45 453.331 1405.4 453.205 1405.33 453.112C1404.97 452.586 1404.33 452.814 1403.73 452.193C1403.01 451.44 1402.69 450.093 1402.32 449.596C1402.17 449.393 1401.99 449.162 1401.81 448.897C1401.56 448.551 1401.29 448.103 1401.14 447.799C1401.13 447.774 1401.12 447.752 1401.14 447.765C1401.15 447.77 1401.17 447.79 1401.23 447.832C1401.27 447.858 1401.32 447.893 1401.41 447.932C1401.54 447.977 1401.69 448.051 1402.04 447.995C1402.38 447.931 1402.63 447.694 1402.73 447.539C1402.84 447.377 1402.85 447.316 1402.87 447.245C1402.9 447.138 1402.9 447.103 1402.9 447.088C1402.9 447.055 1402.9 447.084 1402.9 447.11C1402.92 447.247 1402.98 447.469 1403.03 447.687C1403.15 448.129 1403.27 448.605 1403.26 449.08C1403.26 449.124 1403.26 449.17 1403.26 449.217C1403.23 450.099 1403.36 451.317 1403.4 451.909C1403.44 452.529 1403.47 452.691 1403.81 453.162C1404.01 453.433 1404.15 453.839 1404.19 454.276C1404.21 454.495 1404.06 454.581 1403.87 454.452C1403.59 454.262 1403.54 454.002 1403.28 453.962C1402.77 453.876 1402.56 453.803 1402.61 453.339C1402.67 452.881 1402.1 452.914 1402.07 452.671C1402.05 452.426 1402.33 452.334 1401.74 451.297C1401.36 450.616 1401.15 450.099 1401.01 449.701C1400.93 449.496 1400.88 449.331 1400.82 449.188C1400.75 448.98 1400.74 448.643 1400.71 448.261C1400.7 448.067 1400.69 447.869 1400.67 447.653C1400.66 447.541 1400.65 447.434 1400.64 447.304C1400.63 447.166 1400.59 447.078 1400.64 446.695C1400.66 446.635 1400.68 446.514 1400.75 446.383C1400.82 446.242 1400.98 445.967 1401.38 445.796C1401.8 445.634 1402.1 445.725 1402.28 445.79C1402.44 445.851 1402.52 445.907 1402.59 445.958C1402.83 446.134 1402.88 446.21 1402.97 446.305C1403.11 446.475 1403.22 446.62 1403.32 446.77C1403.52 447.068 1403.71 447.373 1403.89 447.643C1404.06 447.899 1404.24 448.123 1404.38 448.249C1404.82 448.614 1404.52 448.812 1404.61 449.296ZM1368.06 431.698C1367.77 431.615 1367.88 432.515 1367.51 432.48C1367.16 432.43 1367.06 431.973 1366.75 432.107C1366.41 432.237 1366.1 431.887 1365.93 432.052C1365.76 432.201 1365.82 431.737 1365.66 431.712C1365.65 431.709 1365.63 431.71 1365.61 431.715C1365.37 431.777 1365.23 431.638 1365.16 431.37C1365.12 431.235 1365 431.051 1364.91 430.846C1364.81 430.642 1364.76 430.411 1364.66 430.253C1364.56 430.09 1364.67 429.928 1364.8 429.865C1364.93 429.797 1365.09 429.808 1365.16 429.795C1365.21 429.786 1365.26 429.795 1365.31 429.811C1365.32 429.818 1365.35 429.843 1365.38 429.87C1365.38 429.87 1365.38 429.87 1365.38 429.87C1365.41 429.904 1365.44 429.941 1365.43 429.952C1365.42 430.002 1365.42 430.114 1365.54 430.247C1365.65 430.366 1365.65 430.351 1365.62 430.353C1365.59 430.346 1365.54 430.366 1365.62 430.354C1365.81 430.326 1365.93 430.001 1365.89 430.226C1365.9 430.36 1366.04 430.172 1366.12 430.059C1366.19 429.972 1366.22 429.937 1366.3 430.162C1366.53 430.671 1366.59 429.756 1366.73 429.611C1366.87 429.471 1367.25 429.836 1367.27 429.767C1367.27 429.76 1367.27 429.754 1367.26 429.749C1367.25 429.731 1367.2 429.726 1367.13 429.841C1367.07 429.943 1367.06 430.237 1367.19 430.376C1367.42 430.606 1367.35 430.638 1367.26 430.595C1367.23 430.579 1367.21 430.55 1367.18 430.504C1367.05 430.254 1366.62 430.009 1366.39 429.886C1366.16 429.758 1366.08 429.743 1365.95 429.919C1365.88 430.024 1365.75 430.025 1365.5 429.934C1365.37 429.89 1365.26 429.768 1365.28 429.648C1365.31 429.473 1365.44 429.479 1365.4 429.268C1365.32 428.842 1365.35 428.652 1365.62 428.799C1365.87 428.954 1365.79 428.418 1365.93 428.445C1366.06 428.481 1366.11 428.765 1366.62 428.459C1367.16 428.169 1367.55 428.175 1367.82 428.176C1367.85 428.177 1367.88 428.183 1367.91 428.193C1368.2 428.286 1368.6 428.618 1369.07 429.042C1369.3 429.229 1369.61 429.845 1369.48 430.434C1369.37 431.011 1369.07 431.32 1368.92 431.531C1368.88 431.584 1368.85 431.634 1368.82 431.679C1368.58 432.067 1368.37 431.758 1368.06 431.698ZM1316.8 636.717C1316.86 636.737 1316.93 636.753 1317.02 636.774C1317.28 636.834 1317.61 636.95 1317.88 637.258C1318.15 637.572 1318.22 637.925 1318.25 638.176C1318.3 638.683 1318.25 639.009 1318.19 639.355C1318.09 640.006 1317.89 640.611 1317.42 641.134C1316.43 642.202 1315.96 642.023 1314.94 643.217C1313.91 644.404 1312.5 645.153 1312.07 645.727C1311.64 646.305 1311.24 645.89 1310.51 646.555C1310.07 646.953 1309.67 647.203 1309.26 647.389C1308.98 647.512 1308.71 647.603 1308.38 647.71C1307.56 647.966 1305.31 649.142 1304.45 649.701C1304.04 649.99 1303.34 650.117 1302.78 649.868C1302.24 649.63 1301.96 649.267 1301.71 649.063C1301.55 648.93 1301.45 648.812 1301.37 648.712C1301.33 648.669 1301.33 648.624 1301.35 648.593C1301.35 648.593 1301.35 648.593 1301.35 648.593C1301.38 648.554 1301.43 648.536 1301.49 648.566C1301.77 648.704 1302.23 648.939 1302.75 648.984C1303.21 648.999 1303.35 648.969 1303.63 648.952C1303.9 648.921 1304.25 648.848 1304.83 648.472C1305.97 647.699 1306.53 646.974 1308.07 646.318C1308.22 646.251 1308.37 646.179 1308.5 646.102C1309.57 645.462 1309.61 644.68 1311.46 643.755C1313.51 642.643 1313.11 641.784 1314.46 640.088C1314.82 639.611 1315.23 639.106 1315.55 638.65C1315.71 638.427 1315.84 638.184 1315.88 638.115C1315.92 638.09 1315.86 638.124 1315.98 638.439C1316.04 638.586 1316.2 638.776 1316.34 638.851C1316.48 638.94 1316.56 638.945 1316.61 638.949C1315.85 638.755 1314.79 638.614 1314.21 638.596C1313.5 638.577 1312.67 638.574 1311.76 638.556C1310.82 638.536 1309.83 638.439 1308.83 638.246C1307.57 637.99 1306.17 637.875 1304.61 637.392C1304.22 637.261 1303.82 637.134 1303.55 637.077C1303.42 637.045 1303.33 637.058 1303.42 637.028C1303.53 637.005 1303.7 636.797 1303.66 636.802C1303.59 636.808 1303.46 637.244 1303.4 637.648C1303.33 638.073 1303.28 638.541 1303.24 639.016C1303.08 640.702 1302.62 642.217 1302.29 643.083C1301.87 644.137 1301.66 644.561 1301.33 645.297C1301.22 645.512 1301.11 645.761 1301.01 646.063C1300.75 646.814 1300.48 647.595 1301.18 648.322C1301.48 648.67 1301.33 648.779 1300.87 648.539C1300.17 648.183 1300.02 647.351 1299.9 646.932C1299.62 646.014 1299.69 645.559 1300.32 644.834C1300.34 644.817 1300.35 644.8 1300.36 644.783C1300.87 644.21 1300.5 643.629 1300.69 643.212C1300.85 642.765 1301.3 642.851 1301.38 640.312C1301.39 639.832 1301.37 639.398 1301.33 639.016C1301.26 638.095 1301.21 637.366 1301.32 636.573C1301.38 636.189 1301.46 635.702 1301.92 635.194C1302.42 634.668 1303.09 634.582 1303.43 634.579C1304.18 634.579 1304.77 634.836 1305.42 635.097C1306.17 635.417 1307.26 635.711 1308.19 635.803C1309.1 635.895 1310.56 636.091 1311.85 636.122C1312.85 636.147 1313.77 636.17 1314.34 636.134C1315.71 636.056 1315.66 636.398 1316.8 636.717Z" fill="#66800B"/>
</g>
</svg>
