<svg width="1603" height="742" viewBox="0 0 1603 742" fill="none" xmlns="http://www.w3.org/2000/svg">
<g style="mix-blend-mode:multiply">
<path d="M1332.01 428.618C1333.38 429.233 1334.93 429.909 1336.51 430.578V463.919C1335.55 463.377 1334.69 462.779 1334.06 462.19C1331.87 460.146 1330.19 459.5 1328.48 460.043C1327.13 460.471 1325.18 460.345 1324.14 459.764C1322.51 458.855 1322.67 458.429 1325.27 456.728C1328.28 454.757 1328.28 454.731 1326.27 450.499C1324.64 447.1 1322.41 445.328 1315.1 441.652C1310.07 439.123 1304.38 437.055 1302.46 437.055C1298.07 437.055 1296.26 433.006 1299.57 430.587C1301.53 429.148 1301.25 428.79 1296.11 426.296C1290.66 423.647 1290.58 423.535 1293.19 422.089C1294.66 421.272 1297.03 420.585 1298.45 420.562C1301.22 420.517 1304.72 424.509 1304.72 427.71C1304.72 428.777 1305.87 431.11 1307.27 432.894C1309.79 436.092 1309.85 436.105 1311.7 433.796C1312.73 432.508 1316.03 430.05 1319.02 428.334L1324.47 425.213L1332.01 428.618Z" fill="#AF3029"/>
<path d="M1197.37 460.759C1200.43 461.761 1206.38 463.06 1210.6 463.645C1214.83 464.231 1218.91 464.783 1219.69 464.874C1220.46 464.964 1221.37 464.594 1221.7 464.052C1222.3 463.084 1215.21 459.133 1212.88 459.133C1212.22 459.133 1210.22 458.045 1208.42 456.715C1205.53 454.578 1204.5 454.442 1199.58 455.545C1195.14 456.54 1193.49 456.45 1191.39 455.097C1185.76 451.474 1175.17 451.761 1175.17 455.536C1175.17 457.19 1186.67 460.571 1189.38 459.713C1190.72 459.286 1194.32 459.757 1197.37 460.759Z" fill="#AF3029"/>
<path d="M1153.88 430.121C1156.43 436.066 1164.25 445.63 1168.59 448.102C1173.26 450.761 1178.3 445.243 1176.93 438.982C1176.51 437.069 1174.61 433.778 1172.71 431.669C1170.8 429.56 1168.06 426.506 1166.6 424.882C1165.14 423.258 1163.92 421.398 1163.88 420.748C1163.68 417.297 1161.64 414.54 1157.34 411.89C1152.88 409.145 1150.95 407.391 1141.51 397.537C1138.09 393.965 1130.11 389.529 1127.01 389.476C1124.62 389.435 1128.13 395.192 1133.83 400.67C1136.54 403.268 1139.57 406.989 1140.57 408.937C1141.56 410.886 1144.41 415.138 1146.88 418.386C1149.36 421.634 1152.51 426.915 1153.88 430.121Z" fill="#AF3029"/>
<path d="M1243.07 443.822C1242.67 445.086 1242.67 446.656 1243.08 447.312H1243.07C1243.96 448.752 1244.93 448.79 1247.02 447.468C1248.26 446.681 1248.33 445.491 1247.33 441.891C1246.23 437.907 1246.37 437.014 1248.38 435.004C1250.67 432.712 1250.7 432.727 1252.49 437.013C1253.48 439.388 1255.36 441.901 1256.66 442.597C1258.74 443.711 1259.02 443.497 1259.02 440.809C1259.02 439.13 1258.23 436.222 1257.26 434.347C1255.13 430.225 1255.91 427.731 1260.05 425.484C1263.7 423.499 1261.38 423.189 1255.5 424.876C1252.07 425.861 1251.04 425.692 1249.19 423.839C1244.15 418.797 1253.7 413.189 1260.91 416.963C1264.94 419.076 1268.76 417.733 1270.68 413.531C1272.18 410.226 1271.85 410.121 1267.32 412.466C1264.61 413.867 1262.65 413.983 1257.68 413.04C1251.88 411.941 1251.23 412.055 1248.66 414.633C1246.77 416.518 1245.6 419.485 1245 423.867C1244.52 427.419 1243.24 431.598 1242.15 433.154C1240.35 435.718 1240.33 436.244 1241.98 438.754C1242.98 440.28 1243.47 442.557 1243.07 443.822Z" fill="#AF3029"/>
<path d="M1214.31 436.049C1215.47 435.683 1217.87 436.148 1219.65 437.081C1221.92 438.27 1223.45 438.425 1224.78 437.6C1226.67 436.416 1234.24 420.823 1234.23 418.118C1234.23 417.321 1235.55 415.802 1237.17 414.742L1240.11 412.814L1237.75 409.499C1233.85 404.023 1233.67 400.043 1237.11 395.416L1240.14 391.342L1236.36 387.443C1234.28 385.299 1231.95 383.544 1231.18 383.544C1230.41 383.544 1228.4 385.361 1226.7 387.582C1225.01 389.803 1221.81 392.218 1219.6 392.948C1216.89 393.84 1215.09 395.444 1214.1 397.831C1213.24 399.901 1210.82 402.306 1208.31 403.59C1205.93 404.803 1203.35 407.187 1202.57 408.887C1201.34 411.606 1200.86 411.813 1198.6 410.604C1196.46 409.458 1195.76 409.598 1194.41 411.445C1193.48 412.718 1193.08 414.919 1193.48 416.614C1194.92 422.782 1197.63 431.435 1198.55 432.84C1199.7 434.606 1211.38 436.981 1214.31 436.049Z" fill="#AF3029"/>
<path d="M1049.67 370.746C1048.71 373.3 1049.46 382.924 1050.78 385.069C1051.51 386.252 1056.19 384.837 1057.33 383.09C1058.52 381.265 1057.37 377.847 1053.76 372.517C1050.75 368.07 1050.68 368.037 1049.67 370.746Z" fill="#AF3029"/>
<path d="M1242.49 469.823C1241.47 469.837 1241.96 470.533 1243.67 471.48C1245.29 472.378 1246.87 472.862 1247.18 472.555C1247.98 471.76 1244.6 469.794 1242.49 469.823Z" fill="#AF3029"/>
<path d="M1277.08 464.758C1272.23 463.202 1266.99 465.215 1263.64 469.919C1260.55 474.257 1262.24 474.21 1269.26 469.763C1272.33 467.814 1276.2 466.166 1277.86 466.099C1280.66 465.987 1280.61 465.892 1277.08 464.758Z" fill="#AF3029"/>
<path d="M1228.97 464.938C1228.61 465.532 1228.97 466.3 1229.79 466.644C1230.6 466.988 1232.34 467.041 1233.63 466.761C1234.93 466.481 1236.69 466.245 1237.54 466.236C1238.39 466.227 1238.76 465.688 1238.36 465.039C1237.44 463.559 1229.87 463.478 1228.97 464.938Z" fill="#AF3029"/>
<path d="M1253.21 463.882C1247.65 462.384 1245.18 463.171 1247.32 465.757C1248.31 466.952 1249.97 467.221 1252.99 466.676C1258.8 465.627 1258.82 465.392 1253.21 463.882Z" fill="#AF3029"/>
<path d="M1287.82 434.331C1285.48 434.331 1285.82 436.421 1288.26 437.06C1291.29 437.852 1292.43 437.809 1294.99 436.806C1296.95 436.041 1296.7 435.783 1293.37 435.117C1291.21 434.685 1288.71 434.331 1287.82 434.331Z" fill="#AF3029"/>
<path d="M1283.94 415.228C1283.12 416.757 1283.18 417.852 1284.12 418.796C1287.14 421.817 1289.18 418.417 1287.31 413.487C1286.38 411.047 1286.55 409.907 1288.11 408.182C1289.92 406.188 1289.92 405.985 1288.19 405.985C1286.02 405.985 1283.36 410.167 1284.42 411.891C1284.81 412.513 1284.59 414.015 1283.94 415.228Z" fill="#AF3029"/>
<path d="M1260.11 378.252C1263.57 377.491 1263.87 377.727 1266.13 382.982C1267.88 387.065 1268.98 388.327 1270.35 387.801C1271.38 387.409 1272.77 387.088 1273.44 387.088C1274.17 387.088 1274.06 386.347 1273.16 385.266C1270.91 382.558 1273.55 380.203 1276.29 382.473C1278.13 384.002 1278.23 383.781 1277.47 379.722C1276.47 374.378 1272.08 364.38 1272.05 367.361C1272.03 368.529 1270.59 370.808 1268.85 372.426C1266.45 374.65 1264.88 375.194 1262.43 374.656C1259.89 374.098 1258.9 374.496 1257.82 376.499C1256.53 378.919 1256.65 379.011 1260.11 378.252Z" fill="#AF3029"/>
<path d="M1315.72 377.049C1315.07 377.45 1314.54 378.31 1314.54 378.96C1314.54 379.609 1315.07 379.812 1315.72 379.411C1316.37 379.009 1316.9 378.15 1316.9 377.5C1316.9 376.85 1316.37 376.647 1315.72 377.049Z" fill="#AF3029"/>
<path d="M1237.12 365.206C1234.23 368.436 1231.86 371.492 1231.86 371.997C1231.86 374.13 1234.77 372.621 1238.49 368.55C1240.69 366.15 1242.47 363.094 1242.44 361.759C1242.4 359.804 1241.37 360.473 1237.12 365.206Z" fill="#AF3029"/>
<path d="M1257.64 365.062C1257.1 366.022 1257.01 367.724 1257.44 368.846C1258.18 370.757 1258.32 370.751 1259.79 368.749C1260.98 367.118 1261.03 366.223 1259.98 364.965C1258.82 363.561 1258.47 363.575 1257.64 365.062Z" fill="#AF3029"/>
<path d="M1264.09 360.809C1264.35 361.296 1264.93 362.701 1265.37 363.931C1265.81 365.161 1266.4 365.935 1266.69 365.651C1267.56 364.773 1265.9 359.923 1264.73 359.923C1264.11 359.923 1263.83 360.322 1264.09 360.809Z" fill="#AF3029"/>
<path d="M1255.84 356.559C1253.36 356.005 1251.74 358.85 1253.4 360.849C1254.48 362.149 1255 361.937 1256.2 359.708C1257.45 357.398 1257.39 356.906 1255.84 356.559Z" fill="#AF3029"/>
<path d="M1265.34 353.219C1265.1 353.46 1266.01 355.067 1267.36 356.79C1270.66 360.976 1274.1 361.215 1271.39 357.07C1269.62 354.374 1266.3 352.259 1265.34 353.219Z" fill="#AF3029"/>
<path d="M1246.04 348.947C1246.04 349.694 1246.9 351.166 1247.95 352.218C1249 353.27 1250.17 353.825 1250.54 353.451C1250.91 353.077 1250.05 351.605 1248.63 350.179C1247.2 348.754 1246.04 348.199 1246.04 348.947Z" fill="#AF3029"/>
<path d="M1254.84 347.43C1256.4 347.039 1258.64 347.265 1259.83 347.933C1262.49 349.436 1263.42 347.607 1261.29 345.044C1260.4 343.968 1258.76 343.495 1257.24 343.876C1255.45 344.327 1253.74 343.522 1251.47 341.149C1248.32 337.863 1248.29 337.675 1250.05 333.452C1251.69 329.53 1251.68 328.745 1249.93 325.088C1246.79 318.487 1242.49 318.228 1242.49 324.639C1242.49 326.592 1241.93 329.238 1241.25 330.519C1239.47 333.834 1240.65 336.457 1246.7 342.679C1250.98 347.084 1252.55 348.004 1254.84 347.43Z" fill="#AF3029"/>
<path d="M1309.9 434.481C1310.01 434.545 1309.82 434.5 1309.81 434.531C1309.81 434.542 1309.97 434.433 1310.1 434.288C1310.38 433.989 1310.66 433.588 1310.94 433.189C1312.73 430.979 1314.49 429.294 1317.42 427.554C1317.72 427.377 1318.02 427.217 1318.3 427.072C1320.7 425.829 1321.89 425.424 1323.96 424.333L1324.39 424.077L1324.88 424.288C1325.66 424.672 1326.58 425.099 1327.78 425.609C1329.37 426.29 1330.95 427.015 1332.42 427.708C1334.06 428.474 1335.58 429.178 1336.86 429.733L1337.41 429.954L1337.42 430.578C1337.42 431.686 1337.43 432.618 1337.48 433.3C1337.68 435.616 1337.1 435.861 1337.22 439.15C1337.35 442.439 1337.28 444.432 1337.09 447.309C1336.9 450.186 1336.74 459.023 1336.97 462.237C1337.01 462.788 1337.03 463.352 1337.04 463.919L1337.05 464.827L1336.24 464.383C1335.34 463.88 1334.47 463.27 1333.74 462.531C1332.61 461.346 1331.4 460.373 1330.31 460.125C1329.68 459.97 1329.15 459.999 1328.74 460.056C1328.57 460.081 1328.48 460.072 1328.47 460.037C1328.47 460.037 1328.47 460.036 1328.47 460.036C1328.46 459.993 1328.57 459.907 1328.79 459.849C1329.88 459.493 1331.69 459.905 1333.32 461.057C1333.73 461.33 1334.08 461.597 1334.38 461.849C1335.26 462.554 1335.93 462.992 1336.75 463.496L1336.02 463.919C1336.05 462.835 1336.08 461.547 1336 459.338C1335.84 454.471 1335.52 451.547 1335.73 445.82C1335.94 440.094 1335.07 438.779 1335.56 430.695C1335.56 430.656 1335.57 430.617 1335.57 430.578L1336.14 431.441C1334.33 430.544 1332.91 429.886 1331.68 429.352C1328.91 428.151 1327.06 427.665 1323.91 426.448L1325.14 426.389C1324.25 426.965 1323.23 427.604 1322 428.334C1321.28 428.763 1320.53 429.198 1319.77 429.635C1317.33 431.059 1314.5 432.881 1312.77 434.65C1312.4 435.081 1312.07 435.5 1311.54 436.002C1311.26 436.23 1310.89 436.611 1310.09 436.718C1309.25 436.787 1308.72 436.381 1308.44 436.159C1307.36 435.182 1306.93 434.411 1306.32 433.642C1305.03 431.884 1304.2 430.277 1303.73 428.729C1303.65 428.439 1303.58 428.141 1303.57 427.71C1303.6 425.577 1301.02 421.971 1298.47 421.787C1297.06 421.851 1295.2 422.397 1293.77 423.135C1293.29 423.391 1292.7 423.724 1292.56 423.85C1292.55 423.859 1292.6 423.84 1292.65 423.653C1292.72 423.462 1292.65 423.173 1292.6 423.116C1292.51 422.991 1292.63 423.151 1292.77 423.244C1293.06 423.458 1293.48 423.698 1293.9 423.92C1294.75 424.372 1295.67 424.811 1296.61 425.264C1297.7 425.792 1298.8 426.297 1299.95 426.953C1300.24 427.125 1300.54 427.303 1300.85 427.546C1301.15 427.814 1301.6 428.025 1301.85 428.973C1301.96 429.456 1301.79 429.973 1301.62 430.246C1301.45 430.536 1301.28 430.708 1301.13 430.862C1300.82 431.157 1300.54 431.361 1300.28 431.561C1297.93 433.118 1299.44 435.827 1302.18 435.909C1302.27 435.917 1302.37 435.922 1302.46 435.925C1307.16 436.648 1311.37 438.899 1315.44 440.972C1318.79 442.769 1321.8 444.551 1323.51 446.137C1325.23 447.694 1325.97 449.101 1326.55 450.362C1326.9 451.142 1327.26 451.855 1327.62 452.74C1327.79 453.181 1328 453.664 1328 454.316C1328 455.011 1327.46 455.616 1326.94 456.024C1326.49 456.384 1326 456.707 1325.48 457.051C1324.9 457.443 1324.25 457.848 1323.74 458.319C1323.62 458.435 1323.51 458.561 1323.47 458.656C1323.43 458.753 1323.42 458.754 1323.48 458.862C1323.63 459.07 1323.97 459.295 1324.29 459.49C1325.2 460.01 1326.39 460.15 1327.44 460.12C1328.23 460.082 1328.55 460.007 1328.48 460.106C1328.41 460.193 1327.93 460.421 1327.1 460.51C1325.95 460.619 1324.88 460.488 1323.99 460.035C1323.54 459.763 1323.06 459.629 1322.76 458.984C1322.64 458.625 1322.8 458.284 1322.91 458.094C1323.04 457.888 1323.17 457.737 1323.28 457.597C1323.86 456.917 1324.35 456.488 1324.84 456.071C1325.33 455.657 1325.82 455.299 1326.28 454.918C1326.51 454.731 1326.69 454.54 1326.75 454.419C1326.82 454.317 1326.86 454.057 1326.76 453.612C1326.49 452.501 1325.96 451.588 1325.54 450.845C1324.95 449.851 1324.36 449.244 1323.77 448.508C1322.63 447.389 1323.3 446.609 1315.13 442.677C1314.98 442.608 1314.83 442.539 1314.68 442.469C1309.26 439.984 1304.96 438.473 1302.46 438.265C1300.85 438.291 1299.39 437.827 1298.31 436.977C1297.53 436.368 1296.62 435.193 1296.6 433.6C1296.55 432.003 1297.59 430.47 1298.85 429.61C1299.07 429.453 1299.29 429.29 1299.44 429.158C1299.51 429.095 1299.57 429.035 1299.57 429.035C1299.57 429.027 1299.5 429.148 1299.51 429.34C1299.53 429.53 1299.6 429.595 1299.59 429.575C1299.58 429.559 1299.52 429.494 1299.45 429.43C1299.29 429.295 1299.06 429.141 1298.82 428.994C1297.85 428.4 1296.71 427.845 1295.62 427.312C1294.83 426.93 1294.06 426.565 1293.31 426.197C1292.64 425.842 1291.97 425.611 1290.99 424.792C1290.85 424.664 1290.71 424.529 1290.56 424.263C1290.41 424.02 1290.27 423.55 1290.37 423.111C1290.61 422.26 1291 422.105 1291.24 421.887C1291.74 421.511 1292.16 421.294 1292.6 421.042C1294.39 420.112 1296.18 419.49 1298.43 419.35C1303.8 420.163 1305.78 424.625 1306.02 427.71C1306.02 427.75 1306.06 427.919 1306.11 428.068C1306.94 430.198 1307.67 431.177 1308.22 432.152C1308.44 432.506 1308.67 432.873 1308.94 433.286C1309.21 433.68 1309.6 434.24 1309.9 434.481ZM1192.64 454.748C1194.35 455.778 1195.88 454.648 1198.41 454.277C1198.72 454.227 1199.01 454.186 1199.27 454.151C1201.27 453.966 1201.81 453.861 1204.93 453.928C1206.69 454.112 1208.01 455.178 1208.99 455.938C1210.09 456.807 1211.1 457.454 1211.76 457.677C1212.1 457.794 1212.33 457.908 1212.52 458.021C1212.69 458.132 1212.91 458.251 1212.88 458.301C1213.44 458.401 1213.96 458.592 1214.83 458.819C1216.79 459.382 1217.84 460.023 1219.25 461.051C1219.57 461.29 1220.05 461.627 1220.59 462.056C1220.87 462.273 1221.15 462.509 1221.44 462.792C1221.59 462.938 1221.73 463.081 1221.87 463.279C1221.94 463.372 1222.01 463.474 1222.07 463.629C1222.11 463.753 1222.17 464.017 1222.02 464.25C1221.41 465.072 1220.5 465.286 1219.65 465.222C1218.56 465.092 1217.6 464.993 1216.97 464.986C1215.06 464.962 1212.96 464.268 1211.69 463.996C1211.29 463.911 1210.98 463.827 1210.74 463.751C1210.64 463.719 1210.6 463.675 1210.6 463.639C1210.6 463.639 1210.6 463.639 1210.6 463.638C1210.61 463.593 1210.69 463.558 1210.82 463.571C1211.47 463.631 1212.44 463.69 1213.59 463.679C1215.74 463.658 1215.93 464.034 1218.8 464.254C1219.13 464.279 1219.46 464.301 1219.75 464.314C1220.32 464.335 1220.99 463.933 1221.07 463.663C1220.96 463.834 1220.99 464.013 1221 464.033C1221 464.067 1220.99 464.044 1220.96 464.011C1220.91 463.95 1220.8 463.848 1220.69 463.756C1220.46 463.565 1220.19 463.364 1219.89 463.158C1219.31 462.751 1218.62 462.307 1217.82 461.799C1215.85 460.602 1214.43 460.368 1212.88 460.224C1212.33 460.205 1212.12 460.092 1211.83 459.993C1211.56 459.887 1211.31 459.766 1211.06 459.627C1210.55 459.35 1210.03 459.005 1209.47 458.576C1208.88 458.119 1208.39 457.721 1207.94 457.367C1205.38 455.457 1204.86 455.884 1201.07 456.74C1200.69 456.828 1200.31 456.916 1199.91 457.008C1198.5 457.322 1197.01 457.619 1195.35 457.629C1193.69 457.69 1191.83 456.997 1190.71 456.146C1189.57 455.333 1188.36 454.827 1187.46 454.561C1184.94 453.83 1180.97 453.281 1177.63 454.331C1176.81 454.615 1176.26 455.128 1176.32 455.536C1176.26 455.057 1176.18 455.183 1176.27 455.226C1176.34 455.29 1176.47 455.384 1176.61 455.473C1176.91 455.656 1177.25 455.825 1177.61 455.99C1178.34 456.315 1179.14 456.606 1179.93 456.873C1181.53 457.406 1183.18 457.864 1184.76 458.27C1186.1 458.608 1187.95 459.027 1189.1 458.843C1192.78 458.395 1195.54 459.592 1197.54 460.268C1197.77 460.36 1198 460.446 1198.2 460.522C1200.94 461.497 1201.65 461.682 1204.42 462.173C1206.02 462.446 1208.19 462.92 1210.02 463.426C1210.94 463.677 1210.71 463.813 1209.74 463.749C1208.34 463.651 1207.22 463.365 1206.47 463.432C1204.97 463.56 1204.33 463.593 1202.59 462.962C1200.86 462.324 1199.9 462.631 1198.87 462.287C1198.31 462.093 1198.09 461.924 1197.11 461.555C1196.37 461.279 1195.12 460.852 1192.79 460.618C1191.56 460.505 1190.29 460.499 1189.7 460.716C1185.68 461.337 1183.97 460.418 1182.34 460.181C1181.44 459.974 1180.13 459.569 1178.69 459.004C1177.97 458.719 1177.22 458.402 1176.45 458.014C1176.07 457.819 1175.68 457.607 1175.28 457.341C1175.08 457.199 1174.87 457.047 1174.66 456.839C1174.45 456.592 1174.1 456.373 1174.04 455.536C1174.03 454.883 1174.27 454.208 1174.62 453.726C1178.11 449.906 1185.43 451.527 1188.19 452.203C1190.52 452.847 1190.84 453.328 1191.95 454.219C1192.14 454.388 1192.36 454.569 1192.64 454.748ZM1142.25 396.96C1144.57 399.666 1147.14 401.101 1150.1 404.202C1153.12 407.228 1153.17 408.114 1157.31 410.691C1157.5 410.805 1157.68 410.914 1157.87 411.028C1162.28 413.307 1164.92 418.309 1164.86 420.69C1164.86 420.687 1164.86 420.684 1164.86 420.681C1164.86 420.608 1164.95 420.846 1165.02 420.978C1165.1 421.13 1165.18 421.28 1165.25 421.426C1165.4 421.717 1165.53 421.99 1165.67 422.276C1165.95 422.846 1166.28 423.494 1167.12 424.414C1167.25 424.554 1167.39 424.706 1167.55 424.863C1169.75 427.117 1170.96 428.583 1172.66 430.754C1172.79 430.914 1172.94 431.103 1173.11 431.307C1174.38 432.897 1176.42 435.783 1177.27 438.907C1177.74 440.989 1177.45 442.967 1177.14 444.118C1176.51 447.441 1172.43 449.728 1170.26 448.917C1169.59 448.771 1169.11 448.515 1168.77 448.297C1168.63 448.202 1168.58 448.128 1168.6 448.096C1168.6 448.096 1168.6 448.096 1168.6 448.096C1168.62 448.056 1168.75 448.079 1168.94 448.167C1169.84 448.615 1171.53 448.893 1173.03 447.946C1174.37 447.06 1174.89 446.306 1175.48 445.456C1176.01 444.587 1176.65 443.461 1176.65 441.239C1176.64 440.473 1176.52 439.765 1176.34 439.11C1175.48 436.644 1174.07 434.645 1172.09 432.228C1171.65 431.726 1171.19 431.188 1170.7 430.606C1168.77 428.286 1167.45 427.136 1165.85 425.553C1165.35 425.053 1164.85 424.494 1164.33 423.809C1164.07 423.466 1163.8 423.092 1163.54 422.66C1163.41 422.444 1163.28 422.213 1163.16 421.949C1163.04 421.657 1162.89 421.468 1162.82 420.811C1162.8 420.146 1162.72 419.427 1162.51 418.648C1161.19 414.879 1158.77 413.886 1156.78 412.793C1155.1 411.948 1153.13 410.955 1150.55 408.699C1147.05 405.629 1143.61 401.742 1140.58 398.427C1138.6 396.301 1136.25 394.745 1134.66 393.802C1132.56 392.618 1129.61 390.981 1126.99 390.697C1126.96 390.692 1127.01 390.724 1127.19 390.616C1127.38 390.505 1127.48 390.257 1127.47 390.221C1127.47 390.141 1127.49 390.408 1127.57 390.641C1127.74 391.143 1128.05 391.722 1128.38 392.29C1129.07 393.435 1129.9 394.573 1130.79 395.692C1131.9 397.084 1133.2 398.485 1134.63 399.842C1137.18 402.349 1139.68 404.953 1141.65 408.383C1142.45 409.905 1143.47 411.474 1144.4 412.965C1145.36 414.485 1146.47 416.144 1147.65 417.798C1150.5 421.848 1152.98 426.379 1154.4 429.897C1154.76 430.82 1155.16 431.634 1155.51 432.313C1157.74 436.439 1158.46 437.4 1161.4 440.853C1163.14 442.805 1165.5 445.517 1167.83 447.46C1169.06 448.381 1168.67 448.38 1167.33 447.545C1165.42 446.257 1164.18 444.832 1163.22 444.135C1161.31 442.699 1160.51 442.03 1158.85 439.545C1157.23 437.044 1156.02 436.18 1155.14 434.656C1154.56 433.582 1154.42 433.261 1153.13 430.441C1152.63 429.259 1151.8 427.623 1150.39 425.366C1148.79 422.807 1147.33 420.718 1146.01 419.053C1143.45 415.817 1141.88 413.507 1140.69 411.672C1140.32 411.098 1139.89 410.404 1139.44 409.516C1138.21 407.219 1135.62 403.976 1133.05 401.485C1132.42 400.881 1131.82 400.278 1131.24 399.693C1130.19 398.624 1128.89 397.195 1127.63 395.492C1126.99 394.635 1126.36 393.718 1125.81 392.668C1125.54 392.131 1125.27 391.597 1125.11 390.848C1125.05 390.471 1124.92 390.022 1125.24 389.279C1125.4 388.917 1125.78 388.563 1126.14 388.422C1126.49 388.278 1126.78 388.258 1127.03 388.26C1131.33 388.808 1134 390.75 1135.9 391.67C1139.8 393.941 1139.67 394.244 1142.19 396.89C1142.21 396.913 1142.23 396.936 1142.25 396.96ZM1248.99 422.027C1249.16 422.461 1249.46 422.848 1249.83 423.195C1251.48 424.866 1252.6 424.277 1255.09 423.461C1255.76 423.241 1256.46 423.041 1257.24 422.877C1258.87 422.552 1259.94 422.403 1261.27 422.528C1261.46 422.554 1261.64 422.578 1261.92 422.674C1262.05 422.722 1262.24 422.791 1262.46 422.969C1262.7 423.137 1263 423.605 1262.99 424.025C1262.95 424.844 1262.65 424.977 1262.52 425.155C1262.36 425.317 1262.23 425.419 1262.1 425.515C1261.57 425.877 1261.09 426.11 1260.54 426.386C1259.79 426.759 1258.89 427.254 1258.09 428.135C1256.54 429.71 1257.16 432.023 1258.11 433.909C1259.06 435.906 1259.44 437.62 1259.76 438.718C1260 439.572 1260.03 440.188 1259.97 440.809C1259.91 441.275 1259.84 441.707 1259.72 442.35C1259.68 442.512 1259.65 442.692 1259.57 442.91C1259.49 443.118 1259.4 443.426 1259.02 443.711C1258.61 443.996 1258.16 443.943 1257.88 443.882C1257.58 443.816 1257.34 443.719 1257.08 443.615C1256.8 443.496 1256.55 443.376 1256.31 443.256C1253.66 441.457 1252.94 439.699 1251.96 437.253C1251.96 437.247 1251.96 437.242 1251.95 437.237C1251.73 436.599 1251.41 435.622 1250.92 434.609C1250.8 434.367 1250.65 434.107 1250.51 433.978C1250.44 433.914 1250.41 433.903 1250.36 433.899C1250.32 433.894 1250.21 433.926 1250.1 433.991C1249.63 434.273 1249.13 434.792 1248.64 435.265C1246.01 437.104 1247.32 440.331 1247.78 441.768C1247.78 441.785 1247.79 441.802 1247.79 441.818C1248.12 442.76 1248.4 443.762 1248.5 444.839C1248.55 445.376 1248.55 445.947 1248.35 446.521C1248.15 447.104 1247.67 447.554 1247.22 447.788C1246.27 448.292 1245.31 448.753 1244.42 448.609C1243.65 448.457 1243.33 447.898 1243.13 447.564C1243.06 447.432 1243.05 447.35 1243.06 447.316L1243.06 447.303L1243.07 447.303C1243.08 447.308 1243.08 447.313 1243.08 447.318C1243.08 447.318 1243.08 447.318 1243.08 447.319C1243.08 447.324 1243.08 447.329 1243.07 447.334L1243.09 447.3C1243.14 447.3 1243.23 447.38 1243.34 447.528C1243.63 447.915 1244.14 448.358 1244.8 448.239C1245.45 448.136 1246.14 447.689 1246.83 447.167C1246.88 447.128 1246.92 447.088 1246.97 447.046C1247.77 446.296 1247.5 445.436 1247.44 444.668C1247.33 443.886 1247.19 443.121 1246.89 442.012C1246.7 441.292 1246.44 440.458 1246.22 439.293C1246.05 438.388 1246.04 437.378 1246.43 436.519C1246.81 435.669 1247.36 435.068 1247.87 434.497C1248.23 434.109 1248.57 433.724 1249.01 433.324C1249.24 433.128 1249.46 432.905 1249.96 432.735C1250.2 432.653 1250.58 432.637 1250.88 432.761C1251.18 432.879 1251.37 433.056 1251.52 433.209C1252.45 434.398 1252.71 435.426 1253.25 436.697C1253.4 437.1 1253.59 437.52 1253.8 437.952C1254.8 439.944 1255.99 441.252 1257.09 441.793C1257.38 441.923 1257.67 442.048 1257.94 442.137C1258.07 442.18 1258.2 442.212 1258.26 442.215C1258.34 442.228 1258.28 442.154 1258.04 442.267C1257.83 442.404 1257.85 442.484 1257.86 442.396C1257.87 442.32 1257.89 442.17 1257.9 442.005C1257.92 441.67 1257.93 441.258 1257.93 440.809C1257.91 439.811 1257.68 438.417 1257.26 436.791C1257.05 436.007 1256.8 435.314 1256.52 434.728C1254.13 430.54 1255.4 426.446 1259.39 424.279C1259.76 424.052 1260.18 423.782 1260.44 423.548C1260.51 423.49 1260.56 423.434 1260.55 423.435C1260.55 423.439 1260.52 423.455 1260.46 423.565C1260.43 423.619 1260.39 423.725 1260.36 423.87C1260.33 424.041 1260.33 424.279 1260.42 424.53C1260.64 425.055 1260.94 425.161 1261.03 425.215C1261.14 425.262 1261.16 425.261 1261.16 425.264C1261.16 425.265 1261.07 425.259 1260.96 425.263C1259.59 425.339 1257.68 425.823 1255.91 426.299C1254.74 426.595 1253.57 426.972 1251.99 426.877C1250.3 426.778 1249.01 425.6 1248.24 424.784C1247.44 423.947 1246.74 422.853 1246.57 421.575C1246.39 420.291 1246.84 419.06 1247.46 418.221C1248.71 416.53 1250.28 415.84 1251.45 415.362C1254.19 414.299 1257.98 414.072 1261.47 415.88C1263.51 416.983 1266.04 417.119 1267.84 415.539C1268.57 414.927 1269.18 414.063 1269.64 413.058C1269.87 412.544 1270.11 412.014 1270.26 411.557C1270.29 411.451 1270.32 411.339 1270.33 411.28C1270.36 411.227 1270.29 411.172 1270.39 411.494C1270.45 411.66 1270.68 411.896 1270.85 411.952C1271.01 412.019 1271.08 412.007 1271.1 412.01C1271.14 412.008 1271.05 412.02 1270.95 412.049C1270.08 412.337 1268.93 412.97 1267.86 413.523C1264.66 415.488 1260.51 414.849 1257.46 414.194C1256.97 414.092 1256.5 413.992 1256.03 413.895C1254.82 413.654 1253.48 413.36 1252.35 413.435C1251.28 413.464 1250.36 414.266 1249.3 415.271C1246.93 417.506 1246.09 421.154 1245.61 423.949C1245.34 425.517 1244.99 426.862 1244.68 427.915C1243.88 430.453 1243.32 431.901 1242.4 433.329C1241.75 434.387 1240.41 435.599 1241.53 437.321C1241.75 437.706 1242.02 438.112 1242.3 438.543C1243.21 440.003 1243.88 441.954 1243.34 443.908C1243.06 444.691 1242.91 445.542 1242.93 446.344C1242.96 447.098 1243.13 447.369 1243.02 447.33C1242.91 447.293 1242.61 446.821 1242.55 446.007C1242.48 445.188 1242.58 444.419 1242.78 443.734C1243.06 442.614 1242.75 441.528 1242.44 440.884C1242.06 440.15 1241.67 439.636 1241.3 439.198C1240.93 438.74 1240.58 438.289 1240.25 437.607C1239.92 436.997 1239.69 435.643 1240.3 434.658C1240.77 433.812 1241.19 433.268 1241.53 432.724C1242.23 431.505 1242.3 430.346 1242.72 429.24C1243.11 428.008 1243.57 427.817 1244.2 423.758C1244.36 422.549 1244.56 421.015 1245.12 419.062C1245.71 417.031 1246.64 415.221 1247.92 413.894C1248.69 413.101 1249.45 412.28 1250.55 411.737C1251.68 411.196 1252.8 411.202 1253.66 411.241C1255.4 411.357 1256.72 411.627 1257.91 411.821C1258.48 411.92 1259.02 412.004 1259.51 412.074C1261.36 412.304 1264.11 412.905 1266.78 411.423C1267.89 410.89 1268.9 410.314 1270.31 409.852C1270.51 409.798 1270.71 409.74 1271.04 409.727C1271.21 409.726 1271.42 409.726 1271.72 409.846C1272.02 409.95 1272.37 410.295 1272.49 410.6C1272.7 411.198 1272.6 411.451 1272.57 411.693C1272.53 411.914 1272.47 412.107 1272.42 412.269C1272.2 412.936 1271.96 413.467 1271.72 414.007C1271.68 414.096 1271.64 414.185 1271.6 414.272C1270.94 415.692 1269.68 417.589 1267.43 418.572C1265.19 419.594 1262.38 419.151 1260.34 418.039C1257.4 416.465 1253.96 416.921 1252.34 417.661C1250.58 418.447 1249.96 419.107 1249.47 419.631C1249.04 420.184 1248.52 420.711 1248.99 422.027ZM1229.79 383.145C1230.15 382.961 1230.37 382.711 1231.18 382.643C1231.86 382.693 1232.07 382.876 1232.38 383.007C1232.66 383.15 1232.92 383.297 1233.17 383.444C1233.66 383.74 1234.13 384.041 1234.6 384.354C1235.53 384.98 1236.44 385.649 1237.36 386.47C1238.16 387.179 1238.99 387.964 1239.84 388.898C1240.35 389.449 1240.77 389.931 1241.14 390.367L1241.97 391.189L1241.26 392.178C1239.99 393.682 1239.14 394.508 1237.93 396.022C1237.41 396.661 1236.86 397.452 1236.39 398.546C1234.39 402.686 1237.13 407.214 1238.53 408.943C1238.59 409.016 1238.65 409.085 1238.7 409.151C1239.81 410.455 1239.89 411.08 1240.7 412.39L1241.15 412.99L1240.51 413.426C1240.06 413.678 1239.54 414.007 1238.89 414.475C1238.43 414.802 1238 415.103 1237.59 415.384C1236.94 415.831 1236.39 416.298 1235.91 416.779C1235.67 417.02 1235.45 417.267 1235.26 417.516C1235.08 417.749 1234.93 418.069 1234.92 418.116C1234.87 418.887 1234.63 419.433 1234.4 420.068C1233.41 422.813 1229.55 430.556 1228.17 433.419C1227.37 435.018 1226.57 436.672 1225 437.961C1223.63 438.749 1222.17 438.353 1221.29 438.013C1220.65 437.766 1220.18 437.494 1219.83 437.273C1219.69 437.18 1219.64 437.108 1219.65 437.075C1219.65 437.075 1219.65 437.075 1219.65 437.075C1219.67 437.035 1219.8 437.052 1220 437.145C1220.92 437.543 1222.64 438.339 1224.18 437.492C1224.32 437.416 1224.44 437.333 1224.56 437.248C1226.15 435.081 1226.67 434.457 1228.65 430.455C1230.57 426.154 1231.81 423.361 1233.43 418.365C1233.45 418.278 1233.46 418.166 1233.47 418.121C1233.55 417.223 1233.9 416.901 1234.16 416.498C1234.44 416.122 1234.72 415.808 1235 415.516C1235.56 414.938 1236.11 414.459 1236.7 414.022C1237.59 413.351 1238.45 412.682 1239.52 411.923L1239.24 413.432C1238.55 412.531 1237.79 411.476 1236.89 410.112C1236.49 409.509 1236.08 408.835 1235.69 408.06C1232.74 401.918 1233.42 398.94 1236.02 394.605C1236.58 393.752 1237.24 392.794 1238.04 391.679C1238.33 391.274 1238.63 390.863 1238.94 390.449L1239.06 392.384C1237.83 391.128 1236.57 389.8 1235.31 388.461C1234.59 387.69 1233.82 386.946 1233.04 386.273C1232.64 385.937 1232.25 385.618 1231.86 385.343C1231.67 385.206 1231.47 385.079 1231.3 384.982C1231.22 384.934 1231.14 384.895 1231.09 384.871C1231.05 384.845 1230.99 384.853 1231.18 384.86C1231.4 384.844 1231.35 384.82 1231.31 384.841C1231.27 384.858 1231.18 384.898 1231.1 384.946C1230.93 385.043 1230.74 385.175 1230.56 385.317C1230.18 385.603 1229.81 385.93 1229.47 386.262C1228.77 386.929 1228.16 387.624 1227.63 388.289C1226.85 389.273 1226.07 390.008 1225.4 390.612C1223.97 391.864 1222.36 393.199 1219.97 394.089C1217.93 394.761 1216.1 396.126 1215.23 398.297C1214.55 399.853 1213.52 401.042 1212.37 402.108C1211.34 403.043 1210.18 403.909 1208.82 404.607C1206.84 405.65 1204.63 407.507 1203.66 409.384C1203.21 410.234 1203.12 411.104 1201.77 412.166C1200.95 412.711 1199.92 412.51 1199.42 412.324C1198.87 412.126 1198.45 411.9 1198.02 411.676C1196.29 410.862 1196.52 410.711 1195.33 412.122C1195.3 412.16 1195.27 412.203 1195.24 412.246C1194.55 413.228 1194.17 414.945 1194.44 416.387C1195.72 422.368 1197.49 429.177 1198.96 432.568C1199 432.644 1199.15 432.783 1199.28 432.879C1203.37 434.983 1204.83 435.06 1209.37 435.682C1210.79 435.797 1212.61 436.053 1214.21 435.715C1215.92 435.364 1217.45 435.938 1218.77 436.535C1220.18 437.304 1219.77 437.239 1218.3 436.742C1216.8 436.297 1215.33 436.066 1214.42 436.38C1213.91 436.559 1213.46 436.623 1213.09 436.709C1210.62 437.164 1209.52 437.161 1206.54 436.418C1203.58 435.608 1202.07 435.734 1200.33 435.047C1199.91 434.871 1199.61 434.712 1199.25 434.503C1198.9 434.252 1198.51 434.189 1197.83 433.311C1197.09 431.877 1196.44 429.865 1194.93 425.432C1193.82 422.055 1193 419.249 1192.39 416.87C1191.86 414.356 1192.35 412.361 1193.42 410.726C1193.77 410.237 1194.12 409.755 1194.68 409.297C1195.2 408.82 1196.2 408.511 1196.89 408.625C1197.8 408.737 1198.48 409.104 1199.2 409.481C1199.52 409.655 1199.85 409.832 1200.14 409.948C1200.29 410.006 1200.42 410.044 1200.48 410.055C1200.55 410.065 1200.5 410.06 1200.48 410.08C1200.42 410.144 1200.67 409.931 1200.87 409.588C1201.07 409.249 1201.28 408.83 1201.49 408.393C1203.06 405.605 1205.37 403.944 1207.79 402.573C1207.96 402.482 1208.13 402.386 1208.29 402.286C1209.81 401.365 1212 399.579 1212.99 397.369C1214 394.63 1216.73 392.524 1219.21 391.78C1221.12 391.078 1222.79 389.693 1223.75 388.786C1224.64 387.923 1225.21 387.273 1225.63 386.764C1226.9 385.306 1227.43 384.783 1229.79 383.145ZM1055.19 372.988C1055.51 373.858 1056.65 374.007 1057.1 375.065C1057.55 376.135 1057.21 376.479 1057.85 377.635C1058.48 378.813 1058.51 380.24 1058.74 380.868C1058.96 381.533 1058.44 381.593 1058.36 382.541C1058.3 382.925 1058.17 383.252 1057.99 383.517C1057.69 383.944 1057.32 384.174 1056.89 384.366C1056.17 384.75 1054.14 385.443 1053.38 385.797C1052.63 386.208 1051.56 385.895 1051.05 385.536C1050.88 385.428 1050.78 385.288 1050.75 385.172C1050.73 385.122 1050.76 385.084 1050.79 385.065C1050.79 385.065 1050.79 385.065 1050.79 385.065C1050.83 385.042 1050.88 385.041 1050.91 385.071C1051.07 385.233 1051.46 385.284 1051.87 385.128C1052.63 384.802 1052.77 385.135 1053.8 384.684C1054.8 384.177 1055.29 383.644 1056.3 383.094C1056.51 382.965 1056.64 382.808 1056.69 382.669C1056.86 382.071 1056.57 381.832 1056.75 380.515C1056.8 378.683 1055.8 378.774 1054.9 377.23C1054.14 375.981 1053.42 374.279 1052.79 373.175C1052.63 372.892 1052.49 372.658 1052.35 372.473C1052.01 372.009 1051.59 371.461 1051.17 370.908C1050.96 370.636 1050.72 370.341 1050.54 370.149C1050.47 370.054 1050.34 369.992 1050.52 370.067C1050.6 370.103 1050.9 370.131 1051.1 370.031C1051.29 369.939 1051.32 369.862 1051.31 369.859C1051.28 369.851 1051.14 370.096 1051.05 370.33C1050.95 370.575 1050.85 370.857 1050.75 371.151C1050.51 371.957 1050.53 373.318 1050.38 374.454C1050.13 376.214 1050.06 378.78 1050.04 379.97C1050.01 381.158 1050.01 381.463 1050.34 382.549C1050.54 383.169 1050.67 384.034 1050.78 384.791C1050.86 385.172 1050.68 385.213 1050.42 384.868C1050.07 384.364 1050.02 383.877 1049.74 383.636C1049.2 383.151 1048.98 382.916 1049.08 382.123C1049.18 381.339 1048.6 381.065 1048.6 380.619C1048.61 380.168 1048.89 380.147 1048.46 377.948C1048.05 375.739 1048.02 374.487 1047.99 373.617C1047.99 372.92 1048.12 371.756 1048.6 370.349C1048.73 370.042 1048.84 369.732 1048.95 369.412C1049.01 369.228 1049.09 369.026 1049.23 368.761C1049.3 368.626 1049.38 368.482 1049.55 368.285C1049.72 368.106 1050.02 367.811 1050.54 367.725C1051.07 367.648 1051.46 367.837 1051.68 367.965C1051.9 368.098 1052.05 368.234 1052.18 368.35C1052.43 368.59 1052.61 368.809 1052.79 369.028C1053.46 369.876 1054 370.668 1054.39 371.081C1054.65 371.37 1054.78 371.574 1054.87 371.77C1055.03 372.138 1054.98 372.42 1055.19 372.988ZM1246.91 470.405C1247.05 470.752 1247.81 470.203 1248.12 470.721C1248.27 470.977 1248.27 471.24 1248.26 471.494C1248.23 471.768 1248.37 472.013 1248.22 472.75C1248.16 472.968 1248.04 473.147 1247.9 473.278C1247.52 473.627 1247.25 473.608 1247.08 473.625C1246.91 473.628 1246.79 473.602 1246.69 473.58C1246.48 473.534 1246.35 473.498 1246.24 473.56C1245.99 473.703 1246.1 473.133 1245.8 473.184C1245.51 473.23 1245.37 473.102 1245.22 472.846C1245.07 472.592 1244.52 472.179 1244.2 472.276C1243.87 472.376 1243.8 471.885 1243.7 471.723C1243.67 471.672 1243.65 471.616 1243.65 471.564C1243.64 471.542 1243.66 471.506 1243.68 471.474C1243.68 471.474 1243.68 471.474 1243.68 471.474C1243.7 471.433 1243.73 471.398 1243.75 471.401C1243.83 471.416 1243.97 471.408 1244.18 471.325C1244.55 471.167 1244.42 471.489 1244.81 471.495C1245.2 471.497 1245.5 471.279 1245.8 471.609C1246.1 471.934 1246.45 471.147 1246.74 471.694C1246.81 471.813 1246.87 471.852 1246.87 471.846C1246.87 471.851 1246.79 471.76 1246.53 471.9C1246.41 471.885 1246.17 472.002 1246.06 472.239C1245.94 472.471 1245.94 472.671 1245.93 472.715C1245.9 472.812 1245.57 471.923 1245.29 471.831C1244.99 471.712 1244.58 471.624 1244.2 471.356C1243.82 471.082 1243.22 471.229 1242.83 470.978C1242.73 470.914 1242.62 470.85 1242.51 470.794C1242.44 470.749 1242.37 470.723 1242.42 470.663C1242.44 470.627 1242.54 470.582 1242.64 470.39C1242.75 470.188 1242.69 469.975 1242.65 469.938C1242.57 469.849 1242.57 469.955 1242.58 470.017C1242.59 470.088 1242.61 470.164 1242.63 470.227C1242.76 470.574 1242.83 470.668 1243.18 470.763C1243.38 470.817 1243.58 471.006 1243.67 471.325C1243.72 471.486 1243.61 471.617 1243.47 471.625C1243.25 471.637 1243.16 471.494 1242.98 471.621C1242.6 471.871 1242.44 471.954 1242.36 471.614C1242.29 471.277 1241.87 471.637 1241.77 471.479C1241.73 471.4 1241.76 471.301 1241.7 471.171C1241.67 471.102 1241.62 471.031 1241.51 470.92C1241.46 470.864 1241.4 470.797 1241.31 470.685C1241.24 470.558 1241.05 470.432 1241.07 469.897C1241.1 469.505 1241.4 469.188 1241.57 469.078C1241.75 468.952 1241.89 468.901 1241.99 468.86C1242.2 468.781 1242.35 468.75 1242.48 468.722C1242.9 468.629 1243.17 468.629 1243.38 468.621C1243.72 468.608 1244.27 469.022 1244.74 469.084C1245.24 469.135 1246.08 469.618 1246.5 469.685C1246.94 469.749 1246.76 470.06 1246.91 470.405ZM1275.62 467.617C1274.72 467.738 1274.43 468.82 1273.43 469.159C1272.42 469.514 1272.05 469.173 1271.02 469.87C1270.61 470.151 1270.18 470.382 1269.78 470.593C1269.15 470.932 1268.61 471.184 1268.38 471.463C1267.99 471.926 1267.64 471.461 1267 471.984C1266.36 472.504 1265.88 472.681 1265.15 472.842C1264.8 472.914 1264.1 473.18 1263.35 473.376C1263.15 473.423 1262.97 473.466 1262.74 473.482C1262.53 473.489 1262.22 473.504 1261.96 473.22C1261.74 472.928 1261.78 472.671 1261.79 472.498C1261.8 472.326 1261.82 472.18 1261.83 472.066C1261.96 471.12 1262.83 470.578 1263.21 470.187C1263.33 470.069 1263.44 469.983 1263.53 469.922C1263.57 469.896 1263.62 469.901 1263.65 469.923C1263.65 469.923 1263.65 469.923 1263.65 469.923C1263.68 469.95 1263.7 470.002 1263.67 470.051C1263.54 470.29 1263.38 470.653 1263.27 471.138C1263.17 471.588 1263.06 471.774 1262.91 472C1262.84 472.105 1262.77 472.227 1262.7 472.378C1262.64 472.495 1262.62 472.799 1262.66 472.723C1262.65 472.633 1262.54 472.574 1262.59 472.566C1262.63 472.547 1262.73 472.515 1262.81 472.473C1262.99 472.388 1263.17 472.276 1263.37 472.161C1263.76 471.93 1264.2 471.692 1264.85 471.469C1266.16 470.999 1266 470.089 1267.91 469.492C1268.3 469.365 1268.58 469.239 1268.83 469.087C1269.82 468.491 1269.91 467.729 1271.33 466.883C1273.11 465.827 1275.69 465.323 1277.04 465.05C1277.27 465.002 1277.51 464.955 1277.81 464.933C1278.09 464.911 1278.37 464.887 1278.66 464.86C1278.92 464.836 1279.3 464.795 1279.38 464.77C1279.38 464.771 1279.37 464.769 1279.28 464.805C1279.22 464.839 1279.18 464.837 1279 464.995C1278.91 465.08 1278.83 465.153 1278.73 465.378C1278.63 465.58 1278.61 465.877 1278.65 466.055C1278.74 466.469 1278.87 466.548 1278.94 466.631C1279.01 466.701 1279.03 466.716 1279.06 466.735C1279.1 466.763 1279.1 466.761 1279.09 466.758C1279.05 466.734 1278.9 466.669 1278.77 466.614C1278.49 466.499 1278.17 466.373 1277.85 466.241C1277.51 466.097 1277.13 465.969 1276.73 465.847C1275.51 465.468 1274.11 465.457 1272.83 465.427C1271.14 465.311 1268.73 466.076 1267.68 466.62C1266.61 467.135 1266.34 467.307 1265.6 468.172C1265.17 468.676 1264.54 469.304 1263.9 469.792C1263.57 470.039 1263.49 469.875 1263.66 469.504C1263.92 468.962 1264.3 468.643 1264.35 468.279C1264.46 467.552 1264.55 467.225 1265.29 466.864C1266.04 466.519 1266 465.876 1266.43 465.644C1266.87 465.451 1266.94 465.59 1268.98 464.35C1271.11 463.19 1272.55 463.076 1273.48 462.975C1274.35 462.879 1276.05 463.251 1277.42 463.679C1277.55 463.715 1277.66 463.746 1277.78 463.773C1278.37 463.931 1279.1 464.116 1280.1 464.542C1280.17 464.573 1280.25 464.612 1280.35 464.672C1280.4 464.707 1280.45 464.732 1280.54 464.801C1280.61 464.863 1280.73 464.944 1280.89 465.192C1280.98 465.351 1281.09 465.599 1281.06 465.942C1281.04 466.295 1280.85 466.588 1280.73 466.707C1280.6 466.852 1280.49 466.915 1280.42 466.956C1280.35 466.999 1280.27 467.033 1280.23 467.05C1280.04 467.124 1279.95 467.141 1279.86 467.162C1279.52 467.228 1279.3 467.241 1279.08 467.264C1278.64 467.302 1278.24 467.329 1277.91 467.364C1277.78 467.383 1277.63 467.425 1277.5 467.473C1276.63 467.833 1276.5 467.523 1275.62 467.617ZM1239.27 464.77C1239.34 465.176 1239.66 465.642 1239.49 466.383C1239.33 467.106 1238.67 467.648 1238.09 467.676C1237.86 467.691 1237.7 467.662 1237.56 467.623C1237.29 467.449 1237.1 467.167 1236.59 467.304C1235.97 467.475 1235.28 467.258 1235.02 467.495C1234.77 467.733 1234.64 467.164 1234.26 467.367C1234.09 467.46 1233.94 467.506 1233.8 467.52C1233.6 467.542 1233.4 467.506 1233.17 467.433C1232.74 467.318 1231.59 467.199 1231.14 467.381C1230.68 467.584 1230.21 467.098 1229.96 466.916C1229.88 466.86 1229.82 466.796 1229.79 466.736C1229.77 466.71 1229.78 466.672 1229.79 466.638C1229.79 466.637 1229.79 466.637 1229.79 466.637C1229.81 466.595 1229.84 466.559 1229.87 466.564C1230 466.587 1230.22 466.575 1230.48 466.453C1230.95 466.216 1230.95 466.568 1231.56 466.435C1232.16 466.284 1232.47 465.953 1233.16 466.061C1233.28 466.08 1233.39 466.061 1233.48 466.021C1233.93 465.837 1234.12 465.284 1235.05 465.544C1236.19 465.88 1236.13 464.955 1237.31 464.76C1237.38 464.751 1237.45 464.744 1237.53 464.74C1237.62 464.742 1237.54 464.659 1237.26 465.034C1237.14 465.223 1237.12 465.508 1237.18 465.617C1237.22 465.735 1237.28 465.733 1237.29 465.701C1237.4 465.797 1237.4 465.723 1237.36 465.677C1237.32 465.624 1237.24 465.573 1237.17 465.55C1236.76 465.414 1236 465.351 1235.21 465.147C1234.4 464.936 1233.36 465.21 1232.45 465.055C1231.53 464.885 1230.2 464.846 1229.68 464.951C1229.45 464.985 1229.31 465.04 1229.24 465.105C1229.14 465.218 1229.1 465.381 1229.21 465.588C1229.33 465.792 1229.48 466.087 1229.73 466.469C1229.85 466.655 1229.77 466.802 1229.52 466.765C1229.15 466.7 1228.99 466.435 1228.71 466.401C1228.15 466.314 1227.76 465.983 1228.04 465.24C1228.18 464.938 1228.24 464.728 1228.28 464.51C1228.36 464.191 1228.45 463.917 1228.65 463.814C1229 463.681 1229.14 463.836 1230.35 463.28C1231.58 462.775 1232.27 462.716 1232.75 462.629C1233.23 462.548 1234.21 462.827 1234.99 462.794C1235.77 462.743 1237.33 463.077 1238.15 463.286C1238.88 463.483 1238.94 463.792 1239.21 464.511C1239.23 464.589 1239.25 464.673 1239.27 464.77ZM1258.3 465.583C1258.19 466.067 1257.95 466.215 1257.84 466.317C1257.71 466.428 1257.64 466.489 1257.55 466.564C1257.4 466.7 1257.28 466.838 1257.15 466.977C1256.91 467.248 1256.66 467.511 1256.3 467.535C1255.59 467.571 1255.4 467.13 1254.68 467.38C1254.13 467.569 1253.54 467.505 1253.15 467.577C1253.03 467.6 1252.93 467.634 1252.86 467.693C1252.54 467.938 1252.42 467.372 1251.95 467.562C1251.48 467.749 1251.16 467.699 1250.72 467.525C1250.26 467.374 1248.99 467.108 1248.43 467.093C1247.82 467.124 1247.5 466.394 1247.36 466.098C1247.31 466.003 1247.29 465.915 1247.28 465.841C1247.28 465.81 1247.3 465.776 1247.33 465.753C1247.33 465.753 1247.33 465.753 1247.33 465.753C1247.36 465.723 1247.41 465.708 1247.43 465.728C1247.55 465.824 1247.77 465.941 1248.07 465.952C1248.6 465.933 1248.46 466.269 1249.11 466.298C1249.76 466.282 1250.12 465.978 1250.87 466.159C1251.65 466.31 1251.72 465.473 1252.82 465.717C1252.84 465.722 1252.87 465.727 1252.9 465.733C1254.12 466.008 1254.09 465.098 1255.15 464.753C1255.4 464.667 1255.69 464.608 1255.95 464.568C1256.2 464.537 1256.52 464.465 1256.49 464.529C1256.48 464.565 1256.4 464.583 1256.23 464.873C1256.14 465.033 1256.07 465.316 1256.11 465.571C1256.15 465.837 1256.25 465.971 1256.31 466.058C1256.57 466.315 1256.5 466.167 1256.47 466.144C1256.36 466.046 1256.18 465.947 1256.03 465.905C1255.44 465.731 1254.52 465.575 1253.62 465.204C1253.39 465.113 1253.17 465.049 1252.92 464.986C1252.14 464.798 1251.27 464.737 1250.52 464.447C1249.55 464.051 1248.13 463.704 1247.54 463.735C1246.97 463.748 1246.77 463.894 1246.93 464.353C1247.04 464.621 1247.23 465.06 1247.33 465.556C1247.39 465.809 1247.23 465.877 1247.02 465.736C1246.7 465.522 1246.62 465.237 1246.34 465.147C1245.82 464.962 1245.46 464.726 1245.79 463.885C1246.2 463.144 1246.29 462.608 1246.7 462.439C1247.1 462.369 1247.22 462.511 1248.67 462.226C1250.13 462.008 1250.88 462.132 1251.41 462.16C1251.89 462.194 1252.74 462.612 1253.51 462.789C1253.59 462.808 1253.67 462.823 1253.75 462.834C1254.56 462.948 1256.12 463.474 1256.88 463.59C1257.26 463.642 1257.46 463.784 1257.61 463.967C1257.69 464.067 1257.75 464.166 1257.87 464.321C1257.91 464.391 1258 464.496 1258.09 464.639C1258.13 464.712 1258.2 464.829 1258.25 464.97C1258.3 465.11 1258.35 465.358 1258.3 465.583ZM1295.35 434.603C1295.58 434.768 1295.84 434.661 1296.2 434.605C1296.38 434.584 1296.58 434.545 1296.93 434.708C1297.09 434.816 1297.39 434.908 1297.65 435.587C1297.77 435.928 1297.73 436.368 1297.62 436.651C1297.51 436.931 1297.37 437.086 1297.26 437.205C1296.85 437.575 1296.69 437.552 1296.52 437.594C1296.37 437.615 1296.24 437.604 1296.12 437.598C1295.87 437.58 1295.66 437.572 1295.36 437.732C1295.34 437.739 1295.33 437.747 1295.32 437.755C1294.7 438.112 1293.91 438.032 1293.64 438.299C1293.36 438.569 1293.19 438.018 1292.76 438.228C1292.31 438.431 1291.99 438.378 1291.58 438.193C1291.16 438.029 1290.02 437.718 1289.56 437.845C1289.09 437.986 1288.7 437.478 1288.45 437.314C1288.37 437.264 1288.31 437.206 1288.27 437.152C1288.25 437.128 1288.25 437.089 1288.26 437.053C1288.26 437.053 1288.26 437.053 1288.26 437.053C1288.27 437.009 1288.3 436.969 1288.33 436.971C1288.48 436.979 1288.7 436.96 1288.98 436.856C1289.5 436.657 1289.48 437.011 1290.11 436.966C1290.75 436.909 1291.1 436.637 1291.75 436.831C1292.45 436.991 1292.41 436.138 1293.43 436.357C1294.13 436.471 1294.32 436.112 1294.58 435.734C1294.71 435.526 1294.9 435.296 1295.1 435.15C1295.15 435.109 1295.22 435.042 1295.11 435.134C1295.07 435.197 1294.86 435.276 1294.75 435.892C1294.7 436.193 1294.8 436.54 1294.92 436.718C1295.03 436.894 1295.12 436.973 1295.18 437.016C1295.39 437.16 1295.31 437.06 1295.26 437.025C1295.19 436.977 1295.09 436.917 1295 436.861C1294.58 436.634 1294.12 436.42 1293.82 436.376C1293.62 436.347 1293.39 436.322 1293.14 436.289C1292.65 436.226 1292.09 436.143 1291.52 435.966C1290.67 435.7 1289.55 435.834 1288.64 435.526C1288.38 435.437 1288.06 435.342 1287.82 435.272C1287.51 435.187 1287.21 435.16 1287.03 435.177C1286.86 435.195 1286.77 435.205 1286.71 435.32C1286.62 435.48 1286.66 435.679 1286.73 435.816C1286.82 435.957 1286.95 436.077 1287.2 436.192C1287.49 436.325 1287.84 436.561 1288.16 436.896C1288.33 437.063 1288.25 437.213 1288.02 437.226C1287.67 437.241 1287.45 437.059 1287.2 437.162C1286.7 437.357 1286.4 437.374 1286.16 436.834C1285.97 436.308 1285.37 436.345 1285.27 435.864C1285.25 435.631 1285.3 435.5 1285.39 435.145C1285.45 434.821 1285.74 434.059 1286.59 433.63C1287.07 433.376 1287.48 433.303 1287.82 433.254C1288.59 433.164 1288.98 433.185 1289.32 433.178C1289.8 433.173 1290.71 433.58 1291.46 433.602C1292 433.617 1292.91 433.803 1293.61 433.906C1293.9 433.948 1294.14 433.972 1294.33 433.963C1294.97 433.935 1294.9 434.284 1295.35 434.603ZM1288.54 409.103C1287.93 409.536 1288.42 410.41 1288.25 410.766C1288.08 411.226 1287.62 411.457 1287.97 412.338C1288.08 412.593 1288.17 412.862 1288.25 413.128C1288.49 413.876 1288.54 414.566 1288.75 414.899C1289.05 415.374 1288.5 415.527 1288.71 416.23C1288.9 416.948 1288.81 417.438 1288.52 418.063C1288.37 418.371 1288.16 419.021 1287.68 419.574C1287.22 420.165 1286.38 420.355 1285.97 420.384C1285.04 420.487 1284.53 419.57 1284.27 419.212C1284.19 419.096 1284.13 418.988 1284.1 418.895C1284.09 418.856 1284.1 418.817 1284.13 418.791C1284.13 418.791 1284.13 418.791 1284.13 418.791C1284.16 418.759 1284.21 418.745 1284.25 418.774C1284.43 418.909 1284.72 419.079 1285.12 419.147C1285.49 419.203 1285.62 419.267 1285.79 419.359C1285.95 419.439 1286.19 419.558 1286.48 419.401C1287.01 419.002 1286.87 418.504 1287.22 417.579C1287.48 416.531 1286.63 416.391 1286.76 414.847C1286.78 414.368 1286.68 414.037 1286.54 413.778C1286.2 413.081 1285.5 412.883 1285.26 411.32C1285.17 410.561 1285.4 409.578 1285.84 408.895C1286.26 408.2 1286.77 407.735 1287.2 407.353C1287.58 407.022 1287.9 406.731 1288.07 406.497C1288.16 406.375 1288.25 406.24 1288.31 406.136C1288.34 406.086 1288.36 406.039 1288.34 406.056C1288.34 406.068 1288.32 406.096 1288.3 406.193C1288.28 406.281 1288.26 406.495 1288.37 406.732C1288.48 406.975 1288.66 407.107 1288.75 407.159C1288.84 407.212 1288.87 407.219 1288.88 407.225C1288.9 407.233 1288.84 407.223 1288.77 407.221C1288.62 407.213 1288.41 407.212 1288.19 407.21C1288.08 407.204 1287.86 407.244 1287.59 407.361C1286.64 407.766 1285.87 409.305 1285.4 410.358C1285.21 410.746 1285.13 411.2 1285.18 411.422C1285.62 412.455 1285.33 413.046 1285.2 413.613C1285.03 414.163 1284.81 414.597 1284.62 414.898C1284.49 415.102 1284.38 415.265 1284.27 415.406C1283.94 415.859 1283.77 416.162 1283.75 416.847C1283.74 417.345 1283.81 417.922 1284.08 418.553C1284.2 418.861 1284.05 418.946 1283.75 418.728C1283.32 418.392 1283.22 417.926 1282.96 417.682C1282.44 417.161 1282.31 416.696 1282.74 416.029C1283.11 415.5 1282.95 415.092 1283.04 414.745C1283.04 414.695 1283.06 414.65 1283.09 414.611C1283.18 414.489 1283.3 414.461 1283.45 414.259C1283.57 414.066 1283.78 413.637 1283.71 412.891C1283.68 412.598 1283.55 412.348 1283.54 412.434C1282.94 411.524 1283.02 410.764 1283.05 410.236C1283.1 409.697 1283.22 409.307 1283.32 408.981C1283.57 408.125 1284.67 406.819 1285.69 405.868C1286.14 405.468 1286.9 404.821 1288.19 404.775C1288.45 404.774 1288.7 404.771 1289.02 404.796C1289.19 404.812 1289.36 404.823 1289.64 404.91C1289.78 404.96 1289.96 405.021 1290.2 405.213C1290.43 405.396 1290.67 405.801 1290.7 406.131C1290.75 406.781 1290.58 406.972 1290.51 407.158C1290.43 407.331 1290.35 407.454 1290.29 407.557C1290.16 407.767 1290.06 407.922 1289.98 408.054C1289.56 408.748 1289.32 408.737 1288.92 408.911C1288.8 408.954 1288.68 409.011 1288.54 409.103ZM1276.41 372.927C1276.79 374.523 1278.05 375.456 1278.48 377.473C1278.65 378.351 1278.66 378.939 1278.65 379.501C1278.63 380.209 1278.66 380.823 1278.88 382.173C1278.92 382.45 1278.96 382.714 1278.91 383.14C1278.9 383.255 1278.88 383.384 1278.81 383.563C1278.74 383.74 1278.59 384.026 1278.24 384.22C1277.89 384.407 1277.55 384.376 1277.38 384.342C1277.19 384.303 1277.07 384.25 1276.98 384.206C1276.29 383.834 1276.03 383.53 1275.67 383.223C1274.98 382.572 1274.25 382.388 1273.96 382.546C1273.72 382.678 1273.63 382.636 1273.44 382.652C1273.27 382.666 1272.98 382.795 1273.03 383.268C1273.12 383.842 1273.41 384.31 1273.73 384.791C1273.99 385.172 1274.24 385.559 1274.4 386.176C1274.43 386.349 1274.52 386.557 1274.41 386.949C1274.36 387.142 1274.18 387.379 1273.97 387.468C1273.77 387.563 1273.59 387.568 1273.44 387.562C1272.67 387.514 1271.44 387.766 1270.48 388.128C1269.99 388.335 1269.37 388.293 1268.96 388.077C1268.54 387.873 1268.26 387.618 1268.04 387.439C1266.86 386.395 1266.59 384.714 1266.27 383.815C1266.18 383.534 1266.12 383.301 1266.09 383.12C1266.08 383.042 1266.1 382.994 1266.13 382.98C1266.13 382.98 1266.13 382.98 1266.13 382.98C1266.17 382.961 1266.24 382.995 1266.28 383.082C1266.5 383.504 1266.85 384.121 1267.37 384.784C1267.85 385.398 1268.05 385.757 1268.28 386.166C1268.52 386.534 1268.83 387.177 1269.54 387.375C1269.76 387.413 1269.95 387.357 1270.14 387.249C1271.22 386.751 1272.01 386.344 1273.44 386.245C1273.47 386.251 1273.43 386.208 1273.25 386.349C1273.06 386.518 1273.08 386.732 1273.09 386.71C1273.11 386.693 1273.03 386.446 1272.91 386.226C1272.82 386.049 1272.71 385.888 1272.59 385.741C1271.92 384.874 1271.32 384.162 1271.34 382.863C1271.36 382.235 1271.69 381.415 1272.47 380.92C1273.24 380.417 1274.34 380.374 1275.27 380.813C1275.96 381.14 1276.42 381.522 1276.8 381.853C1277.17 382.181 1277.56 382.456 1277.76 382.497C1277.79 382.508 1277.83 382.456 1277.58 382.449C1277.45 382.447 1277.24 382.534 1277.13 382.642C1277.02 382.751 1276.99 382.823 1276.97 382.851C1276.91 382.953 1276.91 382.775 1276.85 382.643C1276.66 382.031 1276.33 381.235 1276.03 379.992C1276 379.885 1275.97 379.772 1275.95 379.651C1275.16 376.49 1274.02 372.227 1273.14 370.4C1272.88 369.857 1272.58 369.271 1272.24 368.686C1272.07 368.404 1271.88 368.094 1271.72 367.906C1271.69 367.866 1271.65 367.826 1271.66 367.836C1271.66 367.84 1271.68 367.864 1271.75 367.906C1271.83 367.942 1272.02 368.086 1272.46 368.015C1272.68 367.977 1272.91 367.836 1273.01 367.729C1273.11 367.631 1273.17 367.54 1273.2 367.472C1273.27 367.325 1273.26 367.323 1273.27 367.295C1273.28 367.268 1273.27 367.31 1273.27 367.376C1273.08 369.233 1272.28 370.135 1271.48 371.227C1270.93 371.908 1270.33 372.6 1269.62 373.267C1268.75 374.088 1267.77 374.991 1266.41 375.586C1265.04 376.206 1263.39 376.138 1262.18 375.783C1262.11 375.762 1262.04 375.742 1261.97 375.723C1260.42 375.29 1259.46 375.245 1258.53 376.879C1258.29 377.282 1258.04 377.677 1257.87 378.017C1257.78 378.166 1257.75 378.39 1257.73 378.252C1257.73 378.159 1257.54 377.998 1257.52 378.015C1257.49 378.013 1257.54 378.036 1257.6 378.043C1258.22 378.091 1259.02 377.946 1259.54 377.889C1259.71 377.867 1259.86 377.848 1260.01 377.828C1260.9 377.711 1261.5 377.629 1262.15 377.626C1262.78 377.611 1263.65 377.794 1264.32 378.611C1265.17 379.606 1265.73 381.162 1266.07 382.516C1266.24 383.202 1266.02 383.116 1265.68 382.509C1265.17 381.618 1264.89 380.823 1264.47 380.458C1263.63 379.769 1263.33 379.381 1262.82 378.832C1262.51 378.57 1262.04 378.678 1261.7 378.819C1261.34 378.964 1261.04 379.147 1260.66 379.193C1260.54 379.209 1260.43 379.214 1260.32 379.216C1260.04 379.223 1259.76 379.213 1259.14 379.304C1258.82 379.345 1258.45 379.429 1257.82 379.483C1257.65 379.491 1257.47 379.508 1257.18 379.45C1257.04 379.417 1256.83 379.362 1256.6 379.165C1256.37 378.969 1256.24 378.619 1256.23 378.408C1256.22 377.592 1256.44 377.345 1256.6 376.903C1256.73 376.596 1256.86 376.316 1256.98 376.048C1257.47 374.853 1258.65 373.497 1259.99 373.347C1261.21 373.156 1262.01 373.353 1262.69 373.46C1263.08 373.527 1263.4 373.559 1263.68 373.566C1264.68 373.717 1266.49 373.173 1268.08 371.598C1268.32 371.373 1268.54 371.136 1268.75 370.895C1269.12 370.453 1269.58 369.873 1270 369.21C1270.41 368.591 1270.84 367.658 1270.83 367.347C1270.84 367.153 1270.83 367.066 1270.89 366.765C1270.93 366.631 1270.94 366.503 1271.12 366.212C1271.21 366.077 1271.31 365.944 1271.58 365.779C1271.82 365.63 1272.18 365.579 1272.37 365.604C1272.58 365.622 1272.74 365.681 1272.87 365.742C1272.99 365.804 1273.04 365.838 1273.11 365.886C1273.24 365.98 1273.33 366.063 1273.39 366.125C1273.53 366.267 1273.62 366.375 1273.7 366.488C1274.03 366.922 1274.23 367.279 1274.44 367.637C1274.83 368.331 1275.13 368.93 1275.38 369.371C1276.36 371.184 1276.01 371.328 1276.41 372.927ZM1317.71 378.245C1317.45 378.4 1318.19 378.934 1317.91 379.181C1317.63 379.403 1317.23 379.166 1317.11 379.484C1316.98 379.816 1316.51 379.806 1316.52 380.044C1316.51 380.273 1316.21 379.911 1316.09 380.006C1316.07 380.016 1316.06 380.03 1316.05 380.049C1315.93 380.269 1315.74 380.272 1315.49 380.146C1315.36 380.082 1315.15 380.041 1314.94 379.97C1314.72 379.905 1314.52 379.783 1314.34 379.745C1314.15 379.708 1314.1 379.52 1314.15 379.381C1314.19 379.236 1314.3 379.13 1314.34 379.065C1314.37 379.024 1314.41 378.995 1314.45 378.973C1314.47 378.964 1314.51 378.96 1314.54 378.96C1314.54 378.96 1314.54 378.96 1314.54 378.96C1314.59 378.96 1314.64 378.966 1314.64 378.975C1314.67 379.019 1314.75 379.095 1314.93 379.102C1315.09 379.102 1315.08 379.091 1315.06 379.114C1315.04 379.13 1315.02 379.178 1315.07 379.111C1315.17 378.958 1315.02 378.646 1315.15 378.828C1315.26 378.916 1315.21 378.685 1315.19 378.549C1315.17 378.438 1315.17 378.387 1315.39 378.485C1315.92 378.663 1315.29 377.992 1315.28 377.792C1315.27 377.593 1315.8 377.569 1315.76 377.508C1315.75 377.504 1315.75 377.501 1315.74 377.5C1315.72 377.496 1315.68 377.533 1315.72 377.656C1315.75 377.774 1315.96 377.98 1316.15 377.979C1316.48 377.966 1316.45 378.041 1316.36 378.08C1316.33 378.086 1316.29 378.085 1316.24 378.073C1315.97 378 1315.5 378.144 1315.25 378.231C1315 378.312 1314.93 378.363 1314.97 378.576C1315 378.701 1314.91 378.795 1314.67 378.916C1314.55 378.98 1314.39 378.978 1314.31 378.882C1314.21 378.74 1314.3 378.646 1314.12 378.533C1313.75 378.301 1313.63 378.151 1313.93 378.054C1314.21 377.972 1313.76 377.669 1313.88 377.588C1313.99 377.514 1314.23 377.674 1314.36 377.09C1314.52 376.496 1314.79 376.215 1314.97 376.023C1314.99 376.001 1315.02 375.981 1315.05 375.962C1315.31 375.815 1315.83 375.747 1316.46 375.695C1316.75 375.652 1317.41 375.847 1317.76 376.342C1318.1 376.82 1318.12 377.249 1318.18 377.5C1318.19 377.565 1318.2 377.624 1318.22 377.673C1318.34 378.114 1317.97 378.056 1317.71 378.245ZM1242.65 364.211C1242.13 364.818 1242.58 365.792 1241.94 366.539C1241.3 367.266 1240.85 367.101 1240.27 368.007C1239.97 368.482 1239.55 368.871 1239.2 369.193C1238.88 369.481 1238.62 369.72 1238.53 369.943C1238.34 370.417 1237.89 370.045 1237.51 370.6C1237.12 371.154 1236.76 371.376 1236.19 371.611C1235.63 371.864 1234.13 372.784 1233.54 373.223C1233.25 373.457 1232.8 373.567 1232.32 373.386C1232.09 373.296 1231.88 373.095 1231.8 372.901C1231.71 372.704 1231.71 372.545 1231.71 372.414C1231.7 372.257 1231.74 372.138 1231.78 372.052C1231.79 372.014 1231.83 371.997 1231.87 371.997C1231.87 371.997 1231.87 371.997 1231.87 371.997C1231.92 371.997 1231.96 372.023 1231.97 372.065C1231.99 372.252 1232.18 372.634 1232.42 372.545C1232.73 372.327 1232.93 372.637 1233.64 372.104C1234.35 371.517 1234.57 370.937 1235.53 370.39C1236.49 369.807 1236.07 369.023 1237.49 368.245C1237.64 368.161 1237.77 368.075 1237.88 367.988C1238.79 367.263 1238.41 366.576 1239.1 365.443C1239.86 364.193 1241.2 362.718 1241.27 362.031C1241.28 361.926 1241.28 361.822 1241.27 361.785C1241.26 361.62 1241.22 361.423 1241.21 361.449C1241.21 361.455 1241.23 361.635 1241.55 361.837C1241.9 362.022 1242.13 361.929 1242.14 361.931C1242.19 361.911 1241.98 362.017 1241.82 362.14C1241.64 362.267 1241.44 362.419 1241.23 362.579C1240.22 363.354 1239.31 364.802 1238.16 365.762C1238.09 365.819 1238.02 365.879 1237.94 365.94C1236.81 366.887 1235.38 368.188 1234.67 368.796C1233.92 369.438 1233.74 369.603 1233.26 370.416C1233 370.887 1232.5 371.433 1232.04 371.855C1231.93 371.961 1231.87 372.008 1231.8 371.993C1231.73 371.971 1231.7 371.809 1231.75 371.637C1231.88 371.127 1232.17 370.863 1232.14 370.54C1232.09 369.903 1232.1 369.628 1232.66 369.283C1233.23 368.94 1232.99 368.38 1233.26 368.137C1233.54 367.897 1233.77 368.096 1234.75 366.549C1235.38 365.578 1235.86 364.91 1236.24 364.41C1236.46 364.109 1236.64 363.879 1236.8 363.672C1237.22 363.124 1238.39 362.246 1239.14 361.367C1239.47 360.995 1239.93 360.494 1240.67 359.978C1240.88 359.847 1241.08 359.706 1241.47 359.585C1241.66 359.533 1241.96 359.471 1242.33 359.553C1242.71 359.629 1243.07 359.913 1243.24 360.153C1243.57 360.635 1243.58 360.911 1243.63 361.147C1243.67 361.384 1243.69 361.56 1243.7 361.732C1243.72 362.092 1243.69 362.335 1243.68 362.532C1243.53 363.743 1243.16 363.562 1242.65 364.211ZM1261.56 365.905C1261.53 366.168 1261.73 366.352 1261.91 366.62C1262.09 366.88 1262.24 367.226 1262.09 367.535C1261.78 368.127 1261.32 367.974 1261.14 368.514C1261.01 368.879 1260.7 369.101 1260.53 369.292C1260.45 369.378 1260.41 369.454 1260.42 369.547C1260.44 369.835 1259.96 369.504 1259.88 369.828C1259.79 370.152 1259.6 370.27 1259.25 370.361C1259.16 370.385 1259.05 370.436 1258.9 370.503C1258.75 370.559 1258.53 370.692 1258.2 370.618C1257.89 370.522 1257.79 370.333 1257.68 370.224C1257.59 370.108 1257.5 370.017 1257.41 369.972C1257.06 369.773 1257.3 369.297 1257.32 369.078C1257.33 369.011 1257.35 368.95 1257.37 368.899C1257.38 368.877 1257.42 368.856 1257.45 368.843C1257.45 368.843 1257.45 368.843 1257.45 368.843C1257.49 368.827 1257.54 368.821 1257.55 368.839C1257.62 368.922 1257.74 369.032 1257.96 369.128C1258.36 369.286 1258.07 369.499 1258.38 369.715C1258.45 369.755 1258.53 369.75 1258.51 369.674C1258.5 369.591 1258.29 369.504 1258.2 369.506C1258.04 369.498 1258.14 369.424 1258.35 369.336C1258.81 369.125 1258.19 368.498 1259.01 368.218C1259.02 368.213 1259.03 368.208 1259.04 368.204C1259.78 367.936 1259.12 367.325 1259.17 366.908C1259.19 366.693 1259.29 366.659 1259.38 366.549C1259.47 366.441 1259.48 366.19 1259.38 366.075C1259.3 365.978 1259.19 365.867 1259.05 365.736C1258.85 365.526 1258.62 365.283 1258.51 365.097C1258.48 365.018 1258.4 364.993 1258.52 365.048C1258.58 365.072 1258.72 365.099 1258.85 365.078C1258.98 365.058 1259.06 365.015 1259.09 365.004C1259.16 364.966 1258.95 365.27 1258.72 365.469C1258.67 365.507 1258.63 365.545 1258.58 365.59C1258.2 365.814 1257.82 366.573 1257.65 366.934C1257.46 367.34 1257.42 367.467 1257.58 367.854C1257.67 368.077 1257.67 368.376 1257.54 368.713C1257.47 368.884 1257.31 368.922 1257.19 368.798C1257 368.615 1257.04 368.411 1256.81 368.335C1256.36 368.176 1256.19 368.06 1256.4 367.72C1256.61 367.393 1256.07 367.261 1256.13 367.064C1256.21 366.867 1256.47 366.911 1256.39 365.928C1256.36 365.342 1256.46 364.868 1256.61 364.486C1256.68 364.281 1256.75 364.115 1256.81 363.968C1256.89 363.791 1257.07 363.57 1257.48 363.247C1257.68 363.095 1258.01 362.862 1258.5 362.806C1258.99 362.755 1259.37 362.926 1259.6 363.027C1260.23 363.329 1260.58 363.822 1260.93 364.182C1261.13 364.401 1261.31 364.617 1261.47 364.757C1261.91 365.181 1261.61 365.387 1261.56 365.905ZM1267.23 361.816C1267.16 362.184 1268.08 362.151 1268.08 362.599C1268.07 363.042 1267.63 363.202 1267.82 363.643C1268.02 364.099 1267.73 364.627 1267.91 364.872C1268.08 365.145 1267.52 365.102 1267.56 365.499C1267.57 365.754 1267.46 366.004 1267.22 366.183C1267.09 366.293 1266.87 366.394 1266.66 366.388C1266.45 366.384 1266.3 366.299 1266.2 366.216C1265.76 365.783 1265.65 365.111 1265.3 364.954C1264.96 364.801 1265.21 364.344 1265.24 364.145C1265.24 364.081 1265.27 364.026 1265.3 363.98C1265.31 363.96 1265.34 363.941 1265.38 363.929C1265.38 363.929 1265.38 363.929 1265.38 363.929C1265.42 363.913 1265.47 363.907 1265.48 363.922C1265.53 363.994 1265.65 364.092 1265.86 364.165C1266.25 364.289 1265.95 364.465 1266.26 364.707C1266.42 364.82 1266.59 364.866 1266.72 364.904C1266.78 364.922 1266.83 364.939 1266.84 364.947C1266.84 364.965 1266.88 364.907 1266.53 364.934C1266.37 364.959 1266.21 365.065 1266.16 365.125C1266.11 365.175 1266 365.084 1265.9 365.023C1265.81 364.95 1265.77 364.884 1265.99 364.661C1266.44 364.091 1265.52 364.116 1265.28 363.64C1265.04 363.15 1265.26 362.302 1265.07 362.005C1264.89 361.718 1264.57 361.355 1264.47 361.072C1264.46 361.017 1264.43 360.984 1264.43 360.992C1264.44 360.994 1264.5 361.073 1264.73 361.093C1264.69 361.107 1264.74 361.169 1264.92 361.046C1265.01 360.985 1265.12 360.85 1265.15 360.699C1265.2 360.549 1265.17 360.418 1265.12 360.361C1265.08 360.307 1265.04 360.296 1265.02 360.309C1265.17 361.027 1265.19 361.723 1265.19 362.118C1265.17 362.561 1265.17 362.665 1265.41 362.988C1265.55 363.173 1265.6 363.484 1265.47 363.807C1265.4 363.969 1265.24 363.996 1265.12 363.901C1264.95 363.761 1264.96 363.589 1264.74 363.569C1264.29 363.53 1264.11 363.512 1264.25 363.199C1264.38 362.885 1263.83 362.976 1263.84 362.822C1263.84 362.67 1264.14 362.544 1263.64 361.981C1263.38 361.698 1263.19 361.468 1263.07 361.36C1262.8 360.993 1262.67 360.43 1262.8 359.932C1262.88 359.578 1263.24 359.129 1263.64 358.952C1264.04 358.762 1264.42 358.757 1264.73 358.778C1265.3 358.813 1265.6 359.05 1265.83 359.177C1266.61 359.663 1266.97 360.648 1267.31 360.969C1267.63 361.294 1267.3 361.44 1267.23 361.816ZM1258.01 357.477C1257.8 358.012 1258.51 358.562 1258.21 359.004C1257.9 359.393 1257.46 359.235 1257.33 359.71C1257.29 359.893 1257.18 360.043 1257.07 360.176C1256.9 360.386 1256.72 360.545 1256.76 360.719C1256.81 361.005 1256.31 360.726 1256.25 361.054C1256.19 361.386 1256 361.52 1255.66 361.624C1255.48 361.67 1255.22 361.857 1254.84 361.962C1254.43 362.077 1254.05 361.902 1253.84 361.905C1253.37 361.877 1253.41 361.308 1253.36 361.106C1253.34 361.041 1253.34 360.978 1253.35 360.922C1253.35 360.898 1253.38 360.869 1253.41 360.845C1253.41 360.845 1253.41 360.845 1253.41 360.845C1253.44 360.816 1253.48 360.795 1253.5 360.807C1253.58 360.86 1253.73 360.922 1253.96 360.915C1254.17 360.906 1254.21 360.952 1254.25 361.022C1254.29 361.086 1254.36 361.19 1254.47 361.141C1254.57 361.076 1254.48 360.951 1254.47 360.879C1254.46 360.799 1254.51 360.729 1254.71 360.645C1255.13 360.433 1254.45 359.886 1255.2 359.568C1255.36 359.496 1255.45 359.418 1255.5 359.328C1255.69 358.991 1255.25 358.566 1255.37 358.09C1255.44 357.801 1255.63 357.529 1255.74 357.492C1255.79 357.471 1255.83 357.581 1255.94 357.697C1256.04 357.812 1256.12 357.825 1256.11 357.835C1256.11 357.857 1255.87 357.814 1255.57 357.755C1255.45 357.73 1255.34 357.702 1255.22 357.659C1255.05 357.599 1254.86 357.677 1254.72 357.776C1254.57 357.876 1254.46 357.983 1254.26 358.04C1253.83 358.127 1253.34 358.725 1253.2 359.104C1253.04 359.468 1253.03 359.612 1253.26 359.912C1253.39 360.083 1253.47 360.342 1253.45 360.696C1253.44 360.875 1253.3 360.963 1253.14 360.89C1252.92 360.781 1252.89 360.58 1252.65 360.572C1252.17 360.548 1251.96 360.457 1252.08 360.053C1252.21 359.673 1251.66 359.61 1251.7 359.374C1251.77 359.142 1251.97 359.17 1251.95 358.1C1252.02 356.988 1252.52 356.431 1252.81 356.098C1253.12 355.728 1254.1 355.513 1254.78 355.364C1255.11 355.272 1255.63 355.276 1256.1 355.376C1256.52 355.461 1257.02 355.581 1257.47 355.777C1257.9 355.962 1258.1 356.324 1258.14 356.601C1258.17 356.887 1258.1 357.161 1258.01 357.477ZM1272.12 356.493C1272.13 356.522 1272.13 356.548 1272.14 356.572C1272.32 357.007 1273.2 356.929 1273.39 357.595C1273.48 357.938 1273.42 358.196 1273.37 358.46C1273.32 358.723 1273.33 358.939 1273.36 359.537C1273.37 359.839 1273.26 360.296 1272.89 360.631C1272.52 360.962 1272.1 361.014 1271.84 361.01C1271.3 360.986 1271.03 360.835 1270.82 360.872C1270.38 360.916 1270.58 360.373 1270.12 360.27C1269.65 360.153 1269.46 359.922 1269.27 359.544C1269.07 359.169 1268.36 358.296 1267.92 358.146C1267.46 358.003 1267.45 357.371 1267.36 357.102C1267.33 357.016 1267.32 356.937 1267.32 356.869C1267.32 356.84 1267.34 356.809 1267.37 356.786C1267.37 356.786 1267.37 356.786 1267.37 356.786C1267.41 356.758 1267.45 356.742 1267.47 356.761C1267.58 356.852 1267.76 356.959 1268.05 357.032C1268.57 357.155 1268.34 357.423 1268.86 357.734C1269.39 358.033 1269.85 358.016 1270.23 358.565C1270.65 359.103 1271.24 358.49 1271.62 359.102C1271.72 359.249 1271.78 359.253 1271.7 359.264C1271.63 359.273 1271.49 359.337 1271.39 359.364C1271.19 359.412 1270.98 359.395 1270.81 359.13C1270.64 358.824 1270.47 358.273 1270.29 357.785C1270.16 357.412 1270.01 357.074 1269.84 356.9C1269.47 356.502 1268.89 356.045 1268.38 355.461C1267.86 354.868 1266.89 354.578 1266.35 354.191C1266.23 354.101 1266.09 354.023 1266 353.971C1265.91 353.92 1265.92 353.88 1265.92 353.804C1266.11 353.586 1266.1 353.434 1266.1 353.377C1266.1 353.318 1266.08 353.306 1266.08 353.304C1266.06 353.305 1266.05 353.349 1266.05 353.396C1266.05 353.493 1266.07 353.612 1266.09 353.726C1266.14 353.953 1266.19 354.168 1266.23 354.332C1266.38 354.934 1266.44 355.091 1266.86 355.507C1267.11 355.746 1267.33 356.151 1267.39 356.606C1267.42 356.836 1267.26 356.903 1267.08 356.79C1266.8 356.625 1266.72 356.382 1266.46 356.379C1265.95 356.37 1265.74 356.346 1265.71 355.882C1265.69 355.422 1265.13 355.555 1265.06 355.315C1265.02 355.197 1265.07 355.097 1265.03 354.91C1264.99 354.701 1264.85 354.53 1264.48 353.824C1264.43 353.728 1264.39 353.635 1264.36 353.471C1264.35 353.389 1264.34 353.297 1264.36 353.142C1264.37 353.006 1264.43 352.759 1264.65 352.528C1265.47 351.688 1266.22 351.875 1266.62 351.876C1267.05 351.922 1267.33 352.006 1267.56 352.074C1268.11 352.228 1268.84 352.988 1269.5 353.383C1270.2 353.765 1271.24 354.931 1271.75 355.336C1272.28 355.738 1272 355.965 1272.12 356.493ZM1249.84 350.109C1249.91 350.487 1250.76 350.123 1250.93 350.556C1251.1 350.988 1250.75 351.294 1251.1 351.667C1251.46 352.072 1251.4 352.682 1251.6 353.119C1251.74 353.457 1251.46 353.724 1251.07 353.978C1250.93 354.053 1250.78 354.134 1250.6 354.228C1249.96 354.502 1249.73 354.269 1249.51 354.008C1249.27 353.734 1248.72 353.198 1248.36 353.196C1247.98 353.199 1247.99 352.67 1247.92 352.473C1247.9 352.411 1247.9 352.349 1247.9 352.294C1247.9 352.271 1247.93 352.24 1247.95 352.213C1247.95 352.213 1247.95 352.213 1247.95 352.213C1247.99 352.181 1248.02 352.156 1248.04 352.165C1248.13 352.209 1248.28 352.25 1248.5 352.228C1248.92 352.178 1248.72 352.467 1249.13 352.563C1249.53 352.645 1249.86 352.471 1250.06 352.762C1250.14 352.857 1250.21 352.812 1250.2 352.732C1250.21 352.659 1250.05 352.519 1249.78 352.693C1249.6 352.834 1249.52 353.065 1249.54 353.152C1249.55 353.248 1249.61 353.25 1249.68 353.189C1249.87 352.963 1249.67 352.804 1249.45 352.775C1249.22 352.731 1248.92 352.743 1248.72 352.551C1248.31 352.171 1248.16 351.266 1247.86 351.026C1247.84 351.015 1247.83 351.003 1247.82 350.992C1247.52 350.762 1247.12 350.507 1246.82 350.14C1246.67 349.956 1246.42 349.842 1246.27 349.81C1246.21 349.789 1246.11 349.829 1246.39 349.829C1246.52 349.836 1246.92 349.69 1247.09 349.399C1247.25 349.125 1247.21 348.991 1247.2 348.947C1247.19 348.942 1247.18 348.941 1247.17 348.943C1246.94 349.117 1247.14 350.156 1247.2 350.544C1247.27 350.971 1247.3 351.085 1247.63 351.317C1247.82 351.451 1247.96 351.712 1247.98 352.063C1247.99 352.24 1247.86 352.337 1247.7 352.291C1247.48 352.223 1247.42 352.045 1247.2 352.099C1246.75 352.203 1246.56 352.218 1246.57 351.851C1246.59 351.487 1246.08 351.695 1246.03 351.518C1245.99 351.334 1246.25 351.201 1245.62 350.566C1245.14 350.028 1244.87 349.569 1244.81 348.947C1244.79 348.748 1244.8 348.496 1244.94 348.19C1245.05 347.805 1245.75 347.328 1246.18 347.359C1246.6 347.347 1246.84 347.461 1247.04 347.554C1247.42 347.752 1247.66 347.964 1247.94 348.085C1248.46 348.311 1249.14 349.029 1249.55 349.259C1249.57 349.269 1249.59 349.279 1249.61 349.288C1250.02 349.477 1249.77 349.728 1249.84 350.109ZM1249.82 322.924C1250.13 323.563 1250.49 324.093 1250.87 324.64C1251.51 325.576 1252.4 326.405 1252.67 328.25C1252.75 331.265 1251.78 331.34 1250.98 333.828C1250.98 333.831 1250.98 333.835 1250.97 333.838C1250.54 335.035 1249.96 336.222 1249.84 337.014C1249.71 337.725 1250.15 338.326 1250.55 338.687C1251.29 339.31 1251.1 339.763 1251.97 340.664C1252.06 340.75 1252.15 340.834 1252.25 340.925C1253.46 341.928 1254.1 342.583 1255.19 343.214C1255.57 343.42 1256.29 343.655 1257.14 343.476C1258.76 343.092 1260.73 343.769 1261.6 344.79C1261.79 344.987 1261.94 345.162 1262.08 345.312C1262.63 345.942 1263.17 346.847 1262.87 347.95C1262.7 348.529 1262.03 348.832 1261.63 348.783C1261.2 348.764 1260.88 348.625 1260.62 348.513C1260.29 348.368 1260.06 348.203 1259.9 348.071C1259.83 348.013 1259.81 347.959 1259.83 347.927C1259.83 347.927 1259.83 347.927 1259.83 347.927C1259.85 347.886 1259.93 347.879 1260.03 347.925C1260.27 348.036 1260.59 348.158 1260.95 348.212C1261.3 348.271 1261.78 348.217 1261.92 347.976C1262.09 347.631 1261.93 347.193 1261.81 346.804C1261.66 346.405 1261.47 345.952 1260.94 345.341C1260.81 345.196 1260.64 345.052 1260.44 344.921C1259.4 344.301 1258.36 344.377 1257.44 344.66C1256.45 344.982 1255.11 344.88 1253.96 344.154C1252.48 343.181 1251.72 342.647 1250.74 341.85C1250.04 341.186 1249.11 340.664 1248.23 338.594C1247.71 336.896 1248.34 335.883 1248.49 335.132C1248.72 334.359 1248.86 333.734 1249.02 333.021C1249.19 332.169 1249.5 331.145 1249.71 329.952C1249.96 328.782 1249.39 327.375 1248.68 325.684C1247.84 323.595 1246.61 321.846 1245.7 321.385C1245.39 321.21 1245.06 321.124 1244.86 321.156C1244.67 321.187 1244.54 321.261 1244.33 321.565C1243.92 322.186 1243.72 323.399 1243.71 324.639C1243.7 325.298 1243.63 325.942 1243.53 326.581C1243.27 327.985 1243.05 329.422 1242.27 331.069C1241.23 332.913 1241.78 334.633 1242.92 336.534C1243.95 338.306 1245.68 340.38 1247.22 342.165C1248.34 343.455 1249.36 344.566 1250.08 345.276C1251.79 346.848 1252.4 347.547 1254.55 347.124C1254.62 347.107 1254.68 347.089 1254.75 347.069C1256.13 346.679 1258.04 346.825 1259.41 347.59C1260.11 348.046 1259.84 348.065 1259.11 347.862C1258.02 347.609 1257.07 347.503 1256.5 347.707C1255.86 347.945 1255.48 348.148 1255.06 348.297C1254.6 348.443 1254.01 348.543 1253.2 348.351C1251.45 347.814 1250.64 347.647 1249.87 347.054C1249.19 346.408 1249.28 346.259 1246.06 343.301C1246.01 343.26 1245.97 343.219 1245.92 343.177C1242.58 340.084 1240.94 338.063 1240.03 336.34C1239.29 335.272 1238.82 332.043 1240.24 329.98C1240.56 329.401 1240.8 328.58 1240.94 327.85C1241.1 327.006 1241.29 325.824 1241.29 324.639C1241.31 323.191 1241.37 321.553 1242.45 320.019C1242.98 319.252 1244.07 318.68 1244.97 318.72C1245.87 318.732 1246.48 319.027 1246.93 319.248C1249.36 320.806 1248.86 321.209 1249.82 322.924Z" fill="#AF3029"/>
</g>
</svg>
