<svg width="1603" height="742" viewBox="0 0 1603 742" fill="none" xmlns="http://www.w3.org/2000/svg">
<g style="mix-blend-mode:multiply">
<path d="M264.748 369.007C260.685 365.757 257.509 365.498 251.659 367.942C247.978 369.481 247.06 369.484 244.134 367.971C242.301 367.023 239.641 364.369 238.221 362.073C235.683 357.966 235.67 357.716 237.434 346.57C238.419 340.34 238.956 334.539 238.626 333.679C237.78 331.474 230.535 330.596 222.61 331.739C213.911 332.994 213.546 332.011 218.623 321.018C226.023 304.997 226.604 303.271 224.951 302.222C222.949 300.951 220.771 301.004 215.556 302.453C212.092 303.415 210.934 304.49 209.861 307.741C208.172 312.86 203.575 316.186 195.922 317.828C185.769 320.005 180.896 315.959 177.394 302.444L175.488 295.088L179.22 283.692C181.273 277.424 183.45 270.933 184.06 269.268C184.76 267.354 187.429 265.075 191.316 263.072C194.697 261.329 199.316 258.838 201.58 257.536C201.58 257.536 192.68 259.754 188.506 256.799C185.548 254.705 186.377 251.193 183.506 248.983C179.527 245.921 175.841 247.147 170.829 246.844C163.006 246.371 157 253.871 150.874 248.983C147.123 245.99 149.365 240.781 145.506 237.929C141.986 235.328 135.867 236.222 131.521 235.706C118.073 234.11 113.584 238.584 100.168 240.429C100.829 242.381 101.007 244.589 100.619 246.885C100.025 250.401 100.527 252.694 102.926 257.429C105.289 262.09 105.715 263.997 104.785 265.735C103.19 268.715 104.109 270.786 108.451 273.997C111.315 276.114 111.89 277.236 111.306 279.565C110.758 281.746 111.502 283.654 114.257 287.132C118.928 293.03 120.841 293.132 117.879 287.326C116.628 284.875 115.213 280.256 114.734 277.061C114.255 273.866 112.373 268.032 110.552 264.097C106.07 254.412 105.494 251.489 107.521 248.721C108.96 246.755 109.663 246.609 112.176 247.754C114.547 248.834 115.296 250.264 115.938 254.937C116.44 258.583 118.458 263.565 121.318 268.215C123.836 272.309 125.609 276.121 125.26 276.687C124.91 277.252 126.685 279.95 129.203 282.682C131.721 285.414 135.014 290.197 136.522 293.311C138.916 298.258 139.103 299.6 138.002 303.938C136.8 308.673 136.917 309.087 140.529 312.907C142.859 315.371 150.38 319.85 160.07 324.546L175.825 332.18L180.959 330.219C185.62 328.439 186.42 328.427 189.619 330.081C191.558 331.084 194.332 333.572 195.785 335.612C197.306 337.748 201.114 340.509 204.769 342.125C211.762 345.218 214.643 345.587 216.588 343.641C217.521 342.709 218.253 343.488 219.231 346.451C219.975 348.706 221.627 351.495 222.902 352.648C224.177 353.802 225.22 355.971 225.22 357.469C225.22 358.967 225.884 360.718 226.696 361.36C227.508 362.003 230.363 364.416 233.04 366.722C235.717 369.028 238.491 370.915 239.204 370.915C239.917 370.915 242.666 372.043 245.312 373.423C250.254 375.998 251.752 375.747 251.779 372.34C251.801 369.498 257.479 367.804 261.239 369.517C262.404 370.048 263.098 370.456 263.411 370.929L265.373 369.503C265.177 369.349 264.969 369.184 264.748 369.007Z" fill="#A02F6F"/>
<path d="M342.529 359.881C342.957 360.308 342.714 361.371 341.991 362.243C340.965 363.48 341.197 363.828 343.045 363.828C344.42 363.828 345.673 362.838 346.031 361.466C346.502 359.665 346.067 359.104 344.201 359.104C342.854 359.104 342.102 359.454 342.529 359.881Z" fill="#A02F6F"/>
<path d="M309.076 348.041C309.076 348.712 309.43 349.616 309.863 350.049C310.296 350.482 310.925 350.562 311.261 350.226C311.596 349.891 311.242 348.987 310.473 348.218C309.626 347.371 309.076 347.301 309.076 348.041Z" fill="#A02F6F"/>
<path d="M303.691 347.293C303.405 347.293 303.17 347.825 303.17 348.474C303.17 349.124 303.733 349.655 304.421 349.655C305.109 349.655 305.344 349.124 304.942 348.474C304.541 347.825 303.978 347.293 303.691 347.293Z" fill="#A02F6F"/>
<path d="M359.202 344.931C358.915 344.931 358.681 345.463 358.681 346.112C358.681 346.762 359.244 347.293 359.932 347.293C360.62 347.293 360.854 346.762 360.452 346.112C360.051 345.463 359.488 344.931 359.202 344.931Z" fill="#A02F6F"/>
<path d="M352.775 337.254C352.126 337.656 351.594 338.218 351.594 338.505C351.594 338.791 352.126 339.026 352.775 339.026C353.425 339.026 353.957 338.463 353.957 337.775C353.957 337.087 353.425 336.853 352.775 337.254Z" fill="#A02F6F"/>
<path d="M349.232 327.805C348.583 328.207 348.051 329.067 348.051 329.716C348.051 330.366 348.583 330.569 349.232 330.168C349.882 329.766 350.413 328.906 350.413 328.257C350.413 327.607 349.882 327.404 349.232 327.805Z" fill="#A02F6F"/>
<path d="M339.132 324.402C338.081 323.999 337.607 324.197 338.02 324.866C338.417 325.508 339.242 326.034 339.853 326.034C341.552 326.034 341.178 325.187 339.132 324.402Z" fill="#A02F6F"/>
<path d="M343.257 321.31C342.569 321.31 342.335 321.841 342.736 322.491C343.138 323.14 343.701 323.672 343.987 323.672C344.274 323.672 344.508 323.14 344.508 322.491C344.508 321.841 343.945 321.31 343.257 321.31Z" fill="#A02F6F"/>
<path d="M348.572 321.31C348.286 321.31 348.051 321.841 348.051 322.491C348.051 323.14 348.614 323.672 349.302 323.672C349.99 323.672 350.224 323.14 349.823 322.491C349.421 321.841 348.858 321.31 348.572 321.31Z" fill="#A02F6F"/>
<path d="M265.376 317.668C265.376 318.263 266.041 319.019 266.852 319.346C267.664 319.674 269.923 319.967 271.872 319.998C275.238 320.051 275.301 319.967 273.123 318.319C270.59 316.404 265.376 315.965 265.376 317.668Z" fill="#A02F6F"/>
<path d="M291.538 318.318C293.339 317.922 295.679 318.084 296.739 318.676C298.854 319.86 314.053 316.77 313.167 315.336C311.835 313.18 303.972 310.68 298.521 310.68C292.887 310.68 292.544 310.842 293.684 312.97C295.288 315.969 293.612 316.992 287.333 316.845C283.06 316.745 282.835 316.865 285.383 317.884C286.967 318.518 289.737 318.713 291.538 318.318Z" fill="#A02F6F"/>
<path d="M322.826 316.585C319.734 316.585 317.994 318.023 319.394 319.423C320.637 320.666 324.777 319.715 325.321 318.062C325.624 317.142 324.683 316.585 322.826 316.585Z" fill="#A02F6F"/>
<path d="M330.926 316.158C329.951 316.532 329.154 317.047 329.154 317.302C329.154 317.558 329.951 317.766 330.926 317.766C331.9 317.766 332.697 317.252 332.697 316.622C332.697 315.993 331.9 315.784 330.926 316.158Z" fill="#A02F6F"/>
<path d="M272.558 308.106C275.241 308.143 277.734 308.471 278.099 308.836C278.928 309.665 281.625 309.513 285.454 308.422C288.826 307.46 288.815 307.45 278.368 301.861C265.658 295.061 262.034 293.683 255.561 293.191C248.792 292.677 239.393 295.395 239.393 297.868C239.393 299.219 239.803 299.158 245.166 297.012C250.886 294.724 255.639 295.802 264.153 301.318C268.495 304.132 269.755 305.54 268.877 306.597C267.969 307.691 268.857 308.055 272.558 308.106Z" fill="#A02F6F"/>
<path d="M290.179 298.869C290.179 297.389 288.925 297.389 286.635 298.869C285.203 299.795 285.372 300.018 287.521 300.032C288.983 300.042 290.179 299.519 290.179 298.869Z" fill="#A02F6F"/>
<path d="M299.626 295.031C299.628 293.78 295.178 293.925 294.39 295.201C294.031 295.781 295.062 296.18 296.682 296.086C298.301 295.993 299.626 295.518 299.626 295.031Z" fill="#A02F6F"/>
<path d="M271.518 278.791C269.421 278.791 269.146 281.65 271.035 283.818C272.029 284.959 273.155 285.55 273.538 285.133C273.921 284.715 273.626 284.155 272.883 283.888C272.14 283.62 271.804 282.365 272.135 281.097C272.467 279.829 272.189 278.791 271.518 278.791Z" fill="#A02F6F"/>
<path d="M277.722 271.957C277.397 272.282 277.475 273.444 277.896 274.539C278.316 275.635 278.925 276.265 279.25 275.94C279.575 275.615 279.497 274.453 279.077 273.358C278.656 272.263 278.047 271.632 277.722 271.957Z" fill="#A02F6F"/>
<path d="M272.744 271.705C271.506 271.705 270.494 272.502 270.494 273.476C270.494 274.451 270.709 275.248 270.972 275.248C271.235 275.248 272.247 274.451 273.222 273.476C274.797 271.901 274.743 271.705 272.744 271.705Z" fill="#A02F6F"/>
<path d="M132.358 234.854C136.896 235.336 141.712 234.33 146.097 237.128C150.452 240.332 148.617 246.142 151.679 247.973C155.899 251.743 161.288 246.021 169.467 245.35C169.958 245.33 170.44 245.336 170.918 245.368C175.845 245.533 181.12 245.007 184.29 247.963C187.601 250.724 186.846 254.506 189.135 255.91C191.641 257.669 196.15 257.7 201.341 256.58L202.071 258.391C200.624 259.221 199.061 260.08 197.361 261.009C195.509 262.019 193.649 263.013 191.783 263.979C189.042 265.427 186.042 267.312 185.012 269.616C183.25 274.604 181.622 279.513 180.126 283.988C178.734 288.174 177.456 292.021 176.358 295.373L176.374 294.858C177.109 297.694 177.763 300.174 178.321 302.204C178.436 302.623 178.548 303.013 178.657 303.376C180.028 307.842 180.924 310.24 182.448 312.78C183.946 315.132 186.665 318.42 193.299 317.54C194.151 317.433 194.957 317.283 195.766 317.103C202.351 315.678 207.506 312.614 209.151 307.507C209.6 306.211 210.154 304.793 211.334 303.718C212.515 302.652 213.98 302.204 215.382 301.825C216.802 301.456 218.27 301.091 219.864 300.878C221.255 300.708 223.353 300.522 225.228 301.786C225.554 301.988 225.946 302.345 226.099 302.823C226.254 303.284 226.226 303.727 226.174 304.126C226.058 304.922 225.809 305.666 225.542 306.421C225 307.922 224.325 309.476 223.624 311.061C222.198 314.265 220.607 317.661 218.968 321.177C217.727 323.948 216.222 326.776 215.705 329.669C215.614 330.386 215.705 331.08 216.212 331.402C216.722 331.744 217.492 331.804 218.203 331.812C219.663 331.808 221.123 331.594 222.56 331.391C229.158 330.7 235.679 329.865 239.053 333.515C239.142 333.766 239.146 333.913 239.166 334.078C239.264 338.31 238.594 342.475 237.953 346.652C237.288 352.155 235.075 357.935 238.499 361.901C240.121 364.489 242.185 366.606 244.226 367.793C244.275 367.819 244.324 367.845 244.372 367.87C246.802 369.444 249.103 368.88 250.655 368.257C251.324 368.013 251.645 367.914 251.661 367.949C251.661 367.949 251.661 367.949 251.662 367.949C251.675 367.991 251.224 368.24 250.359 368.573C249.506 368.887 248.535 369.254 247.408 369.225C246.275 369.193 245.169 368.67 244.058 368.117C241.802 366.857 239.73 364.813 237.973 362.227C237.258 361.09 236.42 359.919 236.038 358.435C235.341 353.114 236.577 349.747 236.929 346.49C237.464 342.661 238.293 338.881 238.199 333.843C236.742 331.864 232.345 331.641 227.891 331.766C226.089 331.844 224.357 332.027 222.689 332.284C221.042 332.527 219.481 332.785 217.815 332.753C217.011 332.703 216.03 332.676 215.241 331.835C214.501 330.927 214.657 329.921 214.766 329.141C215.436 326.004 216.77 323.415 217.942 320.703C219.261 317.768 220.569 314.875 221.928 311.778C222.6 310.235 223.285 308.658 223.917 307.02C224.227 306.207 224.535 305.362 224.732 304.551C224.829 304.15 224.894 303.725 224.864 303.45C224.815 303.166 224.814 303.151 224.501 302.931C222.342 301.423 219.032 302.388 215.768 303.213C215.276 303.346 214.791 303.49 214.322 303.663C212.134 304.347 211.175 306.032 210.567 307.974C207.99 315.238 201.508 317.377 196.116 318.733C192.54 319.517 187.911 320.184 183.814 317.118C179.844 314.023 177.936 308.791 176.372 302.709C175.799 300.42 175.193 297.97 174.548 295.331L174.477 295.052L174.566 294.786C174.76 294.22 174.957 293.645 175.158 293.061C176.374 289.525 177.456 286.342 178.433 283.434C180.343 277.768 181.846 273.163 183.272 268.98C185.058 265.284 188.101 263.827 190.863 262.192C194.105 260.427 197.366 258.603 200.967 256.47L201.877 258.729C197.913 259.461 193.335 261.004 187.685 257.959C184.398 255.76 184.713 251.503 182.664 250.204C182.644 250.188 182.623 250.173 182.602 250.157C179.722 247.664 175.524 248.59 170.739 248.341C167.72 248.128 164.653 249.424 161.344 250.724C158.276 252.073 153.189 253.062 149.976 250.108C145.551 246.262 147.63 240.662 144.689 239.034C141.327 236.693 136.128 237.545 131.369 236.981C119.04 234.977 108.607 241.035 100.323 241.559L101.248 240.063C101.411 240.543 101.542 241.021 101.646 241.492C102.041 243.285 102.073 245.193 101.758 247.078C101.04 250.347 102.217 253.503 103.98 256.895C104.638 258.196 105.296 259.516 105.836 261.003C106.346 262.405 106.868 264.499 105.844 266.302C104.137 268.836 106.447 271.004 109.176 273.018C110.103 273.723 111.072 274.408 111.926 275.59C112.874 276.798 112.841 278.711 112.493 279.863C111.851 281.919 113.525 284.197 115.217 286.372C116.34 287.775 117.581 289.284 118.819 290.236C118.952 290.335 119.121 290.426 119.122 290.422C119.116 290.432 119.049 290.348 118.688 290.445C118.504 290.5 118.307 290.653 118.212 290.796C118.12 290.929 118.095 291.032 118.086 291.073C118.067 291.236 118.082 291.031 118.042 290.887C118.007 290.725 117.952 290.536 117.884 290.335C117.613 289.542 117.22 288.708 116.8 287.876C115.176 284.439 114.191 280.981 113.568 277.235C113.471 276.573 113.327 275.882 113.166 275.197C112.313 271.687 111.086 268.05 109.515 264.576C108.399 262.143 107.269 259.68 106.322 257.02C105.463 254.542 104.348 250.847 106.591 248.04C107.167 247.337 107.762 246.2 109.415 245.903C110.937 245.786 111.769 246.342 112.658 246.696C114.105 247.247 115.653 248.775 116.132 250.332C116.691 251.866 116.894 253.32 117.109 254.777C117.815 259.188 119.918 263.583 122.348 267.582C123.187 268.944 123.984 270.33 124.726 271.761C125.095 272.475 125.453 273.204 125.783 273.963C125.947 274.346 126.104 274.731 126.248 275.155C126.319 275.366 126.388 275.59 126.446 275.852C126.474 275.983 126.501 276.119 126.516 276.317C126.503 276.522 126.617 276.703 126.295 277.327C126.464 277.028 126.427 276.899 126.433 276.848C126.43 276.799 126.427 276.807 126.433 276.827C126.444 276.871 126.479 276.969 126.524 277.068C126.616 277.276 126.744 277.509 126.884 277.743C127.166 278.213 127.498 278.691 127.842 279.155C128.537 280.088 129.299 280.992 130.096 281.859C133.096 285.248 135.564 288.809 137.586 292.796C138.702 295.201 140.158 297.999 139.726 301.078C139.599 302.175 139.348 303.2 139.086 304.213C138.702 305.76 138.184 307.433 138.518 308.517C138.847 309.645 140.15 310.935 141.292 312.186C146.439 316.764 153.666 320.285 160.462 323.737C165.746 326.34 171.03 328.944 176.166 331.476L175.545 331.449C177.279 330.8 178.997 330.158 180.694 329.523C182.172 328.991 183.599 328.383 185.291 328.181C187.07 327.962 188.648 328.81 189.933 329.475C192.602 331.016 194.621 333.001 196.292 335.25C198.633 338.227 202.012 340.229 204.987 341.632C207.566 342.787 209.964 343.797 212.134 344.225C213.761 344.56 215.313 344.367 216.283 343.336C216.46 343.166 216.664 342.99 216.974 342.892C217.287 342.783 217.69 342.882 217.915 343.051C218.373 343.393 218.559 343.782 218.758 344.15C219.128 344.891 219.372 345.621 219.603 346.329C220.441 348.754 221.643 350.901 223.128 352.398C224.554 353.814 225.43 355.541 225.53 357.469C225.552 358.775 225.962 360.271 226.884 361.123C228.889 362.759 230.924 364.503 233.246 366.482C234.933 367.868 237.002 369.694 239.204 370.565C240.162 370.667 240.836 371 241.637 371.301C242.899 371.812 244.184 372.411 245.488 373.085C246.717 373.709 248.017 374.38 249.363 374.688C250.037 374.833 250.7 374.805 250.997 374.328C251.322 373.844 251.386 373.068 251.396 372.337C251.571 370.02 253.875 369.127 255.649 368.705C257.533 368.308 259.57 368.396 261.375 369.219C262.16 369.618 263.023 369.908 263.665 370.761L263.231 370.682C263.891 370.212 264.55 369.743 265.208 369.275L265.2 369.724C264.991 369.557 264.784 369.389 264.578 369.22C262.105 367.035 258.791 365.953 255.714 366.732C252.531 367.475 251.384 368.111 251.696 367.861C252.033 367.711 253.823 366.607 257.176 366.132C260.189 365.719 262.952 367.164 264.93 368.781C265.139 368.946 265.347 369.11 265.555 369.271L265.863 369.509L265.546 369.741C264.877 370.232 264.225 370.71 263.59 371.176L263.334 371.364L263.156 371.097C262.72 370.511 261.843 370.154 261.106 369.808C258.099 368.56 254.94 369.319 253.333 370.578C252.694 371.089 252.312 371.747 252.353 372.344C252.353 373.207 252.411 374.101 251.783 375.036C251.028 376.045 249.767 375.915 249.042 375.777C247.463 375.436 246.206 374.808 244.916 374.184C243.171 373.337 240.934 372.246 239.204 371.821C236.186 370.852 234.855 369.27 232.505 367.343C232.202 367.072 231.892 366.796 231.575 366.513C229.625 364.78 227.851 363.241 226.239 361.938C224.77 360.503 224.543 358.99 224.442 357.469C224.338 355.879 223.334 354.223 222.298 353.316C220.229 351.292 219.142 349.215 218.242 346.778C218.06 346.234 217.871 345.699 217.655 345.198C217.471 344.761 217.229 344.351 217.12 344.254C217.05 344.204 217.23 344.316 217.369 344.27C217.482 344.23 217.386 344.248 217.292 344.345C214.378 347.023 210.765 345.622 204.437 342.877C201.756 341.571 198.367 339.981 195.119 336.085C193.75 334.252 191.712 332.225 189.23 330.834C188.007 330.219 186.818 329.608 185.585 329.745C184.304 329.866 182.815 330.474 181.28 331.059C181.168 331.103 181.055 331.147 180.941 331.191C179.313 331.826 177.719 332.446 176.158 333.054L175.785 333.198L175.417 333.022C169.704 330.298 164.455 327.794 159.616 325.483C151.729 321.59 145.003 318.4 139.687 313.704C138.472 312.333 137.007 311.228 136.301 309.01C135.812 306.729 136.527 305.173 136.836 303.642C138.149 299.676 136.924 296.92 135.398 293.855C134.626 292.297 133.713 290.842 132.819 289.497C131.61 287.702 130.117 285.593 128.265 283.546C127.473 282.683 126.685 281.757 125.921 280.735C125.539 280.221 125.165 279.69 124.806 279.099C124.626 278.801 124.451 278.492 124.286 278.13C124.203 277.945 124.121 277.749 124.049 277.491C124.015 277.365 123.979 277.214 123.964 277.004C123.961 276.793 123.922 276.499 124.192 276.027C123.968 276.475 124.071 276.468 124.05 276.488C124.051 276.491 124.046 276.443 124.035 276.393C124.013 276.284 123.971 276.133 123.922 275.984C123.823 275.677 123.694 275.348 123.554 275.016C123.272 274.35 122.945 273.669 122.598 272.986C121.902 271.618 121.121 270.234 120.281 268.853C117.865 264.794 115.617 260.304 114.788 255.096C114.369 252.312 114.075 249.61 111.704 248.789C110.934 248.428 110.05 248.104 109.72 248.173C109.484 248.144 108.927 248.69 108.433 249.388C106.039 252.482 108.993 257.416 110.519 261.243C110.864 262.011 111.221 262.784 111.606 263.609C113.31 267.409 114.958 271.727 115.912 276.884C116.45 280.1 117.456 283.658 118.95 286.78C119.388 287.644 119.8 288.493 120.153 289.489C120.309 290.017 120.532 290.416 120.485 291.394C120.445 291.644 120.401 292.12 119.839 292.549C119.235 292.946 118.761 292.82 118.497 292.764C117.973 292.611 117.751 292.437 117.488 292.266C115.692 290.904 114.561 289.414 113.309 287.883C111.688 285.704 109.203 282.925 110.128 279.27C110.381 278.239 110.377 277.625 109.923 276.98C109.454 276.304 108.59 275.617 107.727 274.977C106.299 273.897 104.856 272.811 103.727 271.116C102.443 269.427 102.751 266.645 103.7 265.154C104.721 263.413 102.95 260.364 101.814 257.992C99.8935 254.474 98.5241 250.128 99.3489 246.671C99.6229 244.996 99.5477 243.434 99.256 242.109C99.1604 241.672 99.0416 241.254 98.9033 240.857L98.3804 239.334L99.9861 239.106C116.367 236.295 117.228 233.215 131.632 234.772C131.865 234.803 132.109 234.83 132.358 234.854ZM346.85 361.974C346.525 362.302 347.147 363.052 346.649 363.512C346.147 363.922 345.777 363.636 345.335 364.099C344.847 364.573 344.111 364.474 343.886 364.714C343.629 364.96 343.514 364.398 343.148 364.545C343.113 364.558 343.078 364.569 343.045 364.577C342.768 364.66 342.572 364.578 342.313 364.387C342.168 364.276 341.885 364.183 341.544 364.015C341.38 363.933 341.138 363.774 341.053 363.504C340.974 363.248 341.01 363.074 340.987 362.951C340.942 362.425 341.525 362.362 341.722 362.259C341.788 362.224 341.85 362.212 341.909 362.208C341.934 362.206 341.968 362.224 341.996 362.247C341.996 362.247 341.996 362.248 341.996 362.248C342.032 362.277 342.059 362.315 342.05 362.336C342.008 362.431 341.967 362.601 342.006 362.834C342.044 363.05 342.003 363.104 341.941 363.162C341.882 363.196 341.801 363.355 341.886 363.291C341.923 363.226 341.887 363.112 341.909 363.075C341.928 363.03 341.977 363 342.035 362.976C342.154 362.93 342.31 362.924 342.541 363.04C342.742 363.139 342.893 363.033 343.045 362.919C343.202 362.762 343.275 362.604 343.631 362.794C344.336 363.056 344.01 362.171 344.181 361.835C344.31 361.585 344.642 361.418 344.842 361.155C344.948 360.982 345.022 360.832 345.027 360.72C345.038 360.548 345.014 360.347 344.986 360.284C344.973 360.252 344.967 360.273 345.002 360.322C345.036 360.371 345.111 360.411 345.126 360.382C345.158 360.275 344.652 360.308 344.201 360.322C344.025 360.322 343.858 360.309 343.697 360.265C343.5 360.208 343.261 360.167 343.111 360.137C343.041 360.108 342.998 360.147 343.106 359.942C343.163 359.837 343.171 359.587 343.104 359.493C343.046 359.394 343.006 359.399 342.997 359.414C343.28 359.809 343.242 360.153 343.209 360.347C343.035 360.971 342.937 361.014 342.859 361.532C342.804 361.823 342.536 362.152 342.157 362.25C341.967 362.298 341.869 362.16 341.895 362.001C341.931 361.768 342.084 361.664 341.957 361.474C341.698 361.097 341.572 361.003 341.866 360.89C342.162 360.748 341.639 360.55 341.703 360.515C341.731 360.493 341.807 360.48 341.861 360.449C341.925 360.427 341.909 360.348 341.94 360.47C341.824 360.348 341.524 360.171 341.513 359.543C341.57 358.923 341.905 358.706 342.054 358.564C342.229 358.424 342.362 358.349 342.485 358.283C342.726 358.157 342.915 358.088 343.082 358.032C343.413 357.924 343.649 357.881 343.842 357.842C343.94 357.823 344.062 357.826 344.201 357.843C344.61 357.896 345.143 358.032 345.767 358.145C345.975 358.187 346.268 358.277 346.597 358.528C346.927 358.77 347.217 359.219 347.321 359.603C347.525 360.379 347.41 360.846 347.458 361.136C347.503 361.556 347.317 361.61 347.104 361.747C347.024 361.808 346.938 361.877 346.85 361.974ZM311.403 347.853C311.383 348.137 312.193 347.737 312.268 348.076C312.331 348.414 311.939 348.662 312.177 348.931C312.424 349.232 312.197 349.712 312.363 349.967C312.451 350.105 312.337 350.188 312.212 350.251C312.081 350.322 311.96 350.37 311.893 350.585C311.871 350.652 311.839 350.713 311.801 350.766C311.659 350.988 311.418 351.032 311.173 350.946C310.845 350.878 310.381 350.655 310.112 350.77C309.805 350.894 309.806 350.4 309.798 350.26C309.789 350.213 309.797 350.164 309.812 350.119C309.818 350.1 309.842 350.07 309.868 350.044C309.868 350.044 309.868 350.044 309.868 350.044C309.901 350.012 309.937 349.984 309.948 349.986C310.001 349.999 310.11 349.995 310.262 349.898C310.526 349.698 310.367 350.007 310.566 349.907C310.761 349.788 310.717 349.445 310.74 349.658C310.768 349.732 310.731 349.662 310.643 349.609C310.414 349.565 310.119 349.889 310.443 349.872C310.686 349.813 310.554 349.725 310.368 349.749C310.178 349.76 309.928 349.829 309.827 349.774C309.652 349.682 309.779 349.196 309.665 349.027C309.653 349.01 309.641 348.997 309.627 348.988C309.468 348.888 309.203 348.805 309.193 348.669C309.194 348.636 309.188 348.635 309.252 348.658C309.306 348.674 309.507 348.75 309.826 348.605C310.145 348.449 310.256 348.189 310.277 348.118C310.302 348.029 310.28 348.023 310.243 348.041C310.234 348.048 310.225 348.056 310.215 348.064C309.994 348.23 309.845 348.739 309.762 348.995C309.675 349.254 309.67 349.337 309.865 349.454C309.98 349.522 310.003 349.663 309.926 349.922C309.889 350.053 309.769 350.166 309.65 350.153C309.476 350.132 309.474 350 309.268 350.062C308.853 350.181 308.67 350.184 308.789 349.908C308.916 349.641 308.396 349.801 308.406 349.67C308.423 349.537 308.703 349.446 308.316 349.008C308.006 348.632 307.896 348.303 307.841 348.041C307.829 347.971 307.82 347.907 307.814 347.839C307.822 347.664 307.811 347.34 308.321 346.799C308.583 346.534 309.048 346.384 309.337 346.396C309.637 346.398 309.823 346.457 309.979 346.484C310.632 346.618 311.043 347.159 311.35 347.224C311.385 347.232 311.413 347.243 311.435 347.257C311.61 347.368 311.411 347.594 311.403 347.853ZM306.069 349.052C305.969 349.217 306.124 349.378 306.222 349.653C306.325 349.915 306.329 350.315 306.028 350.524C305.412 350.884 305.16 350.424 304.779 350.627C304.654 350.681 304.529 350.68 304.421 350.659C304.18 350.611 304.011 350.465 303.874 350.567C303.659 350.708 303.819 350.153 303.593 350.197C303.351 350.228 303.257 350.077 303.244 349.825C303.207 349.568 303.093 349.159 302.826 349.079C302.532 348.981 302.88 348.652 302.975 348.563C303.002 348.529 303.043 348.504 303.085 348.485C303.103 348.478 303.14 348.474 303.177 348.474C303.177 348.474 303.177 348.474 303.177 348.474C303.223 348.474 303.269 348.479 303.275 348.487C303.303 348.525 303.383 348.585 303.557 348.606C303.879 348.619 303.548 348.722 303.747 348.768C303.954 348.797 304.187 348.573 304.116 348.782C304.094 348.894 304.215 348.771 304.284 348.66C304.362 348.551 304.367 348.457 304.361 348.706C304.365 348.844 304.4 348.876 304.421 348.844C304.477 348.775 304.46 348.209 304.125 348.271C303.875 348.312 303.681 348.815 303.801 348.994C303.895 349.188 304.031 349.136 304.003 349.138C303.983 349.138 303.947 349.132 303.912 349.111C303.841 349.039 303.779 348.953 303.764 348.823C303.732 348.581 303.334 348.6 303.384 348.376C303.423 348.275 303.352 348.209 303.691 348.153C304.001 348.064 304.002 347.876 303.952 347.848C303.903 347.804 303.823 347.815 303.761 347.824C303.544 347.872 303.484 347.936 303.564 348.109C303.611 348.21 303.539 348.317 303.304 348.435C303.186 348.494 303.022 348.485 302.945 348.413C302.833 348.306 302.916 348.226 302.719 348.148C302.326 347.989 302.181 347.882 302.45 347.765C302.717 347.664 302.227 347.428 302.332 347.325C302.383 347.279 302.482 347.286 302.574 347.227C302.621 347.195 302.664 347.15 302.717 347.061C302.777 346.971 302.81 346.839 303.026 346.603C303.167 346.454 303.418 346.315 303.691 346.287C304.037 346.257 304.193 346.308 304.331 346.334C304.463 346.365 304.556 346.395 304.636 346.424C304.793 346.48 304.892 346.529 304.977 346.568C305.191 346.667 305.258 347.131 305.505 347.283C305.668 347.382 305.831 347.626 305.983 347.831C306.098 347.991 306.204 348.157 306.311 348.269C306.592 348.593 306.251 348.725 306.069 349.052ZM361.579 346.69C361.479 346.855 361.635 347.015 361.733 347.291C361.835 347.553 361.839 347.953 361.538 348.161C360.923 348.522 360.671 348.062 360.289 348.265C360.165 348.319 360.039 348.318 359.932 348.297C359.69 348.249 359.522 348.103 359.384 348.205C359.169 348.346 359.329 347.791 359.103 347.835C358.862 347.866 358.767 347.715 358.755 347.463C358.718 347.206 358.603 346.797 358.336 346.717C358.043 346.618 358.391 346.29 358.485 346.201C358.513 346.167 358.553 346.141 358.595 346.123C358.613 346.115 358.65 346.112 358.688 346.112C358.688 346.112 358.688 346.112 358.688 346.112C358.734 346.112 358.779 346.117 358.785 346.125C358.814 346.163 358.893 346.223 359.067 346.244C359.389 346.257 359.059 346.36 359.258 346.406C359.464 346.435 359.698 346.211 359.626 346.42C359.605 346.532 359.726 346.409 359.794 346.297C359.872 346.189 359.877 346.094 359.872 346.344C359.875 346.482 359.91 346.513 359.932 346.482C359.988 346.412 359.97 345.847 359.635 345.909C359.385 345.95 359.191 346.453 359.311 346.632C359.405 346.826 359.542 346.774 359.514 346.776C359.494 346.776 359.457 346.77 359.423 346.749C359.352 346.677 359.289 346.591 359.274 346.461C359.242 346.219 358.844 346.237 358.894 346.014C358.933 345.913 358.863 345.847 359.202 345.79C359.512 345.702 359.513 345.514 359.463 345.486C359.413 345.442 359.333 345.453 359.271 345.462C359.055 345.51 358.994 345.574 359.074 345.746C359.121 345.848 359.05 345.955 358.814 346.073C358.696 346.132 358.532 346.123 358.455 346.051C358.343 345.944 358.426 345.863 358.229 345.786C357.836 345.626 357.691 345.52 357.96 345.402C358.228 345.302 357.737 345.066 357.842 344.963C357.894 344.917 357.993 344.924 358.084 344.865C358.131 344.833 358.175 344.788 358.227 344.698C358.287 344.609 358.32 344.477 358.536 344.241C358.677 344.092 358.928 343.953 359.202 343.925C359.548 343.895 359.704 343.946 359.841 343.972C359.973 344.003 360.066 344.033 360.146 344.062C360.303 344.118 360.403 344.167 360.488 344.206C360.701 344.305 360.768 344.769 361.016 344.92C361.178 345.019 361.342 345.264 361.493 345.469C361.609 345.629 361.715 345.795 361.821 345.906C362.102 346.23 361.762 346.363 361.579 346.69ZM354.815 338.338C354.567 338.495 355.3 339.055 354.956 339.353C354.611 339.605 354.254 339.305 354.031 339.615C353.761 339.944 353.276 339.757 353.16 339.968C353.023 340.171 352.936 339.695 352.775 339.726C352.765 339.729 352.753 339.734 352.74 339.744C352.572 339.871 352.459 339.785 352.343 339.579C352.213 339.376 351.901 339.133 351.633 339.239C351.338 339.352 351.339 338.8 351.418 338.641C351.431 338.585 351.468 338.543 351.509 338.519C351.526 338.508 351.564 338.505 351.601 338.505C351.601 338.505 351.601 338.505 351.601 338.505C351.647 338.505 351.693 338.508 351.699 338.513C351.727 338.536 351.82 338.547 351.954 338.444C352.178 338.226 351.966 338.505 352.155 338.418C352.34 338.317 352.45 338.013 352.57 338.238C352.647 338.362 352.719 338.149 352.775 338.018C352.789 337.911 352.748 337.867 352.822 338.075C352.924 338.302 352.947 338.175 352.854 338.018C352.771 337.856 352.596 337.662 352.526 337.649C352.457 337.635 352.517 337.729 352.617 337.764C352.715 337.806 352.835 337.791 352.814 337.775C352.814 337.775 352.814 337.775 352.814 337.775C352.794 337.761 352.75 337.768 352.757 337.845C352.758 337.913 352.86 338.087 353.057 338.134C353.433 338.213 353.57 338.331 353.385 338.216C353.378 338.212 353.37 338.207 353.362 338.203C353.061 338.138 352.632 338.15 352.393 338.142C352.145 338.13 352.071 338.149 352.062 338.34C352.057 338.456 351.969 338.468 351.729 338.484C351.611 338.503 351.438 338.539 351.378 338.404C351.304 338.22 351.428 338.166 351.285 338.005C351.007 337.676 350.941 337.499 351.23 337.523C351.512 337.56 351.166 337.142 351.28 337.115C351.394 337.095 351.597 337.321 351.774 336.858C351.901 336.549 352.036 336.363 352.144 336.232C352.221 336.152 352.293 336.09 352.362 336.034C352.573 335.873 353.192 335.876 353.878 335.98C354.226 336.006 354.776 336.408 354.966 336.839C355.177 337.264 355.194 337.592 355.28 337.774C355.28 337.774 355.28 337.775 355.28 337.775C355.432 338.153 355.064 338.141 354.815 338.338ZM351.224 329.001C350.966 329.157 351.699 329.691 351.42 329.938C351.145 330.16 350.742 329.923 350.627 330.241C350.495 330.573 350.028 330.562 350.03 330.801C350.021 331.029 349.724 330.668 349.6 330.763C349.587 330.773 349.576 330.787 349.565 330.806C349.444 331.025 349.252 331.028 349.003 330.902C348.878 330.839 348.665 330.797 348.45 330.727C348.232 330.662 348.029 330.54 347.85 330.502C347.662 330.464 347.614 330.277 347.659 330.137C347.701 329.992 347.814 329.886 347.857 329.822C347.883 329.781 347.923 329.751 347.965 329.73C347.983 329.72 348.021 329.716 348.058 329.716C348.058 329.716 348.058 329.716 348.058 329.716C348.104 329.717 348.15 329.722 348.156 329.732C348.184 329.776 348.266 329.851 348.441 329.859C348.603 329.858 348.594 329.848 348.574 329.871C348.55 329.887 348.533 329.934 348.578 329.868C348.684 329.715 348.53 329.402 348.667 329.585C348.769 329.673 348.728 329.441 348.699 329.305C348.684 329.195 348.684 329.144 348.9 329.241C349.431 329.42 348.804 328.749 348.793 328.548C348.786 328.35 349.309 328.326 349.27 328.265C349.266 328.26 349.26 328.257 349.253 328.257C349.232 328.253 349.192 328.289 349.234 328.412C349.264 328.53 349.473 328.736 349.665 328.736C349.991 328.723 349.965 328.798 349.87 328.837C349.842 328.843 349.804 328.842 349.751 328.83C349.478 328.756 349.008 328.901 348.76 328.988C348.509 329.069 348.44 329.12 348.483 329.333C348.51 329.457 348.424 329.551 348.185 329.673C348.067 329.736 347.902 329.734 347.827 329.638C347.72 329.496 347.817 329.402 347.633 329.29C347.267 329.057 347.147 328.907 347.439 328.81C347.727 328.729 347.276 328.425 347.389 328.344C347.507 328.27 347.746 328.431 347.873 327.847C348.03 327.252 348.3 326.972 348.481 326.779C348.502 326.758 348.529 326.737 348.561 326.719C348.825 326.571 349.342 326.504 349.97 326.452C350.267 326.408 350.926 326.604 351.27 327.099C351.614 327.576 351.636 328.006 351.69 328.257C351.703 328.322 351.715 328.381 351.731 328.43C351.851 328.871 351.483 328.813 351.224 329.001ZM341.654 326.297C341.357 326.535 341.286 326.737 341.172 326.994C341.065 327.238 340.918 327.474 340.725 327.448C340.347 327.386 340.288 326.915 340.001 327.033C339.953 327.052 339.903 327.058 339.853 327.056C339.471 327.04 339.278 326.773 339.109 326.888C338.893 327.017 339.083 326.47 338.862 326.512C338.633 326.547 338.556 326.414 338.527 326.172C338.486 325.928 338.267 325.543 337.989 325.577C337.696 325.608 337.876 325.185 337.902 325.049C337.908 325.005 337.928 324.96 337.954 324.922C337.965 324.905 337.995 324.882 338.026 324.863C338.026 324.863 338.026 324.863 338.026 324.863C338.066 324.839 338.107 324.819 338.117 324.824C338.166 324.849 338.268 324.867 338.446 324.823C338.771 324.729 338.516 324.965 338.763 324.984C339.011 324.994 339.264 324.785 339.305 325.056C339.384 325.339 339.767 324.567 339.754 325.074C339.772 325.292 339.842 325.256 339.853 325.13C339.953 324.957 340.024 324.621 340.111 324.54C340.171 324.491 340.258 324.482 339.977 324.797C339.911 324.884 339.807 325.032 339.75 325.227C339.691 325.421 339.702 325.63 339.739 325.755C339.82 326.01 339.898 326.031 339.903 326.069C339.943 326.18 339.754 326.124 339.621 325.916C339.476 325.691 339.052 325.825 338.856 325.517C338.827 325.472 338.794 325.424 338.758 325.375C338.586 325.098 338.364 324.819 338.263 324.669C338.148 324.468 338.078 324.548 338.234 324.473C338.295 324.423 338.241 324.524 338.111 324.759C338.045 324.876 337.901 324.957 337.791 324.923C337.628 324.868 337.656 324.738 337.436 324.705C337.215 324.666 337.052 324.568 336.997 324.408C336.943 324.26 337.009 323.968 337.321 323.784C337.623 323.63 337.718 323.545 337.818 323.404C337.909 323.275 337.998 323.141 338.095 323.163C338.28 323.223 338.305 323.5 338.885 323.378C339.173 323.325 339.383 323.321 339.545 323.325C339.701 323.326 339.81 323.338 339.906 323.345C340.094 323.359 340.317 323.761 340.629 323.819C340.955 323.89 341.45 324.256 341.937 324.674C342.403 325.128 342.232 325.714 341.654 326.297ZM345.43 322.741C345.216 322.909 346.072 323.206 345.862 323.514C345.633 323.815 345.223 323.648 345.077 324.074C344.981 324.326 344.528 324.66 343.987 324.61C343.64 324.565 343.549 324.482 343.424 324.522C343.141 324.599 343.421 324.087 343.201 324.09C342.974 324.083 342.939 323.947 342.972 323.717C342.997 323.484 342.881 323.106 342.615 323.133C342.341 323.157 342.576 322.787 342.61 322.662C342.619 322.622 342.642 322.581 342.669 322.545C342.68 322.529 342.711 322.507 342.742 322.487C342.742 322.487 342.742 322.487 342.742 322.487C342.781 322.463 342.823 322.443 342.832 322.448C342.879 322.469 342.977 322.483 343.155 322.447C343.485 322.375 343.212 322.588 343.447 322.628C343.684 322.664 343.974 322.509 343.949 322.771C343.919 323.04 344.597 322.399 344.13 322.742C344.089 322.769 344.042 322.791 343.987 322.812C343.644 322.987 343.637 322.96 343.44 322.884C343.272 322.809 343.051 322.747 342.997 322.734C342.907 322.717 343.227 322.62 343.331 322.491C343.359 322.493 343.374 322.492 343.366 322.494C343.318 322.496 343.252 322.594 343.339 322.509C343.377 322.462 343.329 322.482 343.306 322.51C343.278 322.535 343.282 322.558 343.274 322.449C343.271 322.423 343.266 322.395 343.257 322.367C343.186 322.19 343.207 321.893 343.022 321.849C342.838 321.818 342.782 321.928 342.918 322.013C342.996 322.065 342.971 322.166 342.83 322.387C342.759 322.498 342.617 322.58 342.511 322.555C342.357 322.515 342.388 322.398 342.175 322.414C341.747 322.437 341.552 322.357 341.755 322.086C341.967 321.852 341.444 321.691 341.554 321.484C341.611 321.394 341.715 321.374 341.827 321.269C341.946 321.171 342.052 320.954 342.379 320.621C342.737 320.285 343.044 320.205 343.257 320.145C343.451 320.097 343.608 320.089 343.739 320.086C344.039 320.074 344.454 320.524 344.823 320.723C345.26 320.902 345.645 321.783 345.81 322.169C345.891 322.313 345.88 322.415 345.831 322.491C345.748 322.577 345.562 322.624 345.43 322.741ZM350.949 323.068C350.849 323.234 351.005 323.394 351.103 323.67C351.206 323.932 351.209 324.331 350.909 324.54C350.293 324.9 350.041 324.44 349.659 324.643C349.535 324.698 349.41 324.697 349.302 324.675C349.06 324.628 348.892 324.482 348.755 324.584C348.54 324.725 348.699 324.17 348.473 324.213C348.232 324.245 348.138 324.093 348.125 323.842C348.088 323.584 347.974 323.176 347.707 323.095C347.413 322.997 347.761 322.669 347.856 322.58C347.883 322.545 347.923 322.52 347.965 322.502C347.983 322.494 348.021 322.491 348.058 322.491C348.058 322.491 348.058 322.491 348.058 322.491C348.104 322.491 348.15 322.495 348.155 322.503C348.184 322.542 348.263 322.602 348.438 322.623C348.76 322.636 348.429 322.739 348.628 322.784C348.834 322.814 349.068 322.59 348.997 322.798C348.975 322.911 349.096 322.788 349.165 322.676C349.243 322.567 349.248 322.473 349.242 322.722C349.246 322.86 349.28 322.892 349.302 322.861C349.358 322.791 349.341 322.225 349.005 322.287C348.756 322.328 348.561 322.831 348.681 323.01C348.775 323.205 348.912 323.153 348.884 323.155C348.864 323.154 348.828 323.148 348.793 323.127C348.722 323.056 348.66 322.97 348.644 322.839C348.612 322.597 348.215 322.616 348.264 322.392C348.304 322.291 348.233 322.226 348.572 322.169C348.882 322.081 348.883 321.893 348.833 321.865C348.783 321.82 348.704 321.831 348.641 321.841C348.425 321.889 348.365 321.952 348.445 322.125C348.491 322.227 348.42 322.333 348.185 322.451C348.067 322.511 347.903 322.502 347.826 322.43C347.713 322.322 347.797 322.242 347.599 322.164C347.206 322.005 347.062 321.899 347.331 321.781C347.598 321.68 347.107 321.445 347.212 321.342C347.264 321.295 347.363 321.303 347.455 321.243C347.502 321.212 347.545 321.166 347.597 321.077C347.657 320.988 347.691 320.855 347.907 320.62C348.048 320.471 348.299 320.331 348.572 320.303C348.918 320.273 349.074 320.324 349.211 320.35C349.344 320.381 349.437 320.412 349.517 320.44C349.673 320.497 349.773 320.545 349.858 320.584C350.072 320.683 350.139 321.147 350.386 321.299C350.548 321.398 350.712 321.642 350.864 321.847C350.979 322.007 351.085 322.174 351.191 322.285C351.473 322.609 351.132 322.742 350.949 323.068ZM274.322 318.068C274.451 318.297 274.721 318.294 275.046 318.347C275.208 318.375 275.386 318.41 275.595 318.566C275.703 318.658 275.822 318.75 275.968 319.059C276.031 319.202 276.121 319.446 276.103 319.797C276.096 320.155 275.889 320.592 275.672 320.804C275.219 321.234 275.017 321.208 274.849 321.257C274.698 321.28 274.591 321.273 274.501 321.26C274.325 321.232 274.209 321.177 274.093 321.128C273.869 321.029 273.667 320.948 273.327 321.006C272.743 321.105 272.187 320.868 271.858 320.923C271.803 320.932 271.755 320.948 271.713 320.973C271.408 321.158 271.396 320.577 270.974 320.686C270.55 320.793 270.298 320.699 269.953 320.479C269.603 320.265 268.533 319.975 268.092 320.127C267.646 320.288 267.253 319.79 267.014 319.614C266.939 319.559 266.885 319.497 266.85 319.438C266.836 319.413 266.841 319.374 266.855 319.34C266.855 319.34 266.855 319.34 266.855 319.34C266.872 319.297 266.902 319.26 266.929 319.264C267.061 319.285 267.271 319.27 267.533 319.16C268.014 318.948 267.991 319.296 268.599 319.229C269.207 319.155 269.582 318.876 270.25 319.141C270.883 319.382 271.101 318.652 271.888 318.974C271.948 318.996 272.009 319.023 272.073 319.056C273.022 319.556 273.296 318.668 273.945 318.489C273.978 318.478 274.034 318.429 273.811 318.528C273.739 318.566 273.668 318.6 273.528 318.728C273.406 318.84 273.235 319.067 273.162 319.338C273.023 319.938 273.219 320.186 273.262 320.283C273.38 320.459 273.36 320.377 273.335 320.335C273.305 320.28 273.252 320.205 273.193 320.126C272.953 319.808 272.667 319.457 272.429 319.236C272.378 319.187 272.326 319.146 272.275 319.116C271.85 318.871 271.195 318.651 270.519 318.295C269.828 317.93 268.835 318.021 268.044 317.76C267.248 317.457 266.027 317.416 265.877 317.549C265.822 317.572 265.779 317.612 265.753 317.668C265.669 317.876 265.746 318.097 266.059 318.34C266.294 318.521 266.548 318.807 266.791 319.174C266.915 319.356 266.828 319.501 266.594 319.479C266.251 319.44 266.081 319.218 265.82 319.267C265.293 319.35 264.997 319.299 264.903 318.718C264.855 318.246 264.448 318.097 264.351 317.668C264.335 317.587 264.334 317.502 264.356 317.419C264.431 317.166 264.556 317.043 264.795 316.773C265.039 316.508 265.448 316.177 266.121 315.875C267.473 315.328 268.163 315.428 268.653 315.395C269.151 315.383 270.066 315.825 270.821 315.955C271.597 316.055 273.019 316.789 273.673 317.085C273.788 317.13 273.877 317.179 273.946 317.231C274.222 317.435 274.111 317.692 274.322 318.068ZM302.13 310.035C303.593 310.458 304.951 309.829 306.746 310.454C308.52 311.116 308.631 311.613 310.651 312.371C311.923 312.912 313.14 313.594 313.957 314.849C314.148 315.134 314.164 315.593 314.063 315.839C313.956 316.123 313.85 316.228 313.752 316.339C313.541 316.555 313.415 316.63 313.27 316.731C313.014 316.901 312.807 317.019 312.641 317.135C311.765 317.72 311.483 317.198 310.247 317.713C309.003 318.207 308.193 318.319 307.026 318.384C305.859 318.469 302.37 318.908 301.106 319.247C299.837 319.618 298.314 319.3 297.426 319.074C297.162 319.007 296.941 318.911 296.789 318.797C296.729 318.751 296.724 318.702 296.742 318.67C296.742 318.67 296.742 318.67 296.742 318.67C296.766 318.63 296.819 318.611 296.897 318.637C297.287 318.764 297.948 318.74 298.688 318.565C300.069 318.211 300.253 318.542 302.132 318.149C304.007 317.723 305.075 317.213 307.305 316.929C308.419 316.779 309.051 316.441 309.774 316.095C310.136 315.921 310.526 315.742 310.989 315.566C311.225 315.476 311.484 315.384 311.742 315.294C311.887 315.241 312.001 315.203 312.139 315.149C312.254 315.111 312.39 315.033 312.382 315.08C312.38 315.101 312.34 315.15 312.309 315.301C312.274 315.435 312.322 315.697 312.411 315.804C311.995 314.947 310.997 314.589 310.264 314.409C309.472 314.222 308.628 314.11 307.229 313.705C304.321 312.836 300.519 311.754 298.694 311.823C298.637 311.824 298.579 311.825 298.521 311.827C297.568 311.851 296.461 311.878 295.337 311.953C295.056 311.973 294.779 311.998 294.531 312.034C294.295 312.061 294.033 312.151 294.097 312.124C294.126 312.12 294.332 311.914 294.36 311.717C294.389 311.533 294.351 311.537 294.37 311.598C294.398 311.732 294.519 312.018 294.646 312.289C294.666 312.331 294.687 312.376 294.71 312.421C295.022 313.124 295.48 313.861 295.374 315.146C295.312 315.784 294.893 316.475 294.417 316.842C293.939 317.228 293.47 317.419 293.023 317.57C291.242 318.106 289.646 318.091 288.118 317.996C287.848 317.976 287.592 317.954 287.307 317.928C286.436 317.849 285.479 317.756 284.597 317.725C284.4 317.714 284.113 317.736 284.134 317.72C284.153 317.709 284.169 317.71 284.267 317.641C284.323 317.613 284.609 317.328 284.565 316.964C284.522 316.656 284.418 316.596 284.391 316.557C284.352 316.517 284.346 316.519 284.342 316.517C284.341 316.528 284.423 316.588 284.503 316.637C284.84 316.842 285.257 317.043 285.644 317.232C286.571 317.681 287.588 317.878 288.27 318.003C289.764 318.241 290.414 318.25 291.471 318.011C291.771 317.935 292.109 317.861 292.513 317.796C293.621 317.618 295.241 317.7 296.413 318.38C296.973 318.765 296.732 318.805 296.152 318.668C295.273 318.502 294.52 318.394 294.048 318.577C293.129 318.966 292.792 319.124 291.712 319.107C291.69 319.108 291.668 319.109 291.646 319.109C290.297 319.12 289.735 319.621 288.956 319.554C288.232 319.387 288.265 319.472 285.063 318.684C284.864 318.617 284.664 318.551 284.434 318.47C284.169 318.377 283.923 318.291 283.636 318.159C283.486 318.077 283.376 318.068 283.069 317.784C283.025 317.737 282.979 317.686 282.929 317.609C282.866 317.512 282.802 317.393 282.767 317.201C282.659 316.733 283.034 316.254 283.168 316.181C283.501 315.95 283.581 315.971 283.705 315.927C284.423 315.765 284.783 315.777 285.222 315.741C286.057 315.693 286.749 315.677 287.36 315.663C288.19 315.644 288.835 315.616 289.377 315.577C290.543 315.557 294.018 315.355 293.044 314.395C292.966 314.172 292.829 313.869 292.638 313.53C292.491 313.264 292.332 312.979 292.174 312.591C292.097 312.391 292.012 312.171 291.969 311.826C291.92 311.503 291.986 310.891 292.346 310.472C293.078 309.711 293.555 309.774 293.967 309.657C294.38 309.583 294.742 309.553 295.092 309.527C296.485 309.438 297.698 309.436 298.521 309.371C298.586 309.366 298.648 309.362 298.708 309.358C300.668 309.253 300.646 309.643 302.13 310.035ZM326.306 317.807C326.239 318.015 326.235 318.183 326.254 318.369C326.305 318.8 326.396 319.435 325.975 319.738C325.386 320.123 325.063 319.76 324.598 320.154C324.11 320.54 323.464 320.413 323.284 320.665C323.09 320.92 322.92 320.367 322.616 320.564C322.304 320.759 322.07 320.714 321.757 320.552C321.434 320.405 320.585 320.221 320.197 320.341C319.781 320.485 319.51 319.914 319.408 319.699C319.367 319.63 319.352 319.561 319.351 319.502C319.351 319.477 319.372 319.444 319.398 319.418C319.398 319.418 319.399 319.418 319.399 319.418C319.431 319.386 319.471 319.361 319.489 319.371C319.576 319.416 319.742 319.447 319.949 319.364C320.316 319.19 320.22 319.527 320.653 319.446C321.078 319.341 321.285 319.023 321.767 319.187C322.286 319.326 322.201 318.474 322.942 318.758C323.729 318.994 323.493 318.09 323.743 317.76C323.855 317.604 323.951 317.565 324.021 317.633C324.069 317.651 324.111 317.795 324.201 317.89C324.289 317.985 324.345 317.975 324.329 317.98C324.293 317.98 323.85 317.92 323.329 317.773C323.178 317.727 323.006 317.721 322.826 317.734C322.367 317.766 321.909 317.914 321.467 317.844C320.833 317.729 319.965 317.809 319.613 317.95C319.26 318.071 319.146 318.223 319.271 318.507C319.35 318.658 319.396 318.889 319.423 319.261C319.438 319.446 319.306 319.548 319.132 319.476C318.878 319.364 318.83 319.138 318.584 319.09C318.092 318.978 317.828 318.689 318.125 318.178C318.438 317.75 318.104 317.339 318.337 317.116C318.583 316.959 318.742 317.057 319.567 316.328C320.441 315.653 321.008 315.544 321.369 315.418C321.684 315.319 322.299 315.451 322.826 315.456C322.929 315.456 323.027 315.451 323.126 315.438C323.733 315.355 325.016 315.547 325.874 316.058C326.705 316.606 326.482 317.115 326.306 317.807ZM333.334 317.579C333.152 317.672 333.194 317.881 333.19 318.133C333.191 318.379 333.145 318.655 332.927 318.716C332.49 318.823 332.272 318.403 331.953 318.62C331.606 318.834 331.212 318.546 331.071 318.742C331.01 318.822 330.966 318.774 330.926 318.698C330.874 318.584 330.828 318.408 330.717 318.482C330.529 318.605 330.412 318.522 330.271 318.319C330.121 318.119 329.702 317.891 329.45 318.049C329.187 318.213 329.059 317.728 329.027 317.509C329.011 317.439 329.03 317.363 329.069 317.324C329.086 317.307 329.124 317.302 329.161 317.302C329.161 317.302 329.161 317.302 329.161 317.302C329.207 317.303 329.252 317.305 329.258 317.305C329.286 317.309 329.371 317.288 329.496 317.167C329.714 316.928 329.598 317.255 329.844 317.155C330.087 317.045 330.237 316.743 330.464 316.972C330.649 317.145 330.751 316.678 330.926 316.669C330.966 316.665 331.01 316.705 331.082 316.815C331.426 317.27 331.322 316.348 331.34 316.204C331.359 316.058 331.569 316.487 331.556 316.594C331.552 316.603 331.549 316.613 331.545 316.622C331.519 316.679 331.516 316.868 331.626 317.019C331.732 317.169 331.86 317.199 331.88 317.146C331.894 317.021 331.681 317.315 331.406 317.195C331.376 317.184 331.345 317.172 331.311 317.162C330.937 317.086 330.455 317.056 330.193 317.017C329.906 316.973 329.821 316.976 329.712 317.189C329.65 317.317 329.519 317.339 329.29 317.294C329.176 317.283 328.979 317.355 328.963 317.143C328.962 316.891 329.115 316.877 329.033 316.67C328.883 316.257 328.871 316.069 329.163 316.158C329.446 316.255 329.233 315.754 329.362 315.751C329.489 315.753 329.631 316.024 329.983 315.581C330.188 315.33 330.363 315.173 330.504 315.06C330.635 314.966 330.747 314.903 330.843 314.849C331.079 314.72 331.629 314.875 332.137 314.839C332.375 314.825 332.798 314.873 333.259 315.231C333.746 315.587 333.954 316.294 333.991 316.622C334 316.673 334.008 316.721 334.016 316.765C334.091 317.441 333.681 317.37 333.334 317.579ZM253.157 292.206C254.021 292.255 254.818 292.21 255.639 292.166C257.117 292.087 258.684 291.891 260.633 292.397C263.593 293.251 263.86 293.863 267.037 295.063C270.196 296.32 273.008 298.16 274.432 298.676C275.835 299.19 275.715 299.782 277.638 300.657C278.027 300.834 278.389 301.007 278.733 301.179C280.034 301.832 280.971 302.421 282.197 303.254C282.902 303.74 284.349 304.596 285.842 305.542C286.22 305.785 286.592 306.028 286.959 306.308C287.138 306.446 287.322 306.595 287.491 306.78C287.581 306.881 287.666 306.986 287.733 307.134C287.807 307.287 287.837 307.537 287.737 307.731C287.528 308.096 287.291 308.158 287.093 308.266C286.901 308.356 286.701 308.429 286.53 308.491C286.173 308.617 285.853 308.722 285.569 308.824C285.382 308.891 285.218 308.952 285.069 309.011C283.115 309.785 280.617 309.836 279.172 309.497C278.722 309.396 278.374 309.218 278.172 309.012C278.086 308.925 278.077 308.856 278.104 308.831C278.104 308.831 278.104 308.831 278.104 308.831C278.138 308.799 278.218 308.822 278.331 308.892C278.897 309.239 279.985 309.222 281.16 308.933C282.988 308.44 283.491 308.498 285.329 307.98C285.691 307.871 286.122 307.744 286.553 307.557C286.715 307.486 286.862 307.405 286.927 307.343C286.961 307.313 286.954 307.293 286.921 307.344C286.886 307.397 286.891 307.498 286.892 307.504C286.881 307.491 286.577 307.224 286.334 307.084C285.811 306.76 285.24 306.476 284.665 306.182C283.504 305.592 282.286 304.963 280.709 303.996C279.632 303.336 278.805 302.957 277.97 302.605C276.403 301.952 274.927 301.45 272.062 299.619C267.676 296.908 266.774 297.329 262.08 295.848C260.039 295.258 257.753 294.819 255.456 294.57C252.581 294.246 249.755 294.498 248.088 294.837C246.827 295.095 245.382 295.467 243.906 296.01C243.171 296.282 242.427 296.597 241.75 296.983C241.417 297.174 241.105 297.383 240.875 297.592C240.634 297.792 240.578 298.011 240.601 297.868C240.598 297.992 240.605 298.105 240.604 298.098C240.6 298.095 240.595 298.048 240.536 297.947C240.481 297.846 240.338 297.706 240.216 297.65C239.963 297.543 239.968 297.602 240.028 297.59C240.09 297.589 240.2 297.574 240.323 297.549C241.591 297.255 243.175 296.574 244.736 295.937C247.84 294.532 251.968 294.242 255.146 295.469C258.351 296.576 261.815 298.806 264.528 300.74C265.984 301.776 267.236 302.748 268.061 303.555C268.589 304.076 269.008 304.547 269.283 305.098C269.586 305.622 269.514 306.424 269.121 306.799C268.197 307.599 269.739 307.668 271.3 307.708C271.691 307.711 272.116 307.714 272.564 307.719C274.134 307.745 275.979 307.908 277.524 308.453C278.032 308.635 278.148 308.876 278.05 308.874C277.984 308.886 277.713 308.813 277.208 308.747C275.733 308.569 274.492 308.448 273.712 308.609C273.265 308.706 272.894 308.793 272.548 308.861C271.649 309.011 270.917 309.092 269.39 308.679C269.159 308.608 268.936 308.537 268.69 308.426C268.456 308.308 268.124 308.167 267.902 307.704C267.698 307.213 267.867 306.82 267.954 306.611C268.057 306.385 268.16 306.229 268.257 306.082C268.326 305.888 268.213 305.962 268.159 305.881C268.087 305.805 267.958 305.643 267.807 305.434C267.251 304.79 267.507 304.38 263.689 302.034C263.337 301.821 262.975 301.609 262.554 301.369C257.528 298.499 254.572 297.603 252.579 297.327C251.061 297.059 248.228 296.964 245.588 298.065C244.727 298.4 243.892 298.736 243.095 299.064C242.578 299.274 241.985 299.514 241.249 299.739C240.848 299.837 240.55 300.004 239.717 299.953C239.507 299.927 239.188 299.856 238.88 299.622C238.568 299.389 238.388 299.046 238.315 298.816C238.173 298.342 238.2 298.105 238.191 297.868C238.218 296.825 238.791 296.236 239.21 295.823C239.658 295.407 240.109 295.116 240.564 294.853C241.482 294.333 242.381 293.972 243.256 293.657C244.998 293.04 246.572 292.674 247.613 292.417C250.618 291.743 250.689 292.123 253.157 292.206ZM289.354 300.706C289.028 300.598 288.994 301.512 288.585 301.448C288.193 301.374 288.112 300.912 287.729 301.031C287.657 301.052 287.586 301.058 287.514 301.054C287.238 301.036 286.985 300.846 286.849 300.997C286.681 301.182 286.692 300.602 286.456 300.715C286.211 300.823 286.053 300.732 285.849 300.488C285.792 300.423 285.716 300.362 285.581 300.244C285.513 300.18 285.418 300.102 285.35 299.924C285.284 299.742 285.341 299.563 285.391 299.478C285.603 299.164 285.747 299.09 285.768 298.91C285.816 298.576 286.253 298.768 286.423 298.77C286.476 298.771 286.528 298.786 286.575 298.806C286.594 298.815 286.619 298.844 286.639 298.875C286.639 298.875 286.639 298.875 286.639 298.875C286.664 298.914 286.682 298.956 286.673 298.969C286.629 299.032 286.581 299.152 286.578 299.357C286.583 299.736 286.343 299.476 286.254 299.764C286.24 299.831 286.247 299.901 286.29 299.927C286.317 299.95 286.474 299.936 286.471 299.582C286.458 299.414 286.368 299.271 286.309 299.206C286.251 299.14 286.216 299.118 286.2 299.108C286.168 299.091 286.192 299.122 286.237 299.184C286.48 299.432 286.627 298.573 287.079 299.08C287.276 299.286 287.407 299.255 287.527 299.139C287.678 298.97 287.783 298.622 287.996 298.53C288.342 298.383 288.899 298.731 289.033 298.607C289.084 298.56 289.121 298.492 289.099 298.485C289.09 298.468 288.948 298.595 288.974 298.869C288.983 298.839 288.993 298.814 289.006 298.789C289.067 298.681 288.962 298.638 289.031 298.796C289.113 298.965 289.342 299.016 289.267 298.898C289.149 298.654 288.383 298.629 288.052 298.604C287.703 298.574 287.61 298.579 287.407 298.822C287.292 298.962 287.06 299.032 286.764 298.945C286.613 298.902 286.543 298.752 286.591 298.629C286.659 298.45 286.81 298.447 286.772 298.231C286.7 297.797 286.687 297.622 286.99 297.725C287.288 297.832 287.124 297.308 287.272 297.303C287.422 297.305 287.525 297.58 288.065 297.103C288.631 296.632 289.205 296.498 289.699 296.527C289.937 296.536 290.395 296.723 290.73 297.125C291.069 297.528 291.166 297.973 291.275 298.268C291.338 298.44 291.372 298.657 291.379 298.869C291.394 299.499 291.03 299.999 290.783 300.245C290.523 300.508 290.31 300.652 290.19 300.784C289.848 301.137 289.699 300.798 289.354 300.706ZM299.427 296.44C299.05 296.391 299.09 297.306 298.653 297.292C298.235 297.265 298.1 296.815 297.71 296.985C297.33 297.146 296.915 296.886 296.737 297.042C296.729 297.049 296.721 297.056 296.714 297.064C296.537 297.265 296.498 296.687 296.247 296.818C295.99 296.947 295.823 296.864 295.613 296.657C295.39 296.454 294.8 296.196 294.425 296.239C294.232 296.269 294.056 296.103 293.993 295.853C293.92 295.592 294.063 295.349 294.143 295.267C294.193 295.206 294.253 295.182 294.306 295.174C294.329 295.17 294.364 295.185 294.396 295.204C294.396 295.204 294.396 295.204 294.396 295.204C294.435 295.229 294.469 295.26 294.468 295.274C294.453 295.337 294.527 295.486 294.69 295.404C294.926 295.195 294.686 295.48 295.001 295.437C295.31 295.37 295.5 295.075 295.825 295.311C296.143 295.514 296.243 294.838 296.621 295.032C296.667 295.054 296.718 295.087 296.775 295.134C297.344 295.577 297.312 294.665 297.728 294.459C297.937 294.353 298.194 294.379 298.403 294.407C298.61 294.445 298.77 294.44 298.656 294.524C298.616 294.563 298.469 294.696 298.448 295.03C298.41 295.231 298.564 295.509 298.615 295.538C298.67 295.585 298.633 295.534 298.557 295.463C298.329 295.257 297.79 295.502 297.351 295.306C296.894 295.098 296.174 294.946 295.816 294.871C295.461 294.792 295.348 294.79 295.136 295.024C295.015 295.165 294.838 295.205 294.538 295.219C294.388 295.231 294.244 295.146 294.267 294.981C294.309 294.742 294.493 294.696 294.457 294.47C294.398 294.011 294.451 293.797 294.801 293.895C295.136 294.004 295.056 293.463 295.233 293.469C295.403 293.488 295.478 293.765 296.147 293.384C296.835 293.018 297.262 292.957 297.55 292.896C297.852 292.836 298.428 293.136 298.968 293.168C299.188 293.184 299.493 293.247 299.888 293.468C300.078 293.578 300.314 293.746 300.52 294.021C300.731 294.294 300.869 294.699 300.877 295.032C300.876 295.637 300.632 295.94 300.536 296.12C300.265 296.538 300.106 296.54 299.945 296.54C299.787 296.527 299.628 296.456 299.427 296.44ZM272.97 281.652C272.73 281.935 273.609 282.172 273.52 282.375C273.478 282.493 273.353 282.585 273.264 282.689C273.173 282.785 273.136 282.915 273.22 282.934C273.276 282.941 273.253 282.932 273.22 282.951C273.643 283.153 273.942 283.48 274.228 283.616C274.455 283.724 274.465 283.925 274.441 284.12C274.411 284.327 274.391 284.518 274.412 284.907C274.418 285.253 274.266 285.51 274.112 285.659C273.782 285.994 273.326 285.977 273.081 285.845C272.567 285.637 271.938 284.996 271.524 284.945C271.098 284.897 271.091 284.32 271.015 284.094C270.989 284.021 270.983 283.954 270.987 283.894C270.989 283.869 271.012 283.838 271.04 283.813C271.04 283.813 271.04 283.813 271.04 283.813C271.075 283.783 271.117 283.763 271.136 283.776C271.228 283.837 271.394 283.909 271.642 283.919C272.099 283.926 271.891 284.214 272.344 284.359C272.568 284.422 272.773 284.405 272.934 284.401C273.087 284.399 273.246 284.393 273.174 284.492C273.143 284.535 273.051 284.571 272.977 284.619C272.955 284.566 272.738 284.597 272.671 284.784C272.594 284.963 272.737 285.111 272.765 284.876C272.776 284.738 272.693 284.656 272.612 284.643C271.925 284.404 271.172 284.37 270.726 283.424C270.323 282.461 270.703 281.417 270.989 280.797C271.051 280.69 271.09 280.591 271.094 280.509C271.104 280.331 271.084 280.124 271.054 279.956C271.041 279.792 270.93 279.663 271.121 279.804C271.202 279.858 271.397 279.937 271.518 279.933C271.364 279.939 271.27 280.012 271.229 280.058C271.186 280.107 271.154 280.125 271.023 280.19C270.646 280.325 270.412 281.332 270.412 281.803C270.385 282.282 270.408 282.428 270.721 282.762C270.904 282.952 271.045 283.264 271.069 283.653C271.082 283.849 270.938 283.934 270.769 283.854C270.522 283.736 270.465 283.524 270.222 283.531C269.737 283.54 269.522 283.495 269.567 283.07C269.624 282.657 269.068 282.715 269.047 282.481C269.049 282.236 269.272 282.212 268.882 281.146C268.536 280.013 268.852 279.124 269.181 278.618C269.464 278.062 270.733 277.625 271.518 277.654C271.621 277.651 271.726 277.655 271.832 277.668C272.259 277.701 272.785 278.04 273.025 278.411C273.282 278.781 273.38 279.141 273.44 279.457C273.55 280.091 273.493 280.603 273.526 280.915C273.552 281.187 273.488 281.325 273.39 281.425C273.282 281.483 273.106 281.509 272.97 281.652ZM280.156 273.663C280.025 273.943 280.932 273.94 280.867 274.308C280.792 274.669 280.335 274.748 280.451 275.127C280.56 275.539 280.188 275.939 280.166 276.339C280.159 276.496 280.046 276.577 279.919 276.608C279.693 276.657 279.458 276.65 279.056 276.744C278.394 276.811 278.295 276.509 278.244 276.232C278.184 275.929 278.037 275.406 277.744 275.331C277.439 275.253 277.709 274.867 277.751 274.715C277.764 274.667 277.79 274.622 277.821 274.584C277.834 274.568 277.867 274.55 277.902 274.537C277.902 274.537 277.902 274.537 277.902 274.537C277.945 274.52 277.99 274.511 278 274.521C278.049 274.568 278.153 274.627 278.348 274.654C278.71 274.695 278.406 274.866 278.67 275.008C278.934 275.138 279.266 275.047 279.211 275.275C279.189 275.365 279.263 275.292 279.179 275.164C279.137 275.103 279.042 275.031 278.892 275.019C278.745 275.003 278.561 275.072 278.474 275.164C278.366 275.271 278.375 275.382 278.483 275.415C278.732 275.45 278.649 275.277 278.467 275.207C278.288 275.119 278.03 275.057 277.953 274.912C277.806 274.636 278.164 274.057 278.04 273.847C278.026 273.823 278.01 273.799 277.994 273.774C277.873 273.59 277.706 273.388 277.673 273.14C277.659 273.009 277.536 272.919 277.499 272.934C277.489 272.94 277.487 272.991 277.682 273.057C277.779 273.086 277.952 273.109 278.141 273.055C278.331 273.004 278.486 272.882 278.552 272.788C278.591 272.735 278.611 272.687 278.62 272.649C278.64 272.366 278.415 272.563 278.316 272.728C278.198 272.908 278.11 273.124 278.041 273.264C277.905 273.549 277.882 273.636 278.054 273.856C278.154 273.983 278.155 274.187 277.999 274.437C277.921 274.563 277.762 274.605 277.655 274.541C277.498 274.447 277.535 274.312 277.317 274.301C276.882 274.278 276.708 274.241 276.89 273.988C277.076 273.743 276.53 273.762 276.568 273.625C276.614 273.482 276.903 273.475 276.621 272.849C276.426 272.296 276.308 271.771 276.845 271.08C276.952 270.958 277.087 270.846 277.245 270.758C277.488 270.611 277.919 270.553 278.226 270.64C278.54 270.721 278.742 270.872 278.887 271.003C279.173 271.274 279.298 271.512 279.479 271.669C279.807 271.953 280.052 272.592 280.269 272.901C280.297 272.94 280.326 272.975 280.356 273.003C280.619 273.254 280.279 273.373 280.156 273.663ZM274.074 273.939C273.951 273.959 273.945 274.068 273.961 274.215C273.99 274.466 274.098 274.814 273.889 274.903C273.558 275.043 273.21 274.729 272.998 275.056C272.782 275.387 272.28 275.377 272.255 275.635C272.221 275.898 271.874 275.437 271.726 275.688C271.667 275.781 271.596 275.846 271.499 275.891C271.387 275.93 271.33 275.976 270.972 275.957C270.65 275.921 270.478 275.715 270.424 275.587C270.215 275.063 270.355 274.509 270.078 274.282C269.816 274.065 270.203 273.76 270.297 273.61C270.326 273.561 270.366 273.523 270.408 273.494C270.426 273.482 270.464 273.476 270.501 273.476C270.501 273.476 270.501 273.476 270.501 273.476C270.547 273.476 270.593 273.485 270.598 273.5C270.627 273.573 270.703 273.683 270.877 273.798C271.204 274.003 270.859 274.061 271.063 274.335C271.167 274.464 271.311 274.545 271.408 274.603C271.456 274.631 271.495 274.656 271.502 274.661C271.486 274.669 271.556 274.635 271.186 274.508C271.12 274.494 271.045 274.487 270.972 274.492C270.788 274.518 270.82 274.535 270.806 274.524C270.803 274.516 270.808 274.493 270.81 274.464C270.817 274.405 270.816 274.322 270.825 274.245C270.842 274.089 270.894 273.96 271.226 274C271.934 274.063 271.398 273.324 271.683 272.901C271.806 272.718 272.02 272.598 272.241 272.495C272.551 272.346 272.864 272.245 272.959 272.105C273.04 271.986 273.127 271.829 273.169 271.738C273.188 271.705 273.19 271.648 273.139 271.824C273.12 271.905 273.075 272.136 273.196 272.424C273.321 272.713 273.54 272.845 273.622 272.873C273.791 272.926 273.744 272.884 273.69 272.887C273.628 272.883 273.535 272.892 273.431 272.902C273.224 272.923 272.98 272.95 272.744 272.877C272.724 272.868 272.705 272.857 272.686 272.845C272.375 272.623 271.778 272.55 271.458 272.59C271.144 272.615 271.033 272.676 270.997 272.95C270.983 273.11 270.873 273.227 270.629 273.412C270.509 273.506 270.343 273.5 270.272 273.364C270.171 273.161 270.289 273.023 270.13 272.857C269.82 272.515 269.757 272.276 270.129 272.155C270.489 272.065 270.193 271.609 270.382 271.519C270.579 271.458 270.705 271.652 271.349 271.077C271.934 270.619 272.422 270.524 272.744 270.465C272.792 270.455 272.836 270.445 272.876 270.436C273.139 270.386 273.59 270.632 274.223 270.653C274.313 270.66 274.418 270.676 274.565 270.725C274.717 270.785 274.939 270.853 275.219 271.176C275.519 271.505 275.579 272.099 275.507 272.359C275.446 272.647 275.363 272.79 275.296 272.918C275.029 273.376 274.844 273.565 274.781 273.766C274.66 274.138 274.4 273.89 274.074 273.939Z" fill="#A02F6F"/>
</g>
</svg>
