<svg width="1603" height="742" viewBox="0 0 1603 742" fill="none" xmlns="http://www.w3.org/2000/svg">
<g style="mix-blend-mode:multiply">
<path d="M969.388 280.867C966.248 282.283 961.413 251.295 974.006 244.429C985.114 238.373 996.27 263.107 1004.98 253.929C1007.57 251.2 1008.5 249.054 1009.51 245.429C1010.5 241.848 1008.39 239.274 1010.01 235.929C1014.12 227.406 1024.02 240.788 1033.31 242.57C1048.19 245.422 1065.52 258.096 1072.06 244.429C1076.33 235.495 1060.56 227.098 1067.01 219.579C1070.37 215.651 1073.97 212.783 1079.01 213.969C1085.15 215.414 1080.23 228.872 1086.51 228.271C1089.82 227.954 1091.62 226.168 1093.51 223.429C1097.58 217.5 1082.69 209.927 1088.51 205.696C1091.3 203.664 1094.1 205.73 1097.24 204.273C1101.08 202.483 1104.17 200.838 1105.01 196.678C1106.31 190.189 1098.62 186.094 1092.01 185.803C1087.35 185.599 1085.54 191.522 1081.01 190.429C1078.53 189.831 1076.95 189.026 1075.51 186.929C1073.83 184.495 1073.44 182.185 1074.51 179.429C1075.4 177.111 1077.34 176.768 1079.01 174.929C1083.34 170.158 1083.5 165.485 1088.51 161.429C1103.49 149.302 1117.23 179.395 1135.98 174.929C1140.82 173.774 1144.7 174.235 1147.91 170.429C1154.08 163.123 1130.93 157.171 1135.98 149.054C1140.02 142.561 1147.37 143.966 1155.01 144.429C1164.1 144.98 1167.25 153.04 1176.33 153.929C1186.12 154.888 1191.86 151.907 1200.75 147.673C1211.85 142.382 1225.09 127.679 1225.09 127.679C1230.11 130.242 1235.59 130.917 1239.74 129.485C1242.94 128.381 1252.71 135.999 1255.76 141.979C1257.01 144.428 1259.08 146.991 1260.35 147.673C1265.18 150.255 1266.16 167.195 1262.12 178.269C1259.33 185.937 1256.21 188.444 1251.62 186.699C1249.86 186.032 1248.25 185.487 1248.03 185.487C1247.81 185.487 1246.5 187.667 1245.11 190.332C1243.29 193.831 1242.93 195.594 1243.83 196.678C1245.55 198.752 1244.28 201.45 1240.84 203.017C1239.25 203.741 1237.95 204.848 1237.95 205.477C1237.95 206.106 1241.65 209.163 1246.16 212.271C1251.91 216.226 1254.98 219.263 1256.39 222.385C1257.49 224.84 1258.18 227.043 1257.92 227.282C1257.65 227.52 1255.24 228.823 1252.55 230.177L1247.67 232.64L1244.73 225.894C1241.44 218.343 1238.62 215.306 1233.65 213.969C1231.15 213.295 1230.27 212.34 1230.27 210.272C1230.27 208.376 1229.05 206.765 1226.45 205.24C1222.65 203.019 1222.58 203.021 1218.54 205.515C1214.5 208.011 1214.46 208.013 1213.22 205.696C1212.53 204.41 1211.97 202.545 1211.97 201.55C1211.97 200.556 1210.97 199.211 1209.76 198.562C1207.96 197.596 1206.82 198.18 1203.5 201.768C1201.27 204.181 1198.41 206.742 1197.15 207.46C1195.19 208.573 1195.09 209.044 1196.44 210.67C1197.31 211.719 1200.31 213.857 1203.11 215.422C1207.57 217.912 1208.42 218.054 1209.92 216.551C1211.35 215.123 1212.51 215.071 1216.82 216.241L1222.01 217.648L1219.12 219.579C1213.76 223.16 1212.07 225.039 1211.31 228.271C1210.68 230.923 1211.05 231.721 1213.43 232.806C1215.02 233.53 1217.44 236.418 1218.8 239.225C1220.17 242.031 1222.89 245.277 1224.85 246.438C1229.18 248.992 1230.43 251.705 1227.93 253.102C1225.61 254.404 1226.72 256.351 1229.79 256.351C1233.47 256.351 1233.49 258.545 1229.93 271.209C1225.63 286.547 1221.74 291.664 1211.57 295.384C1207.57 296.849 1202.7 298.136 1200.75 298.244C1196.22 298.495 1192.7 300.413 1189.64 304.309L1187.21 307.402L1186.07 304.418C1184.59 300.525 1181.2 299.546 1176.33 301.607C1171.86 303.496 1168.92 306.508 1167.73 310.403C1166.67 313.888 1170.43 320.018 1176.66 324.951C1181.77 329.001 1187.51 339.163 1188.86 346.557C1190.03 352.988 1187.95 357.21 1182.38 359.721C1179.84 360.865 1177.47 362.741 1177.11 363.89C1176.23 366.65 1170.99 370.085 1170.02 368.529C1169.62 367.881 1169.61 366.367 1169.99 365.165C1170.37 363.963 1170.35 362.118 1169.95 361.064C1169.37 359.547 1168.72 359.411 1166.86 360.409C1164.91 361.448 1164.16 361.185 1162.6 358.911C1158.74 353.322 1147.57 344.341 1144.47 344.341C1143.38 344.341 1142.96 345.653 1143.15 348.475C1143.3 350.748 1142.83 355.181 1142.12 358.325C1140.95 363.448 1141.07 364.386 1143.27 367.36C1144.62 369.185 1146.06 372.014 1146.47 373.647C1146.88 375.305 1150.3 379.091 1154.21 382.225C1160.72 387.446 1161.4 388.477 1164.14 397.151C1165.76 402.276 1167.09 406.973 1167.09 407.589C1167.09 409.592 1164.62 408.78 1159.47 405.083C1154.15 401.26 1150.75 395.212 1147.91 384.523C1146.68 379.882 1145.33 377.892 1141.5 375.075C1136.8 371.619 1136.66 371.317 1137.04 365.6C1137.26 362.352 1137.79 357.748 1138.22 355.37C1138.84 352.021 1138.33 349.621 1135.98 344.74C1134.31 341.272 1132.33 335.947 1131.59 332.906C1129.92 326.111 1127.58 324.973 1123.42 328.95C1121.71 330.594 1119.97 331.94 1119.57 331.94C1117.69 331.94 1115.11 327.938 1115.72 325.986C1116.85 322.441 1109.93 310.083 1105.88 308.406C1103.67 307.488 1101.64 305.262 1100.28 302.256C1097.93 297.033 1095.29 295.035 1092.65 296.48C1091.69 297.004 1087.86 298.058 1084.13 298.822C1077.3 300.224 1074.84 302.294 1075.78 305.871C1076.12 307.188 1074.93 308.46 1072.06 309.828C1069.74 310.936 1067.23 313.166 1066.49 314.782C1065.76 316.399 1064.14 318.045 1062.89 318.44C1061.65 318.835 1059.72 320.643 1058.62 322.457C1057.52 324.271 1054.23 327.586 1051.32 329.824C1047.34 332.887 1046.09 334.6 1046.29 336.754C1047.45 349.349 1045.67 359.887 1041.33 366.145C1037.1 372.249 1036.81 372.419 1033.23 370.788C1031.26 369.89 1030.05 368.138 1029.54 365.461C1029.13 363.268 1026.75 357.086 1024.26 351.726C1009.16 319.29 1006.92 313.101 1008.21 307.243C1009.08 303.285 1006.99 297.313 1004.98 297.989C1004.17 298.261 1003.49 299.234 1003.48 300.152C1003.38 305.543 997.319 306.371 992.589 301.64L989.454 298.506L992.151 297.508C995.185 296.385 994.907 293.358 991.82 293.913C990.723 294.11 988.213 292.914 986.242 291.256C984.271 289.597 982.203 288.24 981.647 288.24C981.091 288.24 980.297 287.171 979.882 285.865C978.794 282.435 972.528 279.451 969.388 280.867Z" fill="#BC5215"/>
<path d="M1190.56 312.68C1184.84 312.68 1181.74 316.418 1184.87 319.545C1186.87 321.545 1188.38 320.764 1190.92 316.424C1193.09 312.701 1193.09 312.68 1190.56 312.68Z" fill="#BC5215"/>
<path d="M1235.51 295.2C1236.3 296.694 1237.53 298.303 1238.24 298.775C1239.96 299.911 1242.68 290.803 1241.74 287.056C1240.84 283.493 1238.98 284.082 1236.23 288.799C1234.45 291.853 1234.32 292.947 1235.51 295.2Z" fill="#BC5215"/>
<path d="M1269.15 244.495C1270.73 246.369 1272.02 248.659 1272.02 249.584C1272.02 251.849 1273.95 251.722 1274.84 249.399C1276.02 246.336 1274.35 242.07 1271.17 239.982C1266.74 237.077 1265.41 240.047 1269.15 244.495Z" fill="#BC5215"/>
<path d="M1282.35 237.11C1279.64 237.143 1277.84 239.029 1278.6 241.025C1279.5 243.362 1280.49 243.506 1282.41 241.58C1284.27 239.727 1284.23 237.087 1282.35 237.11Z" fill="#BC5215"/>
<path d="M1276.44 234.793C1283.86 232.733 1287.1 233.214 1289.39 236.713L1291.47 239.878L1292.54 236.123C1293.42 233.058 1294.23 232.367 1296.92 232.367C1301.72 232.367 1305.94 230.473 1307.45 227.639C1308.49 225.708 1308.34 224.004 1306.79 219.95C1305.7 217.085 1305.12 213.914 1305.51 212.903C1306.58 210.096 1302.88 203.438 1298.94 201.114C1293.54 197.92 1292.52 200.238 1296.17 207.439C1299.97 214.941 1299.12 217.154 1289.78 224.175C1284.98 227.781 1282.7 228.796 1280.59 228.266C1278.59 227.765 1276.74 228.43 1274.22 230.554C1272.26 232.201 1270.03 233.565 1269.27 233.584C1268.51 233.604 1268.81 234.161 1269.95 234.822C1271.35 235.64 1273.43 235.63 1276.44 234.793Z" fill="#BC5215"/>
<path d="M1288.06 187.704C1286.47 189.983 1286.53 190.543 1288.69 193.579C1291.57 197.629 1292.37 197.803 1291.88 194.278C1291.48 191.401 1293.25 191.011 1299.48 192.606C1301.91 193.229 1302.73 193.007 1302.73 191.723C1302.73 190.78 1303.8 189.668 1305.11 189.253C1308.57 188.153 1306.97 186.604 1300.32 184.631C1297.11 183.676 1292.61 181.473 1290.33 179.736C1285.73 176.221 1285.35 176.532 1288.01 181.67C1289.63 184.794 1289.63 185.465 1288.06 187.704Z" fill="#BC5215"/>
<path d="M1275.83 160.91C1277.78 164.809 1280.19 168.929 1281.19 170.066C1282.81 171.899 1287.37 173.018 1287.37 171.582C1287.37 171.279 1284.97 168.324 1282.03 165.016C1276.99 159.342 1276.02 155.795 1279.91 157.29C1283.29 158.586 1280.7 155.016 1275.47 151.159C1269.16 146.506 1265.15 142.749 1261.91 138.422C1260.57 136.636 1258.79 135.402 1257.96 135.677C1257.04 135.985 1259.51 139.579 1264.37 145C1268.72 149.852 1273.88 157.012 1275.83 160.91Z" fill="#BC5215"/>
<path d="M1089.12 226.569C1090.59 225.801 1091.73 224.404 1092.76 222.915C1094.48 220.547 1091.88 217.356 1089.91 214.832C1088.87 213.498 1087.75 212.195 1086.89 210.552C1086.48 209.73 1086.09 208.758 1086.23 207.604C1086.35 206.44 1087.16 205.476 1087.94 204.919C1091.19 202.571 1094.71 204.645 1096.8 203.334C1100.18 201.779 1103.38 199.887 1103.87 196.45C1105 190.917 1097.79 187.326 1091.95 187.157C1090.45 187.074 1089.09 188.044 1087.52 189.397C1086.09 190.653 1083.53 192.628 1080.67 191.837C1078.45 191.422 1075.65 189.992 1074.29 187.768C1072.54 185.537 1071.82 181.722 1073.11 178.888C1073.56 177.612 1074.64 176.452 1075.59 175.782C1076.55 175.081 1077.31 174.582 1077.9 173.922C1078.76 172.975 1079.53 171.936 1080.23 170.798C1082.34 167.181 1084.22 162.804 1087.6 160.312C1092.22 156.216 1098.81 156.705 1102.84 158.83C1107.08 160.843 1110.3 163.415 1113.53 165.745C1119.85 170.162 1126.5 175.827 1135.74 173.935C1139.69 172.915 1144.36 173.33 1147.16 169.792C1148.84 168.093 1147.65 165.847 1145.49 163.905C1143.4 161.951 1140.76 160.203 1138.15 157.905C1136.95 156.812 1135.73 155.626 1134.9 154.006C1133.99 152.418 1134.05 150.061 1135.11 148.517C1139.53 141.131 1148.81 143.127 1155.07 143.411C1164.31 143.872 1168.98 152.738 1176.42 152.947C1185.34 154.157 1193.22 150.261 1200.34 146.829C1211.18 141.158 1218.79 132.948 1224.39 127.05L1224.87 126.514L1225.51 126.842C1227.39 127.788 1229.23 128.408 1230.92 128.772C1234.18 129.468 1237.09 129.317 1239.41 128.524C1242.36 128.011 1243.8 129.385 1245.4 130.207C1246.94 131.153 1248.27 132.187 1249.55 133.293C1252.05 135.541 1254.5 137.927 1256.46 141.623C1257.41 143.448 1258.79 145.707 1260.69 147.038C1264.95 150.364 1265.13 156.257 1265.36 162.811C1265.33 168.499 1264.54 173.784 1262.85 178.533C1261.89 181.108 1260.85 183.625 1259 185.706C1257.26 187.944 1253.71 188.547 1251.34 187.43C1250.75 187.205 1250.16 186.988 1249.57 186.78C1249.28 186.676 1248.98 186.575 1248.69 186.479C1248.55 186.431 1248.41 186.385 1248.26 186.343C1248.2 186.322 1248.12 186.301 1248.06 186.285C1248.03 186.277 1248 186.269 1247.98 186.264C1247.97 186.258 1247.9 186.257 1248.03 186.264C1248.33 186.248 1248.38 186.169 1248.42 186.153C1248.46 186.125 1248.46 186.118 1248.47 186.111C1248.49 186.099 1248.48 186.105 1248.47 186.114C1248.45 186.132 1248.42 186.168 1248.4 186.204C1248.34 186.28 1248.28 186.369 1248.21 186.459C1248.09 186.642 1247.97 186.835 1247.85 187.031C1247.6 187.423 1247.37 187.824 1247.13 188.23C1246.67 189.041 1246.22 189.86 1245.79 190.686C1244.85 192.555 1243.51 195.07 1244.4 196.203C1245.53 197.411 1245.58 199.574 1244.64 200.866C1243.77 202.209 1242.46 203.051 1241.13 203.66C1240.58 203.906 1240.05 204.207 1239.57 204.556C1239.34 204.73 1239.11 204.918 1238.92 205.112C1238.74 205.278 1238.6 205.592 1238.64 205.477C1240.24 207.14 1243.63 209.762 1246.51 211.763C1247.84 212.692 1249.17 213.666 1250.48 214.733C1252.54 216.465 1255.21 218.623 1256.87 222.169C1257.2 222.931 1257.53 223.721 1257.83 224.551C1257.98 224.967 1258.12 225.389 1258.25 225.833C1258.31 226.054 1258.37 226.283 1258.42 226.525C1258.44 226.648 1258.46 226.771 1258.47 226.915C1258.48 226.991 1258.48 227.065 1258.47 227.165C1258.45 227.262 1258.5 227.387 1258.26 227.655C1256.41 228.823 1254.69 229.623 1252.77 230.605C1251.19 231.395 1249.55 232.212 1247.88 233.05L1247.44 233.269L1247.25 232.823C1246.3 230.639 1245.33 228.382 1244.33 226.068C1242.24 221.266 1239.37 215.634 1233.55 214.349C1232.65 214.095 1231.7 213.798 1230.92 213.088C1230.11 212.368 1229.87 211.223 1229.89 210.272C1229.93 208.198 1228.09 206.633 1226.26 205.562C1225.01 204.874 1223.73 203.901 1222.49 203.982C1221.22 204.144 1219.98 205.094 1218.73 205.823C1217.78 206.402 1216.86 207.017 1215.79 207.513C1215.52 207.629 1215.23 207.745 1214.87 207.766C1214.5 207.801 1214.07 207.603 1213.85 207.353C1213.39 206.859 1213.18 206.354 1212.9 205.863C1212.22 204.507 1211.71 203.132 1211.61 201.55C1211.55 200.499 1210.6 199.421 1209.6 198.871C1208.52 198.186 1207.4 198.567 1206.44 199.378C1205.48 200.154 1204.61 201.086 1203.76 202.006C1201.74 204.131 1199.75 206.162 1197.33 207.768C1196.74 208.108 1196.03 208.519 1195.91 208.926C1195.79 209.291 1196.3 209.938 1196.71 210.442C1198.61 212.345 1201.05 213.805 1203.29 215.098C1205.51 216.17 1208.14 218.346 1209.65 216.275C1210.54 215.201 1212.2 214.852 1213.42 215.075C1214.67 215.236 1215.82 215.547 1216.93 215.836C1218.78 216.329 1220.52 216.79 1222.12 217.214L1223.08 217.471L1222.26 218.022C1221.67 218.417 1221.11 218.799 1220.57 219.166C1220.18 219.435 1219.78 219.704 1219.38 219.974C1216.22 222.2 1212.55 224.489 1211.82 228.393C1211.62 229.281 1211.43 230.24 1211.71 230.868C1211.97 231.493 1212.82 231.936 1213.66 232.318C1216.39 233.94 1217.93 236.422 1219.28 238.995C1220.67 241.715 1222.66 244.37 1225.11 246.012C1226.45 246.823 1227.75 247.735 1228.76 249.012C1229.25 249.652 1229.71 250.436 1229.66 251.394C1229.62 252.376 1228.86 253.118 1228.15 253.494C1227.33 253.922 1226.81 254.664 1227.35 255.186C1227.88 255.739 1228.88 255.933 1229.79 255.939C1230.56 255.957 1231.45 255.989 1232.17 256.628C1232.86 257.294 1232.93 258.198 1232.96 258.948C1232.95 260.478 1232.64 261.917 1232.34 263.302C1231.71 266.097 1230.95 268.728 1230.21 271.288C1228.73 276.395 1227.15 281.046 1225.04 284.803C1221.97 290.482 1217.28 293.176 1213.81 294.592C1212.31 295.209 1211.58 295.407 1211.57 295.378C1211.57 295.378 1211.57 295.378 1211.57 295.378C1211.56 295.324 1212.64 294.928 1214.53 294.064C1221.68 291.574 1227.01 282.332 1229.69 271.141C1230.65 266.869 1232.85 261.92 1231.88 257.498C1231.52 256.85 1230.63 256.742 1229.79 256.75C1228.7 256.736 1227.51 256.616 1226.64 255.673C1226.19 255.203 1226.15 254.323 1226.5 253.815C1226.82 253.285 1227.27 252.972 1227.72 252.712C1229.17 252.008 1228.85 250.482 1227.88 249.436C1226.96 248.364 1225.77 247.559 1224.6 246.865C1221.6 244.83 1219.78 242.198 1218.34 239.448C1217.11 237.034 1215.43 234.56 1213.23 233.258C1212.39 232.843 1211.37 232.455 1210.8 231.336C1210.31 230.189 1210.63 229.135 1210.84 228.16C1211.55 224.248 1215.22 221.646 1218.86 219.197C1219.79 218.575 1220.76 217.933 1221.75 217.268L1221.89 218.09C1220.24 217.643 1218.52 217.175 1216.7 216.684C1214.58 216.232 1211.87 214.981 1210.25 216.883C1209.82 217.312 1209.27 217.821 1208.49 217.959C1207.72 218.085 1207.03 217.855 1206.42 217.626C1205.19 217.139 1204.06 216.497 1202.88 215.848C1201.62 215.148 1200.36 214.368 1199.1 213.499C1198.03 212.74 1196.99 212.037 1196.04 211C1195.8 210.714 1195.57 210.427 1195.36 210.078C1195.16 209.746 1194.89 209.245 1195.07 208.644C1195.56 207.581 1196.29 207.402 1196.89 206.996C1199.16 205.471 1201.21 203.371 1203.08 201.381C1203.97 200.415 1204.85 199.456 1205.91 198.606C1206.44 198.192 1207.04 197.768 1207.83 197.6C1208.64 197.423 1209.45 197.703 1210.05 198.026C1211.32 198.776 1212.42 199.797 1212.59 201.55C1212.66 202.775 1213.18 204.222 1213.79 205.389C1214.05 205.87 1214.33 206.404 1214.58 206.645C1214.7 206.756 1214.69 206.746 1214.82 206.747C1214.95 206.74 1215.17 206.667 1215.39 206.568C1216.3 206.14 1217.25 205.509 1218.18 204.933C1219.47 204.199 1220.54 203.207 1222.4 202.913C1224.39 202.868 1225.52 203.958 1226.81 204.613C1228.71 205.717 1231.03 207.474 1231.03 210.272C1230.93 212.019 1232.07 212.771 1233.85 213.215C1239.83 214.455 1243.26 220.329 1245.49 225.562C1246.46 227.771 1247.44 230.015 1248.44 232.304L1247.29 231.889C1248.89 231.079 1250.52 230.258 1252.17 229.424C1253.89 228.55 1255.93 227.517 1257.35 226.656C1257.06 226.981 1257.16 227.031 1257.13 227.055C1257.13 227.075 1257.13 227.056 1257.13 227.032C1257.13 226.981 1257.12 226.899 1257.1 226.814C1257.07 226.644 1257.02 226.454 1256.97 226.263C1256.86 225.879 1256.73 225.484 1256.58 225.092C1256.3 224.304 1255.97 223.515 1255.62 222.73C1253.79 218.786 1249.77 215.811 1245.7 212.936C1243.34 211.286 1240.97 209.567 1238.66 207.498C1238.41 207.27 1238.17 207.038 1237.93 206.784C1237.81 206.655 1237.69 206.524 1237.56 206.367C1237.5 206.29 1237.44 206.202 1237.37 206.094C1237.31 205.965 1237.21 205.899 1237.18 205.477C1237.27 204.63 1237.62 204.421 1237.87 204.105C1238.15 203.82 1238.43 203.589 1238.72 203.376C1239.29 202.954 1239.9 202.614 1240.52 202.329C1242.95 201.346 1244.85 198.838 1243.26 197.153C1242.17 195.773 1242.7 194.214 1243.04 193.137C1243.43 192 1243.94 190.981 1244.45 189.987C1244.9 189.117 1245.36 188.268 1245.83 187.434C1246.07 187.017 1246.31 186.606 1246.56 186.196C1246.69 185.992 1246.82 185.786 1246.96 185.58C1247.03 185.476 1247.1 185.373 1247.19 185.261C1247.23 185.206 1247.28 185.147 1247.34 185.081C1247.37 185.043 1247.4 185.014 1247.46 184.959C1247.49 184.932 1247.52 184.909 1247.58 184.864C1247.64 184.835 1247.73 184.742 1248.03 184.729C1249.76 185.106 1250.64 185.539 1251.89 185.979C1256.99 188.291 1259.81 182.255 1261.32 177.977C1264.04 168.975 1265.92 156.646 1259.86 148.606C1257.37 146.929 1256.13 144.861 1254.8 142.471C1252.03 137.657 1245.94 131.4 1240.09 130.516C1235.17 132.143 1229.6 131.148 1224.61 128.609L1225.86 128.377C1222.02 132.502 1217.71 136.688 1212.66 140.808C1208.88 143.864 1205.11 146.555 1201.12 148.455C1192.63 152.74 1184.04 155.864 1176.25 154.725C1166.65 153.643 1162.19 145.059 1154.95 145.295C1148.01 144.889 1140.16 143.668 1136.85 149.599C1134.77 152.681 1138.98 155.963 1142.33 158.553C1144.1 159.931 1146.01 161.275 1147.8 163.097C1148.68 164.024 1149.61 165.091 1150.05 166.647C1150.55 168.229 1149.89 170.14 1148.89 171.252C1145.91 175.238 1140.35 175.263 1136.29 176.256C1125.74 179.018 1116.12 170.675 1106.35 164.027C1101.08 160.396 1094.38 158.087 1089.45 162.594C1085.36 165.551 1084.33 171.403 1080.11 175.935C1078.27 177.906 1076.29 178.525 1075.9 179.967C1075.02 182.107 1075.34 184.134 1076.73 186.088C1077.81 187.736 1079.26 188.513 1081.35 188.996C1084.18 190.204 1086.26 184.402 1092.07 184.352C1095.52 184.536 1098.9 185.496 1101.86 187.435C1104.78 189.231 1107.33 193.126 1106.39 196.957C1105.67 201.604 1101.1 204.098 1097.82 205.529C1094.12 207.146 1090.9 205.26 1089.31 206.797C1087.14 207.832 1089.8 211.06 1091.81 213.618C1092.86 214.978 1093.95 216.36 1094.78 218.091C1095.62 219.717 1095.95 222.378 1094.58 224.169C1092.99 226.68 1090.04 229.422 1086.63 229.546C1085.69 229.654 1084.4 229.449 1083.53 228.643C1082.65 227.854 1082.31 226.911 1082.06 226.085C1081.61 224.41 1081.55 222.884 1081.4 221.415C1081.16 218.562 1080.69 215.483 1078.72 215.167C1074.46 213.974 1070.71 217.023 1067.91 220.356C1062.54 227.822 1077.59 235.036 1073.09 244.923C1070.93 250.448 1064.34 252.513 1059.96 251.66C1050.84 250.419 1042.53 245.585 1033.09 243.721C1028.44 242.744 1024.75 239.974 1021.01 237.597C1017.48 235.347 1012.63 232.19 1011.09 236.45C1009.72 238.704 1011.72 241.891 1010.67 245.751C1009.9 248.884 1008.32 252.348 1005.86 254.765C1004.77 255.934 1003.21 256.971 1001.41 257.167C999.628 257.378 997.954 256.832 996.543 256.148C993.71 254.73 991.455 252.765 989.151 250.917C984.764 247.399 979.394 242.79 974.593 245.504C964.534 252.149 966.471 270.898 968.895 279.774C971.563 278.744 973.907 279.572 975.977 280.503C978.001 281.542 980.057 282.901 981.007 285.508C981.133 285.907 981.31 286.303 981.518 286.635C981.62 286.8 981.734 286.95 981.828 287.045C981.873 287.091 981.915 287.123 981.916 287.123C981.916 287.129 981.872 287.072 981.647 287.065C982.112 287.086 982.234 287.172 982.41 287.23C982.57 287.292 982.704 287.356 982.83 287.419C983.082 287.546 983.304 287.675 983.523 287.808C983.957 288.072 984.363 288.347 984.762 288.63C985.532 289.178 986.271 289.756 986.992 290.364C987.724 290.981 988.536 291.536 989.382 291.992C989.804 292.219 990.238 292.421 990.658 292.57C991.054 292.723 991.563 292.802 991.616 292.775C992.278 292.665 993.014 292.609 993.851 292.928C994.691 293.198 995.532 294.286 995.437 295.296C995.235 297.294 993.739 298.112 992.549 298.585C991.653 298.916 990.754 299.248 989.852 299.581L990.265 297.695C991.304 298.736 992.349 299.782 993.398 300.831C994.927 302.37 996.947 303.552 998.938 303.599C1000.96 303.686 1002.36 302.25 1002.34 300.131C1002.43 298.679 1003.12 297.508 1004.61 296.907C1005.56 296.567 1006.52 297.068 1006.95 297.481C1007.44 297.92 1007.74 298.373 1008.01 298.828C1008.52 299.739 1008.84 300.668 1009.09 301.609C1009.55 303.494 1009.75 305.45 1009.33 307.489C1009.14 321.892 1019.25 336.584 1025.33 351.225C1027.38 355.763 1029.39 360.124 1030.72 365.24C1031.08 367.258 1032.04 368.966 1033.73 369.692C1034.52 370.053 1035.37 370.428 1035.86 370.456C1036.1 370.468 1036.22 370.44 1036.45 370.309C1036.68 370.18 1036.95 369.934 1037.22 369.652C1038.29 368.47 1039.31 366.918 1040.34 365.455C1045.61 357.333 1045.88 346.636 1045.08 336.866C1044.82 334.92 1045.98 333.053 1047.07 331.935C1048.18 330.743 1049.38 329.795 1050.58 328.863C1053.19 326.812 1055.86 324.361 1057.59 321.832C1058.85 319.967 1060.04 318.375 1062.53 317.301C1063.54 316.944 1064.84 315.54 1065.42 314.291C1066.96 311.529 1069.09 310.061 1071.56 308.771C1073.17 308.078 1075.02 306.65 1074.66 306.163C1074.34 304.996 1074.3 303.503 1074.98 302.249C1075.66 301 1076.74 300.239 1077.76 299.689C1079.76 298.648 1081.82 298.16 1083.9 297.725C1086.65 297.147 1089.77 296.473 1092.12 295.52C1093.07 294.977 1094.41 294.75 1095.54 295.119C1096.68 295.472 1097.53 296.178 1098.22 296.91C1099.59 298.404 1100.47 300.099 1101.25 301.82C1102.32 304.201 1104.02 306.481 1106.28 307.448C1109.93 309.499 1111.55 312.616 1113.43 315.66C1115.02 318.86 1117.15 321.755 1116.65 326.281C1116.26 327.679 1118.3 330.856 1119.57 330.987C1119.37 330.997 1119.39 331.017 1119.38 331.015C1119.38 331.015 1119.4 331.006 1119.43 330.993C1119.48 330.967 1119.55 330.928 1119.62 330.884C1119.76 330.795 1119.92 330.689 1120.07 330.578C1120.38 330.355 1120.69 330.112 1120.99 329.861C1121.6 329.358 1122.2 328.823 1122.78 328.273C1123.59 327.508 1124.44 326.772 1125.55 326.217C1126.59 325.631 1128.45 325.504 1129.52 326.497C1131.51 328.373 1131.87 330.596 1132.46 332.692C1133.5 336.65 1135.02 340.629 1136.75 344.365C1138.34 347.649 1139.96 351.624 1139.04 355.519C1138.46 358.849 1138.09 362.289 1137.84 365.653C1137.74 367.527 1137.45 369.543 1138.1 370.898C1138.78 372.249 1140.49 373.333 1141.96 374.458C1145.32 376.649 1147.85 380.513 1148.62 384.336C1150.7 392.217 1153.63 400.161 1159.85 404.55C1161.12 405.463 1162.4 406.342 1163.7 407.077C1164.89 407.777 1166.83 408.502 1166.46 407.589C1165.76 404.291 1164.59 400.629 1163.58 397.329C1162.58 394.222 1161.72 391.128 1160.1 388.669C1158.46 386.224 1156.05 384.436 1153.88 382.637C1150.68 379.901 1147.64 377.427 1146 373.765C1145.78 372.915 1145.41 372.07 1145.04 371.272C1144.41 369.971 1143.7 368.733 1142.9 367.632C1141.91 366.303 1140.87 364.675 1140.95 362.917C1140.98 361.222 1141.38 359.718 1141.71 358.232C1142.44 354.85 1142.86 351.538 1142.76 348.5C1142.72 347.663 1142.69 346.839 1142.81 345.997C1142.87 345.579 1142.96 345.148 1143.2 344.731C1143.41 344.307 1143.97 343.943 1144.47 343.975C1152.95 347.25 1158.14 352.932 1162.85 358.736C1163.34 359.432 1163.85 360.179 1164.51 360.536C1165.15 360.899 1165.96 360.54 1166.71 360.141C1167.3 359.847 1167.87 359.496 1168.67 359.467C1169.07 359.453 1169.51 359.705 1169.73 360.012C1169.97 360.315 1170.1 360.637 1170.23 360.956C1170.69 362.366 1170.68 363.813 1170.28 365.257C1169.98 366.248 1169.86 367.513 1170.28 368.369C1170.5 368.765 1171.35 368.61 1171.98 368.345C1172.65 368.075 1173.29 367.684 1173.9 367.241C1175.09 366.347 1176.3 365.212 1176.8 363.795C1177.97 361.581 1180.09 360.501 1182.25 359.422C1186.74 357.774 1189.89 352.602 1188.55 346.927C1188.53 346.826 1188.52 346.724 1188.5 346.622C1186.88 339.307 1182.98 331.156 1176.42 325.253C1172.18 321.575 1166.72 317.013 1167.39 310.298C1168.62 306.076 1172.23 302.915 1176.2 301.311C1178.01 300.563 1180.02 299.991 1182.05 300.373C1184.12 300.717 1185.69 302.466 1186.33 304.321C1186.7 305.32 1187.07 306.317 1187.45 307.311L1187.01 307.244C1187.82 306.214 1188.64 305.187 1189.46 304.165C1192.16 300.588 1196.4 298.175 1200.74 298.098C1201.28 298.07 1201.82 297.983 1202.36 297.887C1209.29 296.421 1211.99 295.152 1211.54 295.454C1211.05 295.613 1207.44 297.394 1200.76 298.46C1200.19 298.495 1199.6 298.559 1199 298.662C1195.17 299.255 1192.02 301.641 1189.85 304.478C1189.03 305.526 1188.23 306.559 1187.43 307.577L1187.12 307.97L1186.94 307.502C1186.56 306.496 1186.18 305.502 1185.8 304.521C1185.13 302.649 1183.62 301.17 1181.77 300.933C1179.93 300.657 1178.09 301.208 1176.45 301.898C1172.2 303.638 1169.07 306.921 1168.09 310.511C1167.47 313.255 1169.12 315.824 1170.4 317.72C1172.4 320.51 1174.73 322.659 1177.06 324.449C1184.03 330.703 1187.61 337.549 1189.75 346.395C1190.98 350.982 1189.15 358.213 1182.74 360.51C1180.97 361.308 1178.68 362.686 1177.88 364.137C1177.55 365.115 1176.98 365.857 1176.35 366.539C1175.47 367.467 1174.5 368.22 1173.45 368.825C1172.91 369.123 1172.36 369.386 1171.72 369.557C1171.4 369.637 1171.06 369.701 1170.64 369.664C1170.24 369.639 1169.66 369.404 1169.38 368.925C1168.67 367.339 1168.96 366.191 1169.28 364.941C1169.62 363.801 1169.61 362.331 1169.26 361.327C1169.15 361.049 1169.03 360.792 1168.91 360.651C1168.78 360.508 1168.79 360.519 1168.65 360.507C1168.32 360.506 1167.72 360.783 1167.21 361.062C1166.78 361.289 1166.34 361.513 1165.79 361.653C1165.25 361.803 1164.5 361.757 1163.97 361.447C1162.93 360.826 1162.49 360.047 1161.97 359.345C1156.54 352.601 1150.04 347.31 1144.47 345.342C1144.37 345.374 1144.5 345.28 1144.39 345.432C1144.3 345.581 1144.22 345.891 1144.19 346.218C1144.1 346.883 1144.13 347.645 1144.18 348.406C1144.29 350.644 1144.07 352.731 1143.78 354.905C1143.59 356.211 1143.38 357.408 1143.11 358.551C1142.39 361.809 1141.64 364.087 1144.02 366.805C1145.26 368.6 1146.45 370.538 1147.32 373.433C1148.28 375.736 1151.21 378.682 1154.72 381.578C1156.63 383.17 1158.9 384.783 1160.87 387.378C1162.82 390.025 1163.76 393.368 1164.92 396.907C1165.9 400.153 1167.04 403.302 1167.9 407.589C1167.9 407.835 1167.88 408.103 1167.77 408.414C1167.67 408.719 1167.4 409.081 1167.05 409.262C1166.34 409.61 1165.81 409.46 1165.38 409.375C1164.5 409.151 1163.79 408.787 1163.08 408.404C1161.67 407.626 1160.34 406.722 1158.99 405.758C1152.77 401.482 1149.36 393.434 1147.06 384.75C1146.58 382.996 1146.02 381.253 1145.03 379.763C1144.01 378.199 1142.53 376.966 1140.96 375.815C1139.44 374.612 1137.65 373.714 1136.51 371.559C1135.59 369.304 1136.05 367.396 1136.09 365.537C1136.34 361.994 1136.69 358.589 1137.26 355.193C1138.05 351.684 1136.61 348.391 1135.07 345.178C1133.18 341.169 1131.67 337.245 1130.57 333.153C1130.07 331.148 1129.38 328.917 1128.23 328C1127.36 327.153 1125.52 328.394 1124.17 329.726C1123.55 330.317 1122.93 330.884 1122.27 331.429C1121.94 331.701 1121.61 331.966 1121.26 332.227C1121.08 332.357 1120.89 332.486 1120.69 332.615C1120.58 332.68 1120.48 332.744 1120.34 332.813C1120.27 332.848 1120.19 332.884 1120.1 332.921C1119.98 332.958 1119.9 333.013 1119.57 333.025C1117.26 332.724 1116.56 331.321 1115.71 330.164C1115 328.909 1114.22 327.633 1114.67 325.652C1114.41 319.907 1109.76 312.352 1105.44 309.468C1102.28 308.087 1100.45 305.371 1099.22 302.736C1097.85 299.593 1095.34 296.074 1093.22 297.522C1089.95 298.879 1087.25 299.355 1084.37 300.003C1080.36 300.82 1075.71 302.357 1076.97 305.56C1077.2 306.368 1076.98 307.339 1076.59 307.935C1076.21 308.556 1075.75 308.969 1075.3 309.329C1074.4 310.033 1073.5 310.508 1072.59 310.945C1070.56 311.952 1068.46 313.702 1067.63 315.301C1066.65 317.218 1065.53 318.706 1063.27 319.641C1062.33 319.995 1061.04 321.248 1060.22 322.357C1060.04 322.603 1059.86 322.858 1059.71 323.117C1057.7 326.066 1055.17 328.391 1052.1 330.837C1050.02 332.5 1047.25 334.507 1047.56 336.638C1048.2 345.713 1048.64 356.87 1042.34 366.843C1041.31 368.3 1040.36 369.779 1039.02 371.271C1038.39 371.953 1037.24 372.995 1035.74 372.871C1034.4 372.742 1033.59 372.252 1032.73 371.885C1030.19 370.817 1028.75 368.067 1028.37 365.681C1027.25 361.33 1025.21 356.658 1023.2 352.219C1017.3 337.523 1007.03 323.954 1007.1 307.001C1007.43 305.485 1007.28 303.748 1006.88 302.162C1006.67 301.371 1006.39 300.592 1006.02 299.949C1005.84 299.632 1005.63 299.347 1005.45 299.189C1005.36 299.111 1005.28 299.074 1005.27 299.072C1005.26 299.072 1005.33 299.077 1005.34 299.069C1005.07 299.12 1004.59 299.787 1004.62 300.174C1004.7 302.332 1003.25 305.008 1000.87 305.624C997.404 306.586 994.107 304.779 991.764 302.465C990.739 301.442 989.692 300.398 988.625 299.334L987.332 298.045L989.047 297.407C989.936 297.077 990.834 296.743 991.743 296.406C992.523 296.152 993.134 295.491 993.107 295.223C993.086 295.12 993.162 295.2 992.997 295.101C992.828 295.023 992.445 294.996 992.029 295.076C988.8 295.009 987.384 293.56 985.478 292.164C984.806 291.6 984.104 291.053 983.384 290.545C983.023 290.29 982.658 290.045 982.296 289.826C982.115 289.717 981.935 289.615 981.77 289.532C981.689 289.492 981.609 289.455 981.552 289.434C981.514 289.409 981.407 289.414 981.647 289.43C980.69 289.357 980.44 288.958 980.148 288.713C979.88 288.441 979.688 288.174 979.516 287.903C979.177 287.363 978.933 286.809 978.746 286.225C977.706 283.429 972.764 280.931 969.881 281.96C969.585 282.097 969.213 282.147 968.887 282.088C968.592 282.037 968.343 281.917 968.141 281.78C967.953 281.649 967.845 281.547 967.722 281.418C967.602 281.291 967.502 281.161 967.43 281.061C967.104 280.6 966.915 280.196 966.725 279.76C966.373 278.925 966.128 278.104 965.914 277.282C965.489 275.625 965.209 273.971 965.001 272.298C964.593 268.952 964.483 265.543 964.704 262.113C965.262 255.492 966.575 247.442 973.427 243.366C987.997 238.076 995.079 260.437 1004.09 253.089C1006.33 250.842 1007.53 248.189 1008.33 245.102C1009.26 242.603 1007.06 239.109 1008.9 235.394C1009.47 234.196 1010.4 232.874 1011.91 232.249C1013.43 231.622 1014.98 231.899 1016.2 232.292C1018.67 233.141 1020.59 234.463 1022.51 235.674C1026.27 238.108 1029.87 240.604 1033.55 241.334C1044.4 243.66 1052.87 248.377 1060.01 249.183C1065.39 250.043 1069.27 247.561 1070.83 243.841C1073.73 233.902 1059.05 227.451 1066.05 218.759C1068.92 215.439 1073.37 211.349 1079.26 212.894C1080.83 213.209 1082.18 214.617 1082.7 216.045C1083.27 217.483 1083.44 218.949 1083.59 220.438C1083.74 221.921 1083.8 223.466 1084.1 224.933C1084.43 226.452 1084.94 227.502 1086.42 227.325C1087.35 227.243 1088.27 227.017 1089.12 226.569ZM1193.28 313.988C1192.84 314.569 1193.39 315.358 1192.92 315.946C1192.5 316.451 1192.08 316.381 1191.77 316.921C1191.74 316.978 1191.71 317.042 1191.68 317.112C1191.35 317.877 1190.62 318.404 1190.56 318.818C1190.5 319.24 1190.01 318.93 1189.78 319.43C1189.54 319.93 1189.24 320.147 1188.74 320.337C1188.49 320.426 1188.05 320.687 1187.52 320.833C1187 320.995 1186.43 320.931 1186.11 320.938C1185.41 320.95 1185.12 320.187 1184.95 319.895C1184.89 319.799 1184.86 319.712 1184.84 319.635C1184.83 319.602 1184.85 319.567 1184.88 319.541C1184.88 319.541 1184.88 319.541 1184.88 319.54C1184.91 319.508 1184.95 319.49 1184.98 319.51C1185.12 319.606 1185.36 319.727 1185.68 319.757C1185.97 319.78 1186.07 319.845 1186.19 319.934C1186.3 320.017 1186.45 320.14 1186.73 320.085C1187.28 319.916 1187.3 319.519 1188 319.181C1188.7 318.752 1188.14 318.079 1189.2 317.4C1189.96 316.883 1189.82 316.408 1189.86 315.803C1189.88 315.544 1189.92 315.266 1190.07 314.941C1190.32 314.384 1190.76 313.821 1191.06 313.403C1191.14 313.302 1191.2 313.212 1191.24 313.166C1191.29 313.125 1191.27 313.125 1191.33 313.358C1191.36 313.47 1191.45 313.633 1191.55 313.724C1191.65 313.819 1191.73 313.851 1191.77 313.863C1191.84 313.884 1191.8 313.862 1191.76 313.862C1191.56 313.848 1191.07 313.885 1190.56 313.9C1190.15 313.913 1189.72 313.927 1189.27 313.923C1188.29 313.913 1187.26 314.497 1186.35 314.791C1185.37 315.046 1184.33 315.967 1184.12 316.619C1183.89 317.234 1183.9 317.49 1184.24 318.051C1184.45 318.373 1184.69 318.828 1184.85 319.337C1184.94 319.595 1184.79 319.677 1184.55 319.54C1184.21 319.338 1184.08 319.031 1183.8 318.971C1183.24 318.836 1182.96 318.682 1183 318.042C1183.07 317.434 1182.53 317.211 1182.59 316.813C1182.63 316.624 1182.73 316.539 1182.83 316.281C1182.95 316.026 1183.03 315.584 1183.4 314.777C1184.23 313.192 1185.16 312.775 1185.66 312.429C1186.21 312.08 1187.5 311.936 1188.42 311.7C1188.95 311.552 1189.79 311.473 1190.56 311.463C1191.12 311.454 1191.65 311.42 1192.16 311.429C1192.45 311.438 1192.78 311.505 1193.13 311.762C1193.48 312.014 1193.71 312.485 1193.72 312.798C1193.75 313.431 1193.49 313.663 1193.28 313.988ZM1242.02 285.156C1242.21 285.811 1242.75 286.135 1243.11 286.712C1243.24 286.946 1243.33 287.222 1243.34 287.516C1243.32 288.6 1242.84 288.727 1242.9 289.82C1242.94 290.924 1242.45 291.928 1242.55 292.426C1242.65 292.931 1242.07 292.864 1242.05 293.54C1242.02 294.218 1241.84 294.599 1241.49 295.1C1241.15 295.613 1240.38 297.196 1240.23 297.875C1240.1 298.575 1239.24 299.12 1238.61 299.068C1238.42 299.054 1238.3 298.958 1238.24 298.878C1238.22 298.842 1238.22 298.8 1238.24 298.769C1238.24 298.769 1238.24 298.769 1238.24 298.769C1238.27 298.731 1238.31 298.707 1238.35 298.719C1238.53 298.791 1238.77 298.651 1238.88 298.315C1239.04 297.692 1239.36 297.808 1239.64 296.925C1239.88 296.016 1239.76 295.409 1240.27 294.428C1240.77 293.422 1240 292.992 1240.75 291.589C1241.45 290.146 1240.58 289.832 1240.44 288.475C1240.39 288.107 1240.36 287.731 1240.32 287.412C1240.24 286.883 1240.14 286.377 1240.04 286.106C1239.99 285.971 1239.96 285.918 1239.99 285.911C1240.01 285.904 1240.07 285.897 1240.06 285.903C1239.95 285.87 1239.02 286.823 1238.26 287.778C1237.88 288.22 1237.56 288.793 1237.25 289.394C1236.87 290.12 1236.5 290.861 1236.14 291.463C1235.84 291.981 1235.59 292.538 1235.59 293.153C1235.59 293.775 1235.81 294.467 1235.97 294.958C1235.99 295.041 1236.02 295.12 1236.04 295.192C1236.36 296.103 1236.46 296.337 1237.09 297.015C1237.46 297.401 1237.85 297.992 1238.16 298.55C1238.33 298.821 1238.2 298.939 1237.87 298.78C1237.42 298.538 1237.22 298.182 1236.9 298.125C1236.27 298.001 1236 297.906 1235.83 297.25C1235.67 296.597 1235.06 296.631 1234.92 296.271C1234.84 296.072 1234.89 295.937 1234.77 295.59C1234.68 295.304 1234.44 294.927 1234.04 294.07C1233.6 293.08 1233.63 292.046 1233.75 291.394C1233.88 290.719 1234.06 290.28 1234.19 289.926C1234.35 289.476 1234.79 288.851 1235.23 288.213C1235.49 287.823 1235.75 287.435 1235.96 287.045C1236.56 286.045 1237.74 283.986 1239.75 283.457C1240.77 283.267 1241.34 283.764 1241.55 284.051C1241.78 284.375 1241.87 284.696 1242.02 285.156ZM1273.13 240.382C1273.52 241.052 1274.61 240.962 1275.06 241.883C1275.47 242.8 1275.12 243.123 1275.62 244.084C1276.12 245.081 1275.97 246.232 1276.18 246.699C1276.4 247.191 1275.83 247.251 1275.91 247.933C1275.97 248.634 1275.79 249.069 1275.4 249.568C1275.4 249.579 1275.39 249.591 1275.38 249.603C1275.01 250.152 1273.99 251.618 1272.93 251.674C1272.42 251.772 1271.92 251.291 1271.85 250.906C1271.73 250.509 1271.82 250.186 1271.84 249.962C1271.86 249.822 1271.89 249.716 1271.93 249.634C1271.95 249.6 1271.99 249.584 1272.03 249.584C1272.03 249.584 1272.03 249.584 1272.03 249.584C1272.07 249.584 1272.12 249.608 1272.12 249.649C1272.16 249.842 1272.26 250.165 1272.52 250.381C1272.76 250.565 1272.81 250.595 1272.87 250.672C1272.92 250.733 1273.04 250.841 1273.29 250.65C1273.72 250.244 1273.71 249.729 1274.08 249.104C1274.12 249.028 1274.16 248.949 1274.21 248.864C1274.65 247.972 1273.85 247.722 1274.22 246.405C1274.46 244.965 1273.5 245.021 1272.85 243.967C1272.17 242.903 1271.35 241.399 1270.63 240.998C1270.6 240.979 1270.57 240.961 1270.54 240.943C1269.85 240.536 1268.75 240.068 1268.19 239.999C1268.06 239.982 1268.09 239.999 1268.13 239.956C1268.17 239.916 1268.13 240.019 1268.16 240.228C1268.22 240.65 1268.47 241.249 1268.68 241.841C1268.9 242.498 1269.3 243.293 1269.74 244.002C1270.14 244.649 1270.46 245.257 1270.64 245.665C1271.03 246.559 1271.12 246.764 1271.66 247.52C1271.96 247.954 1272.26 248.679 1272.14 249.37C1272.05 249.715 1271.89 249.599 1271.77 249.361C1271.58 248.997 1271.5 248.643 1271.23 248.528C1270.67 248.302 1270.46 248.236 1270.4 247.64C1270.32 247.039 1269.72 247.107 1269.6 246.81C1269.46 246.52 1269.76 246.297 1268.54 245.166C1268.51 245.139 1268.48 245.113 1268.45 245.087C1267.16 243.907 1266.61 243.007 1266.25 242.364C1266.07 242.02 1265.88 241.454 1265.81 240.693C1265.75 240.008 1265.86 238.721 1266.89 238.037C1269.03 236.887 1270.97 238.54 1271.88 238.892C1271.93 238.914 1271.97 238.934 1272.01 238.953C1272.93 239.405 1272.71 239.711 1273.13 240.382ZM1284.54 239.829C1284.22 240.196 1284.88 240.903 1284.45 241.39C1284.01 241.841 1283.59 241.615 1283.25 242.15C1283.22 242.204 1283.18 242.254 1283.13 242.302C1282.79 242.69 1282.25 242.834 1282.15 243.121C1282.03 243.447 1281.69 242.993 1281.4 243.306C1281.1 243.616 1280.72 243.679 1280.26 243.494C1280.03 243.411 1279.6 243.209 1279.34 242.928C1279.07 242.657 1278.88 242.385 1278.68 242.286C1278.29 242.075 1278.48 241.525 1278.49 241.282C1278.49 241.205 1278.51 241.137 1278.53 241.081C1278.54 241.057 1278.57 241.036 1278.61 241.022C1278.61 241.022 1278.61 241.022 1278.61 241.022C1278.65 241.006 1278.7 241.002 1278.71 241.021C1278.78 241.116 1278.91 241.244 1279.14 241.347C1279.57 241.52 1279.28 241.729 1279.65 241.995C1279.84 242.112 1280.03 242.115 1280.13 242.091C1280.24 242.064 1280.21 242.034 1280.32 242.132C1280.46 242.218 1280.54 242.004 1280.59 241.828C1280.66 241.643 1280.73 241.49 1281.16 241.452C1281.6 241.404 1281.69 241.161 1281.72 240.882C1281.72 240.62 1281.65 240.326 1281.77 240.058C1282.01 239.549 1282.69 239.024 1282.64 238.703C1282.62 238.561 1282.56 238.421 1282.52 238.372C1282.46 238.316 1282.52 238.373 1282.52 238.298C1282.51 238.262 1282.45 238.245 1282.37 238.255C1281.9 238.287 1281.45 238.488 1281 238.489C1280.37 238.463 1279.52 238.811 1279.17 239.114C1278.82 239.395 1278.73 239.543 1278.79 239.965C1278.84 240.208 1278.81 240.509 1278.69 240.881C1278.63 241.068 1278.47 241.105 1278.34 240.957C1278.15 240.736 1278.19 240.502 1277.97 240.377C1277.54 240.117 1277.38 239.894 1277.68 239.515C1277.99 239.172 1277.57 238.82 1277.74 238.595C1277.94 238.405 1278.08 238.499 1278.74 237.495C1279.5 236.526 1280.17 236.291 1280.57 236.098C1280.94 235.93 1281.71 235.993 1282.34 235.98C1282.46 235.976 1282.58 235.975 1282.71 235.976C1283.17 235.946 1284.13 236.314 1284.56 237.044C1285 237.743 1285.02 238.398 1285.11 238.747C1285.23 239.463 1284.85 239.423 1284.54 239.829ZM1295.37 198.781C1297.18 199.029 1298.23 199.616 1299.52 200.136C1301.1 200.86 1302.57 201.945 1303.82 203.678C1304.94 205.29 1305.34 206.364 1305.74 207.492C1306.07 208.662 1306.7 209.727 1306.67 212.302C1306.64 212.609 1306.58 212.942 1306.46 213.267C1306.25 214.972 1307.05 217.981 1307.65 219.622C1307.97 220.486 1308.24 221.214 1308.46 221.747C1309.09 223.578 1309.06 223.908 1308.57 226.855C1308.45 227.28 1308.3 227.658 1308.13 227.998C1307.02 230.035 1305.51 230.902 1303.6 231.621C1302.36 232.101 1299.6 232.789 1296.92 232.724C1295.88 232.709 1294.85 232.829 1294.28 233.379C1293.7 233.921 1293.46 234.695 1293.32 235.223C1293.23 235.563 1293.14 235.913 1293.05 236.268C1292.72 237.557 1292.25 238.846 1291.83 239.982L1291.62 240.766L1291.15 240.084C1290.74 239.329 1290.38 238.639 1290.06 238.094C1289.78 237.618 1289.58 237.233 1289.43 236.932C1289.37 236.805 1289.37 236.73 1289.4 236.71C1289.4 236.71 1289.4 236.71 1289.4 236.71C1289.44 236.684 1289.53 236.744 1289.63 236.892C1290.11 237.573 1290.84 238.559 1291.76 239.687L1291.13 239.782C1291.14 239.705 1291.16 239.627 1291.17 239.549C1291.46 237.869 1291.73 237.103 1292.08 235.99C1292.41 235.213 1292.43 234.143 1293.73 232.711C1294.77 231.796 1295.97 231.788 1296.92 231.706C1299.2 231.516 1301.27 231.194 1304.05 229.878C1305.51 229.12 1306.28 228.179 1306.68 227.225C1307.38 225.631 1307.09 224.221 1305.96 220.407C1305.94 220.366 1305.93 220.324 1305.92 220.283C1305.01 216.705 1304.27 215.35 1304.54 212.53C1304.68 211.584 1304.17 209.961 1302.88 207.676C1301.74 205.699 1300.11 203.548 1298.23 202.327C1297.39 201.8 1296.53 201.328 1295.81 201.104C1295.46 200.984 1295.14 201.005 1295.21 200.984C1295.24 200.969 1295.31 200.881 1295.3 200.877C1295.29 200.869 1295.26 200.952 1295.24 201.072C1295.14 202.267 1295.8 203.928 1296.24 204.917C1296.52 205.545 1296.85 206.211 1297.21 206.91C1298.03 208.526 1299.01 210.316 1299.42 212.683C1299.93 215.112 1298.63 217.917 1296.96 219.566C1295.07 221.56 1292.82 223.317 1290.49 225.12C1287.73 226.989 1285.07 229.984 1280.63 229.441C1280.52 229.417 1280.41 229.391 1280.31 229.362C1278.69 228.765 1276.64 229.749 1274.79 231.235C1273.06 232.488 1271.7 233.731 1269.29 234.273C1269.24 234.269 1269.2 234.279 1269.24 234.264C1269.26 234.254 1269.31 234.238 1269.39 234.151C1269.48 234.068 1269.53 233.887 1269.52 233.792C1269.5 233.602 1269.47 233.64 1269.49 233.656C1269.5 233.681 1269.54 233.724 1269.58 233.767C1269.75 233.947 1270.01 234.131 1270.26 234.292C1271.21 234.902 1272.39 234.947 1273.26 234.924C1274.54 234.873 1275.51 234.663 1276.35 234.465C1278.07 234.071 1279.29 233.686 1281.85 233.295C1283.98 232.873 1287.69 233.492 1289.01 235.954C1289.68 237.087 1289.38 236.888 1288.55 235.952C1287.28 234.597 1285.81 234.084 1284.87 234.147C1282.99 234.337 1282.29 234.587 1279.89 234.776C1278.44 234.923 1277.49 235.327 1276.69 235.672C1276.13 235.909 1275.61 236.11 1275.01 236.202C1274.41 236.289 1274.04 236.286 1273.34 236.291C1272.64 236.226 1271.53 236.515 1269.54 235.525C1269.26 235.36 1268.96 235.183 1268.61 234.89C1268.53 234.815 1268.44 234.731 1268.34 234.615C1268.25 234.49 1268.13 234.378 1268.04 234.018C1267.99 233.844 1268 233.526 1268.16 233.272C1268.32 233.021 1268.52 232.915 1268.66 232.856C1268.93 232.746 1269.09 232.744 1269.25 232.733C1269.23 232.737 1269.49 232.66 1269.69 232.557C1269.9 232.453 1270.14 232.322 1270.38 232.173C1271.59 231.417 1272.65 230.562 1273.55 229.764C1275.73 227.692 1278.64 226.417 1280.88 227.092C1281.66 227.265 1282.33 227.114 1282.99 226.877C1284.33 226.422 1286.7 224.981 1289.08 223.245C1290.6 222.147 1292.11 220.992 1293.35 219.85C1294.64 218.631 1296.7 216.778 1297.02 214.633C1297.36 212.477 1296 209.881 1295.04 208.008C1294.62 207.212 1294.27 206.497 1293.98 205.92C1293.15 204.176 1292.91 203.166 1292.83 202.168C1292.81 201.664 1292.79 201.169 1292.99 200.451C1293.1 200.1 1293.29 199.632 1293.76 199.244C1294.23 198.853 1294.86 198.74 1295.37 198.781ZM1304.88 185.24C1305.56 185.66 1306.24 185.771 1307.1 186.221C1307.33 186.351 1307.55 186.485 1307.8 186.773C1308.04 187.04 1308.36 187.562 1308.29 188.267C1308 189.708 1307.17 189.962 1306.66 190.24C1306.19 190.438 1305.84 190.508 1305.52 190.563C1305.17 190.582 1304.86 190.618 1304.54 190.757C1304.23 190.881 1303.82 191.213 1303.75 191.601C1303.74 191.656 1303.74 191.698 1303.74 191.723C1303.75 191.984 1303.73 192.27 1303.62 192.617C1303.52 192.955 1303.24 193.367 1302.88 193.589C1302.15 194.021 1301.63 193.926 1301.21 193.905C1300.37 193.81 1299.76 193.608 1299.25 193.495C1299 193.437 1298.79 193.404 1298.61 193.397C1297.68 193.373 1297.72 192.772 1296.42 192.651C1295.14 192.562 1294.39 192.366 1293.4 192.317C1293.14 192.315 1292.73 192.365 1292.48 192.666C1292.21 192.963 1292.15 193.615 1292.23 194.229C1292.29 194.773 1292.35 195.292 1292.38 195.793C1292.38 196.042 1292.39 196.278 1292.34 196.535C1292.32 196.657 1292.28 196.808 1292.17 196.957C1292.06 197.117 1291.81 197.238 1291.63 197.243C1290.9 197.201 1290.72 196.881 1290.44 196.635C1290.18 196.373 1289.98 196.091 1289.81 195.813C1289.45 195.251 1289.2 194.705 1288.98 194.317C1288.84 194.075 1288.74 193.877 1288.68 193.715C1288.65 193.646 1288.66 193.597 1288.69 193.575C1288.69 193.575 1288.69 193.575 1288.69 193.575C1288.73 193.549 1288.8 193.565 1288.86 193.636C1289.13 193.971 1289.58 194.472 1290.18 194.963C1290.75 195.425 1291 195.715 1291.28 196.017C1291.35 196.093 1291.43 196.165 1291.5 196.225C1291.57 196.287 1291.68 196.329 1291.63 196.32C1291.61 196.312 1291.5 196.358 1291.49 196.383C1291.47 196.406 1291.49 196.373 1291.5 196.318C1291.53 196.202 1291.53 196.009 1291.51 195.79C1291.46 195.284 1291.34 194.816 1291.22 194.369C1291.08 193.732 1290.9 193.04 1291.32 192.129C1291.8 191.156 1292.97 190.851 1293.86 190.905C1296.24 191.151 1296.93 190.599 1299.73 191.637C1299.84 191.684 1299.96 191.731 1300.08 191.781C1300.85 192.104 1301.52 192.203 1301.78 192.103C1301.92 192.046 1301.82 192.042 1301.79 192.032C1301.77 192.012 1301.75 191.885 1301.69 191.723C1301.62 190.221 1302.32 189.003 1304.07 188.068C1304.25 187.978 1304.45 187.897 1304.65 187.829C1307.38 189.158 1302.48 186.3 1301.02 186.039C1300.7 185.945 1300.36 185.851 1299.99 185.751C1298.17 185.255 1296.07 184.449 1294.02 183.309C1292.67 182.548 1291.13 181.783 1289.61 180.688C1289.03 180.267 1288.45 179.84 1287.88 179.439C1287.6 179.238 1287.33 179.047 1287.07 178.872C1286.93 178.785 1286.81 178.705 1286.7 178.643C1286.6 178.577 1286.48 178.533 1286.54 178.535C1286.57 178.52 1286.72 178.608 1287.11 178.359C1287.28 178.24 1287.39 178.04 1287.42 177.942C1287.46 177.825 1287.45 177.778 1287.45 177.747C1287.43 177.664 1287.44 177.831 1287.47 177.97C1287.53 178.269 1287.66 178.643 1287.79 179.013C1288.07 179.767 1288.4 180.538 1288.73 181.299C1289.43 182.887 1290.17 184.831 1289.54 186.033C1289.1 186.994 1288.66 187.41 1288.32 187.884C1287.95 188.398 1287.51 188.931 1287.35 189.798C1287.16 190.679 1288.03 191.983 1288.56 193.161C1288.83 193.755 1288.61 193.732 1288.17 193.243C1287.53 192.526 1287.18 191.813 1286.78 191.406C1285.97 190.653 1285.78 189.392 1286.71 188.323C1287.07 187.901 1287.27 187.567 1287.41 187.249C1287.62 186.783 1287.66 186.384 1287.87 186.085C1288.03 185.838 1288.19 185.753 1288.34 185.4C1288.48 185.067 1288.51 184.4 1287.59 182.842C1287.45 182.588 1287.3 182.35 1287.16 182.11C1286.35 180.734 1285.73 179.717 1285.32 178.552C1285.27 178.391 1285.22 178.225 1285.19 178.027C1285.17 177.791 1285.08 177.583 1285.31 177.018C1285.42 176.742 1285.74 176.424 1286.05 176.306C1286.35 176.186 1286.6 176.188 1286.74 176.194C1287.07 176.218 1287.23 176.28 1287.38 176.328C1287.97 176.544 1288.26 176.733 1288.58 176.911C1289.24 177.299 1290.12 178.005 1291.06 178.787C1291.87 179.467 1292.91 180.138 1293.88 180.611C1295.51 181.437 1298.68 182.935 1300.68 183.42C1301.1 183.529 1301.46 183.618 1301.75 183.685C1303.61 184.121 1303.51 184.457 1304.88 185.24ZM1269.94 145.581C1271.51 147.206 1273.44 147.627 1275.55 149.367C1275.84 149.604 1276.09 149.814 1276.31 150.015C1277.8 151.361 1278.15 151.999 1280.27 153.904C1280.94 154.551 1281.58 155.2 1282.11 156.135C1282.23 156.385 1282.39 156.623 1282.43 157.18C1282.45 157.459 1282.3 158.019 1281.89 158.286C1281.53 158.531 1281.25 158.53 1281.06 158.538C1280.31 158.508 1279.98 158.319 1279.58 158.17C1279.1 157.966 1278.64 157.848 1278.42 157.864C1278.3 157.868 1278.31 157.905 1278.39 157.855C1278.47 157.801 1278.49 157.739 1278.51 157.767C1278.54 157.825 1278.56 158.029 1278.59 158.206C1278.61 158.383 1278.63 158.574 1278.66 158.78C1278.72 159.194 1278.85 159.713 1279.42 160.495C1280.59 162.044 1281.3 163 1282.3 164.435C1282.34 164.5 1282.39 164.57 1282.45 164.646C1283.57 166.245 1286.41 169.33 1287.8 171.582C1287.82 171.807 1287.74 172.06 1287.61 172.23C1286.96 172.908 1286.32 172.768 1285.77 172.746C1285.22 172.684 1284.7 172.527 1284.22 172.335C1283.27 171.951 1282.5 171.414 1281.96 170.983C1281.62 170.715 1281.39 170.455 1281.24 170.24C1281.17 170.148 1281.17 170.086 1281.2 170.061C1281.2 170.061 1281.2 170.061 1281.2 170.061C1281.23 170.031 1281.31 170.057 1281.41 170.149C1281.89 170.593 1282.77 171.088 1283.89 171.342C1284.74 171.528 1285.27 171.621 1285.78 171.699C1286.03 171.734 1286.29 171.762 1286.53 171.742C1286.66 171.732 1286.78 171.705 1286.85 171.667C1286.92 171.618 1286.91 171.648 1286.92 171.582C1286.92 171.71 1286.94 171.69 1286.93 171.693C1286.93 171.688 1286.93 171.678 1286.92 171.663C1286.9 171.634 1286.87 171.593 1286.85 171.558C1286.8 171.477 1286.74 171.397 1286.67 171.306C1286.54 171.129 1286.38 170.939 1286.2 170.735C1284.49 168.787 1283.17 167.683 1281.41 165.566C1281.17 165.274 1280.93 164.97 1280.67 164.633C1279.61 163.203 1278.83 162.438 1278 161.399C1277.59 160.877 1277.17 160.296 1276.79 159.421C1276.62 158.964 1276.39 158.484 1276.46 157.587C1276.49 157.161 1276.84 156.385 1277.48 156.134C1278.07 155.883 1278.53 155.961 1278.92 156.038C1279.46 156.162 1279.85 156.334 1280.22 156.498C1280.43 156.594 1280.6 156.664 1280.77 156.71C1280.91 156.761 1281.09 156.752 1280.99 156.767C1280.93 156.767 1280.7 156.92 1280.66 157.095C1280.61 157.249 1280.64 157.272 1280.63 157.258C1280.62 157.22 1280.56 157.104 1280.48 156.992C1280.17 156.538 1279.71 156.139 1279.25 155.775C1278.31 155.04 1277.24 154.327 1275.49 153.03C1275.2 152.814 1274.89 152.591 1274.58 152.365C1270.71 149.603 1266.74 145.606 1264.81 143.586C1263.63 142.39 1262.26 140.906 1260.93 139.155C1260.5 138.596 1260 138.052 1259.45 137.59C1259.18 137.362 1258.89 137.153 1258.63 137.005C1258.5 136.931 1258.37 136.875 1258.28 136.848C1258.2 136.815 1258.17 136.848 1258.34 136.798C1258.5 136.753 1258.76 136.55 1258.86 136.346C1258.96 136.137 1258.94 136.031 1258.94 135.986C1259.63 137.909 1262.89 141.464 1265.27 144.191C1265.91 144.912 1266.51 145.646 1267.07 146.383C1269.94 150.107 1273.55 155.642 1274.95 158.375C1275.47 159.363 1275.83 160.107 1276.12 160.762C1276.63 161.883 1277.09 162.745 1278.03 164.326C1278.9 165.756 1279.98 167.786 1280.91 169.491C1281.41 170.322 1281.15 170.287 1280.48 169.515C1279.55 168.378 1279.02 167.306 1278.46 166.766C1277.36 165.679 1276.9 165.19 1276.22 163.41C1275.85 162.432 1275.42 161.824 1275.04 161.304C1274.74 160.901 1274.45 160.567 1274.23 160.134C1273.73 159.198 1274.14 158.967 1270.79 154.568C1267.38 150.216 1265.36 147.973 1263.95 146.444C1263.8 146.272 1263.61 146.068 1263.42 145.853C1261.88 144.111 1259.51 141.141 1257.68 138.516C1257.46 138.201 1257.24 137.847 1257.01 137.408C1256.89 137.176 1256.78 136.942 1256.67 136.592C1256.63 136.418 1256.57 136.207 1256.59 135.85C1256.61 135.654 1256.65 135.407 1256.83 135.126C1257.01 134.841 1257.33 134.628 1257.59 134.546C1258.64 134.272 1259.15 134.617 1259.64 134.82C1260.12 135.058 1260.52 135.339 1260.9 135.641C1261.66 136.247 1262.31 136.945 1262.88 137.691C1264.22 139.472 1265.65 141.016 1266.58 141.864C1268.62 143.698 1268.39 143.939 1269.94 145.581Z" fill="#BC5215"/>
</g>
</svg>
