<svg width="1603" height="742" viewBox="0 0 1603 742" fill="none" xmlns="http://www.w3.org/2000/svg">
<g style="mix-blend-mode:multiply">
<path d="M1391.4 528.4C1391.4 531.443 1395.24 537.464 1401.65 544.482C1411.24 554.975 1415.52 557.932 1415.52 554.066C1415.52 553.167 1412.78 549.803 1409.42 546.59C1406.07 543.377 1401.06 536.876 1398.28 532.143C1392.48 522.244 1391.4 521.655 1391.4 528.4Z" fill="#205EA6"/>
<path d="M1519.4 542.148C1517.9 543.075 1517.4 545.01 1518.28 546.447C1519.33 548.139 1520.63 547.881 1521.97 545.716C1524.46 541.675 1523.14 539.835 1519.4 542.148Z" fill="#205EA6"/>
<path d="M1460.4 511.346C1453.46 508.184 1450.34 510.424 1452.8 516.816C1454.66 521.676 1456.51 521.817 1462.35 517.547C1466.52 514.494 1466.39 514.076 1460.4 511.346Z" fill="#205EA6"/>
<path d="M1475.07 501.114C1467.24 500.146 1463.83 502.575 1468.75 505.617C1470.81 506.889 1474.16 506.576 1476.96 504.85C1481.34 502.149 1481.2 501.873 1475.07 501.114Z" fill="#205EA6"/>
<path d="M1431.68 494.246C1427.41 485.69 1425.97 489.104 1430.09 497.993C1431.48 500.969 1433.29 503.411 1434.11 503.42C1436.2 503.441 1436.12 503.15 1431.68 494.246Z" fill="#205EA6"/>
<path d="M1438.85 493.929C1438.18 493.261 1437.7 494.448 1437.79 496.567C1437.89 498.909 1438.36 499.385 1439.01 497.782C1439.59 496.33 1439.51 494.597 1438.85 493.929Z" fill="#205EA6"/>
<path d="M1534.79 466.422C1518.19 463.183 1511.45 469.064 1518.56 480.57C1522.4 486.79 1527.35 486.387 1536.09 479.143C1547.06 470.051 1546.93 468.791 1534.79 466.422Z" fill="#205EA6"/>
<path d="M1523.95 424.85C1521.18 426.568 1518.9 428.975 1518.9 430.201C1518.9 431.426 1521.18 432.429 1523.95 432.429C1526.73 432.429 1529.01 430.021 1529.01 427.078C1529.01 424.135 1526.73 423.133 1523.95 424.85Z" fill="#205EA6"/>
<path d="M1457.78 401.796C1455.95 402.926 1454.46 404.511 1454.46 405.317C1454.46 406.123 1455.95 406.783 1457.78 406.783C1459.61 406.783 1461.11 405.199 1461.11 403.262C1461.11 401.326 1459.61 400.666 1457.78 401.796Z" fill="#205EA6"/>
<path d="M1520.24 384.6C1517.75 384.6 1516.9 386.525 1518.35 388.877C1519.81 391.228 1521.85 393.153 1522.88 393.153C1523.92 393.153 1524.77 391.228 1524.77 388.877C1524.77 386.525 1522.73 384.6 1520.24 384.6Z" fill="#205EA6"/>
<path d="M1483.89 344.867C1482.86 344.867 1482.01 346.792 1482.01 349.143C1482.01 351.495 1484.05 353.419 1486.54 353.419C1489.03 353.419 1489.88 351.495 1488.42 349.143C1486.97 346.792 1484.93 344.867 1483.89 344.867Z" fill="#205EA6"/>
<path d="M1405.57 540.892C1406.55 542.41 1408.12 542.921 1409.48 544.544C1409.85 544.975 1410.12 545.323 1410.35 545.627C1411.03 546.536 1411.35 547.165 1412.69 548.489C1414.48 550.41 1415.86 552.002 1416.49 554.066C1416.49 554.091 1416.5 554.116 1416.5 554.14C1416.57 554.818 1416.42 555.299 1415.96 555.813C1415.74 556.064 1415.34 556.327 1414.89 556.384C1414.44 556.445 1414.02 556.356 1413.55 556.227C1411.8 555.617 1411.12 554.84 1410.14 553.816C1409.15 552.786 1406.19 549.664 1404.96 548.693C1403.7 547.728 1402.78 546.151 1402.13 545.298C1401.93 545.035 1401.78 544.812 1401.67 544.633C1401.63 544.557 1401.63 544.502 1401.66 544.477C1401.66 544.477 1401.66 544.477 1401.66 544.477C1401.69 544.446 1401.77 544.461 1401.84 544.539C1402.23 544.916 1402.82 545.449 1403.58 546.014C1405 547.072 1404.87 547.456 1406.63 549.022C1408.41 550.571 1409.6 551.34 1411.56 553.223C1412.42 554.028 1413.17 554.394 1413.87 554.587C1414.19 554.69 1414.62 554.659 1414.48 554.627C1414.39 554.63 1414.3 554.767 1414.35 554.668C1414.39 554.582 1414.44 554.357 1414.46 554.066C1414.49 554.271 1414.49 554.083 1414.44 553.965C1414.39 553.828 1414.32 553.659 1414.24 553.477C1412.47 550.175 1411.34 550.444 1408.6 547.853C1408.53 547.791 1408.46 547.728 1408.39 547.665C1405.41 544.905 1402.88 540.804 1401.47 538.958C1400.24 537.343 1398.65 535.245 1397.24 532.754C1396.99 532.318 1396.77 531.918 1396.53 531.472C1395.73 530.022 1394.74 528.449 1393.67 526.946C1393.15 526.23 1392.5 525.39 1392.11 525.114C1392.08 525.092 1392.06 525.095 1392.14 525.118C1392.21 525.143 1392.46 525.158 1392.65 525.054C1393.02 524.812 1392.88 524.802 1392.85 524.924C1392.76 525.161 1392.68 525.598 1392.61 526.01C1392.51 526.714 1392.45 527.546 1392.4 528.4C1392.39 531.085 1394.54 534.476 1395.42 536.044C1396.64 538.097 1396.98 538.59 1398.51 540.311C1399.4 541.297 1400.55 542.719 1401.41 544.019C1401.85 544.676 1401.61 544.655 1401.02 544.125C1400.17 543.348 1399.6 542.583 1399.06 542.266C1397.99 541.627 1397.53 541.331 1396.78 540.006C1396.03 538.678 1395.18 538.429 1394.71 537.673C1394.29 536.88 1394.39 536.866 1391.95 533.019C1391.03 531.409 1390.36 529.983 1390.28 528.4C1390.24 526.533 1390.12 525.356 1390.62 523.86C1390.69 523.703 1390.79 523.486 1391.01 523.238C1391.21 522.992 1391.68 522.671 1392.2 522.651C1393.22 522.663 1393.52 523.089 1393.85 523.333C1394.45 523.892 1394.85 524.476 1395.28 525.1C1396.12 526.34 1396.9 527.694 1397.66 528.848C1398.12 529.549 1398.71 530.501 1399.32 531.535C1400.65 533.785 1402.45 536.327 1403.44 537.485C1404.89 539.154 1404.61 539.368 1405.57 540.892ZM1524.12 543.005C1523.84 543.437 1524.57 544.056 1524.23 544.574C1523.89 545.063 1523.44 544.919 1523.25 545.507C1523.15 545.793 1522.95 546.022 1522.78 546.22C1522.6 546.431 1522.44 546.597 1522.44 546.774C1522.42 547.121 1521.95 546.793 1521.79 547.178C1521.61 547.567 1521.33 547.716 1520.91 547.774C1520.69 547.8 1520.3 547.927 1519.87 547.915C1519.44 547.912 1519.06 547.74 1518.82 547.713C1518.28 547.637 1518.28 546.975 1518.23 546.732C1518.21 546.65 1518.22 546.579 1518.23 546.516C1518.23 546.49 1518.26 546.463 1518.29 546.443C1518.29 546.443 1518.29 546.443 1518.29 546.443C1518.33 546.419 1518.38 546.407 1518.39 546.424C1518.48 546.506 1518.64 546.614 1518.89 546.649C1519.12 546.677 1519.17 546.734 1519.22 546.817C1519.27 546.895 1519.35 547.014 1519.53 547.002C1519.72 546.983 1519.8 546.853 1519.87 546.764C1519.95 546.67 1520.02 546.615 1520.26 546.569C1520.5 546.515 1520.51 546.27 1520.53 546.056C1520.55 545.833 1520.6 545.634 1521.02 545.449C1521.13 545.399 1521.21 545.346 1521.27 545.285C1521.69 544.863 1521.18 544.366 1521.36 543.745C1521.57 543.053 1522.19 542.331 1522.09 542.217C1522.04 542.149 1522.06 542.303 1522.14 542.352C1522.21 542.392 1522.08 542.34 1521.83 542.33C1521.32 542.3 1520.71 542.903 1520 543.128C1519.99 543.13 1519.98 543.133 1519.97 543.135C1519.38 543.207 1518.64 543.856 1518.39 544.29C1518.12 544.701 1518.08 544.869 1518.24 545.304C1518.34 545.554 1518.38 545.882 1518.34 546.284C1518.33 546.486 1518.17 546.551 1518.01 546.423C1517.77 546.23 1517.77 545.983 1517.53 545.901C1517.05 545.725 1516.85 545.553 1517.06 545.114C1517.27 544.703 1516.76 544.477 1516.86 544.216C1517 543.973 1517.16 544.037 1517.51 542.827C1517.84 541.898 1518.38 541.408 1518.75 541.107C1518.85 541.026 1518.94 540.958 1519.02 540.897C1519.35 540.631 1520.24 540.462 1520.94 540.161C1521.29 540.018 1521.89 539.818 1522.76 540.004C1523.18 540.097 1523.67 540.378 1523.96 540.734C1524.26 541.085 1524.39 541.429 1524.49 541.645C1524.8 542.531 1524.37 542.522 1524.12 543.005ZM1466.05 515.201C1465.35 516.295 1465.34 517.22 1464.43 517.842C1463.8 518.222 1463.43 518.184 1462.96 518.388C1462.74 518.483 1462.53 518.613 1462.25 518.852C1461.36 519.618 1460.18 519.979 1459.81 520.405C1459.44 520.833 1459.12 520.36 1458.47 520.795C1457.81 521.219 1457.27 521.318 1456.5 521.189C1456.13 521.129 1455.33 520.983 1454.74 520.517C1454.14 520.072 1453.74 519.492 1453.44 519.237C1452.83 518.709 1452.86 517.76 1452.77 517.279C1452.74 517.13 1452.73 517.003 1452.74 516.901C1452.74 516.858 1452.77 516.827 1452.8 516.814C1452.8 516.814 1452.8 516.814 1452.8 516.814C1452.85 516.797 1452.9 516.807 1452.92 516.852C1453.04 517.067 1453.24 517.371 1453.56 517.68C1454.17 518.225 1453.88 518.497 1454.59 519.196C1454.95 519.515 1455.3 519.637 1455.6 519.693C1455.9 519.745 1456.17 519.775 1456.67 519.805C1457.78 519.762 1457.65 518.864 1459.33 518.458C1460.79 518.037 1460.75 517.307 1461.53 516.428C1461.67 516.272 1461.81 516.124 1462 515.958C1462.63 515.416 1463.52 514.842 1463.86 514.525C1463.94 514.457 1463.95 514.444 1463.96 514.538C1463.97 514.635 1464.05 514.742 1464.06 514.713C1464.08 514.655 1463.88 514.433 1463.71 514.33C1463 513.863 1461.65 513.341 1460.35 512.611C1460.22 512.536 1460.07 512.462 1459.92 512.388C1458.7 511.788 1457.17 511.459 1455.92 511.113C1455.23 510.914 1454.36 510.807 1453.73 511.022C1453.09 511.209 1452.69 511.811 1452.52 512.265C1452.19 513.196 1452.2 513.517 1452.48 514.485C1452.65 515.04 1452.82 515.821 1452.84 516.553C1452.85 516.927 1452.67 516.913 1452.47 516.599C1452.19 516.148 1452.13 515.707 1451.86 515.492C1451.33 515.069 1451.1 514.83 1451.23 514.064C1451.38 513.315 1450.85 512.97 1450.96 512.474C1451.02 512.244 1451.12 512.128 1451.27 511.787C1451.44 511.473 1451.5 510.766 1452.51 509.796C1453.58 508.892 1454.63 508.829 1455.34 508.771C1456.07 508.736 1456.6 508.803 1457.02 508.855C1457.89 508.952 1459.41 509.74 1460.61 510.18C1460.7 510.21 1460.79 510.244 1460.88 510.282C1462.11 510.767 1464.12 511.747 1465.15 512.329C1465.72 512.639 1466 513.005 1466.16 513.436C1466.3 513.844 1466.4 514.511 1466.05 515.201ZM1479.55 500.935C1479.73 501.049 1479.93 501.103 1480.2 501.197C1480.42 501.29 1480.96 501.452 1481.17 502.249C1481.31 503.019 1481.04 503.44 1480.9 503.733C1480.73 504.03 1480.56 504.222 1480.34 504.373C1479.47 504.895 1479.13 504.534 1478.36 505.16C1478.08 505.38 1477.78 505.547 1477.48 505.695C1476.93 505.977 1476.42 506.129 1476.2 506.364C1475.85 506.729 1475.59 506.218 1475.03 506.552C1474.46 506.88 1474.04 506.906 1473.46 506.824C1472.87 506.779 1471.21 506.682 1470.55 506.757C1469.87 506.885 1469.27 506.243 1468.96 505.964C1468.86 505.878 1468.79 505.791 1468.75 505.715C1468.73 505.682 1468.74 505.642 1468.76 505.611C1468.76 505.611 1468.76 505.611 1468.76 505.611C1468.78 505.572 1468.82 505.545 1468.86 505.561C1469.04 505.637 1469.34 505.709 1469.71 505.668C1470.38 505.562 1470.35 505.926 1471.2 505.865C1472.05 505.762 1472.49 505.418 1473.46 505.439C1474.48 505.403 1474.39 504.554 1475.79 504.426C1476.12 504.383 1476.36 504.289 1476.54 504.168C1477.18 503.737 1477.22 503.073 1478.01 502.41C1478.26 502.201 1478.55 501.98 1478.66 501.898C1478.68 501.886 1478.68 501.883 1478.65 501.961C1478.63 502.025 1478.53 502.243 1478.59 502.578C1478.66 502.915 1478.87 503.109 1478.93 503.147C1479.01 503.199 1479.02 503.179 1479.01 503.159C1478.92 503.054 1478.59 502.904 1478.33 502.809C1478.06 502.71 1477.79 502.639 1477.58 502.615C1476.87 502.531 1475.94 502.488 1474.92 502.318C1474.72 502.284 1474.52 502.248 1474.33 502.207C1473.12 501.96 1471.63 502.194 1470.35 502.101C1469.07 501.956 1467.19 502.267 1466.97 502.775C1466.68 503.27 1466.87 503.68 1467.45 504.159C1467.82 504.451 1468.3 504.894 1468.66 505.4C1468.85 505.659 1468.71 505.765 1468.41 505.665C1467.98 505.524 1467.72 505.238 1467.41 505.246C1466.79 505.254 1466.47 505.205 1466.23 504.506C1466.03 503.833 1465.38 503.626 1465.42 502.961C1465.47 502.655 1465.57 502.496 1465.79 502.131C1466.02 501.773 1466.45 501.245 1467.32 500.723C1469.09 499.769 1470.09 499.788 1470.77 499.657C1471.45 499.552 1472.85 499.841 1473.91 499.838C1474.26 499.834 1474.72 499.866 1475.22 499.92C1476.23 500.028 1477.37 500.189 1477.98 500.182C1478.89 500.18 1478.83 500.515 1479.55 500.935ZM1433.94 496.709C1434.09 497.468 1435.14 497.599 1435.42 498.483C1435.7 499.371 1435.34 499.677 1435.85 500.621C1436.1 501.099 1436.26 501.641 1436.34 502.209C1436.37 502.504 1436.41 502.821 1436.29 503.252C1436.18 503.713 1435.74 504.08 1435.52 504.208C1434.71 504.659 1434.67 504.07 1434.11 504.12C1434 504.122 1433.89 504.109 1433.79 504.092C1432.68 503.763 1432.6 503.324 1432.3 502.752C1432.03 502.174 1431.2 500.616 1430.69 500.159C1430.16 499.706 1430.18 498.855 1430.08 498.42C1430.04 498.283 1430.03 498.169 1430.04 498.076C1430.04 498.037 1430.07 498.006 1430.1 497.991C1430.1 497.991 1430.1 497.991 1430.1 497.991C1430.14 497.971 1430.19 497.975 1430.22 498.013C1430.34 498.196 1430.54 498.457 1430.86 498.717C1431.47 499.194 1431.19 499.43 1431.81 500.164C1432.45 500.882 1433.01 501.172 1433.52 502.076C1433.66 502.322 1433.84 502.456 1434.01 502.51C1434.14 502.568 1434.4 502.519 1434.13 502.412C1434.3 502.361 1434.5 502.322 1434.64 502.309C1434.71 502.306 1434.75 502.292 1434.68 502.35C1434.6 502.385 1434.42 502.709 1434.5 502.76C1434.56 502.812 1434.6 502.667 1434.59 502.552C1434.59 502.437 1434.56 502.315 1434.52 502.204C1434.43 501.991 1434.29 501.815 1434.13 501.659C1433.81 501.339 1433.41 501.057 1433.03 500.379C1432.27 499.023 1431.82 496.989 1431.35 496.152C1431.14 495.755 1430.87 495.307 1430.6 494.788C1430.29 494.217 1429.99 493.637 1429.69 492.994C1429.42 492.396 1429.01 491.796 1428.56 491.253C1428.35 490.994 1428.1 490.726 1427.93 490.566C1427.85 490.488 1427.75 490.436 1427.86 490.47C1427.91 490.479 1428.08 490.533 1428.34 490.44C1428.6 490.348 1428.75 490.135 1428.76 490.069C1428.81 489.912 1428.72 490.016 1428.7 490.135C1428.66 490.262 1428.64 490.43 1428.63 490.614C1428.61 490.991 1428.62 491.385 1428.66 491.798C1428.72 492.595 1428.86 493.377 1428.92 493.85C1429.07 494.823 1429.12 495.072 1429.57 495.896C1429.84 496.381 1430.07 497.074 1430.13 497.747C1430.16 498.091 1429.98 498.093 1429.77 497.829C1429.47 497.447 1429.38 497.062 1429.1 496.918C1428.54 496.641 1428.3 496.486 1428.29 495.827C1428.29 495.16 1427.68 495.071 1427.62 494.707C1427.57 494.332 1427.82 494.269 1427.09 492.52C1426.74 491.616 1426.53 490.901 1426.48 490.136C1426.49 489.755 1426.42 489.378 1426.82 488.731C1427.03 488.402 1427.55 488.075 1428 488.064C1428.19 488.05 1428.37 488.072 1428.52 488.106C1428.65 488.138 1428.75 488.172 1428.85 488.213C1430.21 488.893 1430.62 490.294 1431.35 491.231C1431.78 491.81 1432.31 492.816 1432.77 493.701C1433.07 494.267 1433.34 494.757 1433.56 495.05C1434.12 495.8 1433.8 495.96 1433.94 496.709ZM1440.27 496.617C1440.03 496.855 1440.86 497.252 1440.63 497.598C1440.43 497.904 1440.02 497.837 1439.92 498.148C1439.91 498.173 1439.91 498.201 1439.9 498.231C1439.85 498.643 1439.38 498.864 1439.31 499.22C1439.28 499.403 1439.1 499.432 1438.91 499.429C1438.8 499.431 1438.69 499.43 1438.53 499.433C1438.37 499.436 1438.13 499.419 1437.9 499.328C1437.47 499.125 1437.44 498.951 1437.39 498.811C1437.35 498.674 1437.38 498.539 1437.44 498.405C1437.54 498.12 1437.62 497.523 1437.37 497.327C1437.12 497.127 1437.51 496.848 1437.6 496.702C1437.63 496.655 1437.66 496.617 1437.71 496.588C1437.72 496.575 1437.76 496.568 1437.8 496.567C1437.8 496.567 1437.8 496.567 1437.8 496.567C1437.84 496.565 1437.89 496.571 1437.9 496.586C1437.93 496.658 1438.01 496.758 1438.18 496.873C1438.51 497.078 1438.16 497.131 1438.36 497.416C1438.55 497.692 1438.89 497.811 1438.76 498.09C1438.73 498.156 1438.76 498.186 1438.8 498.158C1438.82 498.132 1438.89 498.034 1438.72 497.851C1438.63 497.765 1438.44 497.675 1438.26 497.672C1438.07 497.666 1437.93 497.72 1437.86 497.762C1437.72 497.851 1437.76 497.902 1437.89 497.919C1438.3 497.913 1438.07 497.591 1437.88 497.331C1437.8 497.215 1437.72 497.097 1437.72 496.975C1437.73 496.596 1438.29 496.17 1438.25 495.904C1438.22 495.652 1438.1 495.348 1438.15 495.062C1438.18 494.871 1437.99 494.743 1437.99 494.787C1437.99 494.793 1438.02 494.837 1438.17 494.892C1438.31 494.955 1438.68 494.942 1438.85 494.799C1439.09 494.605 1439.02 494.503 1438.96 494.514C1438.89 494.518 1438.8 494.59 1438.72 494.672C1438.55 494.842 1438.4 495.065 1438.3 495.202C1438.09 495.484 1438.04 495.57 1438.15 495.871C1438.21 496.046 1438.15 496.279 1437.92 496.494C1437.81 496.603 1437.64 496.587 1437.56 496.482C1437.44 496.329 1437.52 496.198 1437.31 496.115C1436.9 495.95 1436.75 495.865 1436.99 495.654C1437.24 495.449 1436.71 495.312 1436.78 495.18C1436.87 495.043 1437.14 495.116 1437.04 494.366C1437.02 493.973 1437.04 493.618 1437.28 493.21C1437.4 493.01 1437.6 492.781 1437.92 492.633C1438.23 492.481 1438.61 492.468 1438.85 492.515C1439.25 492.583 1439.55 492.84 1439.72 493.058C1440.02 493.439 1440.13 493.869 1440.3 494.163C1440.61 494.66 1440.58 495.621 1440.72 495.995C1440.86 496.383 1440.5 496.363 1440.27 496.617ZM1545.04 470.375C1544.59 472.711 1544.01 474.019 1542.48 475.514C1540.87 476.883 1540.35 476.704 1538.64 478.312C1538.02 478.885 1537.36 479.415 1536.72 479.907C1535.63 480.744 1534.63 481.401 1534.17 481.888C1533.43 482.66 1533.02 482.26 1531.83 483.172C1530.62 484.07 1529.75 484.447 1528.45 484.768C1527.8 484.92 1526.48 485.3 1525.08 485.293C1523.68 485.32 1522.32 484.8 1521.62 484.494C1520.13 483.895 1519.31 482.24 1518.86 481.39C1518.7 481.114 1518.61 480.897 1518.55 480.714C1518.52 480.637 1518.53 480.586 1518.56 480.566C1518.56 480.566 1518.56 480.566 1518.56 480.566C1518.6 480.542 1518.67 480.567 1518.73 480.649C1519.01 481.038 1519.48 481.61 1520.15 482.129C1521.42 482.993 1521.27 483.524 1523.18 484.152C1525.15 484.531 1526.25 483.98 1528.53 483.261C1530.83 482.37 1530.85 481.355 1533.94 479.654C1534.63 479.26 1535.15 478.888 1535.58 478.527C1537.02 477.291 1537.34 476.321 1539.29 474.442C1540.5 473.246 1542.11 471.847 1542.69 470.766C1542.82 470.513 1542.83 470.397 1542.84 470.339C1542.85 470.275 1542.77 470.106 1542.57 469.934C1542.18 469.583 1541.58 469.311 1541.12 469.151C1539.49 468.586 1537.1 468.163 1534.56 467.605C1534.18 467.523 1533.8 467.441 1533.43 467.36C1530.49 466.725 1526.79 466.647 1523.63 466.866C1522.06 466.966 1520.14 467.335 1518.71 468.239C1517.25 469.114 1516.52 470.586 1516.3 471.591C1515.93 473.618 1516.07 474.245 1516.79 476.167C1517.23 477.271 1517.9 478.773 1518.43 480.1C1518.7 480.779 1518.47 480.727 1518.03 480.14C1517.4 479.293 1517.08 478.469 1516.66 478.052C1515.84 477.214 1515.48 476.788 1515.32 475.327C1515.21 473.881 1514.64 473.244 1514.72 472.322C1514.77 471.866 1514.87 471.661 1515.06 470.994C1515.29 470.376 1515.45 469.109 1517.06 467.404C1520.59 464.342 1523.3 464.634 1524.82 464.328C1526.45 464.125 1529.76 464.532 1532.28 464.827C1533.02 464.905 1533.97 465.046 1535.02 465.243C1537.5 465.703 1540.43 466.364 1541.97 466.834C1543.04 467.149 1543.61 467.523 1544.05 467.974C1544.44 468.429 1545.05 469.008 1545.04 470.375ZM1529.73 428.72C1529.35 429.346 1529.94 430.271 1529.26 431.062C1528.57 431.789 1528.15 431.568 1527.4 432.298C1526.58 433.039 1525.42 433.05 1525.01 433.309C1524.6 433.558 1524.46 433.091 1523.95 433.13C1523.92 433.132 1523.87 433.137 1523.83 433.147C1523.23 433.266 1522.86 433.16 1522.37 432.904C1521.86 432.672 1520.42 432.134 1519.8 432.003C1519.13 431.924 1518.76 431.026 1518.77 430.581C1518.75 430.44 1518.78 430.327 1518.82 430.248C1518.83 430.215 1518.87 430.201 1518.91 430.201C1518.91 430.201 1518.91 430.201 1518.91 430.201C1518.96 430.201 1519 430.221 1519.01 430.254C1519.04 430.421 1519.21 430.645 1519.51 430.734C1520.06 430.85 1519.9 431.165 1520.66 431.346C1521.44 431.48 1521.93 431.268 1522.79 431.588C1523.28 431.756 1523.59 431.55 1523.95 431.421C1524.22 431.312 1524.48 431.256 1525 431.337C1526.26 431.411 1526 430.472 1526.55 429.725C1527.12 428.964 1527.94 427.793 1527.86 427.081C1527.86 427.08 1527.86 427.079 1527.86 427.078C1527.83 426.392 1527.54 425.68 1527.18 425.353C1526.76 424.915 1525.67 425.357 1524.66 425.754C1524.62 425.768 1524.58 425.783 1524.54 425.799C1523.4 426.242 1521.93 427.09 1521.25 427.521C1520.53 427.963 1520.35 428.096 1519.95 428.778C1519.74 429.18 1519.36 429.612 1519.05 430.046C1518.91 430.273 1518.73 430.262 1518.71 429.917C1518.7 429.428 1518.96 429.153 1518.89 428.856C1518.78 428.257 1518.8 427.968 1519.34 427.682C1519.89 427.412 1519.68 426.861 1519.95 426.668C1520.24 426.49 1520.41 426.687 1521.51 425.467C1522.26 424.666 1522.86 424.179 1523.32 423.828C1523.58 423.637 1523.8 423.493 1524.01 423.37C1524.61 423.005 1526.18 422.672 1527.59 423.016C1528.29 423.131 1529.33 423.879 1529.75 424.811C1530.2 425.728 1530.24 426.593 1530.33 427.077C1530.33 427.077 1530.33 427.078 1530.33 427.078C1530.46 428.058 1530.08 428.049 1529.73 428.72ZM1461.89 404.423C1461.57 404.839 1462.22 405.602 1461.69 406.172C1461.15 406.688 1460.76 406.431 1460.25 406.974C1459.67 407.531 1458.82 407.454 1458.54 407.691C1458.25 407.92 1458.13 407.449 1457.78 407.484C1457.75 407.486 1457.73 407.492 1457.7 407.501C1457.29 407.624 1457.03 407.527 1456.71 407.294C1456.37 407.074 1455.44 406.668 1454.97 406.642C1454.47 406.649 1454.27 405.905 1454.3 405.588C1454.3 405.485 1454.33 405.404 1454.37 405.35C1454.39 405.326 1454.43 405.317 1454.46 405.317C1454.46 405.317 1454.46 405.317 1454.46 405.317C1454.51 405.317 1454.55 405.33 1454.56 405.35C1454.59 405.452 1454.72 405.582 1454.95 405.585C1455.36 405.552 1455.17 405.851 1455.68 405.913C1456.19 405.941 1456.51 405.689 1457.04 405.966C1457.35 406.115 1457.55 405.906 1457.78 405.776C1457.93 405.667 1458.06 405.616 1458.38 405.754C1458.77 405.898 1458.93 405.685 1458.97 405.442C1459.02 405.192 1458.98 404.903 1459.11 404.671C1459.35 404.259 1460.02 403.694 1459.96 403.264C1459.96 403.263 1459.96 403.263 1459.96 403.262C1459.94 403.072 1459.88 402.872 1459.81 402.736C1459.74 402.593 1459.71 402.551 1459.69 402.467C1459.63 402.26 1459.09 402.558 1458.44 402.726C1458.42 402.732 1458.39 402.738 1458.37 402.745C1457.6 402.961 1456.6 403.436 1456.11 403.671C1455.61 403.91 1455.47 403.993 1455.25 404.455C1455.12 404.73 1454.88 404.974 1454.6 405.222C1454.47 405.356 1454.29 405.366 1454.25 405.115C1454.21 404.762 1454.41 404.586 1454.31 404.349C1454.13 403.871 1454.11 403.632 1454.54 403.485C1454.96 403.351 1454.69 402.86 1454.9 402.741C1455.11 402.633 1455.29 402.843 1455.98 401.961C1456.45 401.38 1456.85 401.027 1457.15 400.774C1457.33 400.632 1457.48 400.525 1457.63 400.432C1458.05 400.158 1459.2 399.975 1460.28 400.212C1460.83 400.287 1461.65 400.881 1461.97 401.589C1462.31 402.287 1462.34 402.912 1462.43 403.261C1462.43 403.262 1462.43 403.262 1462.43 403.262C1462.57 403.974 1462.2 403.963 1461.89 404.423ZM1525.67 389.613C1525.43 390.169 1526.25 390.772 1525.91 391.54C1525.54 392.291 1525.13 392.207 1524.69 393.091C1524.42 393.601 1523.69 394.149 1522.88 394.09C1522.35 394.043 1522.11 393.893 1521.89 393.894C1521.39 393.865 1521.65 393.341 1521.15 393.147C1520.65 392.934 1520.46 392.658 1520.27 392.22C1520.07 391.786 1519.34 390.712 1518.88 390.465C1518.41 390.222 1518.42 389.535 1518.33 389.216C1518.3 389.115 1518.3 389.027 1518.3 388.953C1518.3 388.922 1518.33 388.892 1518.36 388.873C1518.36 388.873 1518.36 388.873 1518.36 388.873C1518.4 388.849 1518.45 388.84 1518.47 388.865C1518.58 388.983 1518.77 389.142 1519.06 389.273C1519.6 389.51 1519.35 389.759 1519.9 390.199C1520.46 390.629 1520.95 390.707 1521.36 391.382C1521.78 392.029 1522.53 391.568 1522.86 392.203C1522.88 392.243 1522.89 392.271 1522.88 392.293C1522.89 392.449 1523.04 392.227 1522.98 391.995C1522.95 391.751 1522.85 391.492 1522.94 391.113C1523.08 390.471 1523.49 389.564 1523.59 388.877C1523.62 388.731 1523.62 388.6 1523.6 388.497C1523.49 387.996 1523.17 387.428 1522.75 386.824C1522.31 386.179 1521.34 386.018 1520.56 385.754C1520.46 385.718 1520.36 385.686 1520.24 385.658C1519.4 385.423 1518.54 385.65 1518.24 386.082C1517.89 386.542 1517.86 386.802 1518.09 387.371C1518.23 387.703 1518.36 388.173 1518.39 388.68C1518.41 388.936 1518.24 388.984 1518.05 388.813C1517.78 388.56 1517.72 388.255 1517.47 388.153C1516.95 387.936 1516.72 387.753 1516.87 387.164C1517.05 386.609 1516.56 386.295 1516.71 385.906C1516.79 385.725 1516.91 385.66 1517.08 385.426C1517.26 385.209 1517.47 384.746 1518.21 384.171C1519.02 383.595 1519.73 383.5 1520.24 383.436C1520.7 383.388 1521.07 383.409 1521.37 383.436C1522.02 383.477 1523.16 384.199 1523.97 384.792C1524.91 385.31 1525.88 387.286 1526.05 388.169C1526.15 388.493 1526.14 388.709 1526.09 388.877C1526.01 389.115 1525.82 389.253 1525.67 389.613ZM1490.06 351.255C1489.96 351.616 1490.09 351.951 1490.13 352.401C1490.17 352.837 1490.08 353.413 1489.61 353.79C1488.64 354.455 1488.3 354.03 1487.39 354.351C1487.1 354.434 1486.81 354.445 1486.54 354.423C1485.94 354.376 1485.47 354.171 1485.17 354.233C1484.72 354.31 1484.85 353.754 1484.31 353.663C1483.75 353.55 1483.48 353.284 1483.23 352.847C1482.94 352.426 1482.25 351.278 1481.89 350.867C1481.46 350.459 1481.74 349.75 1481.82 349.431C1481.84 349.325 1481.88 349.243 1481.92 349.181C1481.94 349.155 1481.98 349.143 1482.01 349.143C1482.01 349.143 1482.01 349.143 1482.01 349.143C1482.06 349.144 1482.11 349.161 1482.11 349.193C1482.14 349.346 1482.23 349.577 1482.44 349.797C1482.84 350.177 1482.51 350.328 1482.94 350.83C1483.4 351.299 1483.83 351.325 1484.23 351.898C1484.73 352.468 1485.17 351.769 1485.92 352.425C1486.15 352.6 1486.36 352.639 1486.54 352.609C1486.98 352.521 1487.2 351.978 1487.41 351.761C1487.54 351.601 1487.63 351.665 1487.78 351.408C1487.92 351.167 1487.94 350.726 1487.83 350.493C1487.73 350.282 1487.58 350.041 1487.39 349.78C1487.14 349.408 1486.85 349 1486.6 348.551C1486.13 347.736 1485.14 347.082 1484.55 346.384C1484.33 346.098 1483.93 345.8 1483.89 345.727C1483.93 345.638 1483.7 345.641 1483.51 345.792C1483.31 345.931 1483.14 346.128 1483.01 346.277C1482.6 346.804 1482.51 346.995 1482.49 347.657C1482.49 348.042 1482.38 348.543 1482.14 348.995C1482.02 349.223 1481.86 349.176 1481.78 348.934C1481.68 348.58 1481.78 348.297 1481.59 348.092C1481.23 347.68 1481.1 347.466 1481.44 347.034C1481.78 346.62 1481.34 346.24 1481.51 345.962C1481.59 345.829 1481.71 345.792 1481.86 345.605C1482.05 345.417 1482.08 345.073 1482.83 344.312C1483.1 344.075 1483.49 343.888 1483.89 343.861C1484.89 343.854 1485.24 344.143 1485.62 344.306C1485.97 344.487 1486.21 344.65 1486.41 344.786C1486.9 345.112 1487.5 346.114 1488.12 346.727C1488.51 347.112 1489.04 347.85 1489.46 348.5C1489.74 348.923 1489.96 349.342 1490.13 349.621C1490.57 350.401 1490.22 350.541 1490.06 351.255Z" fill="#205EA6"/>
</g>
</svg>
