<svg width="1603" height="742" viewBox="0 0 1603 742" fill="none" xmlns="http://www.w3.org/2000/svg">
<g style="mix-blend-mode:multiply">
<path d="M361.015 691.542C362.927 693.846 356.493 698.334 353.6 696.715C352.471 696.083 350.587 695.87 349.415 696.242C347.939 696.71 346.799 696.012 345.707 693.971C344.839 692.35 343.285 690.734 342.252 690.378C339.882 689.563 334.915 681.516 332.15 674.013C330.754 670.223 328.876 667.604 326.647 666.336C322.691 664.086 322.408 663.065 325.47 662.094C328.973 660.982 329.624 654.807 326.676 650.666C325.269 648.69 324.528 646.37 324.952 645.265C325.453 643.961 324.072 641.673 320.728 638.266C316.508 633.966 315.727 632.403 315.539 627.872C315.416 624.939 314.702 621.799 313.952 620.894C313.006 619.755 312.813 615.665 313.324 607.579C313.877 598.816 313.555 593.408 312.03 585.87C309.765 574.675 308.609 553.818 309.197 534.788C309.323 530.729 308.797 525.155 308.028 522.402C306.156 515.699 297.544 507.237 286.9 501.644C279.286 497.643 278.216 496.618 275.24 490.473C273.438 486.752 269.993 481.19 267.586 478.114C265.178 475.038 262.56 470.52 261.769 468.075C259.256 460.314 254.826 452.515 251.806 450.537C250.2 449.484 248.367 446.746 247.734 444.453C246.709 440.742 246.979 439.706 250.186 435.044C253.664 429.99 253.705 429.784 251.355 429.169C245.58 427.659 248.009 419.94 258.374 406.86C265.263 398.167 267.282 391.544 265.373 383.893C264.646 380.977 263.995 377.927 263.926 377.115C263.857 376.303 263.34 375.639 262.775 375.639C262.211 375.639 262.32 374.574 263.017 373.272C263.605 372.172 263.79 371.502 263.411 370.929L265.373 369.502C268.069 371.608 268.63 371.566 271.009 370.007C272.524 369.014 274.592 366.553 275.603 364.539C277.883 359.996 281.726 356.803 284.953 356.768C286.301 356.754 288.653 355.413 290.178 353.789C293.277 350.491 298.732 349.417 296.066 352.63C293.828 355.326 292.549 363.999 293.991 366.694C295.192 368.938 295.288 368.925 297.474 366.226C299.03 364.304 299.343 363.072 298.493 362.222C296.464 360.193 297.075 358.507 300.85 355.717C304.769 352.819 307.801 353.117 311.182 356.73C313.662 359.38 326.901 362.961 330.696 362.009C336.474 360.559 352.087 370.052 357.953 378.582C360.746 382.644 369.669 386.731 373.593 385.746C381.664 383.721 392.73 391.807 395.318 401.623C396.089 404.546 397.251 407.268 397.9 407.673C399.623 408.747 397.042 412.988 391.4 418.356C387.795 421.785 386.934 423.262 387.948 424.276C388.962 425.29 390.629 424.401 394.632 420.711C400.454 415.345 402.397 414.8 405.314 417.717C407.088 419.491 407.034 419.852 404.602 422.441C403.154 423.983 401.131 425.278 400.108 425.319C399.029 425.362 399.465 425.88 401.145 426.551C403.452 427.472 404.656 427.213 407.05 425.278C413.286 420.24 414.752 419.998 420.291 423.092C423.892 425.104 425.335 426.636 425.153 428.256C424.648 432.76 425.71 433.757 428.833 431.711C431.315 430.085 433.017 430.008 441.321 431.145C450.153 432.354 451.31 432.836 455.547 437.074C458.693 440.22 462.232 442.288 466.677 443.581C472.646 445.316 473.294 445.845 474.377 449.865C475.946 455.694 474.107 462.162 469.134 468.306C467.009 470.93 464.405 474.783 463.347 476.868C462.289 478.952 460.039 482.042 458.346 483.735C455.482 486.599 455.322 487.316 456.037 494.117C457.432 507.405 450.932 532.196 444.663 537.497C442.622 539.223 440.875 539.629 437.638 539.127C434.978 538.715 433.009 538.981 432.489 539.822C432.026 540.572 429.447 542.152 426.757 543.334C424.068 544.517 420.065 547.025 417.86 548.907C414.045 552.166 413.918 552.527 415.201 556.417C416.682 560.902 415.685 566.212 412.513 570.741C411.487 572.206 410.648 574.697 410.648 576.277C410.648 577.858 409.416 580.796 407.909 582.806C406.403 584.816 403.498 589.417 401.453 593.031C396.422 601.921 393.397 603.462 386.103 600.847C379.772 598.578 376.397 598.307 376.397 600.068C376.397 600.731 377.659 601.849 379.201 602.552C380.743 603.255 383.147 606.116 384.542 608.909C386.62 613.07 386.84 614.514 385.757 616.891C384.079 620.573 377.664 623.664 371.702 623.664C366.421 623.664 365.111 624.956 366.935 628.364C368.061 630.468 367.304 633.853 365.126 636.448C364.95 636.658 363.101 635.948 361.017 634.871C356.043 632.299 354.282 633.937 356.796 638.799C357.818 640.776 359.762 642.745 361.116 643.175C363.443 643.913 363.468 644.077 361.576 646.167C360.475 647.385 359.903 649.233 360.304 650.279C360.736 651.403 359.774 653.831 357.948 656.225C354.98 660.117 354.937 660.386 356.84 663.29C357.928 664.951 359.625 666.619 360.612 666.998C364.168 668.363 364.758 673.026 362.046 678.342C359.329 683.668 358.912 689.008 361.015 691.542Z" fill="#24837B"/>
<path d="M371.965 702.048C370.54 705.796 372.218 707.995 378.218 710.24C380.343 711.035 383.61 711.464 385.478 711.193C387.345 710.923 390.8 710.659 393.155 710.608L397.436 710.515L393.956 709.251C392.042 708.556 387.309 705.941 383.438 703.439C379.568 700.937 375.673 698.891 374.783 698.891C373.893 698.891 372.625 700.311 371.965 702.048Z" fill="#24837B"/>
<path d="M410.073 693.221C409.294 694.001 408.656 695.064 408.656 695.584C408.656 697.215 411.123 696.617 414.119 694.26C417.336 691.73 416.813 690.97 411.609 690.615C405.778 690.217 403.751 690.557 404.522 691.804C404.924 692.454 404.557 693.001 403.706 693.021C402.834 693.041 403.143 693.628 404.417 694.367C406.2 695.402 406.972 695.27 408.091 693.741C408.87 692.676 409.953 691.804 410.499 691.804C411.044 691.804 410.853 692.442 410.073 693.221Z" fill="#24837B"/>
<path d="M448.577 431.467C451.7 432.171 454.229 434.434 456.185 436.436C459.208 439.488 462.933 441.53 466.958 442.616C468.689 443.122 470.41 443.498 472.228 444.469C474.264 445.472 475.046 447.913 475.501 449.562C477.467 456.23 474.815 463.567 470.252 469.211C468.29 471.73 466.264 474.6 464.682 477.545C463.326 480.093 461.727 482.299 459.659 484.521C459.574 484.608 459.484 484.699 459.397 484.786C457.821 486.325 457.16 487.206 457.139 488.895C457.087 490.548 457.292 492.329 457.44 493.97C458.017 502.796 456.637 508.959 455.187 515.543C453.273 521.978 452.585 529.518 445.299 538.25C443.5 540.056 440.147 540.68 437.486 540.113C437.117 540.057 436.744 540.012 436.371 539.982C435.719 539.929 435.068 539.92 434.474 539.993C434.18 540.029 433.897 540.089 433.678 540.17C433.455 540.246 433.325 540.372 433.35 540.354C431.221 542.603 429.318 543.211 427.169 544.269C424.106 545.686 421.074 547.588 418.522 549.682C417.411 550.648 416.132 551.66 415.654 552.571C415.205 553.299 415.717 554.732 416.154 556.102C417.92 561.548 416.187 567.231 413.3 571.293C412.331 572.731 411.648 574.695 411.592 576.277C411.317 579.261 410.066 581.329 408.65 583.361C406.128 586.857 404.023 590.384 402.252 593.483C400.34 596.834 398.504 599.79 396.017 601.562C391.997 604.266 388.233 602.578 385.768 601.782C384.113 601.169 382.583 600.635 380.991 600.218C380.202 600.015 379.383 599.835 378.581 599.773C378.187 599.743 377.776 599.749 377.486 599.826C377.343 599.862 377.252 599.917 377.231 599.937C377.211 599.957 377.194 599.954 377.186 600.068C377.152 599.942 377.23 600.2 377.384 600.364C377.534 600.548 377.733 600.737 377.953 600.917C378.396 601.279 378.925 601.61 379.506 601.883C381.933 603.312 383.534 605.576 385.169 608.596C385.781 609.85 386.477 611.159 386.92 612.83C387.344 614.278 387.029 615.986 386.431 617.198C382.911 622.979 376.788 624.236 371.702 624.446C370.194 624.456 368.589 624.512 367.534 625.047C367.03 625.337 366.894 625.594 366.937 626.168C366.996 626.727 367.276 627.382 367.605 628.006C369.085 631.258 367.606 634.535 365.668 636.902C365.473 637.119 365.308 637.143 365.216 637.168C365.121 637.188 365.058 637.19 365.003 637.19C364.896 637.19 364.826 637.18 364.755 637.169C364.622 637.148 364.517 637.121 364.411 637.092C364.206 637.036 364.017 636.971 363.833 636.904C363.466 636.769 363.115 636.622 362.765 636.468C362.069 636.16 361.388 635.824 360.709 635.466C359.5 634.839 358.071 634.184 356.948 634.32C355.958 634.319 356.21 636.075 356.783 637.402C356.933 637.773 357.101 638.139 357.302 638.537C358.069 639.991 359.423 641.868 361.273 642.679C361.624 642.794 361.974 642.906 362.352 643.061C362.542 643.141 362.732 643.223 362.953 643.376C363.058 643.452 363.182 643.554 363.286 643.714C363.393 643.871 363.452 644.103 363.437 644.29C363.325 645.003 362.999 645.238 362.752 645.579C362.487 645.899 362.217 646.194 361.94 646.497C361.099 647.422 360.399 648.962 360.74 650.112C361.164 652.767 359.602 654.598 358.294 656.49C357.517 657.527 356.623 658.574 356.127 659.689C355.582 660.765 356.449 661.906 357.179 663.068C358.112 664.448 359.343 665.92 360.751 666.635C362.991 667.405 364.182 669.923 364.113 672.134C364.108 674.392 363.361 676.549 362.367 678.506C360.389 682.5 358.781 687.724 361.284 691.319C362.113 692.278 361.57 693.594 360.993 694.317C360.388 695.105 359.633 695.706 358.831 696.202C357.245 697.123 355.288 697.932 353.425 697.029C352.247 696.418 350.717 696.256 349.527 696.594C348.668 696.913 347.554 696.725 346.879 696.128C346.185 695.559 345.747 694.846 345.366 694.154C344.544 692.694 343.347 691.297 342.117 690.769C339.818 689.555 338.888 687.705 337.813 686.287C335.322 682.598 333.254 678.498 331.648 674.198C330.555 671.274 328.988 668.312 326.395 666.779C325.351 666.154 324.304 665.601 323.382 664.607C323.171 664.346 322.904 664.008 322.918 663.479C322.951 662.935 323.325 662.607 323.596 662.413C324.183 662.017 324.752 661.839 325.33 661.653C329.29 659.936 328.571 653.865 326.401 650.862C325.296 649.143 324.211 647.283 324.695 645.166C325.059 643.901 323.988 642.503 323.217 641.421C322.374 640.306 321.466 639.317 320.586 638.405C320.586 638.405 320.586 638.405 320.586 638.405C317.475 635.387 315.549 632.204 315.562 629.502C315.476 628.39 315.513 627.876 315.545 627.872C315.545 627.872 315.545 627.872 315.545 627.872C315.6 627.873 315.637 628.668 315.821 630.075C316.025 632.882 318.189 635.554 320.844 638.152C321.77 639.084 322.711 640.077 323.589 641.202C324.373 642.335 325.583 643.568 325.176 645.35C324.81 646.993 325.831 648.933 326.924 650.49C328 651.965 328.691 653.776 328.881 655.696C329.168 658.509 328.227 661.663 325.61 662.534C325.019 662.73 324.425 662.957 324.066 663.254C323.888 663.413 323.869 663.487 323.888 663.581C323.908 663.698 324.053 663.909 324.228 664.083C324.976 664.806 325.98 665.368 326.897 665.896C330.053 667.806 331.474 670.852 332.618 673.841C334.579 678.512 336.49 684.73 342.401 689.944C344.116 690.727 345.167 692.116 346.123 693.749C346.787 695.009 347.852 696.33 349.267 695.775C350.163 695.502 351.056 695.52 351.955 695.655C352.604 695.761 353.242 695.937 353.851 696.268C355.23 696.96 357.16 696.217 358.544 695.323C359.901 694.475 361.362 692.757 360.569 691.913C357.502 687.217 359.596 682.062 361.439 678.033C363.291 674.539 364.1 669.113 360.336 667.716C358.345 666.705 357.299 665.302 356.172 663.728C355.804 663.164 355.422 662.614 355.089 661.914C354.736 661.252 354.595 660.13 354.933 659.349C355.566 657.828 356.463 656.86 357.288 655.722C358.455 654.19 359.779 651.87 359.518 650.581C358.963 648.486 359.841 646.961 360.951 645.601C361.201 645.325 361.452 645.046 361.675 644.778C361.893 644.53 362.123 644.156 362.096 644.18C362.09 644.198 362.084 644.301 362.123 644.387C362.16 644.474 362.198 644.498 362.187 644.49C362.169 644.471 362.036 644.394 361.892 644.335C361.595 644.21 361.23 644.093 360.862 643.975C358.5 642.962 357.216 641.212 356.063 639.177C355.672 638.408 355.314 637.62 355.063 636.717C354.877 635.85 354.482 634.685 355.499 633.507C356.684 632.496 357.86 632.892 358.762 633.094C359.691 633.357 360.54 633.745 361.374 634.179C361.494 634.242 361.614 634.304 361.734 634.365C362.338 634.673 362.941 634.961 363.538 635.217C363.836 635.344 364.135 635.464 364.422 635.564C364.565 635.615 364.708 635.66 364.834 635.693C364.894 635.708 364.956 635.721 364.988 635.725C365.002 635.728 365.014 635.727 364.986 635.728C364.954 635.756 364.897 635.637 364.547 635.961C366.38 633.801 367.318 630.744 366.279 628.715C365.881 627.95 365.494 627.168 365.415 626.157C365.256 625.121 366.147 623.913 366.995 623.604C368.688 622.882 370.209 622.929 371.702 622.887C377.019 622.74 382.653 620.625 384.915 616.507C386.159 614.268 384.933 611.964 383.64 609.36C382.506 607.21 380.733 604.672 378.758 603.523C378.116 603.233 377.502 602.881 376.91 602.433C376.614 602.207 376.324 601.96 376.039 601.645C375.777 601.298 375.397 601.047 375.312 600.068C375.308 599.708 375.405 599.242 375.677 598.861C375.946 598.477 376.314 598.246 376.628 598.112C377.27 597.853 377.788 597.836 378.294 597.829C379.283 597.836 380.188 597.999 381.087 598.192C382.884 598.591 384.651 599.163 386.473 599.815C389.071 600.731 392.029 601.577 394.436 600.141C396.874 598.707 398.748 595.663 400.58 592.537C401.657 590.671 402.821 588.775 404.074 586.829C405.104 585.239 406.101 583.72 407.192 582.268C408.55 580.431 409.667 578.123 409.803 576.277C409.935 573.916 410.691 572.043 411.844 570.273C414.957 565.891 415.812 560.725 414.432 556.671C414.027 555.226 413.082 553.486 414.086 551.592C415.058 550.019 416.234 549.232 417.3 548.252C420.205 545.842 423.131 543.994 426.366 542.443C428.241 541.582 430.613 540.292 431.584 539.263C432.754 537.805 433.883 537.993 434.871 537.848C435.878 537.792 436.847 537.868 437.812 538.003C440.146 538.355 442.119 538.2 443.866 536.555C449.366 530.265 452.475 518.955 454.342 504.856C454.71 501.369 454.903 497.771 454.547 494.274C454.368 492.403 454.106 490.587 454.205 488.447C454.256 487.389 454.565 486.084 455.23 485.075C455.876 484.07 456.608 483.365 457.287 482.675C459.072 480.828 460.8 478.476 462.019 476.193C463.77 472.961 465.764 470.183 467.991 467.38C472.008 462.518 474.633 456.126 473.011 450.233C472.533 448.463 472.163 447.229 470.98 446.607C469.732 445.894 467.963 445.408 466.293 444.903C461.877 443.645 457.735 441.222 454.61 438.011C451.119 433.658 446.344 433.133 441.15 432.393C436.868 431.949 432.293 430.618 429.496 432.723C428.875 433.119 428.259 433.499 427.406 433.768C426.974 433.89 426.459 434.012 425.781 433.847C425.094 433.692 424.517 433.091 424.296 432.612C423.538 430.713 423.888 429.476 423.978 428.124C424.206 426.857 421.627 425.166 419.725 424.105C417.36 422.78 415.17 421.686 413.289 422.484C411.315 423.239 409.468 424.823 407.767 426.165C407.041 426.745 406.303 427.313 405.371 427.745C403.92 428.509 401.948 428.164 400.719 427.617C400.282 427.44 399.852 427.263 399.361 426.969C399.235 426.891 399.105 426.808 398.945 426.674C398.864 426.604 398.776 426.526 398.662 426.379C398.569 426.232 398.338 426.009 398.375 425.401C398.403 425.108 398.564 424.824 398.712 424.672C398.86 424.516 398.987 424.442 399.089 424.387C399.296 424.284 399.414 424.259 399.532 424.231C399.752 424.184 399.909 424.175 400.061 424.168C400.936 424.037 402.696 422.798 403.756 421.646C404.378 420.978 405.111 420.199 405.343 419.71C405.393 419.601 405.38 419.585 405.382 419.606C405.385 419.627 405.38 419.575 405.302 419.457C405.148 419.219 404.82 418.876 404.487 418.544C401.999 415.114 398.597 418.84 395.439 421.586C394.445 422.501 393.434 423.416 392.294 424.286C391.715 424.718 391.125 425.146 390.344 425.507C389.952 425.678 389.493 425.856 388.872 425.866C388.251 425.894 387.489 425.55 387.099 425.125C386.742 424.788 386.382 424.17 386.355 423.547C386.32 422.929 386.492 422.458 386.662 422.076C387.017 421.321 387.443 420.793 387.873 420.27C388.734 419.25 389.642 418.364 390.566 417.479C392.117 415.997 393.623 414.44 394.955 412.768C395.613 411.938 396.24 411.062 396.703 410.187C396.931 409.753 397.118 409.302 397.182 408.955C397.216 408.786 397.207 408.653 397.2 408.638C397.185 408.62 397.254 408.721 397.254 408.71C396.891 408.469 396.779 408.296 396.644 408.134C396.52 407.973 396.425 407.828 396.336 407.685C396.161 407.399 396.019 407.125 395.886 406.854C395.622 406.312 395.398 405.773 395.191 405.233C394.777 404.149 394.431 403.054 394.134 401.935C391.848 393.62 382.899 385.331 373.888 386.921C366.902 387.373 361.375 384.286 356.983 379.248C356.553 378.619 356.07 377.99 355.569 377.39C349.5 370.701 340.193 363.341 330.974 363.117C323.346 363.415 317.022 361.881 310.334 357.524C309.095 356.2 307.649 355.097 306.142 354.95C304.641 354.774 303.019 355.569 301.55 356.664C300.499 357.449 299.437 358.311 298.854 359.186C298.567 359.63 298.494 359.946 298.561 360.232C298.622 360.535 298.919 360.973 299.334 361.381C299.769 361.791 300.13 362.511 300.143 363.173C300.169 363.834 299.991 364.36 299.803 364.803C299.41 365.683 298.91 366.341 298.403 366.978C297.807 367.673 297.449 368.308 296.401 369.144C296.241 369.252 296.045 369.376 295.73 369.461C295.423 369.553 294.947 369.529 294.627 369.376C293.988 369.056 293.847 368.746 293.662 368.514C293.338 368.04 293.147 367.657 292.931 367.261C291.288 361.506 292.231 356.82 295.131 351.854C295.341 351.605 295.522 351.325 295.563 351.208C295.596 351.154 295.512 351.181 295.606 351.496C295.656 351.644 295.792 351.796 295.878 351.85C295.973 351.912 296.014 351.916 296.019 351.919C296.016 351.907 295.688 351.914 295.407 351.986C295.111 352.053 294.793 352.16 294.479 352.288C293.216 352.808 291.998 353.635 291.066 354.623C289.393 356.233 287.832 357.624 284.966 357.984C281.564 358.175 278.404 361.662 276.678 365.079C275.4 367.428 273.931 369.352 271.661 371.001C270.754 371.514 269.736 372.521 267.881 372.262C266.277 371.869 265.545 371.069 264.652 370.425L266.061 370.449C265.405 370.924 264.749 371.397 264.094 371.869L264.38 370.288C264.866 370.96 264.809 371.953 264.631 372.458C264.461 373.012 264.244 373.418 264.033 373.816C263.852 374.151 263.699 374.501 263.616 374.804C263.574 374.949 263.556 375.1 263.559 375.118C263.553 375.122 263.579 375.082 263.472 374.892C263.385 374.684 262.935 374.463 262.775 374.497C263.384 374.499 263.863 374.79 264.167 375.079C264.765 375.665 264.989 376.336 265.055 377.02C265.339 379.014 265.908 381.393 266.443 383.626C268.917 391.939 264.63 400.939 259.154 407.478C256.441 410.887 253.802 414.426 251.671 418.233C249.737 421.682 247.31 427.438 251.578 428.317C251.896 428.403 252.223 428.487 252.596 428.631C252.788 428.708 252.995 428.796 253.236 428.978C253.472 429.149 253.75 429.507 253.818 429.883C253.931 430.632 253.696 430.994 253.56 431.346C253.402 431.692 253.23 431.989 253.055 432.282C252.353 433.431 251.618 434.461 250.885 435.525C248.868 438.385 247.179 440.955 248.508 444.239C249.143 446.394 250.525 448.646 252.229 449.892C257.906 455.005 260.21 461.653 262.417 467.865C263.734 471.446 265.885 474.807 268.08 477.727C271.215 481.915 273.708 486.12 275.742 490.23C277.84 495.86 282.216 498.73 286.256 500.768C286.551 500.926 286.823 501.072 287.118 501.229C298.539 507.643 305.55 514.297 308.335 522.316C309.317 526.448 309.561 530.475 309.499 534.798C309.296 541.869 309.252 549.728 309.761 560.377C310.171 567.926 310.693 576.781 312.394 585.796C313.914 592.837 314.173 600.368 313.588 607.596C313.419 612.103 312.546 616.896 314.06 620.804C314.208 620.988 314.314 621.191 314.409 621.393C315.971 626.006 315.451 628.139 315.488 627.851C315.312 627.656 315.633 624.806 313.789 621.029C313.396 620.538 313.254 619.94 313.126 619.344C312.494 615.183 312.868 611.243 313.037 607.561C313.688 598.708 312.872 591.282 311.604 585.956C311.497 585.483 311.39 584.98 311.297 584.537C308.582 569.265 308.169 562.631 308.253 543.111C308.305 540.097 308.377 537.331 308.461 534.766C308.545 530.123 308.129 525.997 307.241 522.622C304.918 516.199 300.291 512.36 295.554 508.445C292.368 505.981 290.244 504.527 286.477 502.448C283.617 500.647 277.533 498.759 274.507 490.828C272.766 487.329 270.362 483.146 266.941 478.618C264.78 475.754 262.587 472.572 260.964 468.335C259.559 464.123 257.6 459.514 254.618 455.025C253.631 453.59 252.518 452.136 251.3 451.31C248.915 449.533 247.638 447.268 246.813 444.707C246.325 443.059 245.888 440.853 246.708 439.01C247.437 437.234 248.436 435.877 249.366 434.48C250.103 433.393 250.852 432.319 251.469 431.281C251.619 431.024 251.761 430.764 251.857 430.541C251.967 430.329 251.954 430.087 251.973 430.296C251.996 430.402 252.095 430.496 252.082 430.481C252.075 430.475 251.996 430.432 251.892 430.394C251.683 430.315 251.389 430.237 251.095 430.161C249.746 429.847 248.227 428.9 247.648 427.411C247.062 425.962 247.219 424.539 247.469 423.308C248.027 420.823 249.101 418.722 250.202 416.732C252.447 412.781 255.002 409.353 257.497 406.165C263.345 399.053 266.318 391.061 264.215 384.182C263.632 381.795 263.081 379.684 262.718 377.218C262.706 377.068 262.648 376.917 262.593 376.84C262.538 376.748 262.51 376.836 262.775 376.857C262.365 376.903 261.643 376.529 261.444 376.103C261.217 375.697 261.211 375.425 261.196 375.201C261.186 374.761 261.258 374.464 261.332 374.175C261.487 373.611 261.7 373.143 261.937 372.694C262.118 372.353 262.278 372.013 262.344 371.779C262.378 371.664 262.381 371.588 262.379 371.583C262.374 371.576 262.393 371.626 262.383 371.607L261.733 370.63L262.687 369.933C263.35 369.448 264.003 368.971 264.646 368.501L265.396 367.953L266.135 368.527C266.961 369.175 267.909 369.844 268.346 369.881C268.634 369.991 269.504 369.511 270.322 368.958C271.686 368.001 272.955 366.438 273.881 364.996C274.091 364.663 274.292 364.317 274.466 363.968C276.293 360.66 278.974 356.168 284.939 355.496C286.07 355.421 288.044 354.217 289.259 352.925C290.432 351.694 291.83 350.729 293.453 350.04C294.305 349.729 295.04 349.345 296.45 349.494C296.792 349.559 297.445 349.731 297.831 350.453C298.171 351.173 297.986 351.699 297.881 352.027C297.63 352.679 297.326 353.042 297.02 353.422C294.99 356.477 293.909 362.458 295.05 366.127C295.25 366.502 295.454 366.887 295.624 367.136C295.691 367.255 295.822 367.316 295.603 367.188C295.492 367.126 295.247 367.106 295.141 367.141C295.029 367.17 295.021 367.19 295.041 367.175C295.363 366.947 296.024 366.123 296.551 365.479C296.991 364.938 297.399 364.367 297.624 363.861C297.736 363.612 297.783 363.387 297.776 363.285C297.765 363.183 297.771 363.175 297.662 363.053C297.119 362.495 296.52 361.811 296.266 360.772C296 359.71 296.405 358.61 296.874 357.919C297.848 356.504 299.013 355.659 300.162 354.786C301.809 353.585 303.907 352.395 306.364 352.645C308.812 352.917 310.611 354.471 312.013 355.953C316.844 359.197 324.784 361.255 330.42 360.909C334.034 360.281 336.815 361.631 339.51 362.72C345.913 365.723 353.225 370.263 358.934 377.907C361.943 381.675 368.304 385.023 373.3 384.58C384.112 382.776 393.572 391.486 396.492 401.313C396.765 402.346 397.089 403.37 397.466 404.356C397.654 404.847 397.857 405.333 398.076 405.782C398.184 406.005 398.299 406.222 398.413 406.407C398.469 406.498 398.525 406.582 398.57 406.639C398.605 406.693 398.677 406.735 398.543 406.641C399.029 406.923 399.448 407.513 399.564 408.044C399.693 408.578 399.647 409.021 399.578 409.403C399.427 410.168 399.152 410.754 398.862 411.316C398.277 412.42 397.581 413.374 396.865 414.281C395.42 416.092 393.851 417.707 392.243 419.243C391.348 420.099 390.471 420.962 389.733 421.838C389.369 422.273 389.035 422.73 388.873 423.089C388.79 423.265 388.777 423.394 388.782 423.386C388.788 423.372 388.74 423.319 388.818 423.406C388.903 423.471 388.805 423.422 388.866 423.435C388.926 423.438 389.134 423.39 389.356 423.286C389.816 423.076 390.341 422.716 390.843 422.336C391.854 421.565 392.837 420.68 393.792 419.8C395.487 418.263 397.091 416.743 399.183 415.551C400.21 414.983 401.641 414.461 403.101 414.84C404.53 415.219 405.435 416.08 406.206 416.825C406.577 417.204 406.96 417.557 407.362 418.163C407.558 418.47 407.774 418.906 407.809 419.442C407.848 419.978 407.688 420.45 407.529 420.78C406.849 422.031 406.176 422.585 405.532 423.315C403.977 424.799 402.846 426.088 400.16 426.612C400.093 426.614 400.033 426.625 400.056 426.621C400.072 426.615 400.105 426.618 400.239 426.547C400.311 426.506 400.416 426.445 400.547 426.29C400.683 426.137 400.815 425.834 400.815 425.574C400.796 425.04 400.628 424.946 400.595 424.877C400.545 424.817 400.533 424.811 400.533 424.81C400.537 424.813 400.588 424.85 400.647 424.884C400.898 425.034 401.271 425.199 401.628 425.339C402.776 425.791 403.496 425.877 404.244 425.546C404.873 425.28 405.559 424.767 406.209 424.238C408.654 422.341 410.741 420.314 413.9 419.762C417.17 419.452 419.178 421.02 420.953 421.907C422.22 422.626 423.384 423.345 424.447 424.268C425.444 425.139 426.677 426.553 426.451 428.401C426.282 429.64 426.263 431.134 426.491 431.519C426.538 431.576 426.402 431.465 426.386 431.484C426.375 431.494 426.544 431.495 426.743 431.431C427.158 431.307 427.674 431.03 428.178 430.712C431.971 428.135 436.37 429.57 441.456 430.152C443.57 430.483 445.906 430.765 448.577 431.467ZM390.92 706.773C391.95 707.53 393.273 707.335 394.467 707.843C394.531 707.868 394.595 707.895 394.66 707.924C396.086 708.567 396.226 709.071 397.773 709.585L397.457 711.503C397.367 711.508 397.272 711.514 397.173 711.522C395.663 711.639 394.147 711.483 393.174 711.525C392.94 711.535 392.735 711.559 392.574 711.603C391.757 711.826 391.642 711.247 390.467 711.446C389.295 711.65 388.578 711.631 387.53 711.541C387.114 711.506 386.353 711.509 385.534 711.583C384.199 711.701 382.761 711.543 382.03 711.596C380.808 711.684 379.544 710.987 378.81 710.651C378.576 710.548 378.404 710.445 378.275 710.353C378.221 710.314 378.207 710.268 378.22 710.234C378.22 710.234 378.22 710.234 378.22 710.234C378.236 710.19 378.294 710.164 378.372 710.186C378.752 710.293 379.337 710.398 380.045 710.392C381.354 710.351 381.434 710.741 383.168 710.735C384.033 710.711 384.724 710.586 385.366 710.423C386.112 710.242 386.896 710.129 387.942 710.138C389.963 710.173 390.427 709.323 393.133 709.612C393.24 709.625 393.35 709.64 393.464 709.656C395.445 709.945 396.222 709.624 397.41 709.327L397.031 711.631C396.442 711.557 395.766 711.443 394.858 711.155C394.398 711.009 393.924 710.84 393.445 710.657C390.779 709.54 388.61 707.824 387.276 707.117C386.021 706.432 384.418 705.561 382.778 704.461C382.387 704.199 381.99 703.929 381.591 703.654C379.662 702.322 376.436 700.765 374.76 700.029C374.766 700.029 374.774 700.028 374.783 700.027C374.902 699.982 374.687 699.996 374.49 700.129C374.282 700.254 374.051 700.453 373.834 700.683C373.397 701.145 373.006 701.732 372.717 702.334C372.045 703.67 371.969 704.969 372.268 705.738C372.896 707.213 373.394 707.535 374.847 708.316C375.717 708.75 376.917 709.352 377.911 709.981C378.416 710.298 378.232 710.406 377.656 710.268C376.809 710.062 376.189 709.702 375.693 709.693C374.71 709.667 374.243 709.625 373.377 708.761C372.55 707.885 371.763 707.829 371.328 707.124C371.132 706.77 371.098 706.555 370.927 705.973C370.785 705.404 370.465 704.336 370.861 702.509C370.921 702.228 370.993 701.963 371.071 701.708C371.406 700.646 371.869 699.808 372.409 699.122C372.981 698.47 373.496 697.794 374.783 697.676C375.39 697.697 375.555 697.793 375.813 697.858C376.042 697.928 376.24 697.998 376.422 698.064C377.724 698.531 379.914 700.037 381.736 701.022C382.373 701.363 383.212 701.866 384.092 702.427C385.691 703.447 387.514 704.534 388.5 704.977C390.012 705.653 389.84 705.963 390.92 706.773ZM409.163 689.553C409.995 689.775 410.706 689 411.711 689.121C411.749 689.126 411.788 689.131 411.827 689.139C412.906 689.35 413.002 689.807 414.283 689.891C414.938 689.959 415.574 690.1 416.28 690.576C416.622 690.792 417.066 691.378 417.04 691.929C417.03 692.452 416.879 692.702 416.829 692.909C416.555 693.69 416.072 693.316 415.575 693.976C415.235 694.401 414.929 694.64 414.572 694.836C414.388 694.936 414.193 695.022 413.968 695.108C413.312 695.392 411.478 696.335 410.763 696.758C410.414 696.993 409.939 697.068 409.467 696.953C408.986 696.861 408.584 696.404 408.548 696.09C408.502 695.897 408.534 695.747 408.571 695.648C408.588 695.604 408.626 695.584 408.663 695.584C408.663 695.584 408.663 695.584 408.663 695.584C408.709 695.584 408.754 695.613 408.762 695.661C408.785 695.897 409.029 696.214 409.358 696.099C409.941 695.854 410.115 696.153 411.038 695.614C411.937 695.013 412.288 694.407 413.427 693.815C413.511 693.771 413.587 693.723 413.658 693.674C414.096 693.364 414.267 693.007 414.489 692.646C414.599 692.466 414.719 692.284 414.857 692.117C414.926 692.033 414.995 691.955 415.051 691.904C415.113 691.853 415.113 691.854 415.185 692.008C415.29 692.184 415.378 692.128 415.306 692.064C415.249 692.001 415.132 691.944 415.018 691.913C414.783 691.85 414.533 691.865 414.295 691.909C413.799 691.997 413.308 692.185 412.408 692.163C412.124 692.157 411.822 692.137 411.507 692.107C409.875 691.95 408.123 691.543 407.232 691.606C406.765 691.636 406.221 691.691 405.741 691.794C405.516 691.836 405.258 691.947 405.323 691.919C405.342 691.905 405.393 691.87 405.46 691.771C405.526 691.678 405.583 691.513 405.585 691.389C405.582 691.128 405.518 691.126 405.546 691.171C405.713 691.462 405.884 691.854 405.854 692.383C405.84 692.976 405.387 693.609 404.942 693.84C404.496 694.096 404.093 694.15 403.733 694.167C403.697 694.168 403.672 694.18 403.734 694.168C403.768 694.159 403.827 694.148 403.946 694.073C404.059 694.005 404.264 693.806 404.338 693.533C404.45 692.962 404.262 692.873 404.269 692.834C404.249 692.8 404.269 692.823 404.302 692.849C404.446 692.97 404.741 693.155 405.028 693.315C405.482 693.575 405.923 693.794 406.155 693.891C406.324 693.951 406.359 694.014 406.601 693.916C406.832 693.817 407.139 693.546 407.419 693.249C408.259 692.336 409.183 691.684 409.963 691.452C410.129 691.406 410.297 691.372 410.499 691.387C410.646 691.403 410.846 691.435 411.017 691.621C411.185 691.814 411.173 692.028 411.151 692.145C411.098 692.392 411.005 692.521 410.92 692.659C410.746 692.924 410.568 693.152 410.31 693.458C410.252 693.528 410.191 693.605 410.129 693.69C409.776 694.18 409.227 694.795 408.819 695.379C408.722 695.527 408.662 695.601 408.595 695.58C408.529 695.559 408.471 695.41 408.496 695.197C408.584 694.575 408.927 694.231 408.925 693.867C408.939 693.262 409 692.924 409.448 692.597C409.52 692.551 409.602 692.507 409.697 692.46C409.98 692.322 410.04 692.071 409.965 691.982C409.938 691.949 409.822 691.939 409.841 692.235C409.852 692.379 409.976 692.603 410.124 692.708C410.271 692.818 410.384 692.837 410.44 692.837C410.471 692.837 410.487 692.832 410.499 692.827C410.736 692.747 410.255 692.327 409.214 693.783C409.089 693.969 408.979 694.149 408.884 694.321C408.431 695.083 407.819 695.894 406.791 696.156C405.791 696.373 405.201 696.101 404.784 695.976C404.483 695.87 404.14 695.68 403.791 695.447C403.466 695.228 403.119 694.986 402.717 694.589C402.614 694.483 402.507 694.37 402.384 694.194C402.282 694.004 402.04 693.812 402.084 693.1C402.119 692.744 402.378 692.376 402.589 692.228C402.802 692.067 402.972 692.013 403.098 691.974C403.361 691.902 403.524 691.899 403.68 691.892C403.758 691.889 403.809 691.866 403.792 691.857C403.789 691.844 403.623 691.894 403.531 692.133C403.449 692.376 403.538 692.485 403.501 692.435C403.362 692.196 403.159 691.886 403.16 691.294C403.154 690.674 403.627 690.105 403.935 689.917C404.573 689.509 404.978 689.476 405.378 689.386C406.151 689.247 406.759 689.212 407.167 689.141C408.291 688.962 408.287 689.329 409.163 689.553Z" fill="#24837B"/>
</g>
</svg>
